<mxfile host="app.diagrams.net" modified="2024-01-22T14:02:01.818Z" agent="Mozilla/5.0 (Macintosh; Intel Mac OS X 10_15_7) AppleWebKit/605.1.15 (KHTML, like Gecko) Version/16.1 Safari/605.1.15" etag="j-WQtkLQDH0z9HQBW24s" version="22.1.21" type="github">
  <diagram name="Page-1" id="n_7SwRn_G-9Y9atf_V0Y">
    <mxGraphModel dx="968" dy="661" grid="1" gridSize="10" guides="1" tooltips="1" connect="1" arrows="1" fold="1" page="1" pageScale="1" pageWidth="827" pageHeight="1169" math="0" shadow="0">
      <root>
        <mxCell id="0" />
        <mxCell id="1" parent="0" />
        <mxCell id="IYLMW8nf5ji0C1QZCW6s-1" value="" style="rounded=1;whiteSpace=wrap;html=1;" vertex="1" parent="1">
          <mxGeometry x="40" y="120" width="140" height="360" as="geometry" />
        </mxCell>
        <mxCell id="IYLMW8nf5ji0C1QZCW6s-2" value="" style="shape=image;verticalLabelPosition=bottom;labelBackgroundColor=default;verticalAlign=top;aspect=fixed;imageAspect=0;image=data:image/png,iVBORw0KGgoAAAANSUhEUgAAAtAAAALQCAYAAAC5V0ecAAAABHNCSVQICAgIfAhkiAAAAAlwSFlzAAALuQAAC7kB7PX68wAAABl0RVh0U29mdHdhcmUAd3d3Lmlua3NjYXBlLm9yZ5vuPBoAAAAOdEVYdFRpdGxlAHRlbXBsYXRlNJbIBQAAABN0RVh0QXV0aG9yAEJlYXRlIEthc3Bhcg7DR0QAAABmdEVYdERlc2NyaXB0aW9uAHVzZXMgPGh0dHA6Ly93ZWJjdnMuZnJlZWRlc2t0b3Aub3JnL3RhbmdvL3RhbmdvLWljb24tdGhlbWUvc2NhbGFibGUvYWN0aW9ucy9lZGl0LWNvcHkuc3ZnPoyZcfwAAAAXdEVYdENyZWF0aW9uIFRpbWUASnVseSAyMDA4LHtC7gAAAFJ0RVh0Q29weXJpZ2h0AENDIEF0dHJpYnV0aW9uLVNoYXJlQWxpa2UgaHR0cDovL2NyZWF0aXZlY29tbW9ucy5vcmcvbGljZW5zZXMvYnktc2EvMy4wL16DWrwAAL7uSURBVHja7L0HgCPHeef7NeIEYPLubCY3cMnlckkuMykGK1ESKUuyJcuygnU+P53sc9D5dBRt+qzn57N0pCXndPY7K9GWfcqSJVFiUKLETIpxyc15dzZNxgRggL6qajTQDXSoTkjz/0lFAIPeBroG6P7VN199paiqSgAAAAAAAAA5YugCAAAAAAAAINAAAAAAAABAoAEAAAAAAIBAAwAAAAAAAIEGAAAAAAAAAg0AAAAAAAAEGl0AAAAAAAAABBoAAAAAAAAINAAAAAAAABBoAAAAAAAAINAAAAAAAABAoAEAAAAAAIBAowsAAAAAAACAQAMAAAAAAACBBgAAAAAAAAINAAAAAAAABBoAAAAAAAAINAAAAAAAABBodAEAAAAAAAAQaAAAAAAAACDQAAAAAAAAQKABAAAAAACAQAMAAAAAAACBBgAAAAAAAAKNLgAAAAAAAAACDQAAAAAAAAQaAAAAAAAACDQAAAAAAAAQaAAAAAAAACDQAAAAAAAAQKDRBQAAAAAAAECgAQAAAAAAgEADAAAAAAAAgQYAAAAAAAACDQAAAAAAAAQaAAAAAAAACDS6AAAAAAAAAAg0AAAAAAAAEGgAAAAAAAAg0AAAAAAAAECgAQAAAAAAgEADAAAAAAAAgUYXAAAAAAAAAIEGAAAAAAAAAg0AAAAAAAAEGgAAAAAAAAg0AAAAAAAAEGgAAAAAAAAg0OgCAAAAAAAAINAAAAAAAABAoAEAAAAAAIBAAwAAAAAAAIEGAAAAAAAAAg0AAAAAAAAEGl0AAAAAAAAABBoAAAAAAAAINAAAAAAAABBoAAAAAAAAINAAAAAAAABAoAEAAAAAAIBAowsAAAAAAACAQAMAAAAAAACBBgAAAAAAAAINAAAAAAAABBoAAAAAAAAINAAAAAAAABBodAEAAAAAAAAQaAAAAAAAACDQAAAAAAAAQKABAAAAAACAQAMAAAAAAACBBgAAAAAAAAKNLgAAAAAAAAACDQAAAAAAAAQaAAAAAAAACDQAAAAAAAAQaAAAAAAAACDQAAAAAAAAQKDRBQAAAAAAAMiTQBeAqLnnEx/nA7WtrF1TbteydjFrcfQOAKCFUFkbZ20fa/tZO8zaAUPLsaYYWszmsfGWt+Kdd9x1FN0LQOegqKqKXgBRivNHWLuLtSx6BACwjDnB2qOsPVJuzzCpzqNbAIBAA2CU543s5l7WXoXeAACAOhZZe7os0w+x9gAT6iK6BQAINFi+8vwr7OYvCVFnAACQ5SRr/8zaZ5hI70J3AACBBstHnHnO3xdZezt6AwAAfPMkF2nW/pXJ9AS6AwAINOhsgf4NdvM36AkAAAgFnubxddY+y9p9TKZxwQYAAg06TJ43sJuXWMugNwAAIHSeY+1jrH2ZiXQJ3QFAc0EdaBAW/wB5BgCAyLiMtS+w9tI9n/j4e1lDGVAAmggi0CAw7ET+y6T9iREAAEBj4HWq7+bn3jvvuKuA7gAAAg3aS575xMHTrI2gNwAAoOHwBVruYe2fmEgvoDsAgECD9hDoLexmL3oCAACayhhrv8/apzHZEIDoQQ40CMpOdAEAADSdVaz9E2tP3POJj1+P7gAAAg1amyvQBQAA0DJcxdpPmETfy9oadAcAEGjQmlyJLgAAgJaCz015L2t7mETfxVoaXQJAyF8y5ECDILATM19+dpXXf7dx4ya67NLLqCvd5et16z+24X6Og3wvFEVxvba5biL243RttH9Y+wPF5XmLf+HyfhQf71m2b8r7V9zcwO61pI5E+v3Wb+O/b7SnFM/9Y/4squWPulr5DqiVn+lPqYZvg36/+u+qm6um75LxdfT71T2ZXsC4q8oO6l5bNb+2Smrd99X6GAzb17wemY6s/ngqh2B8beOxqWTRM9XXXlxcpNnZWdFyszmazWm3+Xw+3AtvTCG11NBr7wHWPnznHXd9DVctACDQoDUEepLd9Hv9d7ff9rO0ft26EEQ3SokOts9gIi0jeW7bKJ4k2rskK76PPfggQwmtb6QHGUqY/ef9+XrBNYtlVWpVs0RKSK3xs16RZ7VGw23FXfJ16sTd/nXs5Nl0jGqNBqs+jlFS3CcnJujosWN0/NhxmpubC3xuWblypfgVcznn+2vgdfgh1n6LifTLuHoBAIEGbSjQ73j7O2lkeCQU6Y0+Gh2lSDdWBFtJFFtNpL33b3MGIfXyVyO1YcuzXWRaQtyr7htMap3F3eK1jcJuE402vXadPNu/zsT4BB0ry/T8/Lyvc8Lg0CD19/WJ/RWLJZrLzVEuN0uLi/lGnLZ5qbuPsvZnTKSLuIoB4A/kQINmj+FcJctdUK3ERgnvHSqyqQfkKDw2z5rkwO5564GC+Xn7wYT5+fqovVo3YKhuo9oOKqoC4rSNGqBvdHFy6z9y6T+S6r/6viGJvlED9I3zwEyPMtuJtSIGF0p5kKGUM1+UcqZI+Z6iPVf9GZl+rg9QlMpApLq/yuvU3K+8jlJ5F9rPal+n/MWs/Ex/HYXMr23ct/G4FIdjVIzHWPPaiuEYa39GVq9t2I/daxteZ4jJ745Ld9Ab3/RGuvmWm2loeMjzOWGpsFR5//F4jDLZDK0cHaXVq1dRX1+WYrFIL808b+5PSJtoeBGuQQBAoEHbi3Rw0Q17n/Xi4m+fXIbcRNBa4OpFMSwRdHrevI2zCDqJtpMIyveNvo37IMRf37iJturSf6pE/5FD/8kMQtS6z6Kt1CqSUquLsq3U1ou0rLjXybMfcSc/4q7Yy3Ptaxvu6/url2dyGJwQDY8M06WXXur5fFAo5CvHqhjeTyKZpP7+fiHS/DZikb6WtZ8yif4IlgUHAAIN2kWXbf9cjmi0/2i0NxFsTjRa9dk3+iAjaP+RyyDDbzTafhASTjTa+vn6qG1NNNVJamvum6XWJjosKe4UtrgrsuJODvJc89pGea6JRju+do24Z/uyns8D+Xyh+l5rJJrf4eKc7cvQqrJIx+OR+S2PRvNVDHk0ehuuTABAoEHbSnR4Il2/zzDfe9TRaDXiaLSbaFsJXDgi6HTswaPRRLLRaPuBSNBBRhCRDhiNJmupNQtufVqHWWrl0joaKu7kLu518kyKjTxTzc8cUkokotHJRJJ6eno8nQNKpRKViiVHieb/i8WUcnrHyqhFWo9G34loNAAQaNAmEi1dri3wvqOKRvsXaZctpKPR3kUwGlGsSqlMtDmISKshpHW49U3QtA5yGYiQr/6zG4TYSa1brnK91ErmKjdL3BWnY7R5bVt5VhzE3SUabXgdP1HoQqFQPjZriTY+5hHp3kyvqN7R398XVWoHrxV9N2uPMIm+GFcnACDQoE1E2l6ioxDpsN97M6PRUU8yJBeRJodtWnmSYdBoNFGrTTK0ziH2OcmQ5CcZNlTcbScZ2ok7OcgzSUwytJJn82v3ZX2mcVT6sl6iLaU6plBvLxfpFUKog6STOXANa88wif4wawoBACDQoPUlOqpodL2kt140unUnGcpMkuvkSYZhRKOjnmRI9iIdWeUMxTYa3ZDqIHXRYUVqkqGtPFtOMrSIRlukdWT7+jx/5/lEQmOai6xE6znSXNpHRkYonY5kkUG+00+y9g0m0UMEAIBAg/YQaXuJxiRDTDJ0GmS0ask7olYveeetckZNJDfMknckJ+5+Jhk6lrxTyEHcndM6+vs8l8Ivp3CQb4kWVTsScVFTemBwIKr86DeTlht9Ha5MAECgQZtINCYZOotiZ5a8cxfFTi15Jz8BM/ySd4qnyhl2E/AaUfLOxyRDmZJ3tfLsUPLO6nX6+r1FoEdGVlCppJql2Uqi3XKky8fT1dUlSuplMpko0jo2sPYjJtH/FVcmACDQoGNEOsx9t1M0mqj1o9HRVKOQ7xu5aH7QSYayaR/ykwzdjl1WtK0GdbIT8BTHXOWwSt7VTTKUEHdPkwylSt4pFvJc89ouaR2pVMpTBHhoaIg2bdws8pkdJdp4fHaR6XLjaR2ZTC+T82Eh1CGTZO1PmUR/nbVBXJkAgECDNhJpe4lGNLrVSt41YpJhWCXv7AcZrT7J0HulE/tcZWp4ybu66LCkuFOoJe+Mcq0EmmSYTCalv9eFfF4I9/DQChpduUrkMTtLNFlItPn3oz/m++WVOgYGBigWD/0S/xbSJhheg6sSWO4k0AXAJzex9p5EItG9tLTkRyt9i661yCiOMuF934qjAPrbv+IaPXSSIedoNhdFxWZAoFaOST8+620UUx+Yt3F6XrX8nfLttG1U29+5eRvF4djJ8XmjQFn3DVVF0Vai/faf+fiqx2TfP+Zt1AB9w7dx7l/+72v7Rn+sf67EK5T/w/tBfJvYfXGPD0K4pOm35R1r97nJK5Vtq+9Hqe7b8NkV98vSqh+fyt8f73tF3BPvQy2vx2J6bf33V3m+/Nqkv47xe6wfl75vsj/G2tfWf791x0iG52uPkSiZStLCwoLU95lX4CiVP9dd6S4m0aspl5ulyakJWloqlt+n4dNR/U/101A+YLvH6XSKhpPDNDM7QwvzC2Ge+8+PxWKPPvS9Bx577Wte/0IHXMvmWEN6CoBAg4axnbUP8miHP4H2L72K4iTRwaS3cSLtT6LdRFEXQSdRJFIsJM+7CMqItHkb1UHy/Img90GGW//Z9U39IMKfaDv1jfUgRK5vqlLnZRBSEVw7qSVdYK2lVhxr+ecVeXaRWmvBjUjc9eMyirSjuNe8tkmea35mOkaVUsmU9Hc5zytwlP86oieJ9PZmqLu7h6ZnpmhmelostmKSZh8SzctF92X7RIR7ZnpG22cIsP3Ennr6yRump6dvuO1Nb46qEkijmIJAAz8ghQM0GX/pDY0teRfOPusjgJ1Y8s56sLF8St6Z339rlrzzPslQrnKGx+W5qZkl7zxOMtR/5jDJkOdBy8JTOKojMdIzU8TKg7yix6pVa7T8aIvVCevTOVwes7vpVJqGhodCz43es3c3ffbeT9P4xDguZQACDUDzRNqf6FqLNEreoeQduQwygvYfuQwyWrXknfXzDV+eu1ni7nmSITmUvKv8K5HCIYuIQDP0NA5TvjNpecyDg8O0cuWokF9XiVbcJTqmxMSKiWGvZDjB5Pnef/4MHT5yCJcxAIEGoHkS7V+kw96n/b4xydBJpJ1E0bxN8JJ3jZhkKNM39gMR79HoRkwylIpGk4fKGQbBDWuSYWTiTn7K+rlNMlS8pXCUI9C8lB1VY+rV+2WpTjF5XrlilIaYTPOaz4pdTWiSk2jxPtNpGhoaDDXtgud+f+GL/0bPPf8sLmMAAg1Ac0Xan+i2f8k7/yLtsoV0NDpotYlGlryrHnsQkVZDSOtw6xv5QUi9bIdRV9v7SoZWUuuncoYiUznDj7iHUR1EkS3rR44rGfKfeUnh4PNGSuIzVyIyvH41ncNciaOnp5dGR1dTX18fKbGYf4nW+5qvZNiXpWw2G1rdaJ5f/Z3vfpu+/4OHfM3xAAACDUAoity60eh6kQ6xXxT/+wxLFOsFzlr0wqh93KiSd/KDDL8rGbZ6yTs30fZS8s4u3cIhVznskne18uwk7opENNqwPbmVvLOsie1NoDl8KW8u0Pr5pOLQin4iMJ+vYnzBlmwfja4cFUIdVKL5466uNA0M9FMiEV49gSeefJy+8rUvVaLsAECgAQhboh0jxsGkt7GTDFsvGh39JENvImgnmvXbdPokQ2+DEH/9Rw795y8aHXh5bkVueW5pcScKfZKhczTaepKhMRqd9CjQXDDVkiEHmuqlWaF6qY4z2R0YGKSRFSu1+tEBJZrLM8+LDnOC4b59e+lf/vVzND0zjQsdgEADEKVIS2wV8r4xyTDYJMMwotHtPsnQ7wRMWdEml/7z2zf+BiFRL89tFY0OLO7kQdzroutu4m5+7bTnCHTBlANNZOwDsllYpSrVqWSShodX0ODgECXiCfMS3x4lWl/FMMylwE+fPk333vsZOjl2Ehc5AIEGIEqJ7oxodDj7rBcXlLyz34YctkHJOz+DjCAl7+on4Lkvzx1WybtQxN1nybuUjwh0iadwGAbL1XQOcw507URDo1R3d3eLiYY8vYOXwSMLiVYkS97xlI7+/n6KJ+KhnLtmc7P0+X+9l3bvfgUXOQCBBiBqkZbYKmRJRzS69UveRb3kNbkMMuT6rxGTDMOKRssNMvxOMiTJyhlEYZW8i0TcPZS8S3msalEQKRylqowbc6Bt0zkU6xxp9jjTmxUi3dPTUyfRZJRol8g0r/bBa1Gnu8Kp0sEnTH7tG1+hx594DBc4AIEGIGqJjioa7SzpKHnXiiXvvKV1eBNB+b6RK3lnP8ho9UmG3iud2OcqU7SVMxop7h5K3nkpY8fhtaBLJePqmWYpNuY/10owmdI5qu+Bp2Jw+R0ZHhFCbynRlukdiukxj2TzdI4wUzp+8MPv0Y8e/iEucAACDUA7izRK3pGLSIeXlhC05J1ZON3SOtqh5F3UkwzJpf/IV//JTzKMuHJGs8TdZZJhKu01haNQXlrbIM0mYTaWs1NM5xRz7W2jVGuPk8kkDQ0OUf/AIMV5frSrRFOdRPP/8Sh0X4gLrzz62E/owYcewMUNQKABaJRIS2wV8r47O61DRhSbP8nQSuDcRbH1S94RdVrJO5PgNqpyRqPF3WWSYTKR9PQdLBaXqFgq1qRumHOWySKdo06qFcVWqnlljeHhEert6bWR6JrUDpNEa4+1Kh3hlbp7+pkn6b7vfAu1okHbk0AXgCZpsS/RdT7nKq5RNu/7Vjzvz2r/5n0H32etuLhJj5so2os4F0XFYbChVRHQj69+G7VyzNbbqKbPAt+m+rxq+VmpbqPafpbM2yi2x+5Ud9u9b/RtFIe+IYf+k+mb6vsz94318XvvP8VWpBXFuX/5v6/tP72vtL5V+KeHFH78ivY5Ep98dl/c44M4LmrlNyTejSr+hfbabHt92+r7UUzHWHkdVa1IsP585bVJfx2xS+3dGl+b77P888rrqOX3rli8XuV1zMcYj3uPRxXyhbrPmP6ZMv6eq91s7NPKJ0y83+o2KumnA/5QVNjIZoVM87Jy+UKh+ps39r1hX2T8DLHHsXhMLOIyOzsbSn3n5194jq9euPCWn33bFF+2PCT6WOvGtRVAoMEykmh58auX0fCk116k/Ym5876D77N+/4rvqI4uA3YSrYugkyjWyo2VaMuIYL1MWotidRvVQfL8iaB83+iDDHLpP799428QUt9/is++qYqrs2grFoM6OanVRVCRklqjSBvk2UncSZdnGXHXnVFS3A0yqyg+BHqpYBNUUE2/Y+09VsVWKLJq+BeVN6b5LxkEWu/keDJJgwNDNL8wRzNMhHn6iJNEV1+uvFN2eJlshubn5ml+fj7wOWvP3t1dn/yzex5kd3/hzjvuWgjhNPi/WPsgrqugUSCFA7SISMtHpDHJ0Gn/7T7JsF7g7J43bxO85F20kwybU/KuEZMMwyl5p0hXzvAzyVCq5F3Nfa+TDP1EUkvFouW5rba8Xn06R+XVTTWiSTEkfNQef/lxd1cPDQ8Ns9tu+xrRisXj8mt193SLmtEhTS58M2vfuucTH+/FdRBAoAEIJNJhiG5wQcUkQ3IRaWdRtJY8axF0mkTYyJJ31WMPXvIumEiTyyBDfhJi/e8hyrrafkveWU3QI+dcZZKfZCgl7mFNMvQolUUxiZAsBx715ewU0/e79hispNo0GZGqj3laRzabFSsaxhNJqRrRRonmFT6y2UxYkwtfw9oDTKIHcA0EEGgAAkn08olG14t0iD2p+N9nI6PR1rLdupMMZaLRzoMMIpS8s5hk6CK11Sh1WCXvrCLTAcSdFM9CWSoVpc4v9pFpsixnV5Fqw7Ea+7iy+AtP6xgcpN5eTYa9SDSv9NHXl6WQcpivZ+17TKJX4BoIINAABBbpIDIanvQ2diXD1otG+1/JMNySd/UyGbTkHRFK3vntG3+DkFCW51Y8LM/dYHH3HIEullzPO4plObva77TNkt+myhv6dmSKWmurGfaIkndcimUlmt/h8swlmv+7ENjJ2g+ZRI/i+gcg0AAElujWSusIU8ydJX05rWQYRjTaLeJqJ3n+RFC+b6oi7dx/QUveecstb6eSd6Esz90gcfcagS4Wiy7f2/r8Z+NnyXLJb8VOqmtrQJPpcYLLcP8A9fb2UkxRpCVaSwfJeF7K3IZtrN2PdA4AgQYgkOj6E97OiUaHs896cWlGNJqovScZBo1Gt+YkQ6fn5fumEZMMSWKSIcktzx2huHtP4SjJnf8q75FoNjdDs7PTrE9L5uOrW3ylRqqNA4vKKbCa3qEPCrq6eqifiXQykZCWaP6YTyxMp0NZ/vtS0iYW9uBKCSDQAPgWXf/C25xJhohGhz3J0EkEmxONDj7JUKb/optkSC79571vqr+rKCYZUriVM0IXd3PU2+OXydvZr1wub2FxgcYnztH8fI70stE1S63UpHMYj8sozmSQ8+pEQy01o596enq0QYGkRPf29oh60yFwA2tfZRKdIgAg0AA0XqRR8s5p/+1e8s5NtO1cJWhaQtQl74iinWTYvJJ31UGG8yRDMkSSI62cEYq4V9+r96oUqqfva+17z83laGLyHOUX8/XpHKaMDuslv+2W+NZPnN3pburLZinBV1mULHnX09NN3d2hrGdyK2v/wiQ6TgBAoAHwI6N2ghr2vlsvraNTSt41YpJhWKJYldLgJe+in2To1jftN8nQWWpDXp7bdpKhP3H3KtCqjy9s7XvnaSDTM1M0PTWlLY5SW32jdsnvWvmvSX0xRvG1aHRCSDSfaGgr0WTOme7u7hLR6xB4B2v/gKsjgEADEEhGgwmv/L6XZ8k7v2kdMqLY/EmG5CLS5LBNK08ybPWSd26i7bPkHZFc5Yy6tA77aLQ5rcOfuHsWaDXYd9VY/SO/lKfJyQmam58zp3PURKbrJha6RKL1f9/dlWYi3UeJeMJCoqlOonkqB5+QGAK/es8nPv5JXB0BBBqAQDIaXHhR8s5p/506ybDVS95RG5S88z/JsGkl70iu5J2fSYZW4u5doFXf31MrieZLfM/PzdHk1IRYJtywvkpdOgfV5kPb5kdXByXxRJwy2ayYLFgfeaa6x3y7TCYTxqnpw0yifx9XRgCBBiA00fUvk5hk6B7h8ivSThKNSYbkMsho1ZJ3RJ1Y8s7PJEM7cecT/Boh0E4Szd9MqViimZlpmp2dEa+hOE0srJzmrCp0UI1I6ykaPeUJhu4SzcvbcYkOYenvP2YS/Z9xZQQQaAAkxQ+TDGX3jUmGTiLo9Lx5m6DRaHdRbMeSd97SOsjXICOckneKdOUMT5MMbVcvrAojF8rGBhnsJVqkdRTyIhq9sDBfL9B26Ry1NaCV+oVV+P1kKk2Z3gzF47FGSvTfMIl+D66dAAINgAfxa41Jhv5EF5MMnUTaWRStJc9aBJ2iza1ZjcKtbxozyVAm7aP+9xBkAqasaFsN6iSX53apnCG1PLdHcfdehcNfHrSURBuOg+dFT81Magu3KIrhmK1XKiTFnAtOtXnX5dtYPC7EOJVKml7bSqL5aoUh5ETzl/4Mk+ifwXUTQKAB8CB+iEZ7EekwI13+99nIaLS1kLTuJEOZaLTzIIOovScZBi95F/Xy3F7EndQmnT1dJJo3Ls/TM9O0OL9gikQbI/O1AwNTlJ3slviOibJ13V1d5prRFkuQ65HogCRY+yKT6PNw3QQQaAB8iLS3fQaR0fCkt50nGYYRjfY/yTDcknf1MtnqkwzVNphk6Ldv/A1C/E4yJE/Lc8uUvKu+dkktBfzOhiHRiq1E8z6eW5gX+dFiFUS7yhwWNaHrH5NpwJFKpqinu0cswmK30Iou0SFEokdY+xpWKwQQaAB8yGS7TzIMU8yd+2U5TTIMIxod9SRDv31TFWnn/mvWJMPGl7wzCW7TSt5VxV1uae769x7ed9O8KqK1VBMt8Wj09BQtLi4aKnNQXSqHYhhMmJdJJ8ua0FyeuUQnmUw7STSvztHdE3ixlctZ+xSulQACDYBPmUQ0WrZfUPLOSQSdnjdv0+kl79xEO9qSd1FNMpQreacEKnlXKqk+vkMU+veyXqItHrP/LMzPi0odJbVoWRO6tqSdYpnOQaYlwWO8BjQTZC7JThLd3dVNXd2Bl/3+xXs+8fHfxbUSQKAB8CmTKHknu2+UvLMTvc4seaf6nIDpbxASRsm76u/K+/N2ucpSJe9q7vspeVcqFVvjjKkYI8fOEs1zo7lELy4uEBkEujbKTDXpHcZBBllU60glk2IxFSeJ5tHqdFc66OF+jEn0bbhOAgg0AAGkF5MMZfeNkndOIu0kiuZtgqYlBJ9k6Nw3RLLRaPuBSGtWMpGKRpNkyTuH5bm9TDJUPUego5VoY3/YTezT38QCE+hcboaKIo9bMaRzkDknuuaxUhOpNkp0Mp4QEwyVWMy6JB6729vTK/KiA3rM548fP9aP6ySAQIPO12HF78WjnUretVZax3IqeRd0kmFYoliVUu/VJsIfZIRT8s5+kNF6kwx1iQ6yPLeXSYaec6Ap2rrRtjWibdI7iqWikGixiqHMEt+G731dZFrPi2by3NVlkGiql2hemYOXuQtA/9e+8ZU3LuYXcXEFEGgAkQ4qp82PRvuX3nYveec3rSMsUbSWPO8i2Eol7+QHGX4nGbZ6yTs30fZZ8q4iz8EnGRabPIkwDInmzM/P0fzCfPXfG1cmND2u9ol5cRZzv8X56oVMonndaCeJTiQSvo9zdnZ24N+/+fVAqzsCAIEGbSnSPv4VYZJhWH0ebjTaKBfRiXSzJhm2esk7aoOSd/4nGTay5F39JENynGSoei1jpzRm5UKvEs1boZCnXC4nJkYa+4XsSt4RWUamyfCaXekuijNJtpJovopjNpv1tRiNzv79++jhH/8IF1QAgQbLT6KjSutAyTvZfsEkQydR7LxJhs0qeUfU6iXv6iYZklM02l8Zu5iP74bfAKusRBsf8+ocubkcLRUK5omFVJXk2jSX2nSP2khzOpWmRDJpWkq8VqKDnDMefewntG//XlxQAQQadKwuhxyU6exJhu7RaEwy7MySd+6i2Kkl7+QnYIZf8k4xpCy4l7yrRm89C7SfaGuAFAVbiXaQat5/8wsLtMAaKVYTMMkUZVaqa4HXRKarr8/znXmt6PolvxWRxhF0oZX7vvNtkYYCAAQadLBEKyGIrnfxa41Jhv5Et/0nGfojzEmGTqJtLYthRKOjXvLarW8aM8lQNu1DfpJh8JJ3/iYZkmTJO12oqSECrQZcL9xtyW+7yHRhaYnm5nKiL2v7xvy4tkZ07eCkKsq8+ka9RGsLrYgSeD7h7/O7938Hl1gAgQbLQaTDEF1v4oeSd7L7Xp7RaGvZ9lfyrhGTDGWi0c6DDKL2nmTovdKJ/SRD8lzyjlTyPIHNl0CHMEnOr0TzMn08srtUXDJF6WsnFtalbtREmfV/wycVWkeiSUShg1Tm2L3nFdq160VcXgEEGiwHiY4iGo1Jhn4lutVL3vmfZNj4kndm4Wz2JEO1DSYZ+u0bf4OQ+rQO7yXvSj7E1l8KR5gDWW8STVpGh1h0JV/Im/rHlL5hKdHWj+OJuBBlK4nm+dB8eXC/3P/g/TQzO4PLK4BAg+Ui0kFk1J9MYpJhs0XaH9FOMgyj5F3Ukwz99k1VpN1MrTmTDBtf8s4klT5K3qke0zfEP2tCCoe7RCsuEq0df6FQ0FYvtIs8G/qLTHWzybBMuLbvWDwhUjpqJTropEL+/u77zrdwWQWRkEAXgNaVaNVWumSCPYuFIk1Oz9Pk7AJNzizQVPl2YmaeZufyVFgqsVYUt/lCsXK/8rMl7WdLhp8VSyol4jFKJmKUSsbFbZJHUOLaLf9ZQv8Z30bc8p/HaCDbzVqa+jNdog3wlu2ivt60uFDIHLubRFv3ixI4bFXf58H3WXshd5MeN1G0v8hyUVQcBhsqaSXI7AYkauWYrbdRTYMKvo3T8+ZtVNvBk3kbxfbYq1E/P32jb6M49A059J9b35jfv3XfkEP/WfePXN/wbZz7l//72v6rrCqoauXbuLAq/PgVcY/fkKqomh7ySD4XQan0GYsIVpNSOOq/e6rhM6J9X4y/J9HLla6u9gNfBpxLajrVVU5j0fqJ943eb4pS/X5pcxK1O6peuaP8GY6Xa0AvLS2V91OWFHb+5DWiZ2b8RZIPHjxAP332Gdp5+RW4tAIINFi+Ij2dW6Tjp6dZm6ETZ2eEFE8JKTZLMpfmhcWl9jhK/qfKnrSQaU2smWRnNcHuZ8I91NdNa1dkac2KPlo9khGS7l2k/Ym5876D77N+/4pvQTBLgL0IOomi6UJP/kWwXiatRbG6jeogef5EUL5vdGmigP1nd+z+BiH1/af47BuqSJyzaCvWYllO39AlUsizqg0gNXnW/mm7pXDUHqvVoNPY/7o010o0nzi5sDivSbQQ52p/ln1a+49Sfq4izYq2D7GN9jyPRMfZfS7m/B/rHp1Op9jPemhuzl9lje//4CHaeP5GGhgYxGUVQKBBZ5Kbz9OJMzN0jEnyiTPT2u1p7fFx9phHjjsNfu3gAwPeiKZcJXNkoLcs1NWmP149khWRb/sofTgi3d7RaO09RxeNJhfRjioarYt0VNHoqli59Y31sbuJtswggwKItP0gQyoaLYSwPhqt3/eTwhFrcgqHs0jbSDTVSzXvHy7RKSbRsfKESvGfyqjbGJlWyj5tkGyDVOuRaCHRupCz1tPTLdJGePMK/zffuu+b9O53vbchqz8CCDQAkXF2cp5ePnqY9hw5R3tZO3B8Qggzjx4DZ9k+M5ET7dk9Y/UXZHZxGBnsETK9Zd0QbVk/RBes57fD1J9Jhya9jYtG+xdp94irXDTaXhbdIq6NF8XqsTs/H3yQ4ZbWIReNth9k1PePUzTayyBDTrTlotFCnlVNKouqD4FWmp/C4VmibSLT/N6ikOg0xcXAQKnIvlL5y059ZFpVKkvUVCLR8XhCdHKxVDRErvmkwgxNTEz66oNjx47SE08+Ttdecx0uJAACDVqfJXb+G88Rncsp2u2sdv9//eAb6JwI4H9GPs06mrdnd5sFe+VQb0Wm+e3WDcN0/poBkZ8drkiHGY3WRa1Z0eiqSHuPuMqkddhJsrMouom0WzRafpDhltbht2+8DULCHGTIpXW4R6PLQVPtM8rfT6lBKRwNwK9E8z7J5xcpmUhRIh6v/K4q24sOo7IU1+RIUzVHmkt1LBEndUnVamuXJZpX5ODl7WZnZ30d18M//iFt3rSZRkZW4GIBINCgdSgwWT41rdCpKS7JXJYVml4ItHAWCBFdrH/y3NHKz+LxGJ23qp8u2KAJ9eVbV9Elm1dQOuXt1GBO62i9aLS7SDdrkqHMJDl7EWz/SYZhRKPd+i/8aLRxAKKLYKlRKRwNOqHWSrRxYp+bRBeW8mw8kWQinShX3NDTP8r1svV0jrJPl5PLKz83RaJpySTR3d1dTNLzonmFp4U8+L0H6F3vfDcuCAACDZopZLO091SJjp5VaGxKobOzkOV2o1gsifQZ3r776H7tpMCk+qLzR+jyC1cxoR4VUj0y0CMpuphkKCOCnTnJ0G/f+BuE1Pdf46LRumAao9H+BFrx+iFu6PnB+PuuViORk+hisSA25VU0tC6qPl+RZsscaUO1DtY/MYpr33m1OhGRp3KMj0/4OhccPnyIDhw8QJs2bsIFAECgQfRsvP1ufkq7iLUbecv2pm+bEZPe7C/KoD1ZYlL94v7Tov3zt7WfrVvZZxLqzeuGbCeaYZKhNxFs5CRDN1F07pv2LXnnLsnOgwyZSYZ+ZM5rHWi1CREK4yIrxoFDtenfG8PiO2qJSryVikykFRFpr6RzGFZw1CLTVIlMV35Hej+XB3Z8xcKSqMyhV+uIC4menvZX2u4HP/yeqMqBCYUAAg2ikuYL2c3trN3C2qtYG9afq8pze6IYCvmTYfEEMlwgK+dW4wm/qgnVmeZUv3BD5UKnqoEusK0Cr4LC2zcf3iMeZ3tSdBmT6Z0XrqZXXbaeLjxvxCQ77R2N1oWglaPRbqLoTQS9941cyTsZSbYeZLgNQtz6T3EYQFCAQYbef/XR6GKDUjiCinBdq11mu2YJ88qxl/jvvaSdy/RzWuVnWvxZ+5nxcUlsw9PD9bSMagUTvQKH9ljz6fLzemUO7VMg+kl813kfl/eT7uqi9GKeFhe9X4vOnDlNL730Il1yyQ5c6AEEGoQizEl2czNrby63Le0hwzFSYvrJP2a+GOg/J20b7Twda07QXNVFulT5k6Q5klMy/6xUalnpnpnL04+fPSraX/+fJ0SKx02Xb6Abd26g6y5ZS73dqYrUIBodbsk7s0hHM8kwrJJ37TvJUGaQUTvIUX19fr3S3dVtWAWxKrpK7aqJ+jLbNWkYpJoeVR6rhqBA3c+Ng9ZyJylKpZRGNb2D1MoEQVKN78e4CI35cTlfoxyZrkaiq+ke2uvEYnEqipSZ6q8+k82IEnV+0mf4hMKLLtomVkAEAAIN/EjzCLu5rSzMb2CtrxUFORaPlYU4LkSYn0zFn/Z4BKfmIsTzCpNJbWlYfqs1vhpgktLpJKVS2s/4jG7tT4vakrHi1ijdNU3LVzT/ybYqu6qogMHvl8riq92v/qxQKFI+XxCtUFgSj8Xt0lL58RItLRXNF2J9fyXtT6Kqfr982yqCfXZyjr76g1dE4znUOy9cRTcyob6JCfWmtYMmeWnXknf+JNmbCMpEo83C2exJhmGUvAs6yCBqhZJ3PF3BK14j0DzlI5PJWkq76b5BlM3SHPzLptR8b9TKsLiaI135W51hMZTKX3XEfsqfC0Wp/hulWme6Gok2SzU/Z/OJgEp53/wxl+jpqWnPhzI9M01PP/MUytoBCDTwJM07qBpl5mePptdS0vPcuBjzWyGxQm5jlQsUP1l2daUqrae7i3p7u6grnaIUE2MuzJoUNyK8HN1r8Il9S2WpXljI0/z8Is0vLNLCfF485n+yXFwsaH8yNkg7v4ALuWYXGN6aJdc8h/rJXSdE+/PPPyYWd7np8vXl6PQ6sbR5tCIdTTRaF8HmlbyrF8XqNu1c8q5+EBHuJMPGlLwrFUs+PrOtWcbO7Vytd45q+s5oqRdU+Y6UPxPG1DhD+ober9WFVQy/SaVabFutqREt0jlExFmT6K6uLsov8nOj9zUEHn3sEbp0x2VKd3c3xABAoIGtNJ/Pbt7L2vtY29rEs684AVZlmd2PJYQw85Jqvb3dlMl0i1JFPd1p0dJdaUqlkuL55QA/zng8JZavzWTsq18IweYXDiHY/AKySHNzCzQ7Oy9uhUjrQl0qSzVvDT6ek2dn6AsP7hKtrzdNr792E932qgtE/nQ1+tlOaR3NKnlnLcrLp+Sdm2g3t+Rd0WMEujqxrv3QpLgmnUPVF5nRI9HGx7pA6992ozTXRKZF1Fp7XK2zrUu1KgYdWrk7qkg0j0LzwILXwfPi4gL95JGH06977a2QBOD9e6Ci7lgnSzNPx/gF1n6ZtZuo0Zm/ivYntpjeytHlVDJBvUySuSxnmSD29fVST0+XkGQQDvx7zSPXs7NzNJubpxyT6lxOayJnsKiJdbG41LRo9arhDL3phi30JibTfGEXs+SE1w+BI21OGqE4P28v2mYRs96mdqKa8/PmbRSnr6XkNkqAvgnaf25947aNU9/YH1uQvtm/fx99+atf9DBQjtN1115HA4MDFQm3mpRsul/9Qd3nWyaFI0gOtB5xNryRStqaPqej9rFq+BmfSVgiw/Mi7a2kTTYskbhf+2/EJEXSJiWWyn9xE2lxpFYe69U/ZnOz7DyX8xGwEGkhG++8465DuHIALyAC3XnSzH+nPJeZR5rfylpXw3w5phW+j7EWTyQolU4JOe7L9mqynO0Rt4nKn/BBdGMXRQxKeFtZ8xxPA5nNzZWleoGmp2dpanJGpI0UeWNSrfqYlOOVsXOz9Ol/f1Y0LtBcpLlQrxruDbUfUPKOHLbxVm1Cvm/kJhk2Ohpd3U/4kwy9TmQT6RttXkbNnM5Ru1ohGXKmy/nMlTXQyZTfrNeA1n915iW/yzWiFXONaB7B532u75+vUDg/N+/598BzqhkfY+09uHIAT59/RKA7RpyvJC1Fgy+xtLIRrykiykyGuTTHkwnq78tSf39GtMHBrJA30B7wi870TI6mp3I0NTVLExMzNDMzSyUeoRZSXWzI++AXx51bVzOZ3kK3XrdJpHyEhV+RdhNFXbRkotHWIlgvam4R1VaIuEbRP/76Jmj/Bu0bbZvdu1+hr//7V6U/U6lUiq65+hrqH+iv+3y2SwRafz+VSdOVmtDV8nVEpXK5u/LjchWiUl3kulz+Ti+NJ6LMVKlOVFLNkejaffDbOSbQ09PTvk4PrF115x13PYOrAZAFEej2lmb+++MpGr/D2tWRyw0b8ccT2mS93mwvDQ5UhZlHmhtZ0xSEPRiK0UB/VjQdnmPNZXpKRKiZVI9PiQjP0lJBW9QgAvi18JndJ0X75D8/Srcxkf6lN1xiSPEIJueq6i/fOqxotH6M0UwybE7JO71//NfVrr6/9ix5p22zxAab3j6PsY5ZyKNajcM8cVAx/N4NBe/M+c8u5ez00nl1kWiqTizUH/f0dDOJnhN/TfN6CKz9Xvl6CoDchwYR6LYUZ24T/4m132RtbZSvxfPD4skk9WZ6aWTFEA0P94uWRr7ysoTnUI+PT9PZsxN05vQ4LczPi7SPqM8j12xfQ+9+4w5RFi8WgnQEiUY7i3RVtBqV+7y8otHe+q+RueXPPf8s3f/Ad6Q/Q7zyw9VXXU3ZvmzdZ7LdItD6jyr17MX/q/XtRRC59rFazm8uGSLTVC39WSnhWZbySg60Hqk21MrXX5vE3I8Fmpyc9PO1LvDr6Z133HUGZ3ogAyLQ7SXOfGXA/0LapMCeqCIJPH853dVNK0e5MA+IxsvFAcBz2Hlbv35UXLCmp3NMqKeETJ89My7KSfmph+vGEy+dEI0vKf6uN2ynt91yYWWxFn+fc02GolnJECXv2rfknXX/yPRNoZD3fK5txzJ2rt8rUUWjWhOa9JrO4vugL9VtKGenOESmDeXs9M+LHonWcqTLmdOGSDSv4JTLJcVkaY/wqND7WfskzvQAAt054vx60tI03kgRVNLgJ6ZUuotGVg7RinKUmadkdMqfF0FUF0ulksKzceNaESHiudPnzk3SqVNnafzshIhOhwlfTvyT9z5Kf//Fp+hnmUT/0q3bacOq/kDHgJJ35LANSt7J9g1PefJCrLyCaieeFyoKXE7NqKZ3KFWndkvnUFWDIBtqRtdIdeU3YZDovr4sOw+N+3n7H4BAA+nPOlI4Wlaa+TmB52N9lLXtUYQK0kya16xbSatXr2TiPNjRdZb5Cn+iiUVKipVW0lcQNK0kaJigopdaMjwvFgMvr1houjXcr13ZMB6LieojiUT5Nh4Xt53c53yxl1OnztGJ46fo1NiZ0GVal6ZXXbaBPvC2nXTpBaOB9rV8S97Zi3Arlbzzf+xu/RdO3/zo4R/Q4088Jv2ZyWazdPXVV5O+iEfrpXCYy9Kpasm0+mrtezO+tXI6s2mVQn3bajpHeX/liYJaOTvtNauTBLV0DWPJO35+rn2+MpGw/Dr88cT4uKiN74Nb7rzjrh/BQoAbiEC3pjy/lt3czdpVYe+bL0qyZt1qWrOGS/NA207846v1cUFbzBeqt/klkxwbhbmVozVCqstCrTe+Wh/PM0+nE6I+Nl+CnD+OtVHEir/nDRtWicaXLz91apxOHBujsROnPS86YS+9RD9+9ohoN+/cQL/xzqtp64Zh37+L9i55V5U5b9Fo6+fNQtT8knfRTTIMp+Sd15QBbRJhtOdfXXxLxmoXuowapbhklOVSaHMazLKtVtJ79IVY9HQO0ovY1UWmrScW1i75XZ1oWPkPZfv6mED7SmfmUWgINHD/DiMC3VLifEVZnF8frsikaO16Js1rR2lkpD2kWSxhzZetFoK8ZBZlvox1sbQsPyPJZIKJdKIi1OK2fL+7OyUWqWl1+J+6eWT6uC7TIVb04NfbW6/dTL/+jqvovNX+UzuiLnlnLclUJ2qYZBht/4VZ8u47372PXnjxeenPyUD/AF119dWinJ0uraVSyVASrlr+TZdg1SEiXNtkBbcoFlQqisWV+MBWe1wy/Lz8mD1XeT+kmhYxqT6uinLtz7RFtWLir3G8BGpcrEIbEz9Pp9OUTKXFuUwbyNpHpqvyT4ZJhOUBquG1+eNzZ8+JFQq9Xn5YW3PnHXdNwEqAE4hAt4Y4b2Y3f8zaL1JIOc7xmEJrN6yl885fKyYBtmLkUtTtnM+zxpegXtRu+bLUrJVKGNjZySdvs7kF6y90Il5ZAr2nJ1W539WVaplj4IOAdetGReN/HRgbO0sHDxylM6fOhvCZIvruY/vpgScO0Ftu2koffPuVYsVDPyLud5KhTDRa266ZkwxbveRd1JMMwy955zUCPTU9RYePHBIBjsoEucobUSqfQeN7EylnpaIQbU14S9pjvrJoqfy4WKzeL2/Htynq/0YX4/LzLRXRYwebTCZFn/DbRCIp5LqrKy1S4YwTD6uRaarkRFeWYyk/7unt8SPQfMY8X1Phr3HFAY6fV0SgmyrOPGnzD0grSRdKXbhMNkObtmygDRtWt9TS2FyQZ3LzJlFeWCgQPn+NgUd6errLQt2jtWxvt4j4tAp82fHDB4/TwYNHRTWPMEgl4/T212yjX33rThru7/Yt5a1b8s5tG0SjnfsvvGj/V7/2Jdp/YD9ONiGes4x/LeVCzUW6K83OW10piifi5Yg9GSLPVLOMeInGTp7yM1B44c477roUvwUAgW49cebhwN9l7SOsBV63mEeXeV7zps3raWRksOnHt7BYoJnZea3NzNMsE+flmnLR6vCUj2y2m7KZbspktNtkk5da5xe7kyfO0P79R+js6XOh7LM7naD3v/ky+o9v2cmOz18K0/KdZCi3Ep9fkQ4+ybCxgxC7QcYXvvivdOToEZxUwpYUfYK2Xt2jLMdcqDOZXrFGAV8Nt3YSoS7Rk1NTNDsz6+elr2US/QR+AwAC3TryfB27+SfWLg66r95MD5Pm82jDeWuaFknk6QQzswuszZWlecFzOSfQWvB0j2xZprXW1bS8eR6VPnTgGB3iUel8IfD+zl8zQH/wqzfRFRet9inR4r9NEun2jUbLHHu7RaNrt/uXz99LJ8dO4gQSsUxbDWp5JZNMJiNWIiStAl5FonlqzdjYKT8v97+ZQH8AvQ4g0M0XZx5p5nnOv81aIBvhUeaLtl9AK1cONfw4eCR5cion2sTUrEjJAJ1/0eIiPdDPl2/PUF+2u+E1wnlU+uiRk/TKrv2Uy80FPB6it95yEf3Ou6+lvt50w0W6kaLYaiIdRjQ6WP8ELXlnv4/PfPZTdPbcWZwwGnheqvUXPtDv7e2l/oE+MVFRl+jTp8/4yYXOsTbIJLqA3gYQ6ObJ8+vYzT/yu0H2M7pqhC66eIuYFNgo+OeDR5YnJmdZy4n7+Mwsb/js+f4+LtOs9WdEPnUjP4/Hj51iIr2PpqdnA+1rqK+b/tv7rqc33bCl4RIdXKSDRqPdZDKoJAcT5XZMefnf//QPYmIgaA257uvvo76+PvF4Lpfzu7AK0jiALajCEa04c9P9U9b+Y5D98PJzF23bTAODfQ1537x83PjEjBDmqekc8peBCf554J8P3jipVEKI9AAT6qGBLCWT0eVQ8wvjuvWrRDt54jS9zER6cmLa177Gp+fprr/9Hn3z4T30e79yo1gm3Nt70USqOSsZel+Jr34bp5UMZVbisxbJxqxkKFNXO8hKht4qnXDyBQQqWwX++Zma1HKf+/v7RTWO2MSkn8mEN7AGgQbW1wBEEyOT57exm79nbVUQUeDinO3LRP5+c3OLdPbctGi5uQX8AoFvwe3v66GR4T4aGeoTch01vKY0j0ifO+u/bCuvrf3Bn7+C3n/7Zb5LPmKSIfncJmg0ujUmGf7VX/85FZYg0a0In3DIf00F7/MovnjnHXe9Ez0IrEAEOnxx5uG3T7D2O373sXrNStpx2UWUyfRE+l5nZ+fpzLgmzfPzefzyQGC0We9ajvy+AyepL9tDK5hMD7PWFdFE19HRYdHOnB6n557dRdNT3lM7+CqWf/VvT9CPnz1Kf/Lbr/NV8i76lQydRDCMlQztotH1z5u3aXY02m0lw6DRaPP7t4tGQ55bl4L/vw7cgN4Dtud8RKBDlecRdvMF1l7t599nsr102eXbRK5zVEzPzFUizbzcHACNgk9EFJFp1rojWtiFn88O7D9Ku17a6yfaJFgx2CMk+vKtqwK9D98nZZS8C9A3QVeC9DfJkAvaX/3NX+BL3pmcf+cddx1GN4BaEIEOT575MtxfZW2D519CIkHbLt5Mmy84P5IVA/OFJRo7NUFjpyfFEtkANAO9NvjBw6dEZHr16CCtGOkLtUQel6fNWzbQ+g2r6aUX94gSeF5l9szEHH3gj79JH37PdfSuN1zi+31EG412EukwotFVUQwzGq29llM0WtuH3bEHj0ab+8f7Ko/m49ePqYD8506GR6Eh0AACHZE8v4+0KhtdXv8tX2p7+46tYoWlsOGVM04ycT43PoPKGaCl4H8J4W3/wTFauaKfVq8apN6ertD2z1fh3HnFdtq0aQM999NddNZjfvRSsUT3fO4Ren7fafroB26mLh+53GFMMnRf8roxkwytlwM3i7LMktdVKbV/vnrszs8HH2S4pXW49U31/UGg7eEDZL7AdrFUbGeB/lf8JgEEOlxx5v33SdY+5PXfDg71i3SNoZBL0uXzSzR2ekJEnJGiAVqdpWKRToyNi8ZXRORR6ZUj/aFFpfsHsnTzq6+lY0dP0gvP7ab5eW8TZO97ZB/tOzpOf/o7t9L6UX9VcKoiHU00WhdBJ1H0H3Gtf75epOuj0WaRdotGk8M2qmu02X2Q4dZ/waPR7STQvC9SqTSl0ylKs9tUOl2+LT9Osdt0WmzD74ufJ1OUZD9LJhIUU5gQxxTTCoH8Z7ybtO+t9lms/Q4X2Xc9n19k16VFUZM5X76dnZ2lqelJmpqaZm1SPPZRLSNqgQag/ruEyKRveR5mN19m7RZvo3GFLr5kK229cGOo74dP2jp+8hyNT8wi2gzaGl5nenTFAK1dMxxqrvTS0hI9+8wuOnL4hOd/m+lJ0R//+qvplivOC/Qeoq0d3dglrVtpARb3viGKMnd8enqKHnn0kcoy0+J/JdX0mMqr41XuU3m5acNAiSrbU+U54y1fsppXlEimkpTiUsvu87+2JMv3jbfaz7X76ZT5+doBmv6eqpH78s9qXr/y6dV/ZjyWms+3+b751va12X9LYrGuSRobO0ljJ0/SCdZmZ2eaeUriofP+O++4K4ezM4BAB5dnPsvve6zt8HQRzvTQNdddHmo9Zy7MR46dEX8OB6CjTk7MUngFjw3rVoS6WAsXaC7SXKi9Dn7/6IM/Q7ffeEHg94BJhtGIdLuUvGvGIMPueRmpNd+3EOqKeOtC7UOeHcSdR6WPnzhOe/fuoRMnTjQjSPRaJtDfw1kZQKCDyTOPPD/E2mVe/h3Pdb5s58WUSISzyMTZ8WkmzmdFKToAOh1eU3rD+hWU6Q0nTzqXm6cnH3uOxscnvUk0s5A/+MDN9LZbLgxBoquS0XiRRjS6UYOMsAYh8sceTKSd5bkaOa8+pVY/xVKRaflotJW455hM7927l/bu20MTExONOgX9dybQH8OZGECg/cvzUFmeL5f9N8lkgnZeuZ3WrV8dwgVXpTPnpunosTNi4RMAlhtDgxkRkeZVPML4Pu16cS/t2X3QU0SLC8hdv3ITveO120I5pnaJRrebSMtEo4P1j7+Sd/L7aPwgwyS1dtFhq2h0jTwHjkZLivuRo0fo8ccfa4RIf5YJ9H/AGRhAoP3J8yC7eZC1K6Qv9sMDdM21l1FPb3fg1z99dooOHzktltkGYLkz0N9LG88bFbWlg8IXYHnqiec9TTDk7vGRX34VvevW7SFJdFUyGi/SQaPRUYtgMFFu75SXqAcZ1s/LCq5VukXgaLRHcVdLJXpl9yv09NNP0dxcZKmM32YCfTvOvAAC7V2eeamMB1i7SvbfrFk7Stdcd1ngagKzuQXaf/AkTU0jxxmAWkZXDgiRTiWDFRSan1ugHz/8FM1Me1vF8MPvvZ7e+6YdoR1Pa08ybN9odKuJdLsMQrzmKoeVyuFH3PmchqeYRD///HNRnGqeYgJ9Nc64wEj8D//wD9ELzvLcX5Zn6S/Pxk3r6aprdgSS50JhiQ4cGqO9+0/QIsrRAWBJjg0wea1znpvMy+DJ/dm+Hp5qxRdf4fWivUSiH33+GHWlE4FWLayVHb/H0Iqi6F2kmx2NxiRDq75QSKneFx/S8s/K/1Ch8s8U48+o/HOlsm+l/O+q+1ZMn3m9LF7d6yiVd2H9OryUXjxO69auo+GRETp69KgomxcixRtfddOf44wLTN8PRKAd5ZmHtXjO882y/2bbxVto2/YtASJQKp04OU6Hj54RNXIBAHLwknebN66iocGs/6sk+849/uizNHbyjKd/99H/5xb6uVdfGOrxoORdNKLYaoOMRg5C/Iq0fm3SPpFyEeHKp7cuMh1eyTu76iBTU1N0/wP308TEeFhfx/ydd9yVJgAg0NICfTe7uVP2YnXZzm20afMG3683PTNPe/Ydp7l5TBAEwC98ouHWzWsplfKX1sHPic889SIdPnRc+t+kknH69EffShdvWhFIeu3eTzQS3VhRDFMEW6PknVv/BZ1k2OK50aZ61i5Sa7ofxSTDenFfKhTogQfvF9HokMigFjQwEkMX2MrzbezmI1KdGIuJfOcg8sxrOT/34kHIMwAB4bXRn35un1jC3q90Xnn1Drrwok3S/yZfKNKH/+J+mpxZILcIoD8J9rdPfSEPhy3K29g/r3uJ9TaqyzaqaUBh/Xzte7b+t7XbuEXoVdV58OHeN+TSN1UZdOsb62OnuufN29Qfv3kb1bb/qn2juvSNt+dNKRZUk2JRTuUw3id9tUKiSroFkf6zanpHfVpHTSoHGdJIjK9Tk0ZSfZ4okUzS61//BhodHQ3rqxjH2RVAoN3leT27+ZzMVYt/YW+48Upau85fDuRivkDPv3SIDh05jRUEAQiJAhPal145QvsOnKRSyd/3avuOrZ7SscbOzdLv/e1DVFL15avDE+lqnqh/kXbZwkWiZUSaXEQ6XFGsSqnqItLuzwcfZKgB+8ZtkKHaDDLIpW/cBxlyom01qHOSWutc5TqhVsi0rVVOtJW4G7d1Ene+9Pgb33gbDQ4OhvE1HMCZFUCgneWZ/93331gbltn+8isuppWjw75eiy+G8vSz+8Uy3ACA8DkxNk4/fX4/zfmsm87nNPDJhbI89sIx+rsvPmlUjVCPJ8gkw7BE0VryvIugtUiTi0iTwzbeRdD7IMO5//z3jbdBiOwgQ75v3ETbPRptjB5bTzJUHCYZGuRZIhpduS8h7l3pNN1225spk8kE/fptwhkVQKCd+Z+s3SCz4ZYLzhMVN7xSKpVEdY1drxylpSVMFAQgSviiQ88wieYy7QeezsFrusvyqW/8lH74zKEaiW63tA6KOK2DbGTSXgSdnq/fRl4EvfUNhRCNDpryErT/yKH//EWj/VbOMKd1OEWjFYlotL24c3m+7bbbKZEIVO5yC86mAAJtw8bb734zu/mwzLajq1bQjssu8vwavDzdsy8eEqW3AACNgadx8HQOPknXa6oUn+Nw/auuoJ4euWXE+e5//+++T8dOT1lM+ooircMf7tHUINFoouDRaLeIq53kyYqg6rNv9EGG32i0W9/4G4TIR/PDj0ZXB3VyUmuSZ9dotLEMnuK75N3g4BBde821Qb5yF+BMCiDQ1vLM1wb+R5krXF9fRkwa9HrxWlgs0LMvHKTZ2Xl0OABNYOz0JO3afVT8FcgL6XSKrr/xSkok5OYR5ebz9LFP/bgiujWqEeoxtf8kQ3IRbbLZJmg02l0UmxuN9jYIqd9GJq2DfA0ypCYZKm6TDMkhGq1Y15CWmWToIO47dlzKBsI9fr9qF+IMCiDQ1vw2a67JjvqFNOlx5bPc3AKT5wNYihuAJsOrc7yw67Dn9Kn+/ixdfa38wJnnQz/y/NGKRLdvNJqo9aPR0VSjkO+bxkwylE37kJ9k6HbssqJtNajzXjnDapKhVTTacZKhi7hfdOE2v1+TrTh7Agh0DeWluqVK1u28cjv19nZ72j9fhvu5Fw9RPr+EzgagBfD7nVy9ZiVt2Xq+9PZ/8fnHy1U5qqJboxqhHtdyLHnXiEmGMtFo50EGUXtPMvRe6cRv5YxoS94pNLrK96qhm+/5xMfhTAACXQNfLMW1zg2vtrFmrbeaklPTOV/RLgBAtIi/Cr14kPIFbxLNK3N0dcktSrbnyDn69x/tqRGLRkWjmzHJsPEl78zC2exJhmobTDL02zf+BiH10eFmlbzT/u3ggO+SdinWsjhzAgh0mY23382Ho7/t2lExhS673Nuffni6Bq+04TXfEgDQGBbYd5TXi/ZSK5rnQXuZQPy3X3ySFi0i3e2d1hF0kmEYJe+inmTot2+qIu3cf82aZNj4kncmwW1gyTurtI7u7q5AXyucNQEEusofsOY6q2DzlvMo2ydfR5JHnF96+QgVEHkGoKWZmZmn3fuOe/o3vDa0bGm70+M5uvfbzzuKbpTX6M4teUe0vEveuYl2K5S88z7JUK7kneJa8s5pkiEAEOiAbLz9bl4Y/QNu2/E/13pZkYyfOF7efRTLcgPQJpw5O0WHj57x9G+uuOoS6W0//Y1naWJ6wVGiUfJOTgQ7s+SdKt03/iYZkkv/+e0bWdG2GtTV5ypLlbyrue9rkiEAEOjA8NznpNtGl1x6oacC7PsPjtEEVhcEoK04fPS0EGlZeDnL8yUXUsotFOgLD74kJbo1Pwn1GJfjJEM7ybbehlxE2m/fuEWjiWSj0fYDEe/R6EZMMpSKRpNbybtwJxkCAIEOwMbb7+YFXX9e5iK54bw10vvly3P7XfEMANBc9uw/QYv5gvT2l+zYKuZHyHD/Y/slJbf1Jxm6bCEdjW7EJMOwRLF67M2eZOjWN/KDkHrZbs4kQ12iQ5tk6BKNBgACHYxXsTbittH6DfLyzCcLHjg4hk8VAG1Ksci+w4dOSW+fSiVp1eqVUtvuPzZBh05OehTdWpEOD11Q/Ep0GKJYL3DWohdG7ePOmWTY6iXv3ETbS8k7H5MMJaPRAECg/fNWmY3WbZCvGXn0+Dmx2iAAoH3haRyTHlKwNm05T3rbBx8/4FN0jRLdKSXvzKIYlgjaiWb9Np0+yTCMkndRTzIke5GWWJ7bcpKha8k7CDSAQAflbW4bDA0NUG+v3LKfXJyPHj+LTxQAHQCfx+AeRdQYGRmgZDIpte0DPgS6KrqNEGl/oORd1JMMm1XyjqjVS97VyTM5lbxTCAFoAIEOwMbb797BA0du263bsFp6nwcPn0K9ZwA6BL7IytipCbmTaCxG52+Wm0y4+/A5OnpqOpDo1vwk1ONu/0mG5CLaZLNN8EmGy7Xknfxy3+GXvKveJ4mSd0qgtCUAINAartFn/qVbt14ufYPXfD57bhqfJgA6iJOSAs1Zu04+1euhJw4GlNx2jkYTtX7Ju6iXvHbrG7lofiMmGcpEo80DiCCDDL+TDEmy5J0u1Di3AQh0EFzzn1esHKLeni6KxxTXdm58WvrPvQCA9mA2t0CLi3mpc8DIUB+l0ymp/T74xIFQpBfR6PBL3jVikmFYJe/sBxmtPsnQe6UT+0mG5K/kHQAQaO9svP1uXtD5crftVq0apkRckWqnPdSOBQC0D/wvSzLngGQiRmsk/2K1+/BZg4wEl+hOKHkXVlpC0JJ3ZuFs9iRDtQ0mGfrtG3+DkPq0Dn8l7wCAQPuDX+XibhtlM73swhhzbcWloqcZ+wCA9mHs9KTUeYC3wcF+qX0Wlko0MTMfqvS2clqHjCh2/iTDoIOMVp1k2PiSdxV5Jv8l7wAIg8QyPGapws592W4RWXLjxMQsIXsDgM4kN7dI+XyBerrd0zMymW7p/Z46l6OhvtrtFUeZkBVd8/ko+D5rxcVNetxE0V7EuSgqleOwFj2lcnz126iVY7beRjUNKvg2Ts+bt1EN/UkO2yi2x+40gc29b/RtFIe+IYf+c+sb8/u37hty6D/r/pHrG76Nc//yf1/bf3pfaX2r8E8PKfz4FXGP35CqqJpE80Ecl+fytgCEwXKMQK+V2Wgg20vJWMy1LS7k8SkCoINZXChInQsy3V2USMjFJE6zgbf1dbyzo9FGWbST6NafZGgtga02ydB739T3b2uVvLN+3m6SoVPJOwDCYDlGoKUEuq+vW0wOcmN+EQINQEcLNPuOy/w1qrcnRclUipaWltwFejxXkVFrkVEchU1WdNs7Gl3Woo6LRmvP2x178Gi03n+NjUZX92Mfjda28R5tdnveFI3mx6XUR6Mr95HEASDQvnFN4ejuTlM6Kdc18/NYeRCATmZ+sSBynN3IMIFOpNh5Y859n6fGcybRNQpGvUgHk2jzvoOLef3+g4m0czRbE0GntAX99Z1Eu17y6kXP7fkwRbF67M7PBx9kuKV12B277CCEyDmtw/8gQ060FYtBnVqJQJe9WZNnVY9G45wGINB+cY1A92V6pCJOnNz8Ij5FAHSyQM/LRaCzPWmKS6ZwnBqftZTRKKPR9SIdZjRaF7XWjkbXS56sSNtJsrMouom0WzQ6+CDD3D/e+0ZWtKOKRuvbyA9CaqPR5RRo7TNajkEDAIH2xwqJUzolJQUaExIA6GxiMUXufMAu0vFEXGqfZybmJEW3VqTDnGTYetFod5EOLy1BRgS9TZKzF8HoJxmGEY126j9vgxB//Rd+NNo4ANEnGeKSDSDQAa6HbhvMzM5L/clWRJ160zQ7hyg0AJ1KXyYtdT6YnV8Uy3rLsLRU8iC6tRIdTHobl9bhb3/OEdeqCPpL6wgjGl0vitVtWiEaTS79J5/yEkZueX3/NS4arYu0MRoNAAQ6Qubm8/z0QHGJi2Z/potOnsEy3gB0KgPsOy6TwrG4WKgs9BDGyqSNjUaHs896cfEn5ih5R4SSd+QwyHAbhJifr41GAwCBjgj+J9uF/JKQYxmBBgB0sED3dUtFoOcXl8rnjxgVi8UQRdROpBGN1kUwrEmGrReNJhfRDhqNjnqSYfjR6OrvynulE8gzgEBHb9C0MJ+n4T73hRGG+7vRXwB0MPw7npApaVmuCa/wbYvhvw+UvGtmyTtyEW1/0eiqLDa35F10kwybV/KuOsgwPw+JBhDoCFHKF8OkRNRp64YR+k5sD5VKWI4QgE5j1XCGhrJyg+Q5LtCKl0VLvEsqSt65V6PwJ8luIhiNKFaltHNK3tkPMur7p5kl7wCAQEcEnxgok/eY6UnSxrWDtP/oODoNgA5j++aVHkpa+llUyZ/0tnvJO79pHTKiqItg8yYZtnrJO7+TDDul5B0A4RBDF1hzdGxSXDhl2qVbRtFhAHQgO9h3W+YcwC/+Y7y2s69cX39LbTuvShzcFKJcDrwqwf72yWXIbUlr66Woa0U7vCWtrf6t9TbOS1q7DYBklgN3G5xo2zj1jRqwb+SXU/fXf+TQfzLLqQMAgY6MY6emaDFfFJOH3NolIkqFrgSgk1g/2k8jAz1S54BDJycpXwia+OxPJu1FOrj01u87XJHW9u9/f24SXU1dcBdBJ9GWEcF6mbQWRTcRrG4jI4Kqz77RBxlu/ee3b/wNQur7z2/fOIs2ABDoiDl4Ui4K3dudpMu2IgoNQCdx3Y610n+FevnQmUASHIagOkejg4t0GLJvv/+oo9Fqk6LR9iJoJ9nW25CLSPvtm6ij0d4GIdaDDDeRdusbiDSAQDecfccmxERCmfbmG7dSOoWUcgA6gQ2r+unaS9ZJffeLxRI7V4Q9ByLsaHRw6W1cNNq/SLtsEWo02ina7C8a7S/iWj324NHoYCJNLoMM+bSP+t+D0yDD7dgJEg0g0I3mzOQ8Tc8uihJWbm0o20Vvun4zOg2ANodL3C+8ZhslJb73vO0+cpaWSiXPfuyeudC60eh6kQ6z//3vs5HRaGvZlhFpchFp8iXSYUSjnQcZ5DLIcOsbWdEOf5CBaDSAQDeBPccmpHIgeXvtVRtp9XAGnQZAG3PDjnW0ae2g9Pf+hf2nDfbnvSxdVCLdzpMMw4hG+59k6D0tobMmGaptMMnQb98QJBpAoBvFy4fPEZ8fKJMHmUrG6F23bkenAdCm9HQl6edffaF07vP03CLtOz7hKE/eZTRc6W18NHq5TDIMIxod9SRDv31TFWnn/mvWJMNg0WgAINANYGJmkZ7bd1Y6F3rHphV02w1b0HEAtNvJkInaf3rrThrMdEl/37/96N5qbWJ/7uwgo+FJb2Oj0eHs07z/Ti15R7S8S965iXZ0Je8AgEA3gO8/e5TyS0XpqNQvvm4bXXnRKnQcAG3EL916MV1x4aj09/zgyQn66d5Toeti1NFolLxzFkGn560lz7sIdmbJO9XnBEx/g5AwSt4BAIGOmPnFJfreM0ekL6xJ1n7z7VfS+av70XkAtAGvueo8uv2GzdLf8Rg7c37pB6+EKrdyohuOoKLknbMoRhuNdhPtehG0k2xrWSQXkfbbN27RaCLZaLT9QKR5lUwAgEBHxBO7T9GpiTnpiUW8NvSd77uOBrNd6DwAWphLNq2gD7zlcunvNm8/eeEYHTszE/l7k49Gt1ZaR6eUvGvEJMOwRLEqpcFL3kU/ydCtb6KcZAgABLqh8C/f139ygOKSpa14Gx3ood9jEt2TRn1oAFqR9aN99JH3XEvpREz6e72YX6KvPrzHWjQVJfT3KBeN9i+97V7yzm9ah4woNn+SIbmINDls08qTDJtd8g4ACHRDOTQ2Tc/tOyM9wYi3becN0//8tVsQiQagxeDfzXv4dzOT9vSd/sqPdlNufskkg/7+OOxN/FDyzmn/nTrJsNVL3lEblLyDMQMIdFPhkee1w730xR/to7NT89K5krxtXT9If/Zbr6Y1I6gRDUArcO3Fq+nuX7uZDWzTnr7Lj718gh585kiY6udLpMOWc/d9Y5IhJhmSyyCjVUveESQaQKCbSbGkinP9VVtX0Ke+u4sWCkVPOZPrVmTpLz/0WrqAyTQAoHm84ZqN9P/96o2i5rOX7/CBk1P09994tnpJDjWI6k0mmxuNxiTDzix55/Z8Z5a8AwAC3QCOn81RvlCiK7asoK89vF9cCLxEr0b6u+gvf/s1dOWFo+hMAJrAu1+/jX73vddQOhnz9N2dmJ2ne/7tcSoslSzlWaGw0p9bKxrd/pMM/RFsyWvv0Wgn0WtkNYowo9GNmGQom/aBaDSAQLcAP913hkollVYOdtOjL530dBHmLduTpE/+xi30S6+7KIr5RgAAC3q6EvQH77+Ofv1tl3n+zhaKRfrYPz9Kk7N5k+TVrdot/kgVxsW5daLRzpLeDpMM2yMabS3b/kreNWKSoUw02nmQQdTcSYYABAflITzGhfJLJXpm7xm6Yftqmp4r0MnxedqwotfTvvhEpA+94wq6fvsa+qPPPCpyqgEA0XDx+cP0P371VbR2hfc5CFwS/vQLT9LBsSn2KG4+Hyi6NEcV0/K2Z11EnSVBcZQrf/sO3gN8/9V9+3uPzu9dcU1RcPoMVGXcThQVm8GGWjkm/fist1FM/Wvexul51XLgwbdTFPvn67dRbI9dUcjxefe+0f699Sa6RPvtP/PxVY/Jvn8g0SAsEIGWuIbVfqlPnJujw6dmxFfy0Okcjc8sikmGXtv1TMI//9Hb6aZL16KfAQj75Ma+uP/hTdvpU7/7BtowmvX1Hf3/v/0CPbrrhOFirJpUQqm73Cvhn4AwyTA0kW7dSYZhlLyLepKh377RRbp1JhkCAIFuhk0LoyZ67sBZms8via/li0emRCTaD7wKwJ/95s/QHb90FaWScXQxACGwYqCH/va/vpZ+4+cuFyLsR5b+8qvP0Jcr9Z4ltNPjy3hzueVa8i6cfZr336kl76xFcfmUvHMTbUwiBBDoxrmy6TupmC43eiqH/vQrx6fp8Jmc75d756svpM/d9UbaecFK9D0AAeTrLa/aTP/2/95OV/mcrMsnCv6Pf3mM/v3R/e5CVa805DXtQl6kWy8abb1/RKNR8o5cBhlB+49cBhmIRoPoQQ60zBVSsb7OnByfo6Nnc7R+RMuBPjA2K8R6y+qsr1P95rUD9I93vJ7uf/Iw/eWXnqHTE3PofwAk2bFphP7bu64SOc9+yS0U6KOffYSeP3C64eLvLFRWwquGuG//ecfm/OVw9mm/73AzzrlER5sbXQ6+KPYXF+fcaKJg+b/+cqO113LKjdb2YXfs7n2jb6M4DPLkcsutj918/PZ9DAAEOhJxNs2dsPniHTg1S5muJA1lUuLxsbNzIoJ10bo+kYPph1uvPo9uvmwtffa+XfS5+3dRvlDE7wMAG0b6u+m33r6T3nTtxkAXyPGZBbrrnx6m/SenHE4L0U0ZdJZRO0FVQ953600yrN93600ydI5mayLoNImukZMMzdu4TTJUHS+ArTHJ0K1vqG4bAMIAKRxO1xHFdMd2JL7r6BTN56uSe2pygV44PKktvuKTrlSCPvjWS+lLf/Sz9Oor1uP3AUANyUSM3v/Gi+nLf/wWuu26YPJ87OwMfejvvi8WS3GXy4hPPRGmdcjvezmWvPO/z3BK3kU9ybD+2tUZkwy9l7wDIAwQgfZ5EVEMzxWKJXrpyBTt3DxI8fIZfmI2T88cGKeL1/dTb9p/N68e7qU/+bWb6clXxuivvvRTeuXIOH4tYHl/K9lX7Gd2rqff+vmdtH5lNvD+Htl1gv78S0/R1Fxe+vXtLsJKyHm6UUaj3WUCJe/8iLS2Hz8l7/TXDJrWYY42t0/JO7e0jrBK3gEAgW6SPFtfImcXlmj38Rm6eF1f5Wc59rOn94/TllUZWjPUE+jdXH3RKrr3v7+JHnnxBH362y/Ss/vO4FcElhWxmEK3XnUe/cptl9CmNf2B97dYKNI/fOt5+vbjByQiZNoF2OrCLpSwbHWq53OMGoLo+pdJ+bSO1suNNvdLVCLtb3/OaR1VEZRJ63AS7XpJrhdhf2kdbrnR5LCNu0i7p7yQS//57RuINIBAN0GnFVe/Pj21QH3dCVo3XJVlvmrh3hMzND6bpwvX9Ik/OwfhhkvWiPbTvafpU996kR7bdRK/HNDR8O/M7ddvove/cTut87EYihUHTk7S3f/nCTpyasaHHRlOAbpbmkRL8XRmkbmot+skQ/dodHCRxiRDP9Foa1EOLxrtNgmx2dFoACDQDZJn6x9YfR/5pMKedIKGsynTz89N5+mp+XG6aG0fDWZSgd8TL3f31//lNfTy4XNMpF+iHz53FLldoKPg8wDedtMWet+t22jlYE8o++Tfka/9ZC996rsv0lKxFEiefXqVw1nGfWetMcnQXzTaWaSXazRaF+lWjkaTpWhr27RCNNrbJEMAINAtgfXEDJ4Pfen5AzTQmzQ9ly+U6PnDk7R+uIfOH+31XaXDyLbzhukT//lmOnBiir7w/d103+OHaG6hgF8NaFtWDfXSW2/cTG+/ZatYaCgsJmYW6E+//DQ9s+cUqUHkyko0hX2GNVTvzGi0s6QjGt2KJe/MIh00rSPaknf2gwxU4gAQ6OZRE3FWXE6gJfYNffHIJF12/iBlu+u7+Ni5OTo3u0hbVmVDiUZzeE7o777nGvrQO64QdaS/+vBeeungOfzuQFvAVwu88dK19HM3XUDXX7I6lMGl8eJ735OH6HMPvETTkhMFbQWqVvJqomtKmCccCZHGJEO3fXfSJMPGl7wzy3azJxmGUfIOAAh0w+VZu686PGmGl7B74fCEkOhMV30387J3LzDJHsmmadNohrpS4Szj3Z1OiOgdb3uPTdBXfrSP7nvsoFggAoBWg1eZeeuNW8TqgSsGukPf/0uHz9E/fPM5rbZzwNCTRJWtCE4+mGTY2iLdipMMZaLNRM2dZKj47JuqSAebZAgABLoh7qzUyLNafsYt2rRUVEU96Ms3DlJ3yrqrz80s0vjsokjrWDfSKyJxYXHBukG6891X04fesVNEpb/28D564cBZ/GJBc0868ZiINv/8zVvo2ovDjTbrnJ2ap09/90X60QvHov2TbeTLBCMaHVR02zuto1kl76xFuXNK3gEAgY5Wnu1mD3qAL+3N8555JLorGbc5ERAdOTtHp6YWaeNoL63o6wr1WPhkLB7h4+34mVn63jNH6CHWkOIBGgWvpHHtttX02is30M2Xr6O+nlQkr5NfKtJXf7yPvvSjPbRQWAr9nKB6s+mGvnq7R6Ot3zui0boIouSd3SCDAvQfABDoiAza+DU0F7Lz8l3k9WafPThBO84boN6uhON2u49P08mJedq4MkPZ7mToh7V2RYbe94aLRRsbzzGZPkoPPX2EXjhwBpMrQKik2IDx+u1Mmq/YQDddto4yEXyejRfah188Tvc+sItOTc419q+0uiSoUYs0JhlikmFrTTIMq+RdIyYZ6tFoACDQDUQ+89keEYlmEr2dSXR/j7NITM8V6LlDEzTQmxKpHf290UTreLWDd7/uItHOMOnQZfq5fWfEREgAvML/2sHrlPNIM0/T6ElHe4opFkv0w+eP0Zce3kvHz800VJy1BVSMj70vqy0vut7FDyXvZPbdepMMwyp5Zy/S4U0yDKvkXfXYnZ8PPshAFQ4AgW44IWRz0FJJy4netq6Phvvcy3NN5fKi8Uj0+pEeGsykIzu+FQM99IuvuVC08ekFevSlE/TkK6foiZdPMrmexwcA2LJxdT9du20VXbNtNV29bVRIdNQU2ID0oZ8eoa/8ZC+dmZhr+LQgpeZRkNiWN9H1Jn6IRnsR6TCj0Xr+bbOi0VWRjmaSYXNK3skPMtzTOgCAQDfkYmm9CqGfiyaP7L58dIq2rMnSqkG5qgMz8wXadWyKMukkrWMiPcREOsp8rqG+LrHyG2+cgyenmEyPMZkeo6d3n6LZeVT0WM7wRU2uuYgL8yomzKtopL+7Ya+9kF+i7z51mL7+6D6anFkMVs85Evy9n2DRaDmRxiRDt37ppJJ3VZENIxpdL9qtXvJOJq0DAAh0hNdBt2+e4nvXe0/OiFSNLauz0pU3cotLIke6OxUXy4WP9KVdRuLhwCOMvL3z1ReKpcl3HT5HT76sCfXzB85SvlDE56WD4RP+rtg6KoSZt/NW9TX8PcwtFujbjx+kbz5+gGbm8h0QQ1IiEGmUvAtn8IKSd07Pm0W73ScZAgCBbti1TstyDOfLeHpqQURzL1rX7zi5sBZeQ5oL+OEzOVrZn2atO7Q60m7EmOxfsnFEtF+57RKxHPLeY5P00qFz9NLBs7SL3R46OY0c6jaFT/y7cP0gbT9/mLaz3/H2jcO0bkW2aVGc3ccm6MFnDtMjL50Qk2zVFldn1dO5wV4mo07rQDRapl9Q8q723xvltpGTDDXRRjQaQKDbUp7lKj97h8swnzC4cTRDqwe9/Sm8wOT1+Pi8aHxi4igT6cFsKpK6urYfoHiMtp03JNo7brlA/IwvJf7y4fGyVLN26CydGp/DZ6nF4J+T81f3aaLMhPli1i5YNyB+p82EDyp5/eYHnzlCx87MCGluifGYYuECqh8VlJNJRKO9vndEo7VtWrnkHZGfSYZhRqMBgEA3UJwr8qzYnSaCwaO1B8ZmaCpXoAvWZJnAeN8zTwfhLXE6RivKUenuBkWla+npStKVF46KpnNuep72HJ2ggyenRU71Idb4/ancIj5rUX+UFS1veeOqfibMPB2nT6Tk8Egz/121Cjw1iE8MfPyVk2KSoNoWJwnV3lNCkl5MMvQq6Sh514ol78wi7ZbWEXXJOwAg0JFeGhWrc7LbzwLAVyXMHVyirUyi+3r8iQ1PqeB1pMdY6+tOMpnuEtU7wlzh0A/Dfd10/Xbe1ph+PsGO+dDYlJBqLtRCrNnj07yyAs5znuC/4/Urs3S+EOW+cu56H53HHkddTs4v4zML9JOXTtD3nj1CJ8/l9Mt/y58dtItw41YdxCRDP/tGyTv7tI7Gl7wzy7ZbWkfUJe8AgEBHq9AOEeeovpc8z5OXulvRl6bzRzOUTvj/c/r0fEG0mDIrUjyGsmlRW7rZf6I3Msje02B2Je28YKXp5/OLS3T87KxI/Tg1kRNCrd2fEwvA8MeLy2zyYrYnJSLJo7wN8dve8m2PqOm9eri3pX63dvCyiE/uGaMnXhmjvccn2jBfXnXWwMAnB+dotH+RxiTD1hbpaKLR2nYoeQcABLqB/ux2Qo2Ss9OLIiXj6guGg1/u2UlkMpenybm8mADJo9u8FN5AJkXJFhWu7nSCtqwdEM0Onv4hpLos2Wen5kXd7Gn2c16pYZq3nNZm5vOigkgrwZe35lLc35sWt7zaRV+vdtvPfj+8NrcuyKNMkFs1iizDSTboeXI3k2bWDo1Na1Fmtb0rshqlTYnsBIRJhuHsG5MMmzfJsPVL3gEAgQ4zxlRzFrY9n0RIMQLh43vU86WVMyQWaRlk0jbAhC2ViLXV74iLJ29b1w9K/D6JcgsFIdZTZcHmLV8oibQXnnNbKBbZfVXc5z9bsvgZn7iplOWXDz54xDeR0G6NP+P3Kz9nLZ2KMzFOVwSZ3zZiwZFmcvTMjJDmJ/ecEpMB3cWpveS5TvUiuT5jkqHf3w0mGVpftFp7kmEzS94BAIEO/UppJ89RfxWjzgXlJx2+SAtvR87mRIST503zCHWmKylK1nXQr5Ey7Nh446kOIHxm5/O064hWfWXX4bN0uryCZcemsqvhypNfmcQkQ6+SjkmG0U8ybF7JO7dJhphECCDQkV+uFNsvqdIIe6bGR+vmFpdE7vEpJj4Kk+cMF2om0zxK3ZNOooYmMJFfKtKeY5NMms+JChpHTk2LS5vfC397nBcM4lB2JrXBr97oaLR3Sfee1tH4aHRw6e2USYZhRaPNIt28knfVY2/QhRpAoIHNSazmm9/o76T9ySvq11VpdqEgGodXeOAine1OiduuJpXIA82D55AfPj3NZHlcSPP+E5OmcnOdHtcx6VZlgrFqIRXuPTE/N0e7d+9usYF3FL9BNYL3rkbQL2rI/a6G/jtNJOK0adMmz+dx7fIVfTTa+nrV2pMMAYBAR3bBVIkcx7nRfzFbJW+L52PzCXpTc5pQJ5hQ93QlqDedEKkffNJfMh7Dh6ZD4J/8M5NzdHBsmg6fmqYDY1N09My0yBk3XpyWdw8F+9eqWgrhr0xqU0Q66r+ORSnSjZPocN9jqRQjv1HzYJMMwy15Vy/azZ1kCAAEOkqRVmqduXFfRK4rrailS0yoZ+YKoukV//gkRF2me1LabTyGk1Y7wAdHXJQPnZpiTZPm3MJSTbUM5A6q+sVaDe/cEkxG22GSYVT9ooT8mcQkQ22bZpa8I4p2kiGuRwAC3Xh7btIItp3mO+SXSqzlRck8vbu6knEh0vw2XW6pRBz51E2CVxHhkeWxcdYmcnTi3CwdZLI8ObOoXb5UFZrsqBf+no1eRps3yTBKiXbvlygmcqLkXfNK3lmLcpjRaAQCAAS6MfZsc7+RAq1SO//paaFQFM0YtOMnOS7SulSL25R2PwazDgVtMqi28AyvkT02od0/O71AaqlUzdSFMHs7I6i1ilAWDl/nCbNUBRdpRKPDP/cjGt2ZJe8AgEBH684t4HKd+GXnx7SQ1yp+1J5qeRqIHqXmtZT5Y+1WewzBrg5MpmYXaTLH2my5sfvjTJDHJnM0k8vXS7KK2EukJwzV74mG6kS6XaPRUZ2zmhuNDi7SKHnnFI0mF9H2F42uijSuGQAC3XLXy0Z8LZdTfJCf9BYLJbFEt1pzftUfJ+IKpeJMqJlkJ/Xb8gImPN86Ub6Nx2JtlybCq1zM84FFeXDBb3mO+VSuKsi8Tc0s0nxhqXKRqJdkaHLkg+u6qGKoO23haLScSDc/Gh2FSKPknT9JNouwW1pHWCXvqrKthvxdBQAC7f+y1OAydqCKtirgEuWM0WvVesDBJVqTatb4/bgi6nvzky6PZP/f9t49WJLrPOw75967d9+72BfeBJaAAFIkIZKiCL4pUqIeoCUzMiWVKdgqSSUrcTkuOZXQjKg4FuXISaVsp+z8YRupJJWHU6VKXLaVPxTLFUmhIpEiLFKKKRIQHxJBAiAI7AK7e9/3zpz06emZ6cfp7tPd5/T04/dDNebeuzN9Z/pOf+fX33znO3qhmPhj4+Xua6GEz7a1tbXY17PHTKbTsDPJNHg+86+X2zR8nvOvw9vJVOwdTBZyvLN/lPhaZ+T1Nh8O5gPhQpJVbBof74kVB4C4UCnDv7mTXt/Z6Poi3fVsdHPp9SHmZpFWjo9NvbIOm2z07H6rnGToouUdAAK9urGzRYdGoOseOBFK69FEZ7WXB1Olw3XsB1OllrKra7e13M6zwVpyD49E4MO5Gd+47Bb92/x7JZKSDP15b/m9imkvG11f0plk2PS5+8pGzyV4mJMMXbW8A0Cg/UuzLBZp/wLNyV52fCbzbG/w9VEgv7oUYpEBnkxnWWA1+/oo/m/650ezn4X7UNOk+CpBWQQktUn5lrP8fdPyromkM8mwTmwd4iRDhlRAoFsaMJv8uxNB7OmxCyV2qkLxnAUtJabR7fL7maFO1Sz7O/+3qZqVQEzVTHan85IIFZfi2b/FF6NQIpnhjV+AxLPGy/snJRmgdnSQvt5DrrPRxU+WSYarEWkmGbbb8g4AgW5tqFxdGnra08tl3Qv62evby6Eg0wkiXt8rMgt2xP9t/r1KBXUyCbAab5YFY7OPWf/mbHSzc2A12ej6kl5XRus/Tx+v3f4CoJ+TDF1lo5Mi7SIbjUiDe1h7uTQoyuR3sR+1IXC9lURiFYwmMoiWPsHI9taU0t+JWm/fdv0/9b59dcmx27ePPqXN95l97tL5sam7TxV9Slgs0UVzOmLzP1Tev6uCsS/778n7KOP4qVSrJykg0CDTJ65MJQVaOhf7WgONP8MoUOnm2rL1s6u5jOaLX/1924u0t6O0UpF2Ibp+nuPsuNTfp51Il0ty8X1EwX1U5hTMk+zsfViJENxBCUdhGFSJGLOKD4IoUwDo0FVhvH4+T5tyzC3RxaexOdLyroowDmOSodvn2e1Jhi5a3iXPOsZScA0Z6LqJBCkdDIIWQWqQBw+gz6jMWz3eQzxvS3/n4zzzmY1OCoq7fTbbt70sDiMb7T62ri4bHRftuhnromy0eQRFpAGBbsn/wpNNxeugpWhziTtKOAA6os0ZbzbEAimXkyWiTS42kdncnW0+aqN9lHW4EF2XMtpG9PJVG+2jrMPHOKVEcb/7pCSXXbTWq43GmsE9lHAUnK8qtXQKC6lg0ACmvjwq9qaXNp9OyeRCFG7O82TZAC3vmuyblnd1JXq1Le+Wx9mm5R1AE8hA2wRbuTo3ZCEVgK5fE8aDRLJwI/PfPBudLu6Q/p4pkwyb7Lt7ZR3tZaPrl3WU3MM6G910kiHZaECgV2TOZRnnNkR62tNznet8GDrK9JN0iUZiy1ZFx8+WfpR12Eqdu0ix+pZ3PiJaP1re1S3rcNPyrqiso2nLO4DmUMJhESzlCj/54ZwH6Lo8q2z8kLJsDnJOzFEeyjraWYBlvn+fZR0+O3WUHxdfZR2q8XP3tQDLbP++yzqKPoVxv5IhgCvIQFcYKdM5A9WCVPe2hIMUNAzyuloWSPDyjokSDZmz5f4S12UdTDKsKtLtBjcmGbY9yRDABWSgc05GqXLipY+SuMLAk7nQNsp95ucrFlj8GQZq0KWitRb847RENqTV7+p6Njq7z7R0McnQ/Wsve+5MMrTLRgM0hQx0WV4gNjdIZ5xVy5I4rxNTIjv9QeVeY8/b76X+LfoivnjaojZM5Vy02/zceF8CFQz+OjsVL+QySZ27Velh1142upuTDO1l10v8X0k2uvk++52Njot03klXLRvNJELwBRno3Cih2onSJcQnESqRXDZYxoReRlfu0c0y7xBbTHFWcqIKQ6mKLfmgcvIi0nA9v4pVGgG6JM9xjXa7yJKvbHTyhfheyZBstPvXXu25jzMbPT8GksEJEOg2JVpL52r6P2eu1g2GqjJybCe3KvXDPNmWIhmAZWTqKn2N0XZhOEBXzDl9AiS6bdgIUnWhcjuZrr1Jhs2WA7cTaSYZlh0Xt89xuRy4T5GWpZJcLNLS2wUWINBgPG1lJle7CjWcfQQVtceaBwJDaJ3/y1KEk9noTMyMxdFFiJFF+87/3tfQAdBZec684ZeLl9h8xF0/Qz2MbHR9kV5dNtr+uLjN9LpcDty/SNfbn35ckUTP7lOUjV6KdGk2mkAGCHTdE13a3WeR0c2mWdsU6alSIl3CVZ4lnqm0TAmyiv6xOEu9rC+T6ehbIuHmDADAoCKIME8MWJ4PSsqCICEdBBFa3o03G+36AqBvZR0uWt4BINDNol/JfWRCnn2FM5ugkpLU+KfFBnGNl2Kk66HTJRxLqRYJ2V4E2syTiAKkIfQu902QgiHLc8FYvPBoKXK7QEuXF5o+yjp8ZaPNB41stJ8LiGrHZUzZaEQaEGhH1/DSeAfTMqarSqyq+WQKGQl9fFKhTIc+c3Y57cHxcg0ZL7GW5a8zIeLKUPpBbIIRxBCV60Yy1b7HzMmTp8RDDz3kNFIYrned7tfNvlV5ssDhPuvvv9qTsdt3XaFcJi9ci/R4W94BIND1L78rDJcyR6JVC2elaSlvYwY4T4QzWWpVkkGevd7cCYqmLHWi3IOTCgZ+AS6L9UgP+mWlYmtra2Jjw0f4LWvx5UZQuyfSfZHo5iKdcznXaDjs8iTD4nNJWWejEWlAoB1cFdvcRxbZYItnYdgHOl6/IQ0Z4ALJFTJnEuC8Njqn9EPKvEmDqjjLjUHD0A1a1VCi9BVmTLLdrjZKy7tqwth8n9X3XU96849LH1reiah+eVXZ6KRIAyDQjQaDoh9JYznDPOO8yEi3cDIuFjmRqfZzRslVhQsWmnpFF+VI8iYoGuISJRwwAlTh+D/vvmHTB1qmLtjdS7QQfZ5k2K2Wd9XEz+ckw+J90/KuyiRDAAS65pV2rkwLkZ0AlDbHFk9ApVSyTELaS655IRVzP+h49465CJsnKMoCgWd6BoxCo0uuv22W30uvBugrG70UaSYZNtl39Qjnc5Jh+9loHyK9qkmGjFKAQLsw6IJYKWeumMrUtr+QiiE4zJ9LRnLlUopl+UIqubIt7VYZXNwn8TwITjBieY6yz7LsI57c6jDX2eilpHU7G10sk90q6+hLNrq5SA93kiEAAl0jRJf3Yc1bSCydvG6ljd08QMbiobEPdPo5quyEwtwstUmu88oypEHgJRloGEf0yH+Xp646y/pAF0SPvmejm4n0arLR1SS9e9noYpEeazZ6LtJINCDQwuEZa6vZxuWq2zwZ1bwIWkUT9KQ5NJok19Q1I9HuSpi6dyyXPU3PezLJNr3qYYzhQ8XPG0M5RvlKhDa/i0mGzUS3uvSufpJhfUH1XdZBNhpg5AItbfqtRSlom57IvpmqghKKEsktrE82LaQiRPEkxOiXmlYdVJlLD4CBxY7Ccz52MtrUQFcYyX1PMnS3ayYZrlqkh5GNri/SNtlokjyAQDc36Nywle5Xv0olDAfOVAmHcbXAeCAzLJgSfhlfylDmr04ojI8rKNcwTFQEGCSq+Icy9l9xnKl2opCNVg1ktJ5MMslw1SLtJxuNQQMCXTsUl2WG5mewRc1cS+N14oJcmksoSrtwGLPFptUJVVKKM502zDuijR2M0p2N8UOU1kDXjR20vFtNWQfZaJvj0qeyDgAEuv7lc4EMZzNIqzsJk32gk4HE1IVDmOQ69YPchVSEoXRDJe8jczLgsppmAPT5Ktzcj10tr79LB+4GIYWWd+Y4Qza66nMfe8s7AAS6pj+X1EDL1YpzPACkVxBc/Js0t5aLryiYXtZ7oeEytupguoA6te94llqZMuCpxwEMWp5zr8elyE1Bpyb/upjN1K+Wd8tAMa6Wd/YyySTDsvd6vedINhoQaF8joGEsk3nyvILzbxE0YtZrmihoqns2ynUqXM4yyir2OJnZd+5+Yk9rhYcIYMVXudW7cLg6U/qTjc5K1Tha3lWXSVreFe3f5yRDAATaasCpE6tXcepl+kCLZGY4mVBX2Qx07FGyoDZale57uYxLURs7RQoaBhs7DOKRWVlF5dZAx6ufXQ/kTDIkG934vexIes0irRyfh/X2GX6iS5UhINANz26RL8RSFs4C8jIAFp3wibHaVHuZE/5kaqQ39cJMl4cUt6hLxaycziAA44sry49jFnMoSs8F98sPMcmQlndu9u16kmG3stEACHSDMFtoe/MaaJm3VG+xgLsV6HjGWGWaYCzrm+UyPElz+EvUNMvluJ98nMqKc+I+MukMLR4LgG4GFMOZloot0iC6S8FwXy+avvh2LdJMMmyyb1redWWSIQACXeOMlhbhzTQEmhYY8SrQQmXSyZka5IXlymUmWeZP8Iv/3LSQyry9nRTm+yQEftEhxLUGAHSMojd3/CSxqoFOy0sfstFLSet2NrpYJml5V3Xfw255B4BAVzjRrKNJLB5JEe9a0eKYreLt62Rm0ZLqE/xUXhVGtG+5aG9nnERY0MZuJtQEMBiRU89PlvkJoGSmBtp4IR7/JCchL2Sj3Yk02eg6omt+7mSjAUYv0GF2yGLQkbI8dLS1kEpCXHMGZpXXhUMZ5Dr2YNMCLEKYF2mZ35E2dgDmIDBzaWm3YFOuGPnJRvsRaSYZrkKkaXlX/F4nGw0ItPfxThbcqxsmuJg1bMo2q3RAVfkLoohlEUo8tqQT8qbyEJlKQWdWHUxkot0P/gCdjikquZh3tJJKSZmYtBAj90VRvicZjq/lnZ1IU9ZRtm8mGQIC3f3BzqKEw1qfW01BL783lVAk+kDHfySzoSm3jltZ9JFOtbfL7JNYBQNF5chz/B5SKrs+0FKW/jPZ6Paz0fVFmkmG3RZpBiZAoF2dUeX36UhyWiWCizKXUMSeXKa+Ob4GS+ofzZKsFst3pycGpqdRKpFtf0c7Dhhu7Mi36HQpkyyNPxYX8plstHuRpuVdXRmtJ5Nko22PC2UdgEB3cAyUxXFF5GSpc1ratSPRap7fyR2kTd00MiItk9qd6MaReo1xeY63sZM5KyHizTD42KEMw29i3sDs6jocrB02RGeSoTmy0fKuiaSPd5IhAALdNGaWaZ8ynNk2Iu5DoPNqoPPCV1mZRZQyjie2ZEICktnquJynJxdmJx8qhyEPoNuhRC3OBf/xgJZ3WfHre8s7XyLNJMPyYwOAQNfMuJSFFRmVcWTvL4X9h7BumAbRZD1msaYM8Nycl0Irc+uT09lme/EW5asVYs4wpmtwZYoE/k4CstFmSetry7vqkl69rKP9bHTz96bvbDQAAt10+Msz4LVInhN3yFYAt3UqK5WTbU4JbzK8qER9chjOZPICINGNIyXN+eKtCsV78dE1cQ4GGDoSq3I28IXJZCK2trYaxwWf0u4+I61ynru7/brZt7I85vU4efKEWF9fbyDp48pGZ0WawQUQ6NWMgVYZ6GxqdblWgmq9iiocyJTMKHs2Ayxz65qVyCnzSPluXJrTF/+ZcKiy4s2nYzBkimqgq7C/vyeeeeYZZxfYLb5iZ/v0KdHdFWklXvWq+8SZM6crymieoI5xkiHZaECgV2TQNqNfstWGaQW/NquglcrpmKHyX5bKEd7FfaV5ouFicMuruVaSNnYwenvODuF1LiHdZNPc1hi7ESqb192Plnfm1968d7Srvyct7xh0AIFuy5+t2thlSyOqBkGXTMOIoRbGWlSDPP9m0S0jU+aRWmwlla3OlqpYrFZoWFAFYFxmbepf066gul3IxI/sm173+CYZ2h1PstG2x4WyDkCg21Jou/sYO9mtpkAhzEDHxujcVnUiv7wi03JuLs7SfFSyqxxmZT2zEmEo7nThgAGHjnSiWbmaQOhGpPuZjV6KNJMMm+yblneMPIBA+xwDbWqgjfeR1T3clUDH08Q59cYq04Uj3a1Dli+kYpPdthV4gEFLtGwcDszy4q6sw2822odI938lQ1reVTku3W95B4BA5450sjii5D2+ZVtMdOFQ5qW4TVni5OpoatGFI/Hqy1rbiexyxcVt7JhGCAMmJs/KW/1yH7LRPmTFRzY6+zy7m422E+nVt7yr/t6k5R0g0IPwZ1kaG4wrFsW737V8Xi5KoCN7zs/8yqxkl/VztigLyUhy+meqrGYcYHAW7VQfyUZnX3ffs9H1Rbrr2ej6701a3gEC3WuDtqyB7pAL6jZ2Kr0EtyjvwpEJTakfmkVYLeKOuY2dTIi9aWIhHg3DvggvGpbrv/PJRptfd7cnGRb/fXyXdTDJsOy4kI0GBNqhP9vVQMuUYUp342R1gU59Y1unrFL/IJM1HcaFVBadPnLb2JmvRViJEMYiz6YTzqk6es5G+xPpfk8y7GbLOyYZunmfI9LgnjUOQdlIuVp5ngeBxWaQWmUwbqXMg/xiS/27Sm2m35+7v8QDZ18oAhWMLVA4HKDDhZuMgUc62397x8TdPs3Hxc3zdLNv6fiY2/3Nqz33au8ju33Xf2/m77v5+12uevCGQbPBIagfKNtbSEWZh2iVDgfKYjLgsh6jsN7Zto1dzsrdhCkY9ulveONLP7/GR4Yu8RLIRos2JxnWF2lV8/3SbJ/V9u06G11/n/n7ZnQCBLotT16RNieFddFdOWeCoOnZ5U3wy11IJefKXaXMOvH7VVrYJRINg0VZvLOl409fij/qZpIhLe+aXBiNq+UdAAK9Mpf283Ft6aAdX0lFWvRfNizZbVoDQhh/ll4Ixdw/Ok+S0xMVqeSA4dq0ajUcMMnQ/Lppeefiwmg8kwzJ7IArqIHOHx1jX0qDdrZnhvPaZ2N9skiUHicyyvH7K5H9gSlAZfenRPI/86FSyufgC9C12KBWNhCbM2nuaqP9Zerc1XCnX7f72mhpcczdWFuzsg6Xf8/qfx+7fXevNhrABWSgy058lSPVbQ7XKiWrptBkKs9I31/GfiCX1/Lxjh3SUCMty55XXscOUtAwwJCQFwqkVBUGdtno/PCZjZ7vn5Z3vrLRLo852WiAVUEG2ibYxYuFV3DhG2Z+S7pwzP492a7DdP+M5KY6bKiCMLf8PeZPr/Oy5ACDigyGtjf1O8e77jIQl/PmEt2/bLQsOC5unqebbLR0fMyHn432+V4HqAMZ6LJTXToZ55oJdF6pZcEEweWgnq6BTq1WaMhcq0gSVCpzYVqgMTNRMVZDTX4Ahi/P6ZNC1Y00wm02WggmGeYdl+bP082+mWTo7r1In2dAoHsk1u0ZtYsuHJkPl02TAVNl3zIKhDK1BnhG4BMdO7q1iiOA50ggclvZOBSq+vLCJMNxTjLsS8u76u9NyjqgK1DCUXJ+K9MPW+6Ho1L1G0WlEvEyC2FTZhF9YzNRMbtoiknyAQbuzFIWDP6WC18U/wInsmv7G5vv2+nB9XKRM75Jhn1ZgKX+e5NJhrBqyEAXiWsyBGf+sb2FVHImDqqcBUxsFjeZP1am/01lX79KRi1VFAJdJeMAehEd6r/fi7N0Pso6yEb3Y5Lhaso6mGQIgEA7D7uZn7V8Ti7aykmR6apR1Jna/FwLVitUyVdd2uHDJPKySU4BoA/eXNDsXFYLD+Vy0bysw2dttD+R7vdKhs1ro82v3WdZh8/aaPvjUn8lQ2qjAYHuijzLcqFWLVmiUioh0flTllR2dUGZfRWJx5dNECx6/WVt7EgAwMAuqFXRGdHg4rE8k1ZfAmh5Z95nt7PRxa+dSYbtnkMACLTrREbrpFYJzJSRyJyyjPzAIgukuawsw3SRoZRa7SEC8H0WSnOauVlnZxsx8pWNbi4WZKPNz5NJhk32XT8bXS7SAAh0q56cLmFotwY6Sj8XduEoLq8wCm/qG2mIWyoh5Ibaz/gn2FI6Gu4BOibOwvypU2JOgvJdGkHLu761vHNzXMhGu3svItGAQPsfLTtyvqn4LEJZ/NRMJZqFddKp+6rYSoXzH+Y+3tjGDmD4F9aqUGvcnAW+s9FZeWGSYRst73xcQDTLRtuJ9PAmGQIg0H4dOiagMlPyKFt7HnW6cJiEdzZIZNfpzl+2W2UGWWmw97JlvwGGIs+Jc0P4vdD2Xdfpe5Ih2ej8sg4fFxBMMlzFexEQaEicoyq96siK5DlrwcVdOEzSnOmmoVTe/KfFV0qJ0oBfVC8NMER5VmI1b/S+TjKk5Z35edLyrsn7pVk2GgCBbnXYXKk65/eBFtnscuY+JasVVpogmL5PSurDUEmQgiGjbAZuW2moLn9MMnR/AWEj0m6z0U1F1+61k41GpAGBXpE2J1czymizVK3loFRqWcH87LI0yq7MEYHCjh15YTBTM50MZZIUNAzZnRvdYcna+po4depUI/Fr/yNpN79QKff7zMZLP6/bxa7X1zcS8kfLuyb7pj0dINAdFuls3eMqCn2VMghxweS9ojrp+R1kwVAhlfnfZOrCIdv1QxLOYNgBIfYGl5G4qOLL1QwnTpwQV69ebSyoxXLR/Cw079+1SPdBopfP0/ckQ1re1dk3PZ8Age7WWCmLB40229iVDV/GZboLRHmxH5WMu3JpBkYpV6YSFlYihJG4c5EoK4+Tw8piVL8nGbrPIs7baboVaVre1X8vNntvko0GBLqvo+aKqdKFo0iaE8uwmHo+y6UgK1FS+mHx+5BoGCRKFp6froWqvui6EYv2Jhn6EWn3Ei1EnycZ0vIOAIEekV0ryy4c5jrpeeSRBgtXOeEsd6JhSekHwLDl2fxtXqtLV0LlRi58TTJ0vXiM24/j/WWjlyLd7Wy0D5Ee7iRDAATa4SCZNcp2c6vLLhz5y2SrlBVn6qSDnShDk+i8KhVTsqmwZhqThjFdN6vY+15aNudwKD/15aW72eikGPUhG718M3Q7G10sk90q6yAbDQj0IGVaFslnK09E5pZtmPy+cJlvlbw2UKk7WGWZVRTEDEsbEq5geKFAJlrRmNo2VhE0e7nwVdbRh5Z3ZKPdiXQfJhmSjQYEutdI4w/kisQ5ykDHUr2ySGqLXkeqFCMeVmyEWaYj7DxwGdqCyEVUJmjBCGJEg7d5NbnoejbanawwyTBfpJlkWGffzMoBBHq1I+UqWtgVfJ9XOlE0XubKct5iLKlIld/GTtHGDgYdCtLd3135V9+z0dnn3v1s9Fyku5+Nzr52Jhki0oBA92fwNIh0e5KosounpOKKkrYhQhmkOZ5kl8USLgRt7GCkQUDlrtzpOs74+Eialnf5Ej07LmSj3Yl0HyYZAiDQfsdMkVfS0R7LhQhVcsJSomY5G7SU0Z3TZRYi9zFN29gBDD8+pGv+XQujW7HwLdK0vDO/7r62vKsvo33JRgMg0O4HRlnSkqrlBQlVzJiNJRgqW8lcJv6FkxELOnJIq+cLMDDKlqBWbi+umWRoK9JMMqwvunZ/H7LRAAh0/Wi9QjtMZJzzunDUeJrScCdlkG1ZRZSVKn0MwIBM2u5EaRiCmGRYdFzG3vJu+drH1fLO/m9ONhoQ6PbtudE/uxyv4xJtu5CJtIgv9rXT819vqMcuM3mAoYQDY4P02OqelUZoewlgkqHNvseajc6+9nG0vKv+N2d4AgS6bZRKnnkrOglVQdiQBXes1OpOGPo4q0T+xNS1jpINGOeFtXH8ripyvkSaSYbdFmla3jV/n1f/m+PQgEC3paxq9SeeildApxZAMepvYVZZGa8NVOrBRQsvli7kAjDQcJBRi3QJVKMUl71M+p5kWJyNri+oTDI0v+6+TjLsc8s7AAS6DQyDYuvCmO7CUePqWhnseh6gZMGDVdnvUOWPAeh/HBDJto8LaXb5pu9DNrq5rPjORifjXT+y0dWFsdr7iEmGAAh0i+NlsuB4PlCute3OqrwLh01/2qLkmLWUmyYdymoiDzAU0nMIhKea1uoy6kYs+tryLnlcyEY3F12792ZfW94BINCO9Tn97UqlUBXXQNssYFIqycricRUmHQIMVpyrnFwOpKqZ6LoRaVreZSV6tu9+trxrJtJkowEQaIuBUhb+YDXPo+xpGOuULfraldc3Fxd0KPoEweAvrFXmnFLWJ1nz31lfdJtJLy3v2hZpJhki0oBA91adl6eeNAR22fKzKQwDqkhrkz8szkSX970rWu9Q0icIBi3Pzny0xkfSdhJAyzubfbv/iN93Wcf4Wt7ZiTRlHYBA92XYXJEg6sCsonYZ+XKsrMKDLLxmkMVhS9YvEwEYyoV1/skkK4WI6mJEy7vmoks2ehXZ6Poi7TobTZIHEOiWLdrQMbnlFLSK2bM5rJRkxVU2JuXVN0v7p2Un5wC9d2c/l4f15IKWd+6OOZMMm4uu3d+nO5MMARDoFcn0CsZuUaEGOq8jh8w+uFE2eb6+DEELoMKJ40qkx97yzodIM8nQjYz2YZIhAAK9MlFuuwbaplVd/IlJm33avD6VfweVknHiFgw6HqhisXMxh7BeWccYW965izr9anm3fN20vEOkAYHu3ECZKIbowEIqixpoy99tlT2uGLMMi3xX6gwCMJgQ0fiNLh0LAJMMyUa73ac7GV1NNrq+pAMg0K5MOnParkQSVbLmujB8FMqxMo7f9pMPpZW5E7NgkPGg5E1ebV6E3UfSTDK0PS5MMmwmuuUiTTYaAIG28dXYN7NiX7nq5xOLAIXZ3kI5ljYPKbRrZRHTJBELRhMg3IqKGwFgkmFTiV7uu3+TDGl550rSARDoBgOl6lxdQtUYICtIsTEUsfoggN3Z10gsxpiNrrfP8uPiLhudFGmy0W5kdHUt71iqABDoFpCptnGr9fiSGmiV/6MqUqwqSjIX9DBGeW66lLc+nw8PD2ufVdXlQlV4bsLr2V+8/2YRRalq+1xfXxdra2sVJJ2Wd81F1+4Cz2dZBwAC7VOe83oir8ikVSpQZcKELA8lsuLvs7kTi6rA2C6rE+/smo3Qd3d3xJe+9KXGZ2FfRbp9iTbv98477xQXL16sNCYwyVCIIbS8A0CgfRpr/Fu5YpFOFT07k+KcNcKlzV6k6Z4KeYYBy/MKZT1H6lZbG11PVmh517ZI+y3r6HPLOwAE2qu7rr4IWJnktGJckGUxy6rBhizRcrmqQwSwWq9Wq9k5Le+qPPfut7ybizSTDJu+zxFpQKA7MDLm/Gub56OugVYpOW1oqcrV0SAuwUijg8pcWyufv62BjLYp0rS8cyXRs+PCJEN3Is1gBQi0/6FRFojjCs5Blfq1LsJ1ldZ1hXcj3QxcWsfOCeX5t9Lyro7oZo+Lm67+fW9551ak+zDJkAELEOiVjZIyHh1WxHxpb2M2uor85j1UNjpEAANElXunauOMsMtGV5MXWt65F2kmGdYXXbv3JoukAALduXFSFZzGcjFGtimPyhA/VJ40V5TfGg81Pj9kGsZ+cd3+E+j6JMP62ej8UNzdBViSx6UP2ejl37zb2eji9yaLpAACzahZ6PSqhbmMKrVMcRiwRY6oG0MbUQxGfO0tlWi31pJJhk1E17Wcm48L2Wh3Ik02GhDofimzoV1b+yqtEgEzHfxdBQ2ZWjlG/85q7ftkmWsDDMCUuxipmGRYR3SZZJh93X2fZIhEQxuscQjyT0+ZI4wryUOrrDDHt7aeQnwz/Sz97wDDiguyZPKtXOmzK+0cVGspY/sH2O273kSu4n03O+7m4+JukqGUbvdpEmkf7yO3u5YO3ot2fx+W7IY2IAOdc152TQCV5c98D8/p3y/jT4SABYO/rE55cs2VCP0/T7LRdWWXSYbJ1z3OlncACLQDW5XdfFqi5T7UljHRpl4aoL+hoS9v6uG3vPMl0kwyNL/u8bW8A0CgHQSPOv/qXp5V2SraHXBWktAwkivr8AK2+2Mykwybi657kWaSoflYttHyDsAV1EDnnoMy9q3qiBguK4yz/9mG4KbVylQ5A8je9W0sf7Krr42udwleXO/arOY4f99u/vi+a6P91Ee7rjFOvnY3+5YO3+cAZshAl8piwYknV/ZUDD/Oea4qfV9ZuBeLfFX5kwIY7pV1Ye2U7PQ5QTa6qej6KOvwmY2ei3T3s9HZ1+67rAOgKWSgc3RSmlYd85cssHhOqlLueNGhQ1TLF7vMLRO2YJAOrYbwIuykrto+7R5kn2HsVjY6/7iQjfaVja73XvTz9wFAoHsu9k2LLlSDxymPzxGgNydh4T/3ZbAee8s712UdtLxzL9JN34vu/z4AcSjh6NM1rbIexwufq7J5Maqs2ENY9MhGowG6H8nG2PKueRSn5Z35b979SYaINLiBDHTp6Wb4SGkVGq3s76bq7LtOmloJVlKBccUDqQY4CWn42eh2Jxm6k7R+ZaOXf/NuZ6MB3EAGOu90LawZk6LtSfjz3hvVr9ndBi8f0g/QD2JTdgf53maSYRPRpeVd9nX7zkYP91wEBHpIY0rsm1Wdr5k+0K04MdEJYHkOuhOY7goAKxm6/Xu6K+vwuQCLH5Huw0qGAAh0mya9+oF8ZQ+2PyLaNfikDYYaA8wDd/WTq5sCMPyVDGl5Zxbpcba8A6gONdA1T13EkBJoGHEMcNJay/XiEatJHPS55Z3PKE/Lu+zr7n7LOwAEuiNDCwAQFaqJdB9TBkwyrLJvWt4xyRAQaIZHACAION1pt7PRrkXaVzbaR0a6mey6lvN8kXYr0b5F2td7E4kGBLrLQwcnKMCIUIXLeM/v4irKjK+sw4XoNgvQ7Wej3Q0ktLzr0zkECPSI5DnzDSclALQgqGSjm+y7m9no9so63Ep0P7LR5nMIkQYEelVDmUSeAUYfD5QsTkJLV9NnmWToXqRdiK474WWSYfZ1M8kQ+gRt7LyFRwAY6OV0brss25ihBWRjwzb8Jn+Zm1Zd+Tupv//yB3ajzdjySayt2V0AlC8H7rJ3tK+Wd833mX4P+2x55+79Ym55B4BAex4v6WUMAGWKuBj6LRdaOXXqpHjNa17T6Lf7FOnuSbT9g+z273IBlqyk1ZFdnwuwJEWalQwBXEAJR0F4VRanIwCM8+I6HQRUy7/UzcfdMle66u2blndNRNdXbXTyuIx9kiEAAt2uTXMKAkBOHFCxH0rvEcJ1XacsFGnX+6wv0rS8cyHRTDJkBAcEupUBsmhOEKchwNiupNVySFflF9ueo1MDGbWPaM32Tcu75qLrftRhkiEAAt3eWAUAXFDPHVl1JS60m43uTlkHLe9cSLSvbPRcpH1dNCLRgED3Xp45iwHGgs49KyEL/UVWaGPX7cUjfJV1uD4mtLxzIdIuxTwt0WSjAYEe10gZH46i/9xnAACgfxfUzlo967jifPEI6VjQmWTYFZFuNxvd9UmGEpEGBLrzo6X3QAAAvYkIZSt5q6rxQXoQgOFkoynrsN03kwwZmgGB7uzIKZFnAGiohfkS4Dsb3ceWd/XEiEmGLkTapZinRdrXmUc2GhBoAIBOGrIy+sRigmGjwVtGWTp/Sk/Luyb7ZpKhS4kmGw0I9HBHypJ/L1tqBQCGhco9+91Gg75ko6UD0a0mk0wyrHJcmGSISAMCvUJ3logzAETRQNc4K1WsEspJfOhDNjpf0phkWGffTDL0cdGIRAMCvYrhUprk2edJDwA9ur426rPr3+Z+KWNa3tWT0WZibr/vbmej+1fWQTYaEOiWR0mVOzBKJhQCjFKcm9c51//NtLxztW9a3rkQadf7jI+vfs5cRBoQ6NbQH9UqTwEIAHoWD6zk2Wd88FvW0e1sNJMMm4mu+3Gsz5MMARBo36Nl4rSTRXcBgJEgO/AMxtfyzu7I0/Kuyr7HPckQAIH2OUxJTjUAmAeE2WLe1lfe3iW63y3vulPWQcs7J2Olp2z0XKQBEOjeyLNFtoPDBACrjVRMMqwlo22KtAvRdSe8ZKMBEOjW0HWPlGsAQGkwUKu4tGaSYXPRrSeTtLwr23dfVjIEQKA9jE2xAMAcBIBxy3PMk7t3US09dBkYTja6G2UdLkS32T7Lj/lYJxkCINBOBg0VO+mloPUNAEQJaOlDCVwK7xgnGdpJHy3vqux7jC3vABBor8MTABAHHBmat2fY90mGrvdZX9JpeedCoslGAwLNoLm88uWkBRhfDCit3VCdesb9yEZLB6JbTSaZZFhl30wyBECgnQxInKQA40MJpUrkWHVxunEfstH5ksYkwzr7ZpIhAAK9siGnJHh0cxYRAPiODb0dn2l55+5vOvZJhm7OI8o6AIEeHKo4VChBRw6AEV5Wlw7KsvuvgZZ3wuG+xzrJ0N0ASDYaEOghDpeyOGZKUtAA0NuLgbG2vGOSobvxkEmGgEBDJajfAODUN/17nz6aGmvLOztJW302up5MMskQkQYEuhuDZSI2JEdPFBoAj+4/tLyrJ6PNBLXv2ej2Jhk6frcj0YBAtzKuhJtUpnINiqABRifOQTAoXkilz1rd30mGtLyrs+/mY1hfs9EACLRveTaOh5zMACPV5xFEAF9lHU1k1F7SmGRYZ9/jbXkH0IQNDkHhWJn4VsazKRwhgFFeV7to9by3tye++tWv9iIIqs4n1c1PsP7ztntg9f3bPyBv32fOnBFXrlyZvxNrSXT+866+z/T+lXK7T/Nzd7NPAAS6hRFTxZQ5vCLmqACMMhjMBnBVbNgWTCdTsbu725tsgnuJVo5kt30xX6VEHz9+3PBmcynS9fZZvO9m+zRLurt9AtSFEg7LgTD9MRWnLcBIQ8PorqD7spKhj0GASYbuzpF+TDIEQKA9hlDkGQB5NqKGPKD3oeWdr1HA9UXV8CcZ9rnlHQAC7Ttscs4CwMiiItnopqJbbxCh5V3ZvhFpQKA7r9LdzZQAgF9KPn+SY1lkqQ8t7/yPBfVFt75M0vKubN8MzoBAd2ColOEGADCT46VGU8rVzkqGXX3d9WW0ufT6zka3W9ZBNhoQ6IENDEmVBgBQShZ3XhhlqJAeMsZ9yUYzybCu7LqW83yRBkCg2w+PUhlWIHQVQgCgX/YsHQ/1Q0s6MMmwnow2G13s980kQwAE2v9IiSkDgGtnGMUBYpJhHRlt9mbreza6vbIOAAS6S8kFACAWEC8yIs0kw+oy2qZIuxBdd8JLNhoQaDwaAIYcC0rrnIkWcVkhG91EdOu9r1abje7DJEMABNo/KhgAUrWPADDGWKCCWBC3Z0MvDuYbG6WKbHQT0a0n0qvLRjcfKdtreQeAQPsI+ZkTVnq4KgaAvgUHmtjVld7xTTKk5V0T0fWVjQZAoFcW/ziBAUYbD0pjAXJddACZZOhKpGl5B4BA94SwqR2f/wAQCwoXWSJG2Im0P0FlkmHTfY+r5R0AAu1udBTZVnbSeK5Op2SbAMYgfGFUCBdSkSX3IybYSzTZ6Ooy2kx6aXkHgED79WebcCL1fRksAQavejI5+BcN2YqQUEOkmWRYXUabSS8t7wAQaPcCrVTBx7PL4KDvQQYaYEyup0rHaYVB15Ze32UdXX3dbkS3nkwyyRAAgXYb1izPQYVAA4wgHtiVZiDPzYXSfca4L9loJhm6G6sRaUCgV4ey+PdgmzJgAoxL8VSTwAG2ksYkwzoy2kxQmWQIgEA3D2MyeVrLnDESgQYYSzxILqpkOvMJB25lkkmGdWS0maAyyRAAgXYm0UWx4+hoyoECGHqglMtQqWR+nplJxb5E2p+gMsnQhUi7EF13wks2GhBoP0ys7jSZWMULnYGeTJBogOFeSC8HdFUyBttOKt5YZzCvLtFko5uJbj2ZXG02mkmGgEB3iW/Z3Gn/4MiqnFGfiodHE95JAEMNkhXsZDKxE+jbzhzjwNYWaVre1RfdejK5umx0vX12/8IIEOh+8pydQB8KubZmdS4fUsYBMFxlS8SBtCAvv9cdOKZTu1hwEYFuLL3jK+ug5V0TiUakAYFuzrNWAr1/JI5trCXO3/AUNiSY9KA5mSLRAINTNV02EJ78KnHyy2gx70QcUFPrSYQXEGgnQklZhythHHPLOwAE2qlAHxweifX1tWUMUMWncVjyAQDDCpA6+yzzs87xSDDV5RvWAr3JwXUq0v4ElZZ3TffdvWw0AAJdj+ds76gnB0qRmkAkzafu4eGEVQkBhqRlwUi7qH9WKW8OW3HEW9qpSuc/JRw+JJpsdHUZbSaofc5GAzRlY4Sv+VnbO758Y1vcdv7UrFWdQZzT3+/uH4ozJ8ksAQyB9Xntc/rTJyUziWZdxlVFoN/4ugfF+dPECj/M/g5ue3Ind+Zm3+adFO17Y2OjQCZVqYxWe96y8HmaRLd8/3Yretrv2/45AiDQzXlBzFrZrZfd8cVrN8WVS2dLej0vNfroaBJmrcPSDwDoLWtrMmpflzzXZ9UckaDFXEAF8jw5shvEN4+ti7tvv8BBbkGk3S9so1qR6Hr7L5dJe9GtJ712kl5Peov3jUjDCsaJsb3gJ594XMvzv7W577XrW+FAuiZl9sOi4GfK8PnS3j610AD9F+j11OCcXIFQJXrBz7LPti3svv3+ixzgVpAe6pdd10bnlzbU37ddbXQfyzp8t7wDQKDL+Zc2d9KdNa69vCWOH99InqDpMzgWB44mk3ACIgD0E126YR6GVWqlwVlhtP7UyVaeNd/znfdxkFuU6H5MMpSORLeanDLJEACB9iLQmm+9dFMc21ifzcZPTypR5vN0d//Iuh8sAHQoIMq16FwXGVFOnviz73XmWfd/ti3f0Lz/za/iQK9ApLs/ydBXNppJhgAItCOefOLxp4Kbp23u+9K1W+EAmchCq+T5KVWqfVXw/fbuIe8ugD4plu66UTZ/QSa/1J9S6dPfvnzjkrjr0mkO9kpF2rVEt1PW0WzfY13JkGw0INA+sMpC62W6n33+ZbGxvi425pkpuTRpmZnVMDthdWZqZw+JBuiJPSdKN5TFODyJss9Hh1PruUvf+xbKN7oh0X1oedd+WUffVzJ0vU8ABNrMv7K941ee+VaYaVpmodMf6c7P3uQJqntDHxxOeJcBdJyZPMtMu2ejHygZtrKbTiZh9vnwoEr9M+Ub3RJpl5MM28tGN5P0sWaj6+0TAIHO8ulg+6bNHQ8OjsQz37gWtqdLLO8tkuJsOjV1b+ijCfXQAJ0Nglqew646JcNsbPGUyXQSivbhgf25/dC9t4lX3X6WA94xiW6jrMPNPpvIaHXh7Xs2urisAwCBrs2TTzyux7//w/b+f/b1F8NyjhPHN8OJRukTMfeUDH7L9u5BOFMfALonz+lJg7JAnMNv1TT8REqXaYXlG5Z833fdzwHvsEiPt+XdWCcZAiDQTfh7wXZgc0e9SMqfPvNieEKePHEs/2ROn+dRD/qtQKLJRAN0W57L0W3rZmVZB/v25/O5U5viw+97mIPecYkeZ8s7Icbb8g4Aga7Fk088/rXg5h/b3v+ZZ6+Jnd39sJTjxOZGalhNLq6QEemwMweZaIDOyLOsEv5m1dG6z7v+Sretq9K67mf+3BtCiYZ+iDQt71zJKNloQKCHzK8E25bNHXVv5z/6wjPhR7ebgUBvFLS8Mp2rKpJoMtEAHZBnaXfezqcVzlrWqfD839+znxx89+Uz4sff/xoOfC9Fup+TDGl55+oCAACBzuXJJx5/Mbj5+7b3v7W1J5768nPh17qUQy/1nQ4PsuDkXUj0Ed05ANqX5/XZOWstz8uL5/niSHu7s97Ptvy1H3lTdvIx9EaimWToUka7MckQAIF2hxbol2zv/PXnrovnv/VK+DHfyePHjOFBFZ3j4cTCQ7F/wJLfAK1oUNjnOZDnGmOtXr57spDniZhWWLb7dVcvMXlwICI93kmG5aLbjbIOAAS6dZ584vFbYlbKYc0fP/2s2N6Z1UPPJhXajMTJwKGX/NaLrSj+BACe5XktcxFrc+LN6p1n8qxb1lXpuqH5Gz/2nXxkPCCJHuckQzvhJRsNCPR40ZMJv2Z7Zz0Z8A+jeuhjG+sZiZbpUTjeBis2duuFVrZ3DsL9AIDjACdnnTZU/MxUslSaw02vMng0mWWgJyrMPlfhvW+8V7z5odv5IwxQpJlkKBxJencmGQIg0DV58onH94Obnwk26xSTrof+3B8/Ew60oUQbyjlk2WkuZzK+tcPkQgCX6JINuRbv1S6LnCWZlFazjhsikued7WrlVudPHxd/8yNv5Y8weJF2LdFMMnQr0gAIdFsS/ZvBzS9Xecy3XropPvf5SKKPreeXc8Tig2nl76meXBhI9N7+ESUdAE2UIap3Xp5fMinPhjkJSZNe9nqey3OVSYNrwe//lb/yLnHHxVP8MUYh0V3PRufLJJMMARBol/ydYPu/qzzghUCiP/v5ry0z0bGFVpRIRpG0OOuBWcXG8b2DI7G1vU82GqBOQJsvjiItBk9DHXRYthGce/Nez9tbh5XkWfPvf+g7xNtedxd/jNGJdD9b3jWTdLLRgEBDxJNPPK7N9fFge76qRC8y0YFEnzi+kQkHsmTwnjOZqrCkY3fvkD8IgNVAKsMWddIwmsr0yRa/ag3voBY/n0RlG0danrery/N73niP+OnH3sAfZKQSTcs74XDfZKMBge6jRL8Q3PyEdtkqj/vmizfEZyOJ3jy2Lk6d2IzaZqmEN9uGif3Dibi5RTYaoDCIRVnn7HmkUuee4ao1kmfd4/koKts4OprWyjzfe+WM+MRPv5OuG4j0iFve9WWSIQAC7VOifzu4+aWqj5tLtO6qsbGxJk6f3Jx9pGyS59QJLw0xQ9dGb+0cip29o8oDOsCwJSUQ5/X1WX1zybmRPfdUJM9STCfLRVIODurJ8/Hggvm//qvvFWdZrhtiQXx8Le/sBHX12WgABNo3fzfYfr2ORP/eH3xF7O0fhquenQ4G1Y2N9cJ4EC/ZlIZEmW53d3N7T+wfMskQRq4mYbmGDDtsSMtezqZzT0uyLtmYRra8u3NUq2xDD9j/2U++XTx07wX+OGC40KPlnRtJ95GNBkCgvRDVQ/9osP121ce+cnNHfPIzXxLXX9kOT/lTJ46JE5sb5tM/3qGjYAlDPbDv7h2FZR1aqBFpGJ84r4eZZ5HOOpeMrZnGG8GZPQ3kWZdb6U+Lbt48FHt7kxrPSYj/9PFHxQ++7Sp/ICgR6X5OMhxHyzsABNqHRO8ENz8UbJ+s+li9VPenPvtV8adfvxZ+fzwQaC3S4Uld+axf2oLOmOkVDG9t74vDI+qjYfDmLKSucZZrTcbS6CySoTBPprMLUF3vfOPGQXhbOXgGz0tnnv/Cex/ibwTW4kfLO1f7pqwDEOg+SPR2cPPBYPudqo/Vsvvvnn5W/OEXvh7VRa+LMyePhx9B253p2XqO+T3Cbh27gUizCAsMWJz1aoLpRVBk+lQpWZp7/s/TQJzn9c67u0ehPNdZBVSfv3/7p98h/vy7HuTvBJXFj5Z3rkSXbDQg0H2S6N+t8/hnnrsufuffflls7x6Eg6+W6FlJhzQHwTIjiC0OcTRRoUTr7YCMNPTem2cTBMPbksEx7EhnUwcdtqibhrf6/rduHYrtiqsLxuX5l3/mneKDb381fyxoJKjjm2RINhoQ6LFK9FZw81iwfarO43Vd9G996mnx5a+9GKqxLuk4oycYrsf/DElxlpl4kxVtGd1fZ6G1oN/Y2hf7BxO6dkAvxXk+gtrIc+kYqmYt6mZZZyUOgvPi+st7Yn9/Uus5rgfy/Hf/yrvFDzx6lT8YOJFeJhm6Emn6PAMC3XWJvhXc/GCw/X6dx+ss2Of/5LlwguGtrb1Zl46Tm+HCK7IgOMmSuuh4ANGfSO/sHwUivSd2g9spJg3dNueYOOu3dfkgqNLniTQJ9nRW6xxNFLxx86B2yYbm2Maa+K/+g/eI733LffzNwINIu5ZoJhkCINDdk+ibwc33Bdv/WXcfL9/YEb/56T8RT331hVBwdR/ZbDZ6EVoN+lDegkDnpvf2J4FIH4jt3cOw1AOgO8IQlWos+spJK3mOv+3jg+viOnHeni4SZV3rfO1a/ayz5uLZE+If/fz3iPe96VX86cDzOeFapJvIqL309rmsAwCBbleidSb6Q8H2CSHqdZTTA/wXvvxN8Vuf+pJ45ebuIht9MuzUkV0APF6uYcwyGBR63lT64Ggibu3si5vbB2Lv4EioKTINq3AEPRKuxd7fhvexrDb0qeh6UopZuYbOOmt0Z43r1/fEzVsHYRa6Lo88cFn8r3/rMfFdr7mDvx+0JNJMMnSzb7LRgEB3VaJVsP1S8OW/F2w36+7nxq1d8Zuf/pL4/J88H9Yxb26shyuandhcz+kbnY2AMvF1/gTESSAYuqzjle39sIOHnnSISoNPGZilitdmW2GzZpVohK6i/xIXhKnrw/mP9Kc483KNcJLg1oG4FsjzwWGzSbU/+r6HxT/9T75PXLntFH9KaP288V3W4WafVkOUM+ElGw0I9LBE+teCm0eD7am6+9AD/9N/+oL4vz75RfGVZ15aTjI8vSk2j61HvhCocUnkkKU6HAUoJcVhIBdbuwfilVv7YnvvqFYvXID899la6cVexoSjcyErzir3vJmG4jwNxXl751B868UdsVVjRcE4uqTqEz/zTvGxn3hrWPsMsKrzyH37tb5ko5lkCAj0WCT66eDmbcH2r5rsRy///bkvfEP86995Sjzz/MvhYg0nj2+Is1qk9UA+twKjHKgCSUkFDxkoSpTt07Kiu3bcDOTjla2DcAIifaWh1oXgIttsrsOQ5TuwvP9MnKdq9j7dicRZTxScNixPuufKGfE//sIP0KYOOnQxOsaWd1YRg2w0INADkWhdxvEjwfa3hWhWGbG1sy8+/YdfE//md58W33zpVijSehVDLdLH4hMN0xfVMpO/SP0wlc2bT9yK7qY/Ct/TMr19KF7e0pnpw7B+WtHJA3IGI7XY1swWbPvWKZTn2Rt0lnGeLhZD2dk9Et8MxPnlG/ti4mCS7LsfuUf8L7/4mHjo3gv8aaFz5xot74QHSQeoxwaHwLlE61H8l9/6c//s/w1u/7tge6DJ/l6+uSv+nye/Im6/dEa88TX3iEsXTonTJ9fCDPHB4WSZKZaGYFsWjFMxNNPrI5CV/eB36N+jo5MWd11OojPh62tEq7ESn8qqyky5qtPK5ONU9IN5WYeKMs67e0fixs39sAzJBWdOHhN//cNvFj/ynocYiKEHIq0c9vlPnnTz93+z/UtjAGi2b1kaUPT+yfVAW5CB9ifSvxncPBJs/yDYGo/y37q2Jf7N7z0tPhnI9AvXboXt7k4Hg76ebKjrNWWFq/VkKYcpiZ2czDWrmRbi8Gga1krrMo9XtvbFTvC1nqRFn+kBy7KKPrNQur+4DG8tLTsx1pW+Kw0LBoXyrPT7K6pxnqqwxllnnF+6tutMnnVf5//9l39Y/IX3Is/QJ4mm5Z3bfQNUgwy0X4neCW7+47f+3D/71eD2vw+2NzTd53Pfuhlut507KV77wO3i1XdfCGuk9aZlVmeL50KrjJllmfZnkdYWm4CqE997we/Sm9gL3khrMpxspTct9xtkqPspzJEsa6Zh1leKgreEaViPMkAqef+i0v10hZEQ0aRAFfV0VmFXjVvbB07KNObccfGU+NhHHhXveeM9/OGhxyKtFhe77oTXfzZ6vn+y0YBAQ5FIfyaQ6LcEX/5CsH082Dab7lP3jdY10n/0xefEw1cvh9vxzWNh67uDySRcsngSTaaSpjgmiyRKZlcPL8lM6N81CX7nfpQV1GXaoVAHX6yHQs37oJPCrKKPR3R2Wb8xlExNRVX54ptR5/z3TOnjo4z1okwj+Dqc2Ko7xOwcOh0I9XyCH3//w+Kv/sibxKnjhEDov0TP4nIfyjrMEl1v37I0urh53gAI9Kol+iC4+UQg0v9czLLRj7rY7+7+ofijp58Xn//yC+LBey+Kb3/gdnHu7AlxfGM9zNYdHM3a04XObBFEVHmKMfltjozrOV77YUY8+t3B/9fXZpnptXUZ1lDrhWPIU7cnyuHfJRLVqTLULytZOhhlB6LqrTbSv2WWaZ4N/nrbCoRZi/Neg5UD89CTA3/xL79NvP7Vl3hTwOBEeiaMrkValcQAN9LbLBuNSAMCPQaR/nwg0e8Ivvx5MevWcd7FfieTqfiTr70UbvfccV48fP9lce/t58LOHTpq6Prlw+A+R0fKXX2YZTCSUeDSEx6PAidSh3NhE6FE64zgupZqXdO3JsU62epGTBfZ3OTX8dvk31EW/y1zVwas/kaaD8ezbHfU7Tl6f+oyDb1qoI8WiudOb4qf/uAbxEe+97VMgIURiPTYstH5+zTtHwCB7q9Ea0P4bwKR/p/ErKzjPwy2E672/+wLN8JNL8Ry9Z4L4ttedVFcuXA6+H49zAxrWdGt6Uz9cmVFRVIWj1MFSQL9HCZ6qfFJfGcqkOo1oT1Hy/WanE8MmWWtx46KybGK6pTn2VsRyywrUebFMnF/i/HHYngt2EeYZV4+u7C2eTuQ5kCc9/aPvBwrfQH5Ex94rfhL3//t4rS+mAQYjUTPzrO+ZqPribR9NhoAge63SF8Pbj4aiPQ/DG5/Kdh+KtjWXe1//+BIPP2nL4bbudPHxYOBSD/4qkvh1yeOr4dZ65lMTzORqqS9dGFQsiy1zhVyXRailxxfOnV2EFgPyz/kbM0OIULJ1k8i7N3Q0wipYoI8yxyrSJLn0jzP2EaLtUdXJpmsckqEs16cPD62jTVMY1Kpcy8W/plG36pwlcAbuovL7qG3j1R1u8Ufe9/D4qcee7247cxxgg2MWKSZZAiAQA9XpL8R3PxsINJ/L7j9L4Ltw65/x83tffG5p54PtzsunQll+oF7L4pTJzbEqeDfj+YlHpOpmFqvBlcsz3k/S4XgRV2BtA2HUWeGUCcnKrE4oxa0+X3nIr222IGKJFuGli6jO6qYuc+6Tix3WCiXKqrujvY7Vcsfh19Ol2XF0+iH8w4p07gULx6nYq8jPTCpctOtsfKfjTxLVTwUqWxNSPR8lz/f3j0MyzN0xrnpSoGFAW19Tfz5dz0ofvaH3iCu3HaK4ALQ0iTD5vtuf5IhAAI9HJF+Krj50UCk9QTD/zLYvsfH73nh2la4/f7/93Vxz+3nxH13nRf33XlenD61Gcqlzv4eBWKqpfpoOi2MTzLtTbHUtSzMA8jy0Gn/w8S/LOp9oxrb6eJnUfWtSoqfiv1PLcoa1PL1qJgkRl0r5CIbbMiSKxUro0ja50KSE48rW/JGFN5Hxq9DKqAsjqosPPQqcVGkYu3O9RLbOtOsJwRqadbvJZ/oUp8feNtV8XM//B3i3itnCCYAhrPZbTY6GRTIRgMCDV0Q6c8EN98biPT3B7f/ebC9y8fv0a3nnvnmjXDTXLrtlLg/EOn77rpN3HHptJCb64vJf7pm+miizC2B4xYly8RLZhujSWEuQygQblPDCFWQtsiE5dgPZOJ5lUuptM1wlMbs8vSvbCGhImvcQRpepO5BrmX51tZhmHFuY/l3nXH+wFvuCycIPnD3eYIHgMXJTMs7AAR66CL9G8HNbwQi/dbg9m8E248Fm7eZUNde2Qm3zz71fLgwixbp+8Ps9LlwqWMdgo6mUWY6kOnJdFpsYAWNgRfhUYrCeo95ozuVlue8XyllIsAaw6ZM/1udmmn7x2QzJ7L6oGA7m9M27yJV6XgiowsINU0/DbUol9nSkwC3Z6UZ+weT1s6NC2ePiw+/92Hx4fc9JC6fP0mwAKgYv8bb8o5ZhIBAj0mknwxuHg9E+m+KWceOnwu2iz5/5+7+kXj6z14KN9354u4rZ8MyD3175cIpcTJaRlZPRNRSPZ+QWEk707XTMp7Mlrl+Zw6rMgrfdlG1rCyigqfmPy9j+zdZwXJjFws5LS5k+hWrkucry7Mwi79F9LHAmlyWm+zsHoXZ5XBlwB2/9cwmHn7VhbAV3fc/elVssjoPgAOR7kM22hD76O0MCDRUEOlng5tfCET67wS3PylmvaRf6/v3akn6xgs3w02jVxjUExHvvnwmFOo7g9uTm7PEuPYpPRlxcjQTa5UqoSjNW6j0vZWFaxYve6cMFlwowjKnX3LOE8nNchf+kiYVy7PvKyelZf5LkVEtS1zI9d99a/cgXAlwa2d2O5m2P1rpC7jvftO9oTi/+aHbCQQAziV6FjG6m43OD6qINCDQUEWkd4KbfxKI9D8Nbn8w2P6jYPu+tn6/zjTHhVpP4NJZaS3T99x+NrzVJR+zLKYKhFothFpnqifTnFgYn2xnCJTl8qzK5blIhC3K5KQ0rOBX8JTKXkVZhwuLrqbZe+S1sVPzEpd4p5LlkdZ/163tfXFLC/P2gdjZO1zpoHT21Kb40LsfFD/+/teIuy6d5sQH8C7SY2x5B4BAj1Gkdbj4db0FMv264PYvBdvjwXZfm89Dt2Z74fp2uH3u6W+GP7t47oS46/JZcfm2k+JyINe6TvXMyY1FK7fJdLaQhu7yMbuNZT/KrDITUlPTEmMCaWyrJ9M/UzXK4lSjf9a1GbLojlZzXvJn983LMGTs63g3kf3DSSDIR2EvZi3KuluGr8VMKgWk9TXxjtffJR5726vFe990rzh+bJ0THaBFiRZijC3vABDoMcv0F4Kbjwci/YvB7XcH218Oth8NtnOreD7Xb+6FWxy9KpwW6UtaqoPt4vlToWivb66FYjfVmepwEZVJuGKilmxdRjBVat7C2RAcldEnczvgZaS0Sso6++/G31NY3lHeTcRm8FhmkJODR7wziv533UFlS0vy7qwzxlyafSyX3YRHHrgsPvj2V4sPfNf9LHwC0AGR9lnWQTYaEGjookjrsPHbegtk+q8Ftx8Ss8z0D676760znc/oLSr9mAe682dOiEtarINNr5J49vQxcfbUcXH65LHFRLZQqNVSqPX3s6+ns6/LCyuKbVjJwgmIRQvE2CVIsnuwXRdlVjYikyUmsQFCH4+9g6Mwg7y3PxE7+0thbrMzRlXuu+OceOztV8Vjj75a3EPvZoCOivTYWt4BINDI9BOP6xTwr+otkOkrwe1fFLPM9Fu78hx1cHvl1l64feUbLyf+TU8e03Ww505vijOBUOuvz4Zfb4Zf61Z7ep3BeYCcC3a4QOE0Wh0wsOtwQRUlQ9kOF1aZzhc0kaWxuKh/9OzGELzzKiviGWI5E+h4T2kVVZLEs9IqWhBmNxJk3R1ld+8oFOb5bZclOY3+xOH73xpI89uuitddvcRJCtALiZ5Fu762vEOkAYGGJjL9YnDz3+otkGldI/3ngu2HxGy1wxNdfM5ahm9s7YebELeyb971tVCmTwUifXxTb+ti89i6OBHeLr/XdbSbwdcnjq2F0TSxEqESie+n81Woo3W45/2O5ysZTtVyvcPZz+R8/cLYyoRqvjL4crXDmBBruT8IpPfgaCoODo+CTbcAnIQLkeiJfHrRmsPoZzqjvB9Icp9j/0P3XhDveuTuYLtHfMeDl8NJpwDQR5FmkiEAAj1umX4muPnHegtk+lRw+4FIprVU392X16HreGfZa/vHHNtYn4n1xlqY4V5bWxPr4e1yW5fR1zL5c73p8DyvzV7eTmflJPGfq/m/Txc/01Ks5Xg6HXYU17Xuj377nTNpfsPd4sptpzjpAAYi0TMZ7e8kQ67fAYEGVzKtW+L9mt4Cmdah5TsjmdbbW8TAlm3SWV29gVuu3nlOvPuRe8Q7A2nWvZr1pwMAMFyRdpuNTkqv72w0AAINrmVaR5o/iLZPBEJ9V3D7WLC9L9jeHWyv5iiB5o6Lp8QbH7wi3vzwHeKdr78rXFQHAMYl0TPZ7eckQwAEGnwK9fPBzf8QbSIQ6nsikX7PmZObH9zeO7yq6qyHDb1Cl7I8eM958cZvuz3Yrog3BdudF1nYBABmgtrnSYYACDS0IdR6KfFfjbbHXr61//O/8g+f+MALW+vrL+2eENf3NqNJdtBn9KTLNzxwOcwwv+mhK+KRB67MVpYEACgU6T5kowEQaFgxF84eP7z7zJ66cvww/F7Ls5bol/ePi5v7x8QrB5vh7QSp7iynTxwTD95zm/i2YNNZZt1a7rX3XaSGGQBqSvRMerubjQZAoGH1qHhkW5NKXD65H27xO2wdHBM3gu3m/mYg1cHXwe3O0QZBsEV0p5H77zwXivJsuyC+7d7bxF2XKMUAAB8i3fWWdwAINHRAnovC3tnNw3ATZ3YWP/+LH/kpcfNgU3zpGy+LLz/7iviz52+K569tiW9e3+ncMtN9Qi8uo6X47ktnxAN3n5/JciDKV+88L45tkFUGgPYkeia7XW95B4BAw2okup7oba6L+++9LB554HLi57p/8osv74rnApl+7iW9bS++fv7atnjh5Z3B91Eu4sRmJMiXTwe3ZwJRDm4vnxH3RN/fduY470oA6JRId7/lHQACDe3Ks/OQpTs+6BZpetP9hNPoBUleuL4tno2E+tqNXXFj+yDY9sPtpv56K7oNvp/0QLa1FJ8/synOnToeCrBeuvz86eg2+P7OC6dCOb4rkOSLZ0/wzgOA3kn0THa7PskQAIGG9iS6VXQtr+45bNt3eGv3MJDp/UiwZ3Ktv9Y/18tmHwXb4SRaPjv2vf76MPrZ8vupmKppOMHumN421sOyiHALvt8IbjfnP0t/H9xqOT4fSfG5U4EwB5Ksv96ktAIARiLSTDIEBBqgB001dfs1vbHQBwBAl0SaSYbQb0h9QRN5JjwBAEBN6ZUL2XW5z8V3dFAFBBo6LNEAAAC1pVeLrnuRXko0Ig0INHRNnhFoAABwILz+s9GINCDQ0CWJBgAAcCK9Ukpv2ei5SAMg0IBAAwDAAEXatURjzoBAQ3fkGYEGAABPEu03Gw2AQMMqJRoAAMCjSLssvUCiAYGG1cszAg0AAN4l2n1ZBwACDatjikIDAEBbIk03DUCgoe+QgQYAgNYlmmw0INCARAMAANQQafeTDAEQaGhJoLFnAABYrUhT1gEINPRIngXZZwAA6IBEU9YBCDT0TaIBAAA6IdJkowGBhj7IMwINAACdkmiy0YBAQw8kGocGAIDuiTSTDAGBho7KM/YMAABdF2mOArhng0MADSUaAACgBxLNkAXuIAMNTeSZaAQAAD0TaQAEGlYv0QAAAL2RaAAEGhBoAAAAAAQaeiTPCDQAAAAg0AAVJRoAAAAAgQawlGcEGgAAABBogIoSDQAAAIBAAyDQAAAAAAg0uJdnyjgAAAAAgQaoKNEAAAAACDSApTxPOQwAAACAQANUk2gAAAAABBoAgQYAAABAoMG9PCPQAAAAgEADVJRoAAAAAAQawFKeEWgAAABAoAEQaAAAAAAEGvxJNAAAAAACDYBAAwAAACDQ4F6eEWgAAABAoAEqSjQAAAAAAg1gKc8INAAAACDQABUlGgAAAACBBkCgAQAAABBocC/PlHEAAAAAAg1QUaIBAAAAEGgAS3lWKDQAAAAg0ADVJBoAAAAAgQawFWgMGgAAABBoAEt5DrZp3Qff2triCAIAQKvcvHmTgwBO2OAQQBOJXl9fO5hMxImqD/zMZz4tjg4PxbHNTY4iAAB4Z3J0JD7/x/+u9sODbZejCAg0NJZnvZ09e+75a9deOlf1wc98/WvhBgAA0AOe/thHP77PYYA5lHBAI4m+cOHCsxwGAAAYOJ/lEAACDc4E+s477vwGhwEAAAbOH3AIAIEGJ/Kst/vvfzUZaAAAGDqf4xAAAg3OJPree+69fvz48Zc5FAAAMFBuIdCAQIMzeZ5vb3v0Hf+cwwEAAAPlYx/76MfpfwcINLgV6He8/Z1fuPOOO6kPAwCAofHJYPsnHAZAoMGLRP/wD33oXxw7dozVUQAAYCjsBdvPfuyjH2fRXUCgwY9AX7x4aes73/wWSjkAAGAo/K1Anr/EYQAEGrzI83x733d/z2fvu+/+3+LQAABAz/nfgu0fcBggD6kUn0xALR4JtvfHZHoh1r/3qd993ad///cePzw8PMdhAgCAHqEnC/71j3304/8zhwIQaPDBG/IEWv/vpZdePPMvf+1ffOTatZfeyKECAIAe8DvB9pOBPP8ZhwIQaPAp0O8zyXP8+3/9G7/+9i8+9cXH9vf3rnDIAACgg+gVdf9RsP39QJ6nHA5AoMG3QH93gUAnvr5+/fqpp57+4tXnn3/2avD11Z3d3UCo1ZpBuu1RuT9WlR5Q67d05jm6O4FVX5+f8vAX6szzc/Zck6HeS+BXDZ+Tn79L1X0m/nLK//sG2kb/7b4WbE8G22f0FkjzCxwWQKChLV5fRaAtvhYO9+Xj67G9Dp4fx5Ln1/zxADBQNjgE0PBKfoyDLLLA8+NY8vyQZgAEGqC2PI9lkEUWeH4cS54fwgwACDQ0YhJs+yscrNoYZFf5mvosM6JHz1V14PWIDp5HfXsvihX+PgAYIdRAAwAAAABUgJUIAQAAAAAQaAAAAAAABBoAAAAAAIEGAAAAAECgAQAAAAAQaAAAAAAAQKABAAAAABBoAAAAAAAEGgAAAAAAgQYAAAAAQKABAAAAABBoAAAAAABAoAEAAAAAEGgAAAAAAAQaAAAAAACBBgAAAABAoAEAAAAAEGgAAAAAAECgAQAAAAAQaAAAAAAABBoAAAAAAIEGAAAAAECgAQAAAAAQaAAAAAAAQKABAAAAABBoAAAAAAAEGgAAAAAAgQYAAAAAQKABAAAAABBoAAAAAABAoAEAAAAAEGgAAAAAAAQaAAAAAACBBgAAAABAoAEAAAAAEGgAAAAAAECgAQAAAAAQaAAAAAAABBoAAAAAAIEGAAAAAECgAQAAAAAQaAAAAAAAQKABAAAAABBoAAAAAAAEGgAAAAAAgQYAAAAAQKABAAAAABBoAAAAAABAoAEAAAAAEGgAAAAAAAQaAAAAAACBBgAAAABAoAEAAAAAEGgAAAAAAECgAQAAAAAQaAAAAAAABBoAAAAAAIEGAAAAAECgAQAAAAAQaAAAAAAAQKABAAAAABBoAAAAAAAEGgAAAAAAgQYAAAAAQKABAAAAABBoAAAAAABAoAEAAAAAEGgAAAAAAAQaAAAAAACBBgAAAABAoAEAAAAAEGgAAAAAAECgAQAAAAAQaAAAAAAABBoAAAAAAIEGAAAAAECgAQAAAAAQaAAAAAAAQKABAAAAABBoAAAAAAAEGgAAAAAAgQYAAAAAQKABAAAAABBoAAAAAABAoAEAAAAAEGgAAAAAAAQaAAAAAACBBgAAAABAoAEAAAAAEGgAAAAAAECgAQAAAAAQaAAAAAAABBoAAAAAAIEGAAAAAECgAQAAAAAQaAAAAAAAQKABAAAAABBoAAAAAAAEGgAAAAAAgQYAAAAAQKABAAAAABBoAAAAAAD4/wEHOOH7P1c4qAAAAABJRU5ErkJggg==;" vertex="1" parent="1">
          <mxGeometry x="61.5" y="150" width="97" height="97" as="geometry" />
        </mxCell>
        <mxCell id="IYLMW8nf5ji0C1QZCW6s-3" value="" style="shape=image;verticalLabelPosition=bottom;labelBackgroundColor=default;verticalAlign=top;aspect=fixed;imageAspect=0;image=data:image/png,iVBORw0KGgoAAAANSUhEUgAAAtAAAALQCAYAAAC5V0ecAAAABHNCSVQICAgIfAhkiAAAAAlwSFlzAAALuQAAC7kB7PX68wAAABl0RVh0U29mdHdhcmUAd3d3Lmlua3NjYXBlLm9yZ5vuPBoAAAAOdEVYdFRpdGxlAHRlbXBsYXRlNJbIBQAAABN0RVh0QXV0aG9yAEJlYXRlIEthc3Bhcg7DR0QAAABmdEVYdERlc2NyaXB0aW9uAHVzZXMgPGh0dHA6Ly93ZWJjdnMuZnJlZWRlc2t0b3Aub3JnL3RhbmdvL3RhbmdvLWljb24tdGhlbWUvc2NhbGFibGUvYWN0aW9ucy9lZGl0LWNvcHkuc3ZnPoyZcfwAAAAXdEVYdENyZWF0aW9uIFRpbWUASnVseSAyMDA4LHtC7gAAAFJ0RVh0Q29weXJpZ2h0AENDIEF0dHJpYnV0aW9uLVNoYXJlQWxpa2UgaHR0cDovL2NyZWF0aXZlY29tbW9ucy5vcmcvbGljZW5zZXMvYnktc2EvMy4wL16DWrwAAL7uSURBVHja7L0HgCPHeef7NeIEYPLubCY3cMnlckkuMykGK1ESKUuyJcuygnU+P53sc9D5dBRt+qzn57N0pCXndPY7K9GWfcqSJVFiUKLETIpxyc15dzZNxgRggL6qajTQDXSoTkjz/0lFAIPeBroG6P7VN199paiqSgAAAAAAAAA5YugCAAAAAAAAINAAAAAAAABAoAEAAAAAAIBAAwAAAAAAAIEGAAAAAAAAAg0AAAAAAAAEGl0AAAAAAAAABBoAAAAAAAAINAAAAAAAABBoAAAAAAAAINAAAAAAAABAoAEAAAAAAIBAowsAAAAAAACAQAMAAAAAAACBBgAAAAAAAAINAAAAAAAABBoAAAAAAAAINAAAAAAAABBodAEAAAAAAAAQaAAAAAAAACDQAAAAAAAAQKABAAAAAACAQAMAAAAAAACBBgAAAAAAAAKNLgAAAAAAAAACDQAAAAAAAAQaAAAAAAAACDQAAAAAAAAQaAAAAAAAACDQAAAAAAAAQKDRBQAAAAAAAECgAQAAAAAAgEADAAAAAAAAgQYAAAAAAAACDQAAAAAAAAQaAAAAAAAACDS6AAAAAAAAAAg0AAAAAAAAEGgAAAAAAAAg0AAAAAAAAECgAQAAAAAAgEADAAAAAAAAgUYXAAAAAAAAAIEGAAAAAAAAAg0AAAAAAAAEGgAAAAAAAAg0AAAAAAAAEGgAAAAAAAAg0OgCAAAAAAAAINAAAAAAAABAoAEAAAAAAIBAAwAAAAAAAIEGAAAAAAAAAg0AAAAAAAAEGl0AAAAAAAAABBoAAAAAAAAINAAAAAAAABBoAAAAAAAAINAAAAAAAABAoAEAAAAAAIBAowsAAAAAAACAQAMAAAAAAACBBgAAAAAAAAINAAAAAAAABBoAAAAAAAAINAAAAAAAABBodAEAAAAAAAAQaAAAAAAAACDQAAAAAAAAQKABAAAAAACAQAMAAAAAAACBBgAAAAAAAAKNLgAAAAAAAAACDQAAAAAAAAQaAAAAAAAACDQAAAAAAAAQaAAAAAAAACDQAAAAAAAAQKDRBQAAAAAAAMiTQBeAqLnnEx/nA7WtrF1TbteydjFrcfQOAKCFUFkbZ20fa/tZO8zaAUPLsaYYWszmsfGWt+Kdd9x1FN0LQOegqKqKXgBRivNHWLuLtSx6BACwjDnB2qOsPVJuzzCpzqNbAIBAA2CU543s5l7WXoXeAACAOhZZe7os0w+x9gAT6iK6BQAINFi+8vwr7OYvCVFnAACQ5SRr/8zaZ5hI70J3AACBBstHnHnO3xdZezt6AwAAfPMkF2nW/pXJ9AS6AwAINOhsgf4NdvM36AkAAAgFnubxddY+y9p9TKZxwQYAAg06TJ43sJuXWMugNwAAIHSeY+1jrH2ZiXQJ3QFAc0EdaBAW/wB5BgCAyLiMtS+w9tI9n/j4e1lDGVAAmggi0CAw7ET+y6T9iREAAEBj4HWq7+bn3jvvuKuA7gAAAg3aS575xMHTrI2gNwAAoOHwBVruYe2fmEgvoDsAgECD9hDoLexmL3oCAACayhhrv8/apzHZEIDoQQ40CMpOdAEAADSdVaz9E2tP3POJj1+P7gAAAg1amyvQBQAA0DJcxdpPmETfy9oadAcAEGjQmlyJLgAAgJaCz015L2t7mETfxVoaXQJAyF8y5ECDILATM19+dpXXf7dx4ya67NLLqCvd5et16z+24X6Og3wvFEVxvba5biL243RttH9Y+wPF5XmLf+HyfhQf71m2b8r7V9zcwO61pI5E+v3Wb+O/b7SnFM/9Y/4squWPulr5DqiVn+lPqYZvg36/+u+qm6um75LxdfT71T2ZXsC4q8oO6l5bNb+2Smrd99X6GAzb17wemY6s/ngqh2B8beOxqWTRM9XXXlxcpNnZWdFyszmazWm3+Xw+3AtvTCG11NBr7wHWPnznHXd9DVctACDQoDUEepLd9Hv9d7ff9rO0ft26EEQ3SokOts9gIi0jeW7bKJ4k2rskK76PPfggQwmtb6QHGUqY/ef9+XrBNYtlVWpVs0RKSK3xs16RZ7VGw23FXfJ16sTd/nXs5Nl0jGqNBqs+jlFS3CcnJujosWN0/NhxmpubC3xuWblypfgVcznn+2vgdfgh1n6LifTLuHoBAIEGbSjQ73j7O2lkeCQU6Y0+Gh2lSDdWBFtJFFtNpL33b3MGIfXyVyO1YcuzXWRaQtyr7htMap3F3eK1jcJuE402vXadPNu/zsT4BB0ry/T8/Lyvc8Lg0CD19/WJ/RWLJZrLzVEuN0uLi/lGnLZ5qbuPsvZnTKSLuIoB4A/kQINmj+FcJctdUK3ERgnvHSqyqQfkKDw2z5rkwO5564GC+Xn7wYT5+fqovVo3YKhuo9oOKqoC4rSNGqBvdHFy6z9y6T+S6r/6viGJvlED9I3zwEyPMtuJtSIGF0p5kKGUM1+UcqZI+Z6iPVf9GZl+rg9QlMpApLq/yuvU3K+8jlJ5F9rPal+n/MWs/Ex/HYXMr23ct/G4FIdjVIzHWPPaiuEYa39GVq9t2I/daxteZ4jJ745Ld9Ab3/RGuvmWm2loeMjzOWGpsFR5//F4jDLZDK0cHaXVq1dRX1+WYrFIL808b+5PSJtoeBGuQQBAoEHbi3Rw0Q17n/Xi4m+fXIbcRNBa4OpFMSwRdHrevI2zCDqJtpMIyveNvo37IMRf37iJturSf6pE/5FD/8kMQtS6z6Kt1CqSUquLsq3U1ou0rLjXybMfcSc/4q7Yy3Ptaxvu6/url2dyGJwQDY8M06WXXur5fFAo5CvHqhjeTyKZpP7+fiHS/DZikb6WtZ8yif4IlgUHAAIN2kWXbf9cjmi0/2i0NxFsTjRa9dk3+iAjaP+RyyDDbzTafhASTjTa+vn6qG1NNNVJamvum6XWJjosKe4UtrgrsuJODvJc89pGea6JRju+do24Z/uyns8D+Xyh+l5rJJrf4eKc7cvQqrJIx+OR+S2PRvNVDHk0ehuuTABAoEHbSnR4Il2/zzDfe9TRaDXiaLSbaFsJXDgi6HTswaPRRLLRaPuBSNBBRhCRDhiNJmupNQtufVqHWWrl0joaKu7kLu518kyKjTxTzc8cUkokotHJRJJ6eno8nQNKpRKViiVHieb/i8WUcnrHyqhFWo9G34loNAAQaNAmEi1dri3wvqOKRvsXaZctpKPR3kUwGlGsSqlMtDmISKshpHW49U3QtA5yGYiQr/6zG4TYSa1brnK91ErmKjdL3BWnY7R5bVt5VhzE3SUabXgdP1HoQqFQPjZriTY+5hHp3kyvqN7R398XVWoHrxV9N2uPMIm+GFcnACDQoE1E2l6ioxDpsN97M6PRUU8yJBeRJodtWnmSYdBoNFGrTTK0ziH2OcmQ5CcZNlTcbScZ2ok7OcgzSUwytJJn82v3ZX2mcVT6sl6iLaU6plBvLxfpFUKog6STOXANa88wif4wawoBACDQoPUlOqpodL2kt140unUnGcpMkuvkSYZhRKOjnmRI9iIdWeUMxTYa3ZDqIHXRYUVqkqGtPFtOMrSIRlukdWT7+jx/5/lEQmOai6xE6znSXNpHRkYonY5kkUG+00+y9g0m0UMEAIBAg/YQaXuJxiRDTDJ0GmS0ask7olYveeetckZNJDfMknckJ+5+Jhk6lrxTyEHcndM6+vs8l8Ivp3CQb4kWVTsScVFTemBwIKr86DeTlht9Ha5MAECgQZtINCYZOotiZ5a8cxfFTi15Jz8BM/ySd4qnyhl2E/AaUfLOxyRDmZJ3tfLsUPLO6nX6+r1FoEdGVlCppJql2Uqi3XKky8fT1dUlSuplMpko0jo2sPYjJtH/FVcmACDQoGNEOsx9t1M0mqj1o9HRVKOQ7xu5aH7QSYayaR/ykwzdjl1WtK0GdbIT8BTHXOWwSt7VTTKUEHdPkwylSt4pFvJc89ouaR2pVMpTBHhoaIg2bdws8pkdJdp4fHaR6XLjaR2ZTC+T82Eh1CGTZO1PmUR/nbVBXJkAgECDNhJpe4lGNLrVSt41YpJhWCXv7AcZrT7J0HulE/tcZWp4ybu66LCkuFOoJe+Mcq0EmmSYTCalv9eFfF4I9/DQChpduUrkMTtLNFlItPn3oz/m++WVOgYGBigWD/0S/xbSJhheg6sSWO4k0AXAJzex9p5EItG9tLTkRyt9i661yCiOMuF934qjAPrbv+IaPXSSIedoNhdFxWZAoFaOST8+620UUx+Yt3F6XrX8nfLttG1U29+5eRvF4djJ8XmjQFn3DVVF0Vai/faf+fiqx2TfP+Zt1AB9w7dx7l/+72v7Rn+sf67EK5T/w/tBfJvYfXGPD0K4pOm35R1r97nJK5Vtq+9Hqe7b8NkV98vSqh+fyt8f73tF3BPvQy2vx2J6bf33V3m+/Nqkv47xe6wfl75vsj/G2tfWf791x0iG52uPkSiZStLCwoLU95lX4CiVP9dd6S4m0aspl5ulyakJWloqlt+n4dNR/U/101A+YLvH6XSKhpPDNDM7QwvzC2Ge+8+PxWKPPvS9Bx577Wte/0IHXMvmWEN6CoBAg4axnbUP8miHP4H2L72K4iTRwaS3cSLtT6LdRFEXQSdRJFIsJM+7CMqItHkb1UHy/Img90GGW//Z9U39IMKfaDv1jfUgRK5vqlLnZRBSEVw7qSVdYK2lVhxr+ecVeXaRWmvBjUjc9eMyirSjuNe8tkmea35mOkaVUsmU9Hc5zytwlP86oieJ9PZmqLu7h6ZnpmhmelostmKSZh8SzctF92X7RIR7ZnpG22cIsP3Ennr6yRump6dvuO1Nb46qEkijmIJAAz8ghQM0GX/pDY0teRfOPusjgJ1Y8s56sLF8St6Z339rlrzzPslQrnKGx+W5qZkl7zxOMtR/5jDJkOdBy8JTOKojMdIzU8TKg7yix6pVa7T8aIvVCevTOVwes7vpVJqGhodCz43es3c3ffbeT9P4xDguZQACDUDzRNqf6FqLNEreoeQduQwygvYfuQwyWrXknfXzDV+eu1ni7nmSITmUvKv8K5HCIYuIQDP0NA5TvjNpecyDg8O0cuWokF9XiVbcJTqmxMSKiWGvZDjB5Pnef/4MHT5yCJcxAIEGoHkS7V+kw96n/b4xydBJpJ1E0bxN8JJ3jZhkKNM39gMR79HoRkwylIpGk4fKGQbBDWuSYWTiTn7K+rlNMlS8pXCUI9C8lB1VY+rV+2WpTjF5XrlilIaYTPOaz4pdTWiSk2jxPtNpGhoaDDXtgud+f+GL/0bPPf8sLmMAAg1Ac0Xan+i2f8k7/yLtsoV0NDpotYlGlryrHnsQkVZDSOtw6xv5QUi9bIdRV9v7SoZWUuuncoYiUznDj7iHUR1EkS3rR44rGfKfeUnh4PNGSuIzVyIyvH41ncNciaOnp5dGR1dTX18fKbGYf4nW+5qvZNiXpWw2G1rdaJ5f/Z3vfpu+/4OHfM3xAAACDUAoity60eh6kQ6xXxT/+wxLFOsFzlr0wqh93KiSd/KDDL8rGbZ6yTs30fZS8s4u3cIhVznskne18uwk7opENNqwPbmVvLOsie1NoDl8KW8u0Pr5pOLQin4iMJ+vYnzBlmwfja4cFUIdVKL5466uNA0M9FMiEV49gSeefJy+8rUvVaLsAECgAQhboh0jxsGkt7GTDFsvGh39JENvImgnmvXbdPokQ2+DEH/9Rw795y8aHXh5bkVueW5pcScKfZKhczTaepKhMRqd9CjQXDDVkiEHmuqlWaF6qY4z2R0YGKSRFSu1+tEBJZrLM8+LDnOC4b59e+lf/vVzND0zjQsdgEADEKVIS2wV8r4xyTDYJMMwotHtPsnQ7wRMWdEml/7z2zf+BiFRL89tFY0OLO7kQdzroutu4m5+7bTnCHTBlANNZOwDsllYpSrVqWSShodX0ODgECXiCfMS3x4lWl/FMMylwE+fPk333vsZOjl2Ehc5AIEGIEqJ7oxodDj7rBcXlLyz34YctkHJOz+DjCAl7+on4Lkvzx1WybtQxN1nybuUjwh0iadwGAbL1XQOcw507URDo1R3d3eLiYY8vYOXwSMLiVYkS97xlI7+/n6KJ+KhnLtmc7P0+X+9l3bvfgUXOQCBBiBqkZbYKmRJRzS69UveRb3kNbkMMuT6rxGTDMOKRssNMvxOMiTJyhlEYZW8i0TcPZS8S3msalEQKRylqowbc6Bt0zkU6xxp9jjTmxUi3dPTUyfRZJRol8g0r/bBa1Gnu8Kp0sEnTH7tG1+hx594DBc4AIEGIGqJjioa7SzpKHnXiiXvvKV1eBNB+b6RK3lnP8ho9UmG3iud2OcqU7SVMxop7h5K3nkpY8fhtaBLJePqmWYpNuY/10owmdI5qu+Bp2Jw+R0ZHhFCbynRlukdiukxj2TzdI4wUzp+8MPv0Y8e/iEucAACDUA7izRK3pGLSIeXlhC05J1ZON3SOtqh5F3UkwzJpf/IV//JTzKMuHJGs8TdZZJhKu01haNQXlrbIM0mYTaWs1NM5xRz7W2jVGuPk8kkDQ0OUf/AIMV5frSrRFOdRPP/8Sh0X4gLrzz62E/owYcewMUNQKABaJRIS2wV8r47O61DRhSbP8nQSuDcRbH1S94RdVrJO5PgNqpyRqPF3WWSYTKR9PQdLBaXqFgq1qRumHOWySKdo06qFcVWqnlljeHhEert6bWR6JrUDpNEa4+1Kh3hlbp7+pkn6b7vfAu1okHbk0AXgCZpsS/RdT7nKq5RNu/7Vjzvz2r/5n0H32etuLhJj5so2os4F0XFYbChVRHQj69+G7VyzNbbqKbPAt+m+rxq+VmpbqPafpbM2yi2x+5Ud9u9b/RtFIe+IYf+k+mb6vsz94318XvvP8VWpBXFuX/5v6/tP72vtL5V+KeHFH78ivY5Ep98dl/c44M4LmrlNyTejSr+hfbabHt92+r7UUzHWHkdVa1IsP585bVJfx2xS+3dGl+b77P888rrqOX3rli8XuV1zMcYj3uPRxXyhbrPmP6ZMv6eq91s7NPKJ0y83+o2KumnA/5QVNjIZoVM87Jy+UKh+ps39r1hX2T8DLHHsXhMLOIyOzsbSn3n5194jq9euPCWn33bFF+2PCT6WOvGtRVAoMEykmh58auX0fCk116k/Ym5876D77N+/4rvqI4uA3YSrYugkyjWyo2VaMuIYL1MWotidRvVQfL8iaB83+iDDHLpP799428QUt9/is++qYqrs2grFoM6OanVRVCRklqjSBvk2UncSZdnGXHXnVFS3A0yqyg+BHqpYBNUUE2/Y+09VsVWKLJq+BeVN6b5LxkEWu/keDJJgwNDNL8wRzNMhHn6iJNEV1+uvFN2eJlshubn5ml+fj7wOWvP3t1dn/yzex5kd3/hzjvuWgjhNPi/WPsgrqugUSCFA7SISMtHpDHJ0Gn/7T7JsF7g7J43bxO85F20kwybU/KuEZMMwyl5p0hXzvAzyVCq5F3Nfa+TDP1EUkvFouW5rba8Xn06R+XVTTWiSTEkfNQef/lxd1cPDQ8Ns9tu+xrRisXj8mt193SLmtEhTS58M2vfuucTH+/FdRBAoAEIJNJhiG5wQcUkQ3IRaWdRtJY8axF0mkTYyJJ31WMPXvIumEiTyyBDfhJi/e8hyrrafkveWU3QI+dcZZKfZCgl7mFNMvQolUUxiZAsBx715ewU0/e79hispNo0GZGqj3laRzabFSsaxhNJqRrRRonmFT6y2UxYkwtfw9oDTKIHcA0EEGgAAkn08olG14t0iD2p+N9nI6PR1rLdupMMZaLRzoMMIpS8s5hk6CK11Sh1WCXvrCLTAcSdFM9CWSoVpc4v9pFpsixnV5Fqw7Ea+7iy+AtP6xgcpN5eTYa9SDSv9NHXl6WQcpivZ+17TKJX4BoIINAABBbpIDIanvQ2diXD1otG+1/JMNySd/UyGbTkHRFK3vntG3+DkFCW51Y8LM/dYHH3HIEullzPO4plObva77TNkt+myhv6dmSKWmurGfaIkndcimUlmt/h8swlmv+7ENjJ2g+ZRI/i+gcg0AAElujWSusIU8ydJX05rWQYRjTaLeJqJ3n+RFC+b6oi7dx/QUveecstb6eSd6Esz90gcfcagS4Wiy7f2/r8Z+NnyXLJb8VOqmtrQJPpcYLLcP8A9fb2UkxRpCVaSwfJeF7K3IZtrN2PdA4AgQYgkOj6E97OiUaHs896cWlGNJqovScZBo1Gt+YkQ6fn5fumEZMMSWKSIcktzx2huHtP4SjJnf8q75FoNjdDs7PTrE9L5uOrW3ylRqqNA4vKKbCa3qEPCrq6eqifiXQykZCWaP6YTyxMp0NZ/vtS0iYW9uBKCSDQAPgWXf/C25xJhohGhz3J0EkEmxONDj7JUKb/optkSC79571vqr+rKCYZUriVM0IXd3PU2+OXydvZr1wub2FxgcYnztH8fI70stE1S63UpHMYj8sozmSQ8+pEQy01o596enq0QYGkRPf29oh60yFwA2tfZRKdIgAg0AA0XqRR8s5p/+1e8s5NtO1cJWhaQtQl74iinWTYvJJ31UGG8yRDMkSSI62cEYq4V9+r96oUqqfva+17z83laGLyHOUX8/XpHKaMDuslv+2W+NZPnN3pburLZinBV1mULHnX09NN3d2hrGdyK2v/wiQ6TgBAoAHwI6N2ghr2vlsvraNTSt41YpJhWKJYldLgJe+in2To1jftN8nQWWpDXp7bdpKhP3H3KtCqjy9s7XvnaSDTM1M0PTWlLY5SW32jdsnvWvmvSX0xRvG1aHRCSDSfaGgr0WTOme7u7hLR6xB4B2v/gKsjgEADEEhGgwmv/L6XZ8k7v2kdMqLY/EmG5CLS5LBNK08ybPWSd26i7bPkHZFc5Yy6tA77aLQ5rcOfuHsWaDXYd9VY/SO/lKfJyQmam58zp3PURKbrJha6RKL1f9/dlWYi3UeJeMJCoqlOonkqB5+QGAK/es8nPv5JXB0BBBqAQDIaXHhR8s5p/506ybDVS95RG5S88z/JsGkl70iu5J2fSYZW4u5doFXf31MrieZLfM/PzdHk1IRYJtywvkpdOgfV5kPb5kdXByXxRJwy2ayYLFgfeaa6x3y7TCYTxqnpw0yifx9XRgCBBiA00fUvk5hk6B7h8ivSThKNSYbkMsho1ZJ3RJ1Y8s7PJEM7cecT/Boh0E4Szd9MqViimZlpmp2dEa+hOE0srJzmrCp0UI1I6ykaPeUJhu4SzcvbcYkOYenvP2YS/Z9xZQQQaAAkxQ+TDGX3jUmGTiLo9Lx5m6DRaHdRbMeSd97SOsjXICOckneKdOUMT5MMbVcvrAojF8rGBhnsJVqkdRTyIhq9sDBfL9B26Ry1NaCV+oVV+P1kKk2Z3gzF47FGSvTfMIl+D66dAAINgAfxa41Jhv5EF5MMnUTaWRStJc9aBJ2iza1ZjcKtbxozyVAm7aP+9xBkAqasaFsN6iSX53apnCG1PLdHcfdehcNfHrSURBuOg+dFT81Magu3KIrhmK1XKiTFnAtOtXnX5dtYPC7EOJVKml7bSqL5aoUh5ETzl/4Mk+ifwXUTQKAB8CB+iEZ7EekwI13+99nIaLS1kLTuJEOZaLTzIIOovScZBi95F/Xy3F7EndQmnT1dJJo3Ls/TM9O0OL9gikQbI/O1AwNTlJ3slviOibJ13V1d5prRFkuQ65HogCRY+yKT6PNw3QQQaAB8iLS3fQaR0fCkt50nGYYRjfY/yTDcknf1MtnqkwzVNphk6Ldv/A1C/E4yJE/Lc8uUvKu+dkktBfzOhiHRiq1E8z6eW5gX+dFiFUS7yhwWNaHrH5NpwJFKpqinu0cswmK30Iou0SFEokdY+xpWKwQQaAB8yGS7TzIMU8yd+2U5TTIMIxod9SRDv31TFWnn/mvWJMPGl7wzCW7TSt5VxV1uae769x7ed9O8KqK1VBMt8Wj09BQtLi4aKnNQXSqHYhhMmJdJJ8ua0FyeuUQnmUw7STSvztHdE3ixlctZ+xSulQACDYBPmUQ0WrZfUPLOSQSdnjdv0+kl79xEO9qSd1FNMpQreacEKnlXKqk+vkMU+veyXqItHrP/LMzPi0odJbVoWRO6tqSdYpnOQaYlwWO8BjQTZC7JThLd3dVNXd2Bl/3+xXs+8fHfxbUSQKAB8CmTKHknu2+UvLMTvc4seaf6nIDpbxASRsm76u/K+/N2ucpSJe9q7vspeVcqFVvjjKkYI8fOEs1zo7lELy4uEBkEujbKTDXpHcZBBllU60glk2IxFSeJ5tHqdFc66OF+jEn0bbhOAgg0AAGkF5MMZfeNkndOIu0kiuZtgqYlBJ9k6Nw3RLLRaPuBSGtWMpGKRpNkyTuH5bm9TDJUPUego5VoY3/YTezT38QCE+hcboaKIo9bMaRzkDknuuaxUhOpNkp0Mp4QEwyVWMy6JB6729vTK/KiA3rM548fP9aP6ySAQIPO12HF78WjnUretVZax3IqeRd0kmFYoliVUu/VJsIfZIRT8s5+kNF6kwx1iQ6yPLeXSYaec6Ap2rrRtjWibdI7iqWikGixiqHMEt+G731dZFrPi2by3NVlkGiql2hemYOXuQtA/9e+8ZU3LuYXcXEFEGgAkQ4qp82PRvuX3nYveec3rSMsUbSWPO8i2Eol7+QHGX4nGbZ6yTs30fZZ8q4iz8EnGRabPIkwDInmzM/P0fzCfPXfG1cmND2u9ol5cRZzv8X56oVMonndaCeJTiQSvo9zdnZ24N+/+fVAqzsCAIEGbSnSPv4VYZJhWH0ebjTaKBfRiXSzJhm2esk7aoOSd/4nGTay5F39JENynGSoei1jpzRm5UKvEs1boZCnXC4nJkYa+4XsSt4RWUamyfCaXekuijNJtpJovopjNpv1tRiNzv79++jhH/8IF1QAgQbLT6KjSutAyTvZfsEkQydR7LxJhs0qeUfU6iXv6iYZklM02l8Zu5iP74bfAKusRBsf8+ocubkcLRUK5omFVJXk2jSX2nSP2khzOpWmRDJpWkq8VqKDnDMefewntG//XlxQAQQadKwuhxyU6exJhu7RaEwy7MySd+6i2Kkl7+QnYIZf8k4xpCy4l7yrRm89C7SfaGuAFAVbiXaQat5/8wsLtMAaKVYTMMkUZVaqa4HXRKarr8/znXmt6PolvxWRxhF0oZX7vvNtkYYCAAQadLBEKyGIrnfxa41Jhv5Et/0nGfojzEmGTqJtLYthRKOjXvLarW8aM8lQNu1DfpJh8JJ3/iYZkmTJO12oqSECrQZcL9xtyW+7yHRhaYnm5nKiL2v7xvy4tkZ07eCkKsq8+ka9RGsLrYgSeD7h7/O7938Hl1gAgQbLQaTDEF1v4oeSd7L7Xp7RaGvZ9lfyrhGTDGWi0c6DDKL2nmTovdKJ/SRD8lzyjlTyPIHNl0CHMEnOr0TzMn08srtUXDJF6WsnFtalbtREmfV/wycVWkeiSUShg1Tm2L3nFdq160VcXgEEGiwHiY4iGo1Jhn4lutVL3vmfZNj4kndm4Wz2JEO1DSYZ+u0bf4OQ+rQO7yXvSj7E1l8KR5gDWW8STVpGh1h0JV/Im/rHlL5hKdHWj+OJuBBlK4nm+dB8eXC/3P/g/TQzO4PLK4BAg+Ui0kFk1J9MYpJhs0XaH9FOMgyj5F3Ukwz99k1VpN1MrTmTDBtf8s4klT5K3qke0zfEP2tCCoe7RCsuEq0df6FQ0FYvtIs8G/qLTHWzybBMuLbvWDwhUjpqJTropEL+/u77zrdwWQWRkEAXgNaVaNVWumSCPYuFIk1Oz9Pk7AJNzizQVPl2YmaeZufyVFgqsVYUt/lCsXK/8rMl7WdLhp8VSyol4jFKJmKUSsbFbZJHUOLaLf9ZQv8Z30bc8p/HaCDbzVqa+jNdog3wlu2ivt60uFDIHLubRFv3ixI4bFXf58H3WXshd5MeN1G0v8hyUVQcBhsqaSXI7AYkauWYrbdRTYMKvo3T8+ZtVNvBk3kbxfbYq1E/P32jb6M49A059J9b35jfv3XfkEP/WfePXN/wbZz7l//72v6rrCqoauXbuLAq/PgVcY/fkKqomh7ySD4XQan0GYsIVpNSOOq/e6rhM6J9X4y/J9HLla6u9gNfBpxLajrVVU5j0fqJ943eb4pS/X5pcxK1O6peuaP8GY6Xa0AvLS2V91OWFHb+5DWiZ2b8RZIPHjxAP332Gdp5+RW4tAIINFi+Ij2dW6Tjp6dZm6ETZ2eEFE8JKTZLMpfmhcWl9jhK/qfKnrSQaU2smWRnNcHuZ8I91NdNa1dkac2KPlo9khGS7l2k/Ym5876D77N+/4pvQTBLgL0IOomi6UJP/kWwXiatRbG6jeogef5EUL5vdGmigP1nd+z+BiH1/af47BuqSJyzaCvWYllO39AlUsizqg0gNXnW/mm7pXDUHqvVoNPY/7o010o0nzi5sDivSbQQ52p/ln1a+49Sfq4izYq2D7GN9jyPRMfZfS7m/B/rHp1Op9jPemhuzl9lje//4CHaeP5GGhgYxGUVQKBBZ5Kbz9OJMzN0jEnyiTPT2u1p7fFx9phHjjsNfu3gAwPeiKZcJXNkoLcs1NWmP149khWRb/sofTgi3d7RaO09RxeNJhfRjioarYt0VNHoqli59Y31sbuJtswggwKItP0gQyoaLYSwPhqt3/eTwhFrcgqHs0jbSDTVSzXvHy7RKSbRsfKESvGfyqjbGJlWyj5tkGyDVOuRaCHRupCz1tPTLdJGePMK/zffuu+b9O53vbchqz8CCDQAkXF2cp5ePnqY9hw5R3tZO3B8Qggzjx4DZ9k+M5ET7dk9Y/UXZHZxGBnsETK9Zd0QbVk/RBes57fD1J9Jhya9jYtG+xdp94irXDTaXhbdIq6NF8XqsTs/H3yQ4ZbWIReNth9k1PePUzTayyBDTrTlotFCnlVNKouqD4FWmp/C4VmibSLT/N6ikOg0xcXAQKnIvlL5y059ZFpVKkvUVCLR8XhCdHKxVDRErvmkwgxNTEz66oNjx47SE08+Ttdecx0uJAACDVqfJXb+G88Rncsp2u2sdv9//eAb6JwI4H9GPs06mrdnd5sFe+VQb0Wm+e3WDcN0/poBkZ8drkiHGY3WRa1Z0eiqSHuPuMqkddhJsrMouom0WzRafpDhltbht2+8DULCHGTIpXW4R6PLQVPtM8rfT6lBKRwNwK9E8z7J5xcpmUhRIh6v/K4q24sOo7IU1+RIUzVHmkt1LBEndUnVamuXJZpX5ODl7WZnZ30d18M//iFt3rSZRkZW4GIBINCgdSgwWT41rdCpKS7JXJYVml4ItHAWCBFdrH/y3NHKz+LxGJ23qp8u2KAJ9eVbV9Elm1dQOuXt1GBO62i9aLS7SDdrkqHMJDl7EWz/SYZhRKPd+i/8aLRxAKKLYKlRKRwNOqHWSrRxYp+bRBeW8mw8kWQinShX3NDTP8r1svV0jrJPl5PLKz83RaJpySTR3d1dTNLzonmFp4U8+L0H6F3vfDcuCAACDZopZLO091SJjp5VaGxKobOzkOV2o1gsifQZ3r776H7tpMCk+qLzR+jyC1cxoR4VUj0y0CMpuphkKCOCnTnJ0G/f+BuE1Pdf46LRumAao9H+BFrx+iFu6PnB+PuuViORk+hisSA25VU0tC6qPl+RZsscaUO1DtY/MYpr33m1OhGRp3KMj0/4OhccPnyIDhw8QJs2bsIFAECgQfRsvP1ufkq7iLUbecv2pm+bEZPe7C/KoD1ZYlL94v7Tov3zt7WfrVvZZxLqzeuGbCeaYZKhNxFs5CRDN1F07pv2LXnnLsnOgwyZSYZ+ZM5rHWi1CREK4yIrxoFDtenfG8PiO2qJSryVikykFRFpr6RzGFZw1CLTVIlMV35Hej+XB3Z8xcKSqMyhV+uIC4menvZX2u4HP/yeqMqBCYUAAg2ikuYL2c3trN3C2qtYG9afq8pze6IYCvmTYfEEMlwgK+dW4wm/qgnVmeZUv3BD5UKnqoEusK0Cr4LC2zcf3iMeZ3tSdBmT6Z0XrqZXXbaeLjxvxCQ77R2N1oWglaPRbqLoTQS9941cyTsZSbYeZLgNQtz6T3EYQFCAQYbef/XR6GKDUjiCinBdq11mu2YJ88qxl/jvvaSdy/RzWuVnWvxZ+5nxcUlsw9PD9bSMagUTvQKH9ljz6fLzemUO7VMg+kl813kfl/eT7uqi9GKeFhe9X4vOnDlNL730Il1yyQ5c6AEEGoQizEl2czNrby63Le0hwzFSYvrJP2a+GOg/J20b7Twda07QXNVFulT5k6Q5klMy/6xUalnpnpnL04+fPSraX/+fJ0SKx02Xb6Abd26g6y5ZS73dqYrUIBodbsk7s0hHM8kwrJJ37TvJUGaQUTvIUX19fr3S3dVtWAWxKrpK7aqJ+jLbNWkYpJoeVR6rhqBA3c+Ng9ZyJylKpZRGNb2D1MoEQVKN78e4CI35cTlfoxyZrkaiq+ke2uvEYnEqipSZ6q8+k82IEnV+0mf4hMKLLtomVkAEAAIN/EjzCLu5rSzMb2CtrxUFORaPlYU4LkSYn0zFn/Z4BKfmIsTzCpNJbWlYfqs1vhpgktLpJKVS2s/4jG7tT4vakrHi1ijdNU3LVzT/ybYqu6qogMHvl8riq92v/qxQKFI+XxCtUFgSj8Xt0lL58RItLRXNF2J9fyXtT6Kqfr982yqCfXZyjr76g1dE4znUOy9cRTcyob6JCfWmtYMmeWnXknf+JNmbCMpEo83C2exJhmGUvAs6yCBqhZJ3PF3BK14j0DzlI5PJWkq76b5BlM3SHPzLptR8b9TKsLiaI135W51hMZTKX3XEfsqfC0Wp/hulWme6Gok2SzU/Z/OJgEp53/wxl+jpqWnPhzI9M01PP/MUytoBCDTwJM07qBpl5mePptdS0vPcuBjzWyGxQm5jlQsUP1l2daUqrae7i3p7u6grnaIUE2MuzJoUNyK8HN1r8Il9S2WpXljI0/z8Is0vLNLCfF485n+yXFwsaH8yNkg7v4ALuWYXGN6aJdc8h/rJXSdE+/PPPyYWd7np8vXl6PQ6sbR5tCIdTTRaF8HmlbyrF8XqNu1c8q5+EBHuJMPGlLwrFUs+PrOtWcbO7Vytd45q+s5oqRdU+Y6UPxPG1DhD+ober9WFVQy/SaVabFutqREt0jlExFmT6K6uLsov8nOj9zUEHn3sEbp0x2VKd3c3xABAoIGtNJ/Pbt7L2vtY29rEs684AVZlmd2PJYQw85Jqvb3dlMl0i1JFPd1p0dJdaUqlkuL55QA/zng8JZavzWTsq18IweYXDiHY/AKySHNzCzQ7Oy9uhUjrQl0qSzVvDT6ek2dn6AsP7hKtrzdNr792E932qgtE/nQ1+tlOaR3NKnlnLcrLp+Sdm2g3t+Rd0WMEujqxrv3QpLgmnUPVF5nRI9HGx7pA6992ozTXRKZF1Fp7XK2zrUu1KgYdWrk7qkg0j0LzwILXwfPi4gL95JGH06977a2QBOD9e6Ci7lgnSzNPx/gF1n6ZtZuo0Zm/ivYntpjeytHlVDJBvUySuSxnmSD29fVST0+XkGQQDvx7zSPXs7NzNJubpxyT6lxOayJnsKiJdbG41LRo9arhDL3phi30JibTfGEXs+SE1w+BI21OGqE4P28v2mYRs96mdqKa8/PmbRSnr6XkNkqAvgnaf25947aNU9/YH1uQvtm/fx99+atf9DBQjtN1115HA4MDFQm3mpRsul/9Qd3nWyaFI0gOtB5xNryRStqaPqej9rFq+BmfSVgiw/Mi7a2kTTYskbhf+2/EJEXSJiWWyn9xE2lxpFYe69U/ZnOz7DyX8xGwEGkhG++8465DuHIALyAC3XnSzH+nPJeZR5rfylpXw3w5phW+j7EWTyQolU4JOe7L9mqynO0Rt4nKn/BBdGMXRQxKeFtZ8xxPA5nNzZWleoGmp2dpanJGpI0UeWNSrfqYlOOVsXOz9Ol/f1Y0LtBcpLlQrxruDbUfUPKOHLbxVm1Cvm/kJhk2Ohpd3U/4kwy9TmQT6RttXkbNnM5Ru1ohGXKmy/nMlTXQyZTfrNeA1n915iW/yzWiFXONaB7B532u75+vUDg/N+/598BzqhkfY+09uHIAT59/RKA7RpyvJC1Fgy+xtLIRrykiykyGuTTHkwnq78tSf39GtMHBrJA30B7wi870TI6mp3I0NTVLExMzNDMzSyUeoRZSXWzI++AXx51bVzOZ3kK3XrdJpHyEhV+RdhNFXbRkotHWIlgvam4R1VaIuEbRP/76Jmj/Bu0bbZvdu1+hr//7V6U/U6lUiq65+hrqH+iv+3y2SwRafz+VSdOVmtDV8nVEpXK5u/LjchWiUl3kulz+Ti+NJ6LMVKlOVFLNkejaffDbOSbQ09PTvk4PrF115x13PYOrAZAFEej2lmb+++MpGr/D2tWRyw0b8ccT2mS93mwvDQ5UhZlHmhtZ0xSEPRiK0UB/VjQdnmPNZXpKRKiZVI9PiQjP0lJBW9QgAvi18JndJ0X75D8/Srcxkf6lN1xiSPEIJueq6i/fOqxotH6M0UwybE7JO71//NfVrr6/9ix5p22zxAab3j6PsY5ZyKNajcM8cVAx/N4NBe/M+c8u5ez00nl1kWiqTizUH/f0dDOJnhN/TfN6CKz9Xvl6CoDchwYR6LYUZ24T/4m132RtbZSvxfPD4skk9WZ6aWTFEA0P94uWRr7ysoTnUI+PT9PZsxN05vQ4LczPi7SPqM8j12xfQ+9+4w5RFi8WgnQEiUY7i3RVtBqV+7y8otHe+q+RueXPPf8s3f/Ad6Q/Q7zyw9VXXU3ZvmzdZ7LdItD6jyr17MX/q/XtRRC59rFazm8uGSLTVC39WSnhWZbySg60Hqk21MrXX5vE3I8Fmpyc9PO1LvDr6Z133HUGZ3ogAyLQ7SXOfGXA/0LapMCeqCIJPH853dVNK0e5MA+IxsvFAcBz2Hlbv35UXLCmp3NMqKeETJ89My7KSfmph+vGEy+dEI0vKf6uN2ynt91yYWWxFn+fc02GolnJECXv2rfknXX/yPRNoZD3fK5txzJ2rt8rUUWjWhOa9JrO4vugL9VtKGenOESmDeXs9M+LHonWcqTLmdOGSDSv4JTLJcVkaY/wqND7WfskzvQAAt054vx60tI03kgRVNLgJ6ZUuotGVg7RinKUmadkdMqfF0FUF0ulksKzceNaESHiudPnzk3SqVNnafzshIhOhwlfTvyT9z5Kf//Fp+hnmUT/0q3bacOq/kDHgJJ35LANSt7J9g1PefJCrLyCaieeFyoKXE7NqKZ3KFWndkvnUFWDIBtqRtdIdeU3YZDovr4sOw+N+3n7H4BAA+nPOlI4Wlaa+TmB52N9lLXtUYQK0kya16xbSatXr2TiPNjRdZb5Cn+iiUVKipVW0lcQNK0kaJigopdaMjwvFgMvr1houjXcr13ZMB6LieojiUT5Nh4Xt53c53yxl1OnztGJ46fo1NiZ0GVal6ZXXbaBPvC2nXTpBaOB9rV8S97Zi3Arlbzzf+xu/RdO3/zo4R/Q4088Jv2ZyWazdPXVV5O+iEfrpXCYy9Kpasm0+mrtezO+tXI6s2mVQn3bajpHeX/liYJaOTvtNauTBLV0DWPJO35+rn2+MpGw/Dr88cT4uKiN74Nb7rzjrh/BQoAbiEC3pjy/lt3czdpVYe+bL0qyZt1qWrOGS/NA207846v1cUFbzBeqt/klkxwbhbmVozVCqstCrTe+Wh/PM0+nE6I+Nl+CnD+OtVHEir/nDRtWicaXLz91apxOHBujsROnPS86YS+9RD9+9ohoN+/cQL/xzqtp64Zh37+L9i55V5U5b9Fo6+fNQtT8knfRTTIMp+Sd15QBbRJhtOdfXXxLxmoXuowapbhklOVSaHMazLKtVtJ79IVY9HQO0ovY1UWmrScW1i75XZ1oWPkPZfv6mED7SmfmUWgINHD/DiMC3VLifEVZnF8frsikaO16Js1rR2lkpD2kWSxhzZetFoK8ZBZlvox1sbQsPyPJZIKJdKIi1OK2fL+7OyUWqWl1+J+6eWT6uC7TIVb04NfbW6/dTL/+jqvovNX+UzuiLnlnLclUJ2qYZBht/4VZ8u47372PXnjxeenPyUD/AF119dWinJ0uraVSyVASrlr+TZdg1SEiXNtkBbcoFlQqisWV+MBWe1wy/Lz8mD1XeT+kmhYxqT6uinLtz7RFtWLir3G8BGpcrEIbEz9Pp9OUTKXFuUwbyNpHpqvyT4ZJhOUBquG1+eNzZ8+JFQq9Xn5YW3PnHXdNwEqAE4hAt4Y4b2Y3f8zaL1JIOc7xmEJrN6yl885fKyYBtmLkUtTtnM+zxpegXtRu+bLUrJVKGNjZySdvs7kF6y90Il5ZAr2nJ1W539WVaplj4IOAdetGReN/HRgbO0sHDxylM6fOhvCZIvruY/vpgScO0Ftu2koffPuVYsVDPyLud5KhTDRa266ZkwxbveRd1JMMwy955zUCPTU9RYePHBIBjsoEucobUSqfQeN7EylnpaIQbU14S9pjvrJoqfy4WKzeL2/Htynq/0YX4/LzLRXRYwebTCZFn/DbRCIp5LqrKy1S4YwTD6uRaarkRFeWYyk/7unt8SPQfMY8X1Phr3HFAY6fV0SgmyrOPGnzD0grSRdKXbhMNkObtmygDRtWt9TS2FyQZ3LzJlFeWCgQPn+NgUd6errLQt2jtWxvt4j4tAp82fHDB4/TwYNHRTWPMEgl4/T212yjX33rThru7/Yt5a1b8s5tG0SjnfsvvGj/V7/2Jdp/YD9ONiGes4x/LeVCzUW6K83OW10piifi5Yg9GSLPVLOMeInGTp7yM1B44c477roUvwUAgW49cebhwN9l7SOsBV63mEeXeV7zps3raWRksOnHt7BYoJnZea3NzNMsE+flmnLR6vCUj2y2m7KZbspktNtkk5da5xe7kyfO0P79R+js6XOh7LM7naD3v/ky+o9v2cmOz18K0/KdZCi3Ep9fkQ4+ybCxgxC7QcYXvvivdOToEZxUwpYUfYK2Xt2jLMdcqDOZXrFGAV8Nt3YSoS7Rk1NTNDsz6+elr2US/QR+AwAC3TryfB27+SfWLg66r95MD5Pm82jDeWuaFknk6QQzswuszZWlecFzOSfQWvB0j2xZprXW1bS8eR6VPnTgGB3iUel8IfD+zl8zQH/wqzfRFRet9inR4r9NEun2jUbLHHu7RaNrt/uXz99LJ8dO4gQSsUxbDWp5JZNMJiNWIiStAl5FonlqzdjYKT8v97+ZQH8AvQ4g0M0XZx5p5nnOv81aIBvhUeaLtl9AK1cONfw4eCR5cion2sTUrEjJAJ1/0eIiPdDPl2/PUF+2u+E1wnlU+uiRk/TKrv2Uy80FPB6it95yEf3Ou6+lvt50w0W6kaLYaiIdRjQ6WP8ELXlnv4/PfPZTdPbcWZwwGnheqvUXPtDv7e2l/oE+MVFRl+jTp8/4yYXOsTbIJLqA3gYQ6ObJ8+vYzT/yu0H2M7pqhC66eIuYFNgo+OeDR5YnJmdZy4n7+Mwsb/js+f4+LtOs9WdEPnUjP4/Hj51iIr2PpqdnA+1rqK+b/tv7rqc33bCl4RIdXKSDRqPdZDKoJAcT5XZMefnf//QPYmIgaA257uvvo76+PvF4Lpfzu7AK0jiALajCEa04c9P9U9b+Y5D98PJzF23bTAODfQ1537x83PjEjBDmqekc8peBCf554J8P3jipVEKI9AAT6qGBLCWT0eVQ8wvjuvWrRDt54jS9zER6cmLa177Gp+fprr/9Hn3z4T30e79yo1gm3Nt70USqOSsZel+Jr34bp5UMZVbisxbJxqxkKFNXO8hKht4qnXDyBQQqWwX++Zma1HKf+/v7RTWO2MSkn8mEN7AGgQbW1wBEEyOT57exm79nbVUQUeDinO3LRP5+c3OLdPbctGi5uQX8AoFvwe3v66GR4T4aGeoTch01vKY0j0ifO+u/bCuvrf3Bn7+C3n/7Zb5LPmKSIfncJmg0ujUmGf7VX/85FZYg0a0In3DIf00F7/MovnjnHXe9Ez0IrEAEOnxx5uG3T7D2O373sXrNStpx2UWUyfRE+l5nZ+fpzLgmzfPzefzyQGC0We9ajvy+AyepL9tDK5hMD7PWFdFE19HRYdHOnB6n557dRdNT3lM7+CqWf/VvT9CPnz1Kf/Lbr/NV8i76lQydRDCMlQztotH1z5u3aXY02m0lw6DRaPP7t4tGQ55bl4L/vw7cgN4Dtud8RKBDlecRdvMF1l7t599nsr102eXbRK5zVEzPzFUizbzcHACNgk9EFJFp1rojWtiFn88O7D9Ku17a6yfaJFgx2CMk+vKtqwK9D98nZZS8C9A3QVeC9DfJkAvaX/3NX+BL3pmcf+cddx1GN4BaEIEOT575MtxfZW2D519CIkHbLt5Mmy84P5IVA/OFJRo7NUFjpyfFEtkANAO9NvjBw6dEZHr16CCtGOkLtUQel6fNWzbQ+g2r6aUX94gSeF5l9szEHH3gj79JH37PdfSuN1zi+31EG412EukwotFVUQwzGq29llM0WtuH3bEHj0ab+8f7Ko/m49ePqYD8506GR6Eh0AACHZE8v4+0KhtdXv8tX2p7+46tYoWlsOGVM04ycT43PoPKGaCl4H8J4W3/wTFauaKfVq8apN6ertD2z1fh3HnFdtq0aQM999NddNZjfvRSsUT3fO4Ren7fafroB26mLh+53GFMMnRf8roxkwytlwM3i7LMktdVKbV/vnrszs8HH2S4pXW49U31/UGg7eEDZL7AdrFUbGeB/lf8JgEEOlxx5v33SdY+5PXfDg71i3SNoZBL0uXzSzR2ekJEnJGiAVqdpWKRToyNi8ZXRORR6ZUj/aFFpfsHsnTzq6+lY0dP0gvP7ab5eW8TZO97ZB/tOzpOf/o7t9L6UX9VcKoiHU00WhdBJ1H0H3Gtf75epOuj0WaRdotGk8M2qmu02X2Q4dZ/waPR7STQvC9SqTSl0ylKs9tUOl2+LT9Osdt0WmzD74ufJ1OUZD9LJhIUU5gQxxTTCoH8Z7ybtO+t9lms/Q4X2Xc9n19k16VFUZM5X76dnZ2lqelJmpqaZm1SPPZRLSNqgQag/ruEyKRveR5mN19m7RZvo3GFLr5kK229cGOo74dP2jp+8hyNT8wi2gzaGl5nenTFAK1dMxxqrvTS0hI9+8wuOnL4hOd/m+lJ0R//+qvplivOC/Qeoq0d3dglrVtpARb3viGKMnd8enqKHnn0kcoy0+J/JdX0mMqr41XuU3m5acNAiSrbU+U54y1fsppXlEimkpTiUsvu87+2JMv3jbfaz7X76ZT5+doBmv6eqpH78s9qXr/y6dV/ZjyWms+3+b751va12X9LYrGuSRobO0ljJ0/SCdZmZ2eaeUriofP+O++4K4ezM4BAB5dnPsvve6zt8HQRzvTQNdddHmo9Zy7MR46dEX8OB6CjTk7MUngFjw3rVoS6WAsXaC7SXKi9Dn7/6IM/Q7ffeEHg94BJhtGIdLuUvGvGIMPueRmpNd+3EOqKeOtC7UOeHcSdR6WPnzhOe/fuoRMnTjQjSPRaJtDfw1kZQKCDyTOPPD/E2mVe/h3Pdb5s58WUSISzyMTZ8WkmzmdFKToAOh1eU3rD+hWU6Q0nTzqXm6cnH3uOxscnvUk0s5A/+MDN9LZbLgxBoquS0XiRRjS6UYOMsAYh8sceTKSd5bkaOa8+pVY/xVKRaflotJW455hM7927l/bu20MTExONOgX9dybQH8OZGECg/cvzUFmeL5f9N8lkgnZeuZ3WrV8dwgVXpTPnpunosTNi4RMAlhtDgxkRkeZVPML4Pu16cS/t2X3QU0SLC8hdv3ITveO120I5pnaJRrebSMtEo4P1j7+Sd/L7aPwgwyS1dtFhq2h0jTwHjkZLivuRo0fo8ccfa4RIf5YJ9H/AGRhAoP3J8yC7eZC1K6Qv9sMDdM21l1FPb3fg1z99dooOHzktltkGYLkz0N9LG88bFbWlg8IXYHnqiec9TTDk7vGRX34VvevW7SFJdFUyGi/SQaPRUYtgMFFu75SXqAcZ1s/LCq5VukXgaLRHcVdLJXpl9yv09NNP0dxcZKmM32YCfTvOvAAC7V2eeamMB1i7SvbfrFk7Stdcd1ngagKzuQXaf/AkTU0jxxmAWkZXDgiRTiWDFRSan1ugHz/8FM1Me1vF8MPvvZ7e+6YdoR1Pa08ybN9odKuJdLsMQrzmKoeVyuFH3PmchqeYRD///HNRnGqeYgJ9Nc64wEj8D//wD9ELzvLcX5Zn6S/Pxk3r6aprdgSS50JhiQ4cGqO9+0/QIsrRAWBJjg0wea1znpvMy+DJ/dm+Hp5qxRdf4fWivUSiH33+GHWlE4FWLayVHb/H0Iqi6F2kmx2NxiRDq75QSKneFx/S8s/K/1Ch8s8U48+o/HOlsm+l/O+q+1ZMn3m9LF7d6yiVd2H9OryUXjxO69auo+GRETp69KgomxcixRtfddOf44wLTN8PRKAd5ZmHtXjO882y/2bbxVto2/YtASJQKp04OU6Hj54RNXIBAHLwknebN66iocGs/6sk+849/uizNHbyjKd/99H/5xb6uVdfGOrxoORdNKLYaoOMRg5C/Iq0fm3SPpFyEeHKp7cuMh1eyTu76iBTU1N0/wP308TEeFhfx/ydd9yVJgAg0NICfTe7uVP2YnXZzm20afMG3683PTNPe/Ydp7l5TBAEwC98ouHWzWsplfKX1sHPic889SIdPnRc+t+kknH69EffShdvWhFIeu3eTzQS3VhRDFMEW6PknVv/BZ1k2OK50aZ61i5Sa7ofxSTDenFfKhTogQfvF9HokMigFjQwEkMX2MrzbezmI1KdGIuJfOcg8sxrOT/34kHIMwAB4bXRn35un1jC3q90Xnn1Drrwok3S/yZfKNKH/+J+mpxZILcIoD8J9rdPfSEPhy3K29g/r3uJ9TaqyzaqaUBh/Xzte7b+t7XbuEXoVdV58OHeN+TSN1UZdOsb62OnuufN29Qfv3kb1bb/qn2juvSNt+dNKRZUk2JRTuUw3id9tUKiSroFkf6zanpHfVpHTSoHGdJIjK9Tk0ZSfZ4okUzS61//BhodHQ3rqxjH2RVAoN3leT27+ZzMVYt/YW+48Upau85fDuRivkDPv3SIDh05jRUEAQiJAhPal145QvsOnKRSyd/3avuOrZ7SscbOzdLv/e1DVFL15avDE+lqnqh/kXbZwkWiZUSaXEQ6XFGsSqnqItLuzwcfZKgB+8ZtkKHaDDLIpW/cBxlyom01qHOSWutc5TqhVsi0rVVOtJW4G7d1Ene+9Pgb33gbDQ4OhvE1HMCZFUCgneWZ/93331gbltn+8isuppWjw75eiy+G8vSz+8Uy3ACA8DkxNk4/fX4/zfmsm87nNPDJhbI89sIx+rsvPmlUjVCPJ8gkw7BE0VryvIugtUiTi0iTwzbeRdD7IMO5//z3jbdBiOwgQ75v3ETbPRptjB5bTzJUHCYZGuRZIhpduS8h7l3pNN1225spk8kE/fptwhkVQKCd+Z+s3SCz4ZYLzhMVN7xSKpVEdY1drxylpSVMFAQgSviiQ88wieYy7QeezsFrusvyqW/8lH74zKEaiW63tA6KOK2DbGTSXgSdnq/fRl4EvfUNhRCNDpryErT/yKH//EWj/VbOMKd1OEWjFYlotL24c3m+7bbbKZEIVO5yC86mAAJtw8bb734zu/mwzLajq1bQjssu8vwavDzdsy8eEqW3AACNgadx8HQOPknXa6oUn+Nw/auuoJ4euWXE+e5//+++T8dOT1lM+ooircMf7tHUINFoouDRaLeIq53kyYqg6rNv9EGG32i0W9/4G4TIR/PDj0ZXB3VyUmuSZ9dotLEMnuK75N3g4BBde821Qb5yF+BMCiDQ1vLM1wb+R5krXF9fRkwa9HrxWlgs0LMvHKTZ2Xl0OABNYOz0JO3afVT8FcgL6XSKrr/xSkok5OYR5ebz9LFP/bgiujWqEeoxtf8kQ3IRbbLZJmg02l0UmxuN9jYIqd9GJq2DfA0ypCYZKm6TDMkhGq1Y15CWmWToIO47dlzKBsI9fr9qF+IMCiDQ1vw2a67JjvqFNOlx5bPc3AKT5wNYihuAJsOrc7yw67Dn9Kn+/ixdfa38wJnnQz/y/NGKRLdvNJqo9aPR0VSjkO+bxkwylE37kJ9k6HbssqJtNajzXjnDapKhVTTacZKhi7hfdOE2v1+TrTh7Agh0DeWluqVK1u28cjv19nZ72j9fhvu5Fw9RPr+EzgagBfD7nVy9ZiVt2Xq+9PZ/8fnHy1U5qqJboxqhHtdyLHnXiEmGMtFo50EGUXtPMvRe6cRv5YxoS94pNLrK96qhm+/5xMfhTAACXQNfLMW1zg2vtrFmrbeaklPTOV/RLgBAtIi/Cr14kPIFbxLNK3N0dcktSrbnyDn69x/tqRGLRkWjmzHJsPEl78zC2exJhmobTDL02zf+BiH10eFmlbzT/u3ggO+SdinWsjhzAgh0mY23382Ho7/t2lExhS673Nuffni6Bq+04TXfEgDQGBbYd5TXi/ZSK5rnQXuZQPy3X3ySFi0i3e2d1hF0kmEYJe+inmTot2+qIu3cf82aZNj4kncmwW1gyTurtI7u7q5AXyucNQEEusofsOY6q2DzlvMo2ydfR5JHnF96+QgVEHkGoKWZmZmn3fuOe/o3vDa0bGm70+M5uvfbzzuKbpTX6M4teUe0vEveuYl2K5S88z7JUK7kneJa8s5pkiEAEOiAbLz9bl4Y/QNu2/E/13pZkYyfOF7efRTLcgPQJpw5O0WHj57x9G+uuOoS6W0//Y1naWJ6wVGiUfJOTgQ7s+SdKt03/iYZkkv/+e0bWdG2GtTV5ypLlbyrue9rkiEAEOjA8NznpNtGl1x6oacC7PsPjtEEVhcEoK04fPS0EGlZeDnL8yUXUsotFOgLD74kJbo1Pwn1GJfjJEM7ybbehlxE2m/fuEWjiWSj0fYDEe/R6EZMMpSKRpNbybtwJxkCAIEOwMbb7+YFXX9e5iK54bw10vvly3P7XfEMANBc9uw/QYv5gvT2l+zYKuZHyHD/Y/slJbf1Jxm6bCEdjW7EJMOwRLF67M2eZOjWN/KDkHrZbs4kQ12iQ5tk6BKNBgACHYxXsTbittH6DfLyzCcLHjg4hk8VAG1Ksci+w4dOSW+fSiVp1eqVUtvuPzZBh05OehTdWpEOD11Q/Ep0GKJYL3DWohdG7ePOmWTY6iXv3ETbS8k7H5MMJaPRAECg/fNWmY3WbZCvGXn0+Dmx2iAAoH3haRyTHlKwNm05T3rbBx8/4FN0jRLdKSXvzKIYlgjaiWb9Np0+yTCMkndRTzIke5GWWJ7bcpKha8k7CDSAQAflbW4bDA0NUG+v3LKfXJyPHj+LTxQAHQCfx+AeRdQYGRmgZDIpte0DPgS6KrqNEGl/oORd1JMMm1XyjqjVS97VyTM5lbxTCAFoAIEOwMbb797BA0du263bsFp6nwcPn0K9ZwA6BL7IytipCbmTaCxG52+Wm0y4+/A5OnpqOpDo1vwk1ONu/0mG5CLaZLNN8EmGy7Xknfxy3+GXvKveJ4mSd0qgtCUAINAartFn/qVbt14ufYPXfD57bhqfJgA6iJOSAs1Zu04+1euhJw4GlNx2jkYTtX7Ju6iXvHbrG7lofiMmGcpEo80DiCCDDL+TDEmy5J0u1Di3AQh0EFzzn1esHKLeni6KxxTXdm58WvrPvQCA9mA2t0CLi3mpc8DIUB+l0ymp/T74xIFQpBfR6PBL3jVikmFYJe/sBxmtPsnQe6UT+0mG5K/kHQAQaO9svP1uXtD5crftVq0apkRckWqnPdSOBQC0D/wvSzLngGQiRmsk/2K1+/BZg4wEl+hOKHkXVlpC0JJ3ZuFs9iRDtQ0mGfrtG3+DkPq0Dn8l7wCAQPuDX+XibhtlM73swhhzbcWloqcZ+wCA9mHs9KTUeYC3wcF+qX0Wlko0MTMfqvS2clqHjCh2/iTDoIOMVp1k2PiSdxV5Jv8l7wAIg8QyPGapws592W4RWXLjxMQsIXsDgM4kN7dI+XyBerrd0zMymW7p/Z46l6OhvtrtFUeZkBVd8/ko+D5rxcVNetxE0V7EuSgqleOwFj2lcnz126iVY7beRjUNKvg2Ts+bt1EN/UkO2yi2x+40gc29b/RtFIe+IYf+c+sb8/u37hty6D/r/pHrG76Nc//yf1/bf3pfaX2r8E8PKfz4FXGP35CqqJpE80Ecl+fytgCEwXKMQK+V2Wgg20vJWMy1LS7k8SkCoINZXChInQsy3V2USMjFJE6zgbf1dbyzo9FGWbST6NafZGgtga02ydB739T3b2uVvLN+3m6SoVPJOwDCYDlGoKUEuq+vW0wOcmN+EQINQEcLNPuOy/w1qrcnRclUipaWltwFejxXkVFrkVEchU1WdNs7Gl3Woo6LRmvP2x178Gi03n+NjUZX92Mfjda28R5tdnveFI3mx6XUR6Mr95HEASDQvnFN4ejuTlM6Kdc18/NYeRCATmZ+sSBynN3IMIFOpNh5Y859n6fGcybRNQpGvUgHk2jzvoOLef3+g4m0czRbE0GntAX99Z1Eu17y6kXP7fkwRbF67M7PBx9kuKV12B277CCEyDmtw/8gQ060FYtBnVqJQJe9WZNnVY9G45wGINB+cY1A92V6pCJOnNz8Ij5FAHSyQM/LRaCzPWmKS6ZwnBqftZTRKKPR9SIdZjRaF7XWjkbXS56sSNtJsrMouom0WzQ6+CDD3D/e+0ZWtKOKRuvbyA9CaqPR5RRo7TNajkEDAIH2xwqJUzolJQUaExIA6GxiMUXufMAu0vFEXGqfZybmJEW3VqTDnGTYetFod5EOLy1BRgS9TZKzF8HoJxmGEY126j9vgxB//Rd+NNo4ANEnGeKSDSDQAa6HbhvMzM5L/clWRJ160zQ7hyg0AJ1KXyYtdT6YnV8Uy3rLsLRU8iC6tRIdTHobl9bhb3/OEdeqCPpL6wgjGl0vitVtWiEaTS79J5/yEkZueX3/NS4arYu0MRoNAAQ6Qubm8/z0QHGJi2Z/potOnsEy3gB0KgPsOy6TwrG4WKgs9BDGyqSNjUaHs896cfEn5ih5R4SSd+QwyHAbhJifr41GAwCBjgj+J9uF/JKQYxmBBgB0sED3dUtFoOcXl8rnjxgVi8UQRdROpBGN1kUwrEmGrReNJhfRDhqNjnqSYfjR6OrvynulE8gzgEBHb9C0MJ+n4T73hRGG+7vRXwB0MPw7npApaVmuCa/wbYvhvw+UvGtmyTtyEW1/0eiqLDa35F10kwybV/KuOsgwPw+JBhDoCFHKF8OkRNRp64YR+k5sD5VKWI4QgE5j1XCGhrJyg+Q5LtCKl0VLvEsqSt65V6PwJ8luIhiNKFaltHNK3tkPMur7p5kl7wCAQEcEnxgok/eY6UnSxrWDtP/oODoNgA5j++aVHkpa+llUyZ/0tnvJO79pHTKiqItg8yYZtnrJO7+TDDul5B0A4RBDF1hzdGxSXDhl2qVbRtFhAHQgO9h3W+YcwC/+Y7y2s69cX39LbTuvShzcFKJcDrwqwf72yWXIbUlr66Woa0U7vCWtrf6t9TbOS1q7DYBklgN3G5xo2zj1jRqwb+SXU/fXf+TQfzLLqQMAgY6MY6emaDFfFJOH3NolIkqFrgSgk1g/2k8jAz1S54BDJycpXwia+OxPJu1FOrj01u87XJHW9u9/f24SXU1dcBdBJ9GWEcF6mbQWRTcRrG4jI4Kqz77RBxlu/ee3b/wNQur7z2/fOIs2ABDoiDl4Ui4K3dudpMu2IgoNQCdx3Y610n+FevnQmUASHIagOkejg4t0GLJvv/+oo9Fqk6LR9iJoJ9nW25CLSPvtm6ij0d4GIdaDDDeRdusbiDSAQDecfccmxERCmfbmG7dSOoWUcgA6gQ2r+unaS9ZJffeLxRI7V4Q9ByLsaHRw6W1cNNq/SLtsEWo02ina7C8a7S/iWj324NHoYCJNLoMM+bSP+t+D0yDD7dgJEg0g0I3mzOQ8Tc8uihJWbm0o20Vvun4zOg2ANodL3C+8ZhslJb73vO0+cpaWSiXPfuyeudC60eh6kQ6z//3vs5HRaGvZlhFpchFp8iXSYUSjnQcZ5DLIcOsbWdEOf5CBaDSAQDeBPccmpHIgeXvtVRtp9XAGnQZAG3PDjnW0ae2g9Pf+hf2nDfbnvSxdVCLdzpMMw4hG+59k6D0tobMmGaptMMnQb98QJBpAoBvFy4fPEZ8fKJMHmUrG6F23bkenAdCm9HQl6edffaF07vP03CLtOz7hKE/eZTRc6W18NHq5TDIMIxod9SRDv31TFWnn/mvWJMNg0WgAINANYGJmkZ7bd1Y6F3rHphV02w1b0HEAtNvJkInaf3rrThrMdEl/37/96N5qbWJ/7uwgo+FJb2Oj0eHs07z/Ti15R7S8S965iXZ0Je8AgEA3gO8/e5TyS0XpqNQvvm4bXXnRKnQcAG3EL916MV1x4aj09/zgyQn66d5Toeti1NFolLxzFkGn560lz7sIdmbJO9XnBEx/g5AwSt4BAIGOmPnFJfreM0ekL6xJ1n7z7VfS+av70XkAtAGvueo8uv2GzdLf8Rg7c37pB6+EKrdyohuOoKLknbMoRhuNdhPtehG0k2xrWSQXkfbbN27RaCLZaLT9QKR5lUwAgEBHxBO7T9GpiTnpiUW8NvSd77uOBrNd6DwAWphLNq2gD7zlcunvNm8/eeEYHTszE/l7k49Gt1ZaR6eUvGvEJMOwRLEqpcFL3kU/ydCtb6KcZAgABLqh8C/f139ygOKSpa14Gx3ood9jEt2TRn1oAFqR9aN99JH3XEvpREz6e72YX6KvPrzHWjQVJfT3KBeN9i+97V7yzm9ah4woNn+SIbmINDls08qTDJtd8g4ACHRDOTQ2Tc/tOyM9wYi3becN0//8tVsQiQagxeDfzXv4dzOT9vSd/sqPdlNufskkg/7+OOxN/FDyzmn/nTrJsNVL3lEblLyDMQMIdFPhkee1w730xR/to7NT89K5krxtXT9If/Zbr6Y1I6gRDUArcO3Fq+nuX7uZDWzTnr7Lj718gh585kiY6udLpMOWc/d9Y5IhJhmSyyCjVUveESQaQKCbSbGkinP9VVtX0Ke+u4sWCkVPOZPrVmTpLz/0WrqAyTQAoHm84ZqN9P/96o2i5rOX7/CBk1P09994tnpJDjWI6k0mmxuNxiTDzix55/Z8Z5a8AwAC3QCOn81RvlCiK7asoK89vF9cCLxEr0b6u+gvf/s1dOWFo+hMAJrAu1+/jX73vddQOhnz9N2dmJ2ne/7tcSoslSzlWaGw0p9bKxrd/pMM/RFsyWvv0Wgn0WtkNYowo9GNmGQom/aBaDSAQLcAP913hkollVYOdtOjL530dBHmLduTpE/+xi30S6+7KIr5RgAAC3q6EvQH77+Ofv1tl3n+zhaKRfrYPz9Kk7N5k+TVrdot/kgVxsW5daLRzpLeDpMM2yMabS3b/kreNWKSoUw02nmQQdTcSYYABAflITzGhfJLJXpm7xm6Yftqmp4r0MnxedqwotfTvvhEpA+94wq6fvsa+qPPPCpyqgEA0XDx+cP0P371VbR2hfc5CFwS/vQLT9LBsSn2KG4+Hyi6NEcV0/K2Z11EnSVBcZQrf/sO3gN8/9V9+3uPzu9dcU1RcPoMVGXcThQVm8GGWjkm/fist1FM/Wvexul51XLgwbdTFPvn67dRbI9dUcjxefe+0f699Sa6RPvtP/PxVY/Jvn8g0SAsEIGWuIbVfqlPnJujw6dmxFfy0Okcjc8sikmGXtv1TMI//9Hb6aZL16KfAQj75Ma+uP/hTdvpU7/7BtowmvX1Hf3/v/0CPbrrhOFirJpUQqm73Cvhn4AwyTA0kW7dSYZhlLyLepKh377RRbp1JhkCAIFuhk0LoyZ67sBZms8via/li0emRCTaD7wKwJ/95s/QHb90FaWScXQxACGwYqCH/va/vpZ+4+cuFyLsR5b+8qvP0Jcr9Z4ltNPjy3hzueVa8i6cfZr336kl76xFcfmUvHMTbUwiBBDoxrmy6TupmC43eiqH/vQrx6fp8Jmc75d756svpM/d9UbaecFK9D0AAeTrLa/aTP/2/95OV/mcrMsnCv6Pf3mM/v3R/e5CVa805DXtQl6kWy8abb1/RKNR8o5cBhlB+49cBhmIRoPoQQ60zBVSsb7OnByfo6Nnc7R+RMuBPjA2K8R6y+qsr1P95rUD9I93vJ7uf/Iw/eWXnqHTE3PofwAk2bFphP7bu64SOc9+yS0U6KOffYSeP3C64eLvLFRWwquGuG//ecfm/OVw9mm/73AzzrlER5sbXQ6+KPYXF+fcaKJg+b/+cqO113LKjdb2YXfs7n2jb6M4DPLkcsutj918/PZ9DAAEOhJxNs2dsPniHTg1S5muJA1lUuLxsbNzIoJ10bo+kYPph1uvPo9uvmwtffa+XfS5+3dRvlDE7wMAG0b6u+m33r6T3nTtxkAXyPGZBbrrnx6m/SenHE4L0U0ZdJZRO0FVQ953600yrN93600ydI5mayLoNImukZMMzdu4TTJUHS+ArTHJ0K1vqG4bAMIAKRxO1xHFdMd2JL7r6BTN56uSe2pygV44PKktvuKTrlSCPvjWS+lLf/Sz9Oor1uP3AUANyUSM3v/Gi+nLf/wWuu26YPJ87OwMfejvvi8WS3GXy4hPPRGmdcjvezmWvPO/z3BK3kU9ybD+2tUZkwy9l7wDIAwQgfZ5EVEMzxWKJXrpyBTt3DxI8fIZfmI2T88cGKeL1/dTb9p/N68e7qU/+bWb6clXxuivvvRTeuXIOH4tYHl/K9lX7Gd2rqff+vmdtH5lNvD+Htl1gv78S0/R1Fxe+vXtLsJKyHm6UUaj3WUCJe/8iLS2Hz8l7/TXDJrWYY42t0/JO7e0jrBK3gEAgW6SPFtfImcXlmj38Rm6eF1f5Wc59rOn94/TllUZWjPUE+jdXH3RKrr3v7+JHnnxBH362y/Ss/vO4FcElhWxmEK3XnUe/cptl9CmNf2B97dYKNI/fOt5+vbjByQiZNoF2OrCLpSwbHWq53OMGoLo+pdJ+bSO1suNNvdLVCLtb3/OaR1VEZRJ63AS7XpJrhdhf2kdbrnR5LCNu0i7p7yQS//57RuINIBAN0GnFVe/Pj21QH3dCVo3XJVlvmrh3hMzND6bpwvX9Ik/OwfhhkvWiPbTvafpU996kR7bdRK/HNDR8O/M7ddvove/cTut87EYihUHTk7S3f/nCTpyasaHHRlOAbpbmkRL8XRmkbmot+skQ/dodHCRxiRDP9Foa1EOLxrtNgmx2dFoACDQDZJn6x9YfR/5pMKedIKGsynTz89N5+mp+XG6aG0fDWZSgd8TL3f31//lNfTy4XNMpF+iHz53FLldoKPg8wDedtMWet+t22jlYE8o++Tfka/9ZC996rsv0lKxFEiefXqVw1nGfWetMcnQXzTaWaSXazRaF+lWjkaTpWhr27RCNNrbJEMAINAtgfXEDJ4Pfen5AzTQmzQ9ly+U6PnDk7R+uIfOH+31XaXDyLbzhukT//lmOnBiir7w/d103+OHaG6hgF8NaFtWDfXSW2/cTG+/ZatYaCgsJmYW6E+//DQ9s+cUqUHkyko0hX2GNVTvzGi0s6QjGt2KJe/MIh00rSPaknf2gwxU4gAQ6OZRE3FWXE6gJfYNffHIJF12/iBlu+u7+Ni5OTo3u0hbVmVDiUZzeE7o777nGvrQO64QdaS/+vBeeungOfzuQFvAVwu88dK19HM3XUDXX7I6lMGl8eJ735OH6HMPvETTkhMFbQWqVvJqomtKmCccCZHGJEO3fXfSJMPGl7wzy3azJxmGUfIOAAh0w+VZu686PGmGl7B74fCEkOhMV30387J3LzDJHsmmadNohrpS4Szj3Z1OiOgdb3uPTdBXfrSP7nvsoFggAoBWg1eZeeuNW8TqgSsGukPf/0uHz9E/fPM5rbZzwNCTRJWtCE4+mGTY2iLdipMMZaLNRM2dZKj47JuqSAebZAgABLoh7qzUyLNafsYt2rRUVEU96Ms3DlJ3yrqrz80s0vjsokjrWDfSKyJxYXHBukG6891X04fesVNEpb/28D564cBZ/GJBc0868ZiINv/8zVvo2ovDjTbrnJ2ap09/90X60QvHov2TbeTLBCMaHVR02zuto1kl76xFuXNK3gEAgY5Wnu1mD3qAL+3N8555JLorGbc5ERAdOTtHp6YWaeNoL63o6wr1WPhkLB7h4+34mVn63jNH6CHWkOIBGgWvpHHtttX02is30M2Xr6O+nlQkr5NfKtJXf7yPvvSjPbRQWAr9nKB6s+mGvnq7R6Ot3zui0boIouSd3SCDAvQfABDoiAza+DU0F7Lz8l3k9WafPThBO84boN6uhON2u49P08mJedq4MkPZ7mToh7V2RYbe94aLRRsbzzGZPkoPPX2EXjhwBpMrQKik2IDx+u1Mmq/YQDddto4yEXyejRfah188Tvc+sItOTc419q+0uiSoUYs0JhlikmFrTTIMq+RdIyYZ6tFoACDQDUQ+89keEYlmEr2dSXR/j7NITM8V6LlDEzTQmxKpHf290UTreLWDd7/uItHOMOnQZfq5fWfEREgAvML/2sHrlPNIM0/T6ElHe4opFkv0w+eP0Zce3kvHz800VJy1BVSMj70vqy0vut7FDyXvZPbdepMMwyp5Zy/S4U0yDKvkXfXYnZ8PPshAFQ4AgW44IWRz0FJJy4netq6Phvvcy3NN5fKi8Uj0+pEeGsykIzu+FQM99IuvuVC08ekFevSlE/TkK6foiZdPMrmexwcA2LJxdT9du20VXbNtNV29bVRIdNQU2ID0oZ8eoa/8ZC+dmZhr+LQgpeZRkNiWN9H1Jn6IRnsR6TCj0Xr+bbOi0VWRjmaSYXNK3skPMtzTOgCAQDfkYmm9CqGfiyaP7L58dIq2rMnSqkG5qgMz8wXadWyKMukkrWMiPcREOsp8rqG+LrHyG2+cgyenmEyPMZkeo6d3n6LZeVT0WM7wRU2uuYgL8yomzKtopL+7Ya+9kF+i7z51mL7+6D6anFkMVs85Evy9n2DRaDmRxiRDt37ppJJ3VZENIxpdL9qtXvJOJq0DAAh0hNdBt2+e4nvXe0/OiFSNLauz0pU3cotLIke6OxUXy4WP9KVdRuLhwCOMvL3z1ReKpcl3HT5HT76sCfXzB85SvlDE56WD4RP+rtg6KoSZt/NW9TX8PcwtFujbjx+kbz5+gGbm8h0QQ1IiEGmUvAtn8IKSd07Pm0W73ScZAgCBbti1TstyDOfLeHpqQURzL1rX7zi5sBZeQ5oL+OEzOVrZn2atO7Q60m7EmOxfsnFEtF+57RKxHPLeY5P00qFz9NLBs7SL3R46OY0c6jaFT/y7cP0gbT9/mLaz3/H2jcO0bkW2aVGc3ccm6MFnDtMjL50Qk2zVFldn1dO5wV4mo07rQDRapl9Q8q723xvltpGTDDXRRjQaQKDbUp7lKj97h8swnzC4cTRDqwe9/Sm8wOT1+Pi8aHxi4igT6cFsKpK6urYfoHiMtp03JNo7brlA/IwvJf7y4fGyVLN26CydGp/DZ6nF4J+T81f3aaLMhPli1i5YNyB+p82EDyp5/eYHnzlCx87MCGluifGYYuECqh8VlJNJRKO9vndEo7VtWrnkHZGfSYZhRqMBgEA3UJwr8qzYnSaCwaO1B8ZmaCpXoAvWZJnAeN8zTwfhLXE6RivKUenuBkWla+npStKVF46KpnNuep72HJ2ggyenRU71Idb4/ancIj5rUX+UFS1veeOqfibMPB2nT6Tk8Egz/121Cjw1iE8MfPyVk2KSoNoWJwnV3lNCkl5MMvQq6Sh514ol78wi7ZbWEXXJOwAg0JFeGhWrc7LbzwLAVyXMHVyirUyi+3r8iQ1PqeB1pMdY6+tOMpnuEtU7wlzh0A/Dfd10/Xbe1ph+PsGO+dDYlJBqLtRCrNnj07yyAs5znuC/4/Urs3S+EOW+cu56H53HHkddTs4v4zML9JOXTtD3nj1CJ8/l9Mt/y58dtItw41YdxCRDP/tGyTv7tI7Gl7wzy7ZbWkfUJe8AgEBHq9AOEeeovpc8z5OXulvRl6bzRzOUTvj/c/r0fEG0mDIrUjyGsmlRW7rZf6I3Msje02B2Je28YKXp5/OLS3T87KxI/Tg1kRNCrd2fEwvA8MeLy2zyYrYnJSLJo7wN8dve8m2PqOm9eri3pX63dvCyiE/uGaMnXhmjvccn2jBfXnXWwMAnB+dotH+RxiTD1hbpaKLR2nYoeQcABLqB/ux2Qo2Ss9OLIiXj6guGg1/u2UlkMpenybm8mADJo9u8FN5AJkXJFhWu7nSCtqwdEM0Onv4hpLos2Wen5kXd7Gn2c16pYZq3nNZm5vOigkgrwZe35lLc35sWt7zaRV+vdtvPfj+8NrcuyKNMkFs1iizDSTboeXI3k2bWDo1Na1Fmtb0rshqlTYnsBIRJhuHsG5MMmzfJsPVL3gEAgQ4zxlRzFrY9n0RIMQLh43vU86WVMyQWaRlk0jbAhC2ViLXV74iLJ29b1w9K/D6JcgsFIdZTZcHmLV8oibQXnnNbKBbZfVXc5z9bsvgZn7iplOWXDz54xDeR0G6NP+P3Kz9nLZ2KMzFOVwSZ3zZiwZFmcvTMjJDmJ/ecEpMB3cWpveS5TvUiuT5jkqHf3w0mGVpftFp7kmEzS94BAIEO/UppJ89RfxWjzgXlJx2+SAtvR87mRIST503zCHWmKylK1nXQr5Ey7Nh446kOIHxm5/O064hWfWXX4bN0uryCZcemsqvhypNfmcQkQ6+SjkmG0U8ybF7JO7dJhphECCDQkV+uFNsvqdIIe6bGR+vmFpdE7vEpJj4Kk+cMF2om0zxK3ZNOooYmMJFfKtKeY5NMms+JChpHTk2LS5vfC397nBcM4lB2JrXBr97oaLR3Sfee1tH4aHRw6e2USYZhRaPNIt28knfVY2/QhRpAoIHNSazmm9/o76T9ySvq11VpdqEgGodXeOAine1OiduuJpXIA82D55AfPj3NZHlcSPP+E5OmcnOdHtcx6VZlgrFqIRXuPTE/N0e7d+9usYF3FL9BNYL3rkbQL2rI/a6G/jtNJOK0adMmz+dx7fIVfTTa+nrV2pMMAYBAR3bBVIkcx7nRfzFbJW+L52PzCXpTc5pQJ5hQ93QlqDedEKkffNJfMh7Dh6ZD4J/8M5NzdHBsmg6fmqYDY1N09My0yBk3XpyWdw8F+9eqWgrhr0xqU0Q66r+ORSnSjZPocN9jqRQjv1HzYJMMwy15Vy/azZ1kCAAEOkqRVmqduXFfRK4rrailS0yoZ+YKoukV//gkRF2me1LabTyGk1Y7wAdHXJQPnZpiTZPm3MJSTbUM5A6q+sVaDe/cEkxG22GSYVT9ooT8mcQkQ22bZpa8I4p2kiGuRwAC3Xh7btIItp3mO+SXSqzlRck8vbu6knEh0vw2XW6pRBz51E2CVxHhkeWxcdYmcnTi3CwdZLI8ObOoXb5UFZrsqBf+no1eRps3yTBKiXbvlygmcqLkXfNK3lmLcpjRaAQCAAS6MfZsc7+RAq1SO//paaFQFM0YtOMnOS7SulSL25R2PwazDgVtMqi28AyvkT02od0/O71AaqlUzdSFMHs7I6i1ilAWDl/nCbNUBRdpRKPDP/cjGt2ZJe8AgEBH684t4HKd+GXnx7SQ1yp+1J5qeRqIHqXmtZT5Y+1WewzBrg5MpmYXaTLH2my5sfvjTJDHJnM0k8vXS7KK2EukJwzV74mG6kS6XaPRUZ2zmhuNDi7SKHnnFI0mF9H2F42uijSuGQAC3XLXy0Z8LZdTfJCf9BYLJbFEt1pzftUfJ+IKpeJMqJlkJ/Xb8gImPN86Ub6Nx2JtlybCq1zM84FFeXDBb3mO+VSuKsi8Tc0s0nxhqXKRqJdkaHLkg+u6qGKoO23haLScSDc/Gh2FSKPknT9JNouwW1pHWCXvqrKthvxdBQAC7f+y1OAydqCKtirgEuWM0WvVesDBJVqTatb4/bgi6nvzky6PZP/f9t49WJLrPOw75967d9+72BfeBJaAAFIkIZKiCL4pUqIeoCUzMiWVKdgqSSUrcTkuOZXQjKg4FuXISaVsp+z8YRupJJWHU6VKXLaVPxTLFUmhIpEiLFKKKRIQHxJBAiAI7AK7e9/3zpz06emZ6cfp7tPd5/T04/dDNebeuzN9Z/pOf+fX33znO3qhmPhj4+Xua6GEz7a1tbXY17PHTKbTsDPJNHg+86+X2zR8nvOvw9vJVOwdTBZyvLN/lPhaZ+T1Nh8O5gPhQpJVbBof74kVB4C4UCnDv7mTXt/Z6Poi3fVsdHPp9SHmZpFWjo9NvbIOm2z07H6rnGToouUdAAK9urGzRYdGoOseOBFK69FEZ7WXB1Olw3XsB1OllrKra7e13M6zwVpyD49E4MO5Gd+47Bb92/x7JZKSDP15b/m9imkvG11f0plk2PS5+8pGzyV4mJMMXbW8A0Cg/UuzLBZp/wLNyV52fCbzbG/w9VEgv7oUYpEBnkxnWWA1+/oo/m/650ezn4X7UNOk+CpBWQQktUn5lrP8fdPyromkM8mwTmwd4iRDhlRAoFsaMJv8uxNB7OmxCyV2qkLxnAUtJabR7fL7maFO1Sz7O/+3qZqVQEzVTHan85IIFZfi2b/FF6NQIpnhjV+AxLPGy/snJRmgdnSQvt5DrrPRxU+WSYarEWkmGbbb8g4AgW5tqFxdGnra08tl3Qv62evby6Eg0wkiXt8rMgt2xP9t/r1KBXUyCbAab5YFY7OPWf/mbHSzc2A12ej6kl5XRus/Tx+v3f4CoJ+TDF1lo5Mi7SIbjUiDe1h7uTQoyuR3sR+1IXC9lURiFYwmMoiWPsHI9taU0t+JWm/fdv0/9b59dcmx27ePPqXN95l97tL5sam7TxV9Slgs0UVzOmLzP1Tev6uCsS/778n7KOP4qVSrJykg0CDTJ65MJQVaOhf7WgONP8MoUOnm2rL1s6u5jOaLX/1924u0t6O0UpF2Ibp+nuPsuNTfp51Il0ty8X1EwX1U5hTMk+zsfViJENxBCUdhGFSJGLOKD4IoUwDo0FVhvH4+T5tyzC3RxaexOdLyroowDmOSodvn2e1Jhi5a3iXPOsZScA0Z6LqJBCkdDIIWQWqQBw+gz6jMWz3eQzxvS3/n4zzzmY1OCoq7fTbbt70sDiMb7T62ri4bHRftuhnromy0eQRFpAGBbsn/wpNNxeugpWhziTtKOAA6os0ZbzbEAimXkyWiTS42kdncnW0+aqN9lHW4EF2XMtpG9PJVG+2jrMPHOKVEcb/7pCSXXbTWq43GmsE9lHAUnK8qtXQKC6lg0ACmvjwq9qaXNp9OyeRCFG7O82TZAC3vmuyblnd1JXq1Le+Wx9mm5R1AE8hA2wRbuTo3ZCEVgK5fE8aDRLJwI/PfPBudLu6Q/p4pkwyb7Lt7ZR3tZaPrl3WU3MM6G910kiHZaECgV2TOZRnnNkR62tNznet8GDrK9JN0iUZiy1ZFx8+WfpR12Eqdu0ix+pZ3PiJaP1re1S3rcNPyrqiso2nLO4DmUMJhESzlCj/54ZwH6Lo8q2z8kLJsDnJOzFEeyjraWYBlvn+fZR0+O3WUHxdfZR2q8XP3tQDLbP++yzqKPoVxv5IhgCvIQFcYKdM5A9WCVPe2hIMUNAzyuloWSPDyjokSDZmz5f4S12UdTDKsKtLtBjcmGbY9yRDABWSgc05GqXLipY+SuMLAk7nQNsp95ucrFlj8GQZq0KWitRb847RENqTV7+p6Njq7z7R0McnQ/Wsve+5MMrTLRgM0hQx0WV4gNjdIZ5xVy5I4rxNTIjv9QeVeY8/b76X+LfoivnjaojZM5Vy02/zceF8CFQz+OjsVL+QySZ27Velh1142upuTDO1l10v8X0k2uvk++52Njot03klXLRvNJELwBRno3Cih2onSJcQnESqRXDZYxoReRlfu0c0y7xBbTHFWcqIKQ6mKLfmgcvIi0nA9v4pVGgG6JM9xjXa7yJKvbHTyhfheyZBstPvXXu25jzMbPT8GksEJEOg2JVpL52r6P2eu1g2GqjJybCe3KvXDPNmWIhmAZWTqKn2N0XZhOEBXzDl9AiS6bdgIUnWhcjuZrr1Jhs2WA7cTaSYZlh0Xt89xuRy4T5GWpZJcLNLS2wUWINBgPG1lJle7CjWcfQQVtceaBwJDaJ3/y1KEk9noTMyMxdFFiJFF+87/3tfQAdBZec684ZeLl9h8xF0/Qz2MbHR9kV5dNtr+uLjN9LpcDty/SNfbn35ckUTP7lOUjV6KdGk2mkAGCHTdE13a3WeR0c2mWdsU6alSIl3CVZ4lnqm0TAmyiv6xOEu9rC+T6ehbIuHmDADAoCKIME8MWJ4PSsqCICEdBBFa3o03G+36AqBvZR0uWt4BINDNol/JfWRCnn2FM5ugkpLU+KfFBnGNl2Kk66HTJRxLqRYJ2V4E2syTiAKkIfQu902QgiHLc8FYvPBoKXK7QEuXF5o+yjp8ZaPNB41stJ8LiGrHZUzZaEQaEGhH1/DSeAfTMqarSqyq+WQKGQl9fFKhTIc+c3Y57cHxcg0ZL7GW5a8zIeLKUPpBbIIRxBCV60Yy1b7HzMmTp8RDDz3kNFIYrned7tfNvlV5ssDhPuvvv9qTsdt3XaFcJi9ci/R4W94BIND1L78rDJcyR6JVC2elaSlvYwY4T4QzWWpVkkGevd7cCYqmLHWi3IOTCgZ+AS6L9UgP+mWlYmtra2Jjw0f4LWvx5UZQuyfSfZHo5iKdcznXaDjs8iTD4nNJWWejEWlAoB1cFdvcRxbZYItnYdgHOl6/IQ0Z4ALJFTJnEuC8Njqn9EPKvEmDqjjLjUHD0A1a1VCi9BVmTLLdrjZKy7tqwth8n9X3XU96849LH1reiah+eVXZ6KRIAyDQjQaDoh9JYznDPOO8yEi3cDIuFjmRqfZzRslVhQsWmnpFF+VI8iYoGuISJRwwAlTh+D/vvmHTB1qmLtjdS7QQfZ5k2K2Wd9XEz+ckw+J90/KuyiRDAAS65pV2rkwLkZ0AlDbHFk9ApVSyTELaS655IRVzP+h49465CJsnKMoCgWd6BoxCo0uuv22W30uvBugrG70UaSYZNtl39Qjnc5Jh+9loHyK9qkmGjFKAQLsw6IJYKWeumMrUtr+QiiE4zJ9LRnLlUopl+UIqubIt7VYZXNwn8TwITjBieY6yz7LsI57c6jDX2eilpHU7G10sk90q6+hLNrq5SA93kiEAAl0jRJf3Yc1bSCydvG6ljd08QMbiobEPdPo5quyEwtwstUmu88oypEHgJRloGEf0yH+Xp646y/pAF0SPvmejm4n0arLR1SS9e9noYpEeazZ6LtJINCDQwuEZa6vZxuWq2zwZ1bwIWkUT9KQ5NJok19Q1I9HuSpi6dyyXPU3PezLJNr3qYYzhQ8XPG0M5RvlKhDa/i0mGzUS3uvSufpJhfUH1XdZBNhpg5AItbfqtRSlom57IvpmqghKKEsktrE82LaQiRPEkxOiXmlYdVJlLD4CBxY7Ccz52MtrUQFcYyX1PMnS3ayYZrlqkh5GNri/SNtlokjyAQDc36Nywle5Xv0olDAfOVAmHcbXAeCAzLJgSfhlfylDmr04ojI8rKNcwTFQEGCSq+Icy9l9xnKl2opCNVg1ktJ5MMslw1SLtJxuNQQMCXTsUl2WG5mewRc1cS+N14oJcmksoSrtwGLPFptUJVVKKM502zDuijR2M0p2N8UOU1kDXjR20vFtNWQfZaJvj0qeyDgAEuv7lc4EMZzNIqzsJk32gk4HE1IVDmOQ69YPchVSEoXRDJe8jczLgsppmAPT5Ktzcj10tr79LB+4GIYWWd+Y4Qza66nMfe8s7AAS6pj+X1EDL1YpzPACkVxBc/Js0t5aLryiYXtZ7oeEytupguoA6te94llqZMuCpxwEMWp5zr8elyE1Bpyb/upjN1K+Wd8tAMa6Wd/YyySTDsvd6vedINhoQaF8joGEsk3nyvILzbxE0YtZrmihoqns2ynUqXM4yyir2OJnZd+5+Yk9rhYcIYMVXudW7cLg6U/qTjc5K1Tha3lWXSVreFe3f5yRDAATaasCpE6tXcepl+kCLZGY4mVBX2Qx07FGyoDZale57uYxLURs7RQoaBhs7DOKRWVlF5dZAx6ufXQ/kTDIkG934vexIes0irRyfh/X2GX6iS5UhINANz26RL8RSFs4C8jIAFp3wibHaVHuZE/5kaqQ39cJMl4cUt6hLxaycziAA44sry49jFnMoSs8F98sPMcmQlndu9u16kmG3stEACHSDMFtoe/MaaJm3VG+xgLsV6HjGWGWaYCzrm+UyPElz+EvUNMvluJ98nMqKc+I+MukMLR4LgG4GFMOZloot0iC6S8FwXy+avvh2LdJMMmyyb1redWWSIQACXeOMlhbhzTQEmhYY8SrQQmXSyZka5IXlymUmWeZP8Iv/3LSQyry9nRTm+yQEftEhxLUGAHSMojd3/CSxqoFOy0sfstFLSet2NrpYJml5V3Xfw255B4BAVzjRrKNJLB5JEe9a0eKYreLt62Rm0ZLqE/xUXhVGtG+5aG9nnERY0MZuJtQEMBiRU89PlvkJoGSmBtp4IR7/JCchL2Sj3Yk02eg6omt+7mSjAUYv0GF2yGLQkbI8dLS1kEpCXHMGZpXXhUMZ5Dr2YNMCLEKYF2mZ35E2dgDmIDBzaWm3YFOuGPnJRvsRaSYZrkKkaXlX/F4nGw0ItPfxThbcqxsmuJg1bMo2q3RAVfkLoohlEUo8tqQT8qbyEJlKQWdWHUxkot0P/gCdjikquZh3tJJKSZmYtBAj90VRvicZjq/lnZ1IU9ZRtm8mGQIC3f3BzqKEw1qfW01BL783lVAk+kDHfySzoSm3jltZ9JFOtbfL7JNYBQNF5chz/B5SKrs+0FKW/jPZ6Paz0fVFmkmG3RZpBiZAoF2dUeX36UhyWiWCizKXUMSeXKa+Ob4GS+ofzZKsFst3pycGpqdRKpFtf0c7Dhhu7Mi36HQpkyyNPxYX8plstHuRpuVdXRmtJ5Nko22PC2UdgEB3cAyUxXFF5GSpc1ratSPRap7fyR2kTd00MiItk9qd6MaReo1xeY63sZM5KyHizTD42KEMw29i3sDs6jocrB02RGeSoTmy0fKuiaSPd5IhAALdNGaWaZ8ynNk2Iu5DoPNqoPPCV1mZRZQyjie2ZEICktnquJynJxdmJx8qhyEPoNuhRC3OBf/xgJZ3WfHre8s7XyLNJMPyYwOAQNfMuJSFFRmVcWTvL4X9h7BumAbRZD1msaYM8Nycl0Irc+uT09lme/EW5asVYs4wpmtwZYoE/k4CstFmSetry7vqkl69rKP9bHTz96bvbDQAAt10+Msz4LVInhN3yFYAt3UqK5WTbU4JbzK8qER9chjOZPICINGNIyXN+eKtCsV78dE1cQ4GGDoSq3I28IXJZCK2trYaxwWf0u4+I61ynru7/brZt7I85vU4efKEWF9fbyDp48pGZ0WawQUQ6NWMgVYZ6GxqdblWgmq9iiocyJTMKHs2Ayxz65qVyCnzSPluXJrTF/+ZcKiy4s2nYzBkimqgq7C/vyeeeeYZZxfYLb5iZ/v0KdHdFWklXvWq+8SZM6crymieoI5xkiHZaECgV2TQNqNfstWGaQW/NquglcrpmKHyX5bKEd7FfaV5ouFicMuruVaSNnYwenvODuF1LiHdZNPc1hi7ESqb192Plnfm1968d7Srvyct7xh0AIFuy5+t2thlSyOqBkGXTMOIoRbGWlSDPP9m0S0jU+aRWmwlla3OlqpYrFZoWFAFYFxmbepf066gul3IxI/sm173+CYZ2h1PstG2x4WyDkCg21Jou/sYO9mtpkAhzEDHxujcVnUiv7wi03JuLs7SfFSyqxxmZT2zEmEo7nThgAGHjnSiWbmaQOhGpPuZjV6KNJMMm+yblneMPIBA+xwDbWqgjfeR1T3clUDH08Q59cYq04Uj3a1Dli+kYpPdthV4gEFLtGwcDszy4q6sw2822odI938lQ1reVTku3W95B4BA5450sjii5D2+ZVtMdOFQ5qW4TVni5OpoatGFI/Hqy1rbiexyxcVt7JhGCAMmJs/KW/1yH7LRPmTFRzY6+zy7m422E+nVt7yr/t6k5R0g0IPwZ1kaG4wrFsW737V8Xi5KoCN7zs/8yqxkl/VztigLyUhy+meqrGYcYHAW7VQfyUZnX3ffs9H1Rbrr2ej6701a3gEC3WuDtqyB7pAL6jZ2Kr0EtyjvwpEJTakfmkVYLeKOuY2dTIi9aWIhHg3DvggvGpbrv/PJRptfd7cnGRb/fXyXdTDJsOy4kI0GBNqhP9vVQMuUYUp342R1gU59Y1unrFL/IJM1HcaFVBadPnLb2JmvRViJEMYiz6YTzqk6es5G+xPpfk8y7GbLOyYZunmfI9LgnjUOQdlIuVp5ngeBxWaQWmUwbqXMg/xiS/27Sm2m35+7v8QDZ18oAhWMLVA4HKDDhZuMgUc62397x8TdPs3Hxc3zdLNv6fiY2/3Nqz33au8ju33Xf2/m77v5+12uevCGQbPBIagfKNtbSEWZh2iVDgfKYjLgsh6jsN7Zto1dzsrdhCkY9ulveONLP7/GR4Yu8RLIRos2JxnWF2lV8/3SbJ/V9u06G11/n/n7ZnQCBLotT16RNieFddFdOWeCoOnZ5U3wy11IJefKXaXMOvH7VVrYJRINg0VZvLOl409fij/qZpIhLe+aXBiNq+UdAAK9Mpf283Ft6aAdX0lFWvRfNizZbVoDQhh/ll4Ixdw/Ok+S0xMVqeSA4dq0ajUcMMnQ/Lppeefiwmg8kwzJ7IArqIHOHx1jX0qDdrZnhvPaZ2N9skiUHicyyvH7K5H9gSlAZfenRPI/86FSyufgC9C12KBWNhCbM2nuaqP9Zerc1XCnX7f72mhpcczdWFuzsg6Xf8/qfx+7fXevNhrABWSgy058lSPVbQ7XKiWrptBkKs9I31/GfiCX1/Lxjh3SUCMty55XXscOUtAwwJCQFwqkVBUGdtno/PCZjZ7vn5Z3vrLRLo852WiAVUEG2ibYxYuFV3DhG2Z+S7pwzP492a7DdP+M5KY6bKiCMLf8PeZPr/Oy5ACDigyGtjf1O8e77jIQl/PmEt2/bLQsOC5unqebbLR0fMyHn432+V4HqAMZ6LJTXToZ55oJdF6pZcEEweWgnq6BTq1WaMhcq0gSVCpzYVqgMTNRMVZDTX4Ahi/P6ZNC1Y00wm02WggmGeYdl+bP082+mWTo7r1In2dAoHsk1u0ZtYsuHJkPl02TAVNl3zIKhDK1BnhG4BMdO7q1iiOA50ggclvZOBSq+vLCJMNxTjLsS8u76u9NyjqgK1DCUXJ+K9MPW+6Ho1L1G0WlEvEyC2FTZhF9YzNRMbtoiknyAQbuzFIWDP6WC18U/wInsmv7G5vv2+nB9XKRM75Jhn1ZgKX+e5NJhrBqyEAXiWsyBGf+sb2FVHImDqqcBUxsFjeZP1am/01lX79KRi1VFAJdJeMAehEd6r/fi7N0Pso6yEb3Y5Lhaso6mGQIgEA7D7uZn7V8Ti7aykmR6apR1Jna/FwLVitUyVdd2uHDJPKySU4BoA/eXNDsXFYLD+Vy0bysw2dttD+R7vdKhs1ro82v3WdZh8/aaPvjUn8lQ2qjAYHuijzLcqFWLVmiUioh0flTllR2dUGZfRWJx5dNECx6/WVt7EgAwMAuqFXRGdHg4rE8k1ZfAmh5Z95nt7PRxa+dSYbtnkMACLTrREbrpFYJzJSRyJyyjPzAIgukuawsw3SRoZRa7SEC8H0WSnOauVlnZxsx8pWNbi4WZKPNz5NJhk32XT8bXS7SAAh0q56cLmFotwY6Sj8XduEoLq8wCm/qG2mIWyoh5Ibaz/gn2FI6Gu4BOibOwvypU2JOgvJdGkHLu761vHNzXMhGu3svItGAQPsfLTtyvqn4LEJZ/NRMJZqFddKp+6rYSoXzH+Y+3tjGDmD4F9aqUGvcnAW+s9FZeWGSYRst73xcQDTLRtuJ9PAmGQIg0H4dOiagMlPyKFt7HnW6cJiEdzZIZNfpzl+2W2UGWWmw97JlvwGGIs+Jc0P4vdD2Xdfpe5Ih2ej8sg4fFxBMMlzFexEQaEicoyq96siK5DlrwcVdOEzSnOmmoVTe/KfFV0qJ0oBfVC8NMER5VmI1b/S+TjKk5Z35edLyrsn7pVk2GgCBbnXYXKk65/eBFtnscuY+JasVVpogmL5PSurDUEmQgiGjbAZuW2moLn9MMnR/AWEj0m6z0U1F1+61k41GpAGBXpE2J1czymizVK3loFRqWcH87LI0yq7MEYHCjh15YTBTM50MZZIUNAzZnRvdYcna+po4depUI/Fr/yNpN79QKff7zMZLP6/bxa7X1zcS8kfLuyb7pj0dINAdFuls3eMqCn2VMghxweS9ojrp+R1kwVAhlfnfZOrCIdv1QxLOYNgBIfYGl5G4qOLL1QwnTpwQV69ebSyoxXLR/Cw079+1SPdBopfP0/ckQ1re1dk3PZ8Age7WWCmLB40229iVDV/GZboLRHmxH5WMu3JpBkYpV6YSFlYihJG4c5EoK4+Tw8piVL8nGbrPIs7baboVaVre1X8vNntvko0GBLqvo+aKqdKFo0iaE8uwmHo+y6UgK1FS+mHx+5BoGCRKFp6froWqvui6EYv2Jhn6EWn3Ei1EnycZ0vIOAIEekV0ryy4c5jrpeeSRBgtXOeEsd6JhSekHwLDl2fxtXqtLV0LlRi58TTJ0vXiM24/j/WWjlyLd7Wy0D5Ee7iRDAATa4SCZNcp2c6vLLhz5y2SrlBVn6qSDnShDk+i8KhVTsqmwZhqThjFdN6vY+15aNudwKD/15aW72eikGPUhG718M3Q7G10sk90q6yAbDQj0IGVaFslnK09E5pZtmPy+cJlvlbw2UKk7WGWZVRTEDEsbEq5geKFAJlrRmNo2VhE0e7nwVdbRh5Z3ZKPdiXQfJhmSjQYEutdI4w/kisQ5ykDHUr2ySGqLXkeqFCMeVmyEWaYj7DxwGdqCyEVUJmjBCGJEg7d5NbnoejbanawwyTBfpJlkWGffzMoBBHq1I+UqWtgVfJ9XOlE0XubKct5iLKlIld/GTtHGDgYdCtLd3135V9+z0dnn3v1s9Fyku5+Nzr52Jhki0oBA92fwNIh0e5KosounpOKKkrYhQhmkOZ5kl8USLgRt7GCkQUDlrtzpOs74+Eialnf5Ej07LmSj3Yl0HyYZAiDQfsdMkVfS0R7LhQhVcsJSomY5G7SU0Z3TZRYi9zFN29gBDD8+pGv+XQujW7HwLdK0vDO/7r62vKsvo33JRgMg0O4HRlnSkqrlBQlVzJiNJRgqW8lcJv6FkxELOnJIq+cLMDDKlqBWbi+umWRoK9JMMqwvunZ/H7LRAAh0/Wi9QjtMZJzzunDUeJrScCdlkG1ZRZSVKn0MwIBM2u5EaRiCmGRYdFzG3vJu+drH1fLO/m9ONhoQ6PbtudE/uxyv4xJtu5CJtIgv9rXT819vqMcuM3mAoYQDY4P02OqelUZoewlgkqHNvseajc6+9nG0vKv+N2d4AgS6bZRKnnkrOglVQdiQBXes1OpOGPo4q0T+xNS1jpINGOeFtXH8ripyvkSaSYbdFmla3jV/n1f/m+PQgEC3paxq9SeeildApxZAMepvYVZZGa8NVOrBRQsvli7kAjDQcJBRi3QJVKMUl71M+p5kWJyNri+oTDI0v+6+TjLsc8s7AAS6DQyDYuvCmO7CUePqWhnseh6gZMGDVdnvUOWPAeh/HBDJto8LaXb5pu9DNrq5rPjORifjXT+y0dWFsdr7iEmGAAh0i+NlsuB4PlCute3OqrwLh01/2qLkmLWUmyYdymoiDzAU0nMIhKea1uoy6kYs+tryLnlcyEY3F12792ZfW94BINCO9Tn97UqlUBXXQNssYFIqycricRUmHQIMVpyrnFwOpKqZ6LoRaVreZSV6tu9+trxrJtJkowEQaIuBUhb+YDXPo+xpGOuULfraldc3Fxd0KPoEweAvrFXmnFLWJ1nz31lfdJtJLy3v2hZpJhki0oBA91adl6eeNAR22fKzKQwDqkhrkz8szkSX970rWu9Q0icIBi3Pzny0xkfSdhJAyzubfbv/iN93Wcf4Wt7ZiTRlHYBA92XYXJEg6sCsonYZ+XKsrMKDLLxmkMVhS9YvEwEYyoV1/skkK4WI6mJEy7vmoks2ehXZ6Poi7TobTZIHEOiWLdrQMbnlFLSK2bM5rJRkxVU2JuXVN0v7p2Un5wC9d2c/l4f15IKWd+6OOZMMm4uu3d+nO5MMARDoFcn0CsZuUaEGOq8jh8w+uFE2eb6+DEELoMKJ40qkx97yzodIM8nQjYz2YZIhAAK9MlFuuwbaplVd/IlJm33avD6VfweVknHiFgw6HqhisXMxh7BeWccYW965izr9anm3fN20vEOkAYHu3ECZKIbowEIqixpoy99tlT2uGLMMi3xX6gwCMJgQ0fiNLh0LAJMMyUa73ac7GV1NNrq+pAMg0K5MOnParkQSVbLmujB8FMqxMo7f9pMPpZW5E7NgkPGg5E1ebV6E3UfSTDK0PS5MMmwmuuUiTTYaAIG28dXYN7NiX7nq5xOLAIXZ3kI5ljYPKbRrZRHTJBELRhMg3IqKGwFgkmFTiV7uu3+TDGl550rSARDoBgOl6lxdQtUYICtIsTEUsfoggN3Z10gsxpiNrrfP8uPiLhudFGmy0W5kdHUt71iqABDoFpCptnGr9fiSGmiV/6MqUqwqSjIX9DBGeW66lLc+nw8PD2ufVdXlQlV4bsLr2V+8/2YRRalq+1xfXxdra2sVJJ2Wd81F1+4Cz2dZBwAC7VOe83oir8ikVSpQZcKELA8lsuLvs7kTi6rA2C6rE+/smo3Qd3d3xJe+9KXGZ2FfRbp9iTbv98477xQXL16sNCYwyVCIIbS8A0CgfRpr/Fu5YpFOFT07k+KcNcKlzV6k6Z4KeYYBy/MKZT1H6lZbG11PVmh517ZI+y3r6HPLOwAE2qu7rr4IWJnktGJckGUxy6rBhizRcrmqQwSwWq9Wq9k5Le+qPPfut7ybizSTDJu+zxFpQKA7MDLm/Gub56OugVYpOW1oqcrV0SAuwUijg8pcWyufv62BjLYp0rS8cyXRs+PCJEN3Is1gBQi0/6FRFojjCs5Blfq1LsJ1ldZ1hXcj3QxcWsfOCeX5t9Lyro7oZo+Lm67+fW9551ak+zDJkAELEOiVjZIyHh1WxHxpb2M2uor85j1UNjpEAANElXunauOMsMtGV5MXWt65F2kmGdYXXbv3JoukAALduXFSFZzGcjFGtimPyhA/VJ40V5TfGg81Pj9kGsZ+cd3+E+j6JMP62ej8UNzdBViSx6UP2ejl37zb2eji9yaLpAACzahZ6PSqhbmMKrVMcRiwRY6oG0MbUQxGfO0tlWi31pJJhk1E17Wcm48L2Wh3Ik02GhDofimzoV1b+yqtEgEzHfxdBQ2ZWjlG/85q7ftkmWsDDMCUuxipmGRYR3SZZJh93X2fZIhEQxuscQjyT0+ZI4wryUOrrDDHt7aeQnwz/Sz97wDDiguyZPKtXOmzK+0cVGspY/sH2O273kSu4n03O+7m4+JukqGUbvdpEmkf7yO3u5YO3ot2fx+W7IY2IAOdc152TQCV5c98D8/p3y/jT4SABYO/rE55cs2VCP0/T7LRdWWXSYbJ1z3OlncACLQDW5XdfFqi5T7UljHRpl4aoL+hoS9v6uG3vPMl0kwyNL/u8bW8A0CgHQSPOv/qXp5V2SraHXBWktAwkivr8AK2+2Mykwybi657kWaSoflYttHyDsAV1EDnnoMy9q3qiBguK4yz/9mG4KbVylQ5A8je9W0sf7Krr42udwleXO/arOY4f99u/vi+a6P91Ee7rjFOvnY3+5YO3+cAZshAl8piwYknV/ZUDD/Oea4qfV9ZuBeLfFX5kwIY7pV1Ye2U7PQ5QTa6qej6KOvwmY2ei3T3s9HZ1+67rAOgKWSgc3RSmlYd85cssHhOqlLueNGhQ1TLF7vMLRO2YJAOrYbwIuykrto+7R5kn2HsVjY6/7iQjfaVja73XvTz9wFAoHsu9k2LLlSDxymPzxGgNydh4T/3ZbAee8s712UdtLxzL9JN34vu/z4AcSjh6NM1rbIexwufq7J5Maqs2ENY9MhGowG6H8nG2PKueRSn5Z35b979SYaINLiBDHTp6Wb4SGkVGq3s76bq7LtOmloJVlKBccUDqQY4CWn42eh2Jxm6k7R+ZaOXf/NuZ6MB3EAGOu90LawZk6LtSfjz3hvVr9ndBi8f0g/QD2JTdgf53maSYRPRpeVd9nX7zkYP91wEBHpIY0rsm1Wdr5k+0K04MdEJYHkOuhOY7goAKxm6/Xu6K+vwuQCLH5Huw0qGAAh0mya9+oF8ZQ+2PyLaNfikDYYaA8wDd/WTq5sCMPyVDGl5Zxbpcba8A6gONdA1T13EkBJoGHEMcNJay/XiEatJHPS55Z3PKE/Lu+zr7n7LOwAEuiNDCwAQFaqJdB9TBkwyrLJvWt4xyRAQaIZHACAION1pt7PRrkXaVzbaR0a6mey6lvN8kXYr0b5F2td7E4kGBLrLQwcnKMCIUIXLeM/v4irKjK+sw4XoNgvQ7Wej3Q0ktLzr0zkECPSI5DnzDSclALQgqGSjm+y7m9no9so63Ep0P7LR5nMIkQYEelVDmUSeAUYfD5QsTkJLV9NnmWToXqRdiK474WWSYfZ1M8kQ+gRt7LyFRwAY6OV0brss25ihBWRjwzb8Jn+Zm1Zd+Tupv//yB3ajzdjySayt2V0AlC8H7rJ3tK+Wd833mX4P+2x55+79Ym55B4BAex4v6WUMAGWKuBj6LRdaOXXqpHjNa17T6Lf7FOnuSbT9g+z273IBlqyk1ZFdnwuwJEWalQwBXEAJR0F4VRanIwCM8+I6HQRUy7/UzcfdMle66u2blndNRNdXbXTyuIx9kiEAAt2uTXMKAkBOHFCxH0rvEcJ1XacsFGnX+6wv0rS8cyHRTDJkBAcEupUBsmhOEKchwNiupNVySFflF9ueo1MDGbWPaM32Tcu75qLrftRhkiEAAt3eWAUAXFDPHVl1JS60m43uTlkHLe9cSLSvbPRcpH1dNCLRgED3Xp45iwHGgs49KyEL/UVWaGPX7cUjfJV1uD4mtLxzIdIuxTwt0WSjAYEe10gZH46i/9xnAACgfxfUzlo967jifPEI6VjQmWTYFZFuNxvd9UmGEpEGBLrzo6X3QAAAvYkIZSt5q6rxQXoQgOFkoynrsN03kwwZmgGB7uzIKZFnAGiohfkS4Dsb3ceWd/XEiEmGLkTapZinRdrXmUc2GhBoAIBOGrIy+sRigmGjwVtGWTp/Sk/Luyb7ZpKhS4kmGw0I9HBHypJ/L1tqBQCGhco9+91Gg75ko6UD0a0mk0wyrHJcmGSISAMCvUJ3logzAETRQNc4K1WsEspJfOhDNjpf0phkWGffTDL0cdGIRAMCvYrhUprk2edJDwA9ur426rPr3+Z+KWNa3tWT0WZibr/vbmej+1fWQTYaEOiWR0mVOzBKJhQCjFKcm9c51//NtLxztW9a3rkQadf7jI+vfs5cRBoQ6NbQH9UqTwEIAHoWD6zk2Wd88FvW0e1sNJMMm4mu+3Gsz5MMARBo36Nl4rSTRXcBgJEgO/AMxtfyzu7I0/Kuyr7HPckQAIH2OUxJTjUAmAeE2WLe1lfe3iW63y3vulPWQcs7J2Olp2z0XKQBEOjeyLNFtoPDBACrjVRMMqwlo22KtAvRdSe8ZKMBEOjW0HWPlGsAQGkwUKu4tGaSYXPRrSeTtLwr23dfVjIEQKA9jE2xAMAcBIBxy3PMk7t3US09dBkYTja6G2UdLkS32T7Lj/lYJxkCINBOBg0VO+mloPUNAEQJaOlDCVwK7xgnGdpJHy3vqux7jC3vABBor8MTABAHHBmat2fY90mGrvdZX9JpeedCoslGAwLNoLm88uWkBRhfDCit3VCdesb9yEZLB6JbTSaZZFhl30wyBECgnQxInKQA40MJpUrkWHVxunEfstH5ksYkwzr7ZpIhAAK9siGnJHh0cxYRAPiODb0dn2l55+5vOvZJhm7OI8o6AIEeHKo4VChBRw6AEV5Wlw7KsvuvgZZ3wuG+xzrJ0N0ASDYaEOghDpeyOGZKUtAA0NuLgbG2vGOSobvxkEmGgEBDJajfAODUN/17nz6aGmvLOztJW302up5MMskQkQYEuhuDZSI2JEdPFBoAj+4/tLyrJ6PNBLXv2ej2Jhk6frcj0YBAtzKuhJtUpnINiqABRifOQTAoXkilz1rd30mGtLyrs+/mY1hfs9EACLRveTaOh5zMACPV5xFEAF9lHU1k1F7SmGRYZ9/jbXkH0IQNDkHhWJn4VsazKRwhgFFeV7to9by3tye++tWv9iIIqs4n1c1PsP7ztntg9f3bPyBv32fOnBFXrlyZvxNrSXT+866+z/T+lXK7T/Nzd7NPAAS6hRFTxZQ5vCLmqACMMhjMBnBVbNgWTCdTsbu725tsgnuJVo5kt30xX6VEHz9+3PBmcynS9fZZvO9m+zRLurt9AtSFEg7LgTD9MRWnLcBIQ8PorqD7spKhj0GASYbuzpF+TDIEQKA9hlDkGQB5NqKGPKD3oeWdr1HA9UXV8CcZ9rnlHQAC7Ttscs4CwMiiItnopqJbbxCh5V3ZvhFpQKA7r9LdzZQAgF9KPn+SY1lkqQ8t7/yPBfVFt75M0vKubN8MzoBAd2ColOEGADCT46VGU8rVzkqGXX3d9WW0ufT6zka3W9ZBNhoQ6IENDEmVBgBQShZ3XhhlqJAeMsZ9yUYzybCu7LqW83yRBkCg2w+PUhlWIHQVQgCgX/YsHQ/1Q0s6MMmwnow2G13s980kQwAE2v9IiSkDgGtnGMUBYpJhHRlt9mbreza6vbIOAAS6S8kFACAWEC8yIs0kw+oy2qZIuxBdd8JLNhoQaDwaAIYcC0rrnIkWcVkhG91EdOu9r1abje7DJEMABNo/KhgAUrWPADDGWKCCWBC3Z0MvDuYbG6WKbHQT0a0n0qvLRjcfKdtreQeAQPsI+ZkTVnq4KgaAvgUHmtjVld7xTTKk5V0T0fWVjQZAoFcW/ziBAUYbD0pjAXJddACZZOhKpGl5B4BA94SwqR2f/wAQCwoXWSJG2Im0P0FlkmHTfY+r5R0AAu1udBTZVnbSeK5Op2SbAMYgfGFUCBdSkSX3IybYSzTZ6Ooy2kx6aXkHgED79WebcCL1fRksAQavejI5+BcN2YqQUEOkmWRYXUabSS8t7wAQaPcCrVTBx7PL4KDvQQYaYEyup0rHaYVB15Ze32UdXX3dbkS3nkwyyRAAgXYb1izPQYVAA4wgHtiVZiDPzYXSfca4L9loJhm6G6sRaUCgV4ey+PdgmzJgAoxL8VSTwAG2ksYkwzoy2kxQmWQIgEA3D2MyeVrLnDESgQYYSzxILqpkOvMJB25lkkmGdWS0maAyyRAAgXYm0UWx4+hoyoECGHqglMtQqWR+nplJxb5E2p+gMsnQhUi7EF13wks2GhBoP0ys7jSZWMULnYGeTJBogOFeSC8HdFUyBttOKt5YZzCvLtFko5uJbj2ZXG02mkmGgEB3iW/Z3Gn/4MiqnFGfiodHE95JAEMNkhXsZDKxE+jbzhzjwNYWaVre1RfdejK5umx0vX12/8IIEOh+8pydQB8KubZmdS4fUsYBMFxlS8SBtCAvv9cdOKZTu1hwEYFuLL3jK+ug5V0TiUakAYFuzrNWAr1/JI5trCXO3/AUNiSY9KA5mSLRAINTNV02EJ78KnHyy2gx70QcUFPrSYQXEGgnQklZhythHHPLOwAE2qlAHxweifX1tWUMUMWncVjyAQDDCpA6+yzzs87xSDDV5RvWAr3JwXUq0v4ElZZ3TffdvWw0AAJdj+ds76gnB0qRmkAkzafu4eGEVQkBhqRlwUi7qH9WKW8OW3HEW9qpSuc/JRw+JJpsdHUZbSaofc5GAzRlY4Sv+VnbO758Y1vcdv7UrFWdQZzT3+/uH4ozJ8ksAQyB9Xntc/rTJyUziWZdxlVFoN/4ugfF+dPECj/M/g5ue3Ind+Zm3+adFO17Y2OjQCZVqYxWe96y8HmaRLd8/3Yretrv2/45AiDQzXlBzFrZrZfd8cVrN8WVS2dLej0vNfroaBJmrcPSDwDoLWtrMmpflzzXZ9UckaDFXEAF8jw5shvEN4+ti7tvv8BBbkGk3S9so1qR6Hr7L5dJe9GtJ712kl5Peov3jUjDCsaJsb3gJ594XMvzv7W577XrW+FAuiZl9sOi4GfK8PnS3j610AD9F+j11OCcXIFQJXrBz7LPti3svv3+ixzgVpAe6pdd10bnlzbU37ddbXQfyzp8t7wDQKDL+Zc2d9KdNa69vCWOH99InqDpMzgWB44mk3ACIgD0E126YR6GVWqlwVlhtP7UyVaeNd/znfdxkFuU6H5MMpSORLeanDLJEACB9iLQmm+9dFMc21ifzcZPTypR5vN0d//Iuh8sAHQoIMq16FwXGVFOnviz73XmWfd/ti3f0Lz/za/iQK9ApLs/ydBXNppJhgAItCOefOLxp4Kbp23u+9K1W+EAmchCq+T5KVWqfVXw/fbuIe8ugD4plu66UTZ/QSa/1J9S6dPfvnzjkrjr0mkO9kpF2rVEt1PW0WzfY13JkGw0INA+sMpC62W6n33+ZbGxvi425pkpuTRpmZnVMDthdWZqZw+JBuiJPSdKN5TFODyJss9Hh1PruUvf+xbKN7oh0X1oedd+WUffVzJ0vU8ABNrMv7K941ee+VaYaVpmodMf6c7P3uQJqntDHxxOeJcBdJyZPMtMu2ejHygZtrKbTiZh9vnwoEr9M+Ub3RJpl5MM28tGN5P0sWaj6+0TAIHO8ulg+6bNHQ8OjsQz37gWtqdLLO8tkuJsOjV1b+ijCfXQAJ0Nglqew646JcNsbPGUyXQSivbhgf25/dC9t4lX3X6WA94xiW6jrMPNPpvIaHXh7Xs2urisAwCBrs2TTzyux7//w/b+f/b1F8NyjhPHN8OJRukTMfeUDH7L9u5BOFMfALonz+lJg7JAnMNv1TT8REqXaYXlG5Z833fdzwHvsEiPt+XdWCcZAiDQTfh7wXZgc0e9SMqfPvNieEKePHEs/2ROn+dRD/qtQKLJRAN0W57L0W3rZmVZB/v25/O5U5viw+97mIPecYkeZ8s7Icbb8g4Aga7Fk088/rXg5h/b3v+ZZ6+Jnd39sJTjxOZGalhNLq6QEemwMweZaIDOyLOsEv5m1dG6z7v+Sretq9K67mf+3BtCiYZ+iDQt71zJKNloQKCHzK8E25bNHXVv5z/6wjPhR7ebgUBvFLS8Mp2rKpJoMtEAHZBnaXfezqcVzlrWqfD839+znxx89+Uz4sff/xoOfC9Fup+TDGl55+oCAACBzuXJJx5/Mbj5+7b3v7W1J5768nPh17qUQy/1nQ4PsuDkXUj0Ed05ANqX5/XZOWstz8uL5/niSHu7s97Ptvy1H3lTdvIx9EaimWToUka7MckQAIF2hxbol2zv/PXnrovnv/VK+DHfyePHjOFBFZ3j4cTCQ7F/wJLfAK1oUNjnOZDnGmOtXr57spDniZhWWLb7dVcvMXlwICI93kmG5aLbjbIOAAS6dZ584vFbYlbKYc0fP/2s2N6Z1UPPJhXajMTJwKGX/NaLrSj+BACe5XktcxFrc+LN6p1n8qxb1lXpuqH5Gz/2nXxkPCCJHuckQzvhJRsNCPR40ZMJv2Z7Zz0Z8A+jeuhjG+sZiZbpUTjeBis2duuFVrZ3DsL9AIDjACdnnTZU/MxUslSaw02vMng0mWWgJyrMPlfhvW+8V7z5odv5IwxQpJlkKBxJencmGQIg0DV58onH94Obnwk26xSTrof+3B8/Ew60oUQbyjlk2WkuZzK+tcPkQgCX6JINuRbv1S6LnCWZlFazjhsikued7WrlVudPHxd/8yNv5Y8weJF2LdFMMnQr0gAIdFsS/ZvBzS9Xecy3XropPvf5SKKPreeXc8Tig2nl76meXBhI9N7+ESUdAE2UIap3Xp5fMinPhjkJSZNe9nqey3OVSYNrwe//lb/yLnHHxVP8MUYh0V3PRufLJJMMARBol/ydYPu/qzzghUCiP/v5ry0z0bGFVpRIRpG0OOuBWcXG8b2DI7G1vU82GqBOQJsvjiItBk9DHXRYthGce/Nez9tbh5XkWfPvf+g7xNtedxd/jNGJdD9b3jWTdLLRgEBDxJNPPK7N9fFge76qRC8y0YFEnzi+kQkHsmTwnjOZqrCkY3fvkD8IgNVAKsMWddIwmsr0yRa/ag3voBY/n0RlG0danrery/N73niP+OnH3sAfZKQSTcs74XDfZKMBge6jRL8Q3PyEdtkqj/vmizfEZyOJ3jy2Lk6d2IzaZqmEN9uGif3Dibi5RTYaoDCIRVnn7HmkUuee4ao1kmfd4/koKts4OprWyjzfe+WM+MRPv5OuG4j0iFve9WWSIQAC7VOifzu4+aWqj5tLtO6qsbGxJk6f3Jx9pGyS59QJLw0xQ9dGb+0cip29o8oDOsCwJSUQ5/X1WX1zybmRPfdUJM9STCfLRVIODurJ8/Hggvm//qvvFWdZrhtiQXx8Le/sBHX12WgABNo3fzfYfr2ORP/eH3xF7O0fhquenQ4G1Y2N9cJ4EC/ZlIZEmW53d3N7T+wfMskQRq4mYbmGDDtsSMtezqZzT0uyLtmYRra8u3NUq2xDD9j/2U++XTx07wX+OGC40KPlnRtJ95GNBkCgvRDVQ/9osP121ce+cnNHfPIzXxLXX9kOT/lTJ46JE5sb5tM/3qGjYAlDPbDv7h2FZR1aqBFpGJ84r4eZZ5HOOpeMrZnGG8GZPQ3kWZdb6U+Lbt48FHt7kxrPSYj/9PFHxQ++7Sp/ICgR6X5OMhxHyzsABNqHRO8ENz8UbJ+s+li9VPenPvtV8adfvxZ+fzwQaC3S4Uld+axf2oLOmOkVDG9t74vDI+qjYfDmLKSucZZrTcbS6CySoTBPprMLUF3vfOPGQXhbOXgGz0tnnv/Cex/ibwTW4kfLO1f7pqwDEOg+SPR2cPPBYPudqo/Vsvvvnn5W/OEXvh7VRa+LMyePhx9B253p2XqO+T3Cbh27gUizCAsMWJz1aoLpRVBk+lQpWZp7/s/TQJzn9c67u0ehPNdZBVSfv3/7p98h/vy7HuTvBJXFj5Z3rkSXbDQg0H2S6N+t8/hnnrsufuffflls7x6Eg6+W6FlJhzQHwTIjiC0OcTRRoUTr7YCMNPTem2cTBMPbksEx7EhnUwcdtqibhrf6/rduHYrtiqsLxuX5l3/mneKDb381fyxoJKjjm2RINhoQ6LFK9FZw81iwfarO43Vd9G996mnx5a+9GKqxLuk4oycYrsf/DElxlpl4kxVtGd1fZ6G1oN/Y2hf7BxO6dkAvxXk+gtrIc+kYqmYt6mZZZyUOgvPi+st7Yn9/Uus5rgfy/Hf/yrvFDzx6lT8YOJFeJhm6Emn6PAMC3XWJvhXc/GCw/X6dx+ss2Of/5LlwguGtrb1Zl46Tm+HCK7IgOMmSuuh4ANGfSO/sHwUivSd2g9spJg3dNueYOOu3dfkgqNLniTQJ9nRW6xxNFLxx86B2yYbm2Maa+K/+g/eI733LffzNwINIu5ZoJhkCINDdk+ibwc33Bdv/WXcfL9/YEb/56T8RT331hVBwdR/ZbDZ6EVoN+lDegkDnpvf2J4FIH4jt3cOw1AOgO8IQlWos+spJK3mOv+3jg+viOnHeni4SZV3rfO1a/ayz5uLZE+If/fz3iPe96VX86cDzOeFapJvIqL309rmsAwCBbleidSb6Q8H2CSHqdZTTA/wXvvxN8Vuf+pJ45ebuIht9MuzUkV0APF6uYcwyGBR63lT64Ggibu3si5vbB2Lv4EioKTINq3AEPRKuxd7fhvexrDb0qeh6UopZuYbOOmt0Z43r1/fEzVsHYRa6Lo88cFn8r3/rMfFdr7mDvx+0JNJMMnSzb7LRgEB3VaJVsP1S8OW/F2w36+7nxq1d8Zuf/pL4/J88H9Yxb26shyuandhcz+kbnY2AMvF1/gTESSAYuqzjle39sIOHnnSISoNPGZilitdmW2GzZpVohK6i/xIXhKnrw/mP9Kc483KNcJLg1oG4FsjzwWGzSbU/+r6HxT/9T75PXLntFH9KaP288V3W4WafVkOUM+ElGw0I9LBE+teCm0eD7am6+9AD/9N/+oL4vz75RfGVZ15aTjI8vSk2j61HvhCocUnkkKU6HAUoJcVhIBdbuwfilVv7YnvvqFYvXID899la6cVexoSjcyErzir3vJmG4jwNxXl751B868UdsVVjRcE4uqTqEz/zTvGxn3hrWPsMsKrzyH37tb5ko5lkCAj0WCT66eDmbcH2r5rsRy///bkvfEP86995Sjzz/MvhYg0nj2+Is1qk9UA+twKjHKgCSUkFDxkoSpTt07Kiu3bcDOTjla2DcAIifaWh1oXgIttsrsOQ5TuwvP9MnKdq9j7dicRZTxScNixPuufKGfE//sIP0KYOOnQxOsaWd1YRg2w0INADkWhdxvEjwfa3hWhWGbG1sy8+/YdfE//md58W33zpVijSehVDLdLH4hMN0xfVMpO/SP0wlc2bT9yK7qY/Ct/TMr19KF7e0pnpw7B+WtHJA3IGI7XY1swWbPvWKZTn2Rt0lnGeLhZD2dk9Et8MxPnlG/ti4mCS7LsfuUf8L7/4mHjo3gv8aaFz5xot74QHSQeoxwaHwLlE61H8l9/6c//s/w1u/7tge6DJ/l6+uSv+nye/Im6/dEa88TX3iEsXTonTJ9fCDPHB4WSZKZaGYFsWjFMxNNPrI5CV/eB36N+jo5MWd11OojPh62tEq7ESn8qqyky5qtPK5ONU9IN5WYeKMs67e0fixs39sAzJBWdOHhN//cNvFj/ynocYiKEHIq0c9vlPnnTz93+z/UtjAGi2b1kaUPT+yfVAW5CB9ifSvxncPBJs/yDYGo/y37q2Jf7N7z0tPhnI9AvXboXt7k4Hg76ebKjrNWWFq/VkKYcpiZ2czDWrmRbi8Gga1krrMo9XtvbFTvC1nqRFn+kBy7KKPrNQur+4DG8tLTsx1pW+Kw0LBoXyrPT7K6pxnqqwxllnnF+6tutMnnVf5//9l39Y/IX3Is/QJ4mm5Z3bfQNUgwy0X4neCW7+47f+3D/71eD2vw+2NzTd53Pfuhlut507KV77wO3i1XdfCGuk9aZlVmeL50KrjJllmfZnkdYWm4CqE997we/Sm9gL3khrMpxspTct9xtkqPspzJEsa6Zh1leKgreEaViPMkAqef+i0v10hZEQ0aRAFfV0VmFXjVvbB07KNObccfGU+NhHHhXveeM9/OGhxyKtFhe77oTXfzZ6vn+y0YBAQ5FIfyaQ6LcEX/5CsH082Dab7lP3jdY10n/0xefEw1cvh9vxzWNh67uDySRcsngSTaaSpjgmiyRKZlcPL8lM6N81CX7nfpQV1GXaoVAHX6yHQs37oJPCrKKPR3R2Wb8xlExNRVX54ptR5/z3TOnjo4z1okwj+Dqc2Ko7xOwcOh0I9XyCH3//w+Kv/sibxKnjhEDov0TP4nIfyjrMEl1v37I0urh53gAI9Kol+iC4+UQg0v9czLLRj7rY7+7+ofijp58Xn//yC+LBey+Kb3/gdnHu7AlxfGM9zNYdHM3a04XObBFEVHmKMfltjozrOV77YUY8+t3B/9fXZpnptXUZ1lDrhWPIU7cnyuHfJRLVqTLULytZOhhlB6LqrTbSv2WWaZ4N/nrbCoRZi/Neg5UD89CTA3/xL79NvP7Vl3hTwOBEeiaMrkValcQAN9LbLBuNSAMCPQaR/nwg0e8Ivvx5MevWcd7FfieTqfiTr70UbvfccV48fP9lce/t58LOHTpq6Prlw+A+R0fKXX2YZTCSUeDSEx6PAidSh3NhE6FE64zgupZqXdO3JsU62epGTBfZ3OTX8dvk31EW/y1zVwas/kaaD8ezbHfU7Tl6f+oyDb1qoI8WiudOb4qf/uAbxEe+97VMgIURiPTYstH5+zTtHwCB7q9Ea0P4bwKR/p/ErKzjPwy2E672/+wLN8JNL8Ry9Z4L4ttedVFcuXA6+H49zAxrWdGt6Uz9cmVFRVIWj1MFSQL9HCZ6qfFJfGcqkOo1oT1Hy/WanE8MmWWtx46KybGK6pTn2VsRyywrUebFMnF/i/HHYngt2EeYZV4+u7C2eTuQ5kCc9/aPvBwrfQH5Ex94rfhL3//t4rS+mAQYjUTPzrO+ZqPribR9NhoAge63SF8Pbj4aiPQ/DG5/Kdh+KtjWXe1//+BIPP2nL4bbudPHxYOBSD/4qkvh1yeOr4dZ65lMTzORqqS9dGFQsiy1zhVyXRailxxfOnV2EFgPyz/kbM0OIULJ1k8i7N3Q0wipYoI8yxyrSJLn0jzP2EaLtUdXJpmsckqEs16cPD62jTVMY1Kpcy8W/plG36pwlcAbuovL7qG3j1R1u8Ufe9/D4qcee7247cxxgg2MWKSZZAiAQA9XpL8R3PxsINJ/L7j9L4Ltw65/x83tffG5p54PtzsunQll+oF7L4pTJzbEqeDfj+YlHpOpmFqvBlcsz3k/S4XgRV2BtA2HUWeGUCcnKrE4oxa0+X3nIr222IGKJFuGli6jO6qYuc+6Tix3WCiXKqrujvY7Vcsfh19Ol2XF0+iH8w4p07gULx6nYq8jPTCpctOtsfKfjTxLVTwUqWxNSPR8lz/f3j0MyzN0xrnpSoGFAW19Tfz5dz0ofvaH3iCu3HaK4ALQ0iTD5vtuf5IhAAI9HJF+Krj50UCk9QTD/zLYvsfH73nh2la4/f7/93Vxz+3nxH13nRf33XlenD61Gcqlzv4eBWKqpfpoOi2MTzLtTbHUtSzMA8jy0Gn/w8S/LOp9oxrb6eJnUfWtSoqfiv1PLcoa1PL1qJgkRl0r5CIbbMiSKxUro0ja50KSE48rW/JGFN5Hxq9DKqAsjqosPPQqcVGkYu3O9RLbOtOsJwRqadbvJZ/oUp8feNtV8XM//B3i3itnCCYAhrPZbTY6GRTIRgMCDV0Q6c8EN98biPT3B7f/ebC9y8fv0a3nnvnmjXDTXLrtlLg/EOn77rpN3HHptJCb64vJf7pm+miizC2B4xYly8RLZhujSWEuQygQblPDCFWQtsiE5dgPZOJ5lUuptM1wlMbs8vSvbCGhImvcQRpepO5BrmX51tZhmHFuY/l3nXH+wFvuCycIPnD3eYIHgMXJTMs7AAR66CL9G8HNbwQi/dbg9m8E248Fm7eZUNde2Qm3zz71fLgwixbp+8Ps9LlwqWMdgo6mUWY6kOnJdFpsYAWNgRfhUYrCeo95ozuVlue8XyllIsAaw6ZM/1udmmn7x2QzJ7L6oGA7m9M27yJV6XgiowsINU0/DbUol9nSkwC3Z6UZ+weT1s6NC2ePiw+/92Hx4fc9JC6fP0mwAKgYv8bb8o5ZhIBAj0mknwxuHg9E+m+KWceOnwu2iz5/5+7+kXj6z14KN9354u4rZ8MyD3175cIpcTJaRlZPRNRSPZ+QWEk707XTMp7Mlrl+Zw6rMgrfdlG1rCyigqfmPy9j+zdZwXJjFws5LS5k+hWrkucry7Mwi79F9LHAmlyWm+zsHoXZ5XBlwB2/9cwmHn7VhbAV3fc/elVssjoPgAOR7kM22hD76O0MCDRUEOlng5tfCET67wS3PylmvaRf6/v3akn6xgs3w02jVxjUExHvvnwmFOo7g9uTm7PEuPYpPRlxcjQTa5UqoSjNW6j0vZWFaxYve6cMFlwowjKnX3LOE8nNchf+kiYVy7PvKyelZf5LkVEtS1zI9d99a/cgXAlwa2d2O5m2P1rpC7jvftO9oTi/+aHbCQQAziV6FjG6m43OD6qINCDQUEWkd4KbfxKI9D8Nbn8w2P6jYPu+tn6/zjTHhVpP4NJZaS3T99x+NrzVJR+zLKYKhFothFpnqifTnFgYn2xnCJTl8qzK5blIhC3K5KQ0rOBX8JTKXkVZhwuLrqbZe+S1sVPzEpd4p5LlkdZ/163tfXFLC/P2gdjZO1zpoHT21Kb40LsfFD/+/teIuy6d5sQH8C7SY2x5B4BAj1Gkdbj4db0FMv264PYvBdvjwXZfm89Dt2Z74fp2uH3u6W+GP7t47oS46/JZcfm2k+JyINe6TvXMyY1FK7fJdLaQhu7yMbuNZT/KrDITUlPTEmMCaWyrJ9M/UzXK4lSjf9a1GbLojlZzXvJn983LMGTs63g3kf3DSSDIR2EvZi3KuluGr8VMKgWk9TXxjtffJR5726vFe990rzh+bJ0THaBFiRZijC3vABDoMcv0F4Kbjwci/YvB7XcH218Oth8NtnOreD7Xb+6FWxy9KpwW6UtaqoPt4vlToWivb66FYjfVmepwEZVJuGKilmxdRjBVat7C2RAcldEnczvgZaS0Sso6++/G31NY3lHeTcRm8FhmkJODR7wziv533UFlS0vy7qwzxlyafSyX3YRHHrgsPvj2V4sPfNf9LHwC0AGR9lnWQTYaEGjookjrsPHbegtk+q8Ftx8Ss8z0D676760znc/oLSr9mAe682dOiEtarINNr5J49vQxcfbUcXH65LHFRLZQqNVSqPX3s6+ns6/LCyuKbVjJwgmIRQvE2CVIsnuwXRdlVjYikyUmsQFCH4+9g6Mwg7y3PxE7+0thbrMzRlXuu+OceOztV8Vjj75a3EPvZoCOivTYWt4BINDI9BOP6xTwr+otkOkrwe1fFLPM9Fu78hx1cHvl1l64feUbLyf+TU8e03Ww505vijOBUOuvz4Zfb4Zf61Z7ep3BeYCcC3a4QOE0Wh0wsOtwQRUlQ9kOF1aZzhc0kaWxuKh/9OzGELzzKiviGWI5E+h4T2kVVZLEs9IqWhBmNxJk3R1ld+8oFOb5bZclOY3+xOH73xpI89uuitddvcRJCtALiZ5Fu762vEOkAYGGJjL9YnDz3+otkGldI/3ngu2HxGy1wxNdfM5ahm9s7YebELeyb971tVCmTwUifXxTb+ti89i6OBHeLr/XdbSbwdcnjq2F0TSxEqESie+n81Woo3W45/2O5ysZTtVyvcPZz+R8/cLYyoRqvjL4crXDmBBruT8IpPfgaCoODo+CTbcAnIQLkeiJfHrRmsPoZzqjvB9Icp9j/0P3XhDveuTuYLtHfMeDl8NJpwDQR5FmkiEAAj1umX4muPnHegtk+lRw+4FIprVU392X16HreGfZa/vHHNtYn4n1xlqY4V5bWxPr4e1yW5fR1zL5c73p8DyvzV7eTmflJPGfq/m/Txc/01Ks5Xg6HXYU17Xuj377nTNpfsPd4sptpzjpAAYi0TMZ7e8kQ67fAYEGVzKtW+L9mt4Cmdah5TsjmdbbW8TAlm3SWV29gVuu3nlOvPuRe8Q7A2nWvZr1pwMAMFyRdpuNTkqv72w0AAINrmVaR5o/iLZPBEJ9V3D7WLC9L9jeHWyv5iiB5o6Lp8QbH7wi3vzwHeKdr78rXFQHAMYl0TPZ7eckQwAEGnwK9fPBzf8QbSIQ6nsikX7PmZObH9zeO7yq6qyHDb1Cl7I8eM958cZvuz3Yrog3BdudF1nYBABmgtrnSYYACDS0IdR6KfFfjbbHXr61//O/8g+f+MALW+vrL+2eENf3NqNJdtBn9KTLNzxwOcwwv+mhK+KRB67MVpYEACgU6T5kowEQaFgxF84eP7z7zJ66cvww/F7Ls5bol/ePi5v7x8QrB5vh7QSp7iynTxwTD95zm/i2YNNZZt1a7rX3XaSGGQBqSvRMerubjQZAoGH1qHhkW5NKXD65H27xO2wdHBM3gu3m/mYg1cHXwe3O0QZBsEV0p5H77zwXivJsuyC+7d7bxF2XKMUAAB8i3fWWdwAINHRAnovC3tnNw3ATZ3YWP/+LH/kpcfNgU3zpGy+LLz/7iviz52+K569tiW9e3+ncMtN9Qi8uo6X47ktnxAN3n5/JciDKV+88L45tkFUGgPYkeia7XW95B4BAw2okup7oba6L+++9LB554HLi57p/8osv74rnApl+7iW9bS++fv7atnjh5Z3B91Eu4sRmJMiXTwe3ZwJRDm4vnxH3RN/fduY470oA6JRId7/lHQACDe3Ks/OQpTs+6BZpetP9hNPoBUleuL4tno2E+tqNXXFj+yDY9sPtpv56K7oNvp/0QLa1FJ8/synOnToeCrBeuvz86eg2+P7OC6dCOb4rkOSLZ0/wzgOA3kn0THa7PskQAIGG9iS6VXQtr+45bNt3eGv3MJDp/UiwZ3Ktv9Y/18tmHwXb4SRaPjv2vf76MPrZ8vupmKppOMHumN421sOyiHALvt8IbjfnP0t/H9xqOT4fSfG5U4EwB5Ksv96ktAIARiLSTDIEBBqgB001dfs1vbHQBwBAl0SaSYbQb0h9QRN5JjwBAEBN6ZUL2XW5z8V3dFAFBBo6LNEAAAC1pVeLrnuRXko0Ig0INHRNnhFoAABwILz+s9GINCDQ0CWJBgAAcCK9Ukpv2ei5SAMg0IBAAwDAAEXatURjzoBAQ3fkGYEGAABPEu03Gw2AQMMqJRoAAMCjSLssvUCiAYGG1cszAg0AAN4l2n1ZBwACDatjikIDAEBbIk03DUCgoe+QgQYAgNYlmmw0INCARAMAANQQafeTDAEQaGhJoLFnAABYrUhT1gEINPRIngXZZwAA6IBEU9YBCDT0TaIBAAA6IdJkowGBhj7IMwINAACdkmiy0YBAQw8kGocGAIDuiTSTDAGBho7KM/YMAABdF2mOArhng0MADSUaAACgBxLNkAXuIAMNTeSZaAQAAD0TaQAEGlYv0QAAAL2RaAAEGhBoAAAAAAQaeiTPCDQAAAAg0AAVJRoAAAAAgQawlGcEGgAAABBogIoSDQAAAIBAAyDQAAAAAAg0uJdnyjgAAAAAgQaoKNEAAAAACDSApTxPOQwAAACAQANUk2gAAAAABBoAgQYAAABAoMG9PCPQAAAAgEADVJRoAAAAAAQawFKeEWgAAABAoAEQaAAAAAAEGvxJNAAAAAACDYBAAwAAACDQ4F6eEWgAAABAoAEqSjQAAAAAAg1gKc8INAAAACDQABUlGgAAAACBBkCgAQAAABBocC/PlHEAAAAAAg1QUaIBAAAAEGgAS3lWKDQAAAAg0ADVJBoAAAAAgQawFWgMGgAAABBoAEt5DrZp3Qff2triCAIAQKvcvHmTgwBO2OAQQBOJXl9fO5hMxImqD/zMZz4tjg4PxbHNTY4iAAB4Z3J0JD7/x/+u9sODbZejCAg0NJZnvZ09e+75a9deOlf1wc98/WvhBgAA0AOe/thHP77PYYA5lHBAI4m+cOHCsxwGAAAYOJ/lEAACDc4E+s477vwGhwEAAAbOH3AIAIEGJ/Kst/vvfzUZaAAAGDqf4xAAAg3OJPree+69fvz48Zc5FAAAMFBuIdCAQIMzeZ5vb3v0Hf+cwwEAAAPlYx/76MfpfwcINLgV6He8/Z1fuPOOO6kPAwCAofHJYPsnHAZAoMGLRP/wD33oXxw7dozVUQAAYCjsBdvPfuyjH2fRXUCgwY9AX7x4aes73/wWSjkAAGAo/K1Anr/EYQAEGrzI83x733d/z2fvu+/+3+LQAABAz/nfgu0fcBggD6kUn0xALR4JtvfHZHoh1r/3qd993ad///cePzw8PMdhAgCAHqEnC/71j3304/8zhwIQaPDBG/IEWv/vpZdePPMvf+1ffOTatZfeyKECAIAe8DvB9pOBPP8ZhwIQaPAp0O8zyXP8+3/9G7/+9i8+9cXH9vf3rnDIAACgg+gVdf9RsP39QJ6nHA5AoMG3QH93gUAnvr5+/fqpp57+4tXnn3/2avD11Z3d3UCo1ZpBuu1RuT9WlR5Q67d05jm6O4FVX5+f8vAX6szzc/Zck6HeS+BXDZ+Tn79L1X0m/nLK//sG2kb/7b4WbE8G22f0FkjzCxwWQKChLV5fRaAtvhYO9+Xj67G9Dp4fx5Ln1/zxADBQNjgE0PBKfoyDLLLA8+NY8vyQZgAEGqC2PI9lkEUWeH4cS54fwgwACDQ0YhJs+yscrNoYZFf5mvosM6JHz1V14PWIDp5HfXsvihX+PgAYIdRAAwAAAABUgJUIAQAAAAAQaAAAAAAABBoAAAAAAIEGAAAAAECgAQAAAAAQaAAAAAAAQKABAAAAABBoAAAAAAAEGgAAAAAAgQYAAAAAQKABAAAAABBoAAAAAABAoAEAAAAAEGgAAAAAAAQaAAAAAACBBgAAAABAoAEAAAAAEGgAAAAAAECgAQAAAAAQaAAAAAAABBoAAAAAAIEGAAAAAECgAQAAAAAQaAAAAAAAQKABAAAAABBoAAAAAAAEGgAAAAAAgQYAAAAAQKABAAAAABBoAAAAAABAoAEAAAAAEGgAAAAAAAQaAAAAAACBBgAAAABAoAEAAAAAEGgAAAAAAECgAQAAAAAQaAAAAAAABBoAAAAAAIEGAAAAAECgAQAAAAAQaAAAAAAAQKABAAAAABBoAAAAAAAEGgAAAAAAgQYAAAAAQKABAAAAABBoAAAAAABAoAEAAAAAEGgAAAAAAAQaAAAAAACBBgAAAABAoAEAAAAAEGgAAAAAAECgAQAAAAAQaAAAAAAABBoAAAAAAIEGAAAAAECgAQAAAAAQaAAAAAAAQKABAAAAABBoAAAAAAAEGgAAAAAAgQYAAAAAQKABAAAAABBoAAAAAABAoAEAAAAAEGgAAAAAAAQaAAAAAACBBgAAAABAoAEAAAAAEGgAAAAAAECgAQAAAAAQaAAAAAAABBoAAAAAAIEGAAAAAECgAQAAAAAQaAAAAAAAQKABAAAAABBoAAAAAAAEGgAAAAAAgQYAAAAAQKABAAAAABBoAAAAAABAoAEAAAAAEGgAAAAAAAQaAAAAAACBBgAAAABAoAEAAAAAEGgAAAAAAECgAQAAAAAQaAAAAAAABBoAAAAAAIEGAAAAAECgAQAAAAAQaAAAAAAAQKABAAAAABBoAAAAAAAEGgAAAAAAgQYAAAAAQKABAAAAABBoAAAAAAD4/wEHOOH7P1c4qAAAAABJRU5ErkJggg==;" vertex="1" parent="1">
          <mxGeometry x="61.5" y="247" width="97" height="97" as="geometry" />
        </mxCell>
        <mxCell id="IYLMW8nf5ji0C1QZCW6s-4" value="" style="shape=image;verticalLabelPosition=bottom;labelBackgroundColor=default;verticalAlign=top;aspect=fixed;imageAspect=0;image=data:image/png,iVBORw0KGgoAAAANSUhEUgAAAtAAAALQCAYAAAC5V0ecAAAABHNCSVQICAgIfAhkiAAAAAlwSFlzAAALuQAAC7kB7PX68wAAABl0RVh0U29mdHdhcmUAd3d3Lmlua3NjYXBlLm9yZ5vuPBoAAAAOdEVYdFRpdGxlAHRlbXBsYXRlNJbIBQAAABN0RVh0QXV0aG9yAEJlYXRlIEthc3Bhcg7DR0QAAABmdEVYdERlc2NyaXB0aW9uAHVzZXMgPGh0dHA6Ly93ZWJjdnMuZnJlZWRlc2t0b3Aub3JnL3RhbmdvL3RhbmdvLWljb24tdGhlbWUvc2NhbGFibGUvYWN0aW9ucy9lZGl0LWNvcHkuc3ZnPoyZcfwAAAAXdEVYdENyZWF0aW9uIFRpbWUASnVseSAyMDA4LHtC7gAAAFJ0RVh0Q29weXJpZ2h0AENDIEF0dHJpYnV0aW9uLVNoYXJlQWxpa2UgaHR0cDovL2NyZWF0aXZlY29tbW9ucy5vcmcvbGljZW5zZXMvYnktc2EvMy4wL16DWrwAAL7uSURBVHja7L0HgCPHeef7NeIEYPLubCY3cMnlckkuMykGK1ESKUuyJcuygnU+P53sc9D5dBRt+qzn57N0pCXndPY7K9GWfcqSJVFiUKLETIpxyc15dzZNxgRggL6qajTQDXSoTkjz/0lFAIPeBroG6P7VN199paiqSgAAAAAAAAA5YugCAAAAAAAAINAAAAAAAABAoAEAAAAAAIBAAwAAAAAAAIEGAAAAAAAAAg0AAAAAAAAEGl0AAAAAAAAABBoAAAAAAAAINAAAAAAAABBoAAAAAAAAINAAAAAAAABAoAEAAAAAAIBAowsAAAAAAACAQAMAAAAAAACBBgAAAAAAAAINAAAAAAAABBoAAAAAAAAINAAAAAAAABBodAEAAAAAAAAQaAAAAAAAACDQAAAAAAAAQKABAAAAAACAQAMAAAAAAACBBgAAAAAAAAKNLgAAAAAAAAACDQAAAAAAAAQaAAAAAAAACDQAAAAAAAAQaAAAAAAAACDQAAAAAAAAQKDRBQAAAAAAAECgAQAAAAAAgEADAAAAAAAAgQYAAAAAAAACDQAAAAAAAAQaAAAAAAAACDS6AAAAAAAAAAg0AAAAAAAAEGgAAAAAAAAg0AAAAAAAAECgAQAAAAAAgEADAAAAAAAAgUYXAAAAAAAAAIEGAAAAAAAAAg0AAAAAAAAEGgAAAAAAAAg0AAAAAAAAEGgAAAAAAAAg0OgCAAAAAAAAINAAAAAAAABAoAEAAAAAAIBAAwAAAAAAAIEGAAAAAAAAAg0AAAAAAAAEGl0AAAAAAAAABBoAAAAAAAAINAAAAAAAABBoAAAAAAAAINAAAAAAAABAoAEAAAAAAIBAowsAAAAAAACAQAMAAAAAAACBBgAAAAAAAAINAAAAAAAABBoAAAAAAAAINAAAAAAAABBodAEAAAAAAAAQaAAAAAAAACDQAAAAAAAAQKABAAAAAACAQAMAAAAAAACBBgAAAAAAAAKNLgAAAAAAAAACDQAAAAAAAAQaAAAAAAAACDQAAAAAAAAQaAAAAAAAACDQAAAAAAAAQKDRBQAAAAAAAMiTQBeAqLnnEx/nA7WtrF1TbteydjFrcfQOAKCFUFkbZ20fa/tZO8zaAUPLsaYYWszmsfGWt+Kdd9x1FN0LQOegqKqKXgBRivNHWLuLtSx6BACwjDnB2qOsPVJuzzCpzqNbAIBAA2CU543s5l7WXoXeAACAOhZZe7os0w+x9gAT6iK6BQAINFi+8vwr7OYvCVFnAACQ5SRr/8zaZ5hI70J3AACBBstHnHnO3xdZezt6AwAAfPMkF2nW/pXJ9AS6AwAINOhsgf4NdvM36AkAAAgFnubxddY+y9p9TKZxwQYAAg06TJ43sJuXWMugNwAAIHSeY+1jrH2ZiXQJ3QFAc0EdaBAW/wB5BgCAyLiMtS+w9tI9n/j4e1lDGVAAmggi0CAw7ET+y6T9iREAAEBj4HWq7+bn3jvvuKuA7gAAAg3aS575xMHTrI2gNwAAoOHwBVruYe2fmEgvoDsAgECD9hDoLexmL3oCAACayhhrv8/apzHZEIDoQQ40CMpOdAEAADSdVaz9E2tP3POJj1+P7gAAAg1amyvQBQAA0DJcxdpPmETfy9oadAcAEGjQmlyJLgAAgJaCz015L2t7mETfxVoaXQJAyF8y5ECDILATM19+dpXXf7dx4ya67NLLqCvd5et16z+24X6Og3wvFEVxvba5biL243RttH9Y+wPF5XmLf+HyfhQf71m2b8r7V9zcwO61pI5E+v3Wb+O/b7SnFM/9Y/4squWPulr5DqiVn+lPqYZvg36/+u+qm6um75LxdfT71T2ZXsC4q8oO6l5bNb+2Smrd99X6GAzb17wemY6s/ngqh2B8beOxqWTRM9XXXlxcpNnZWdFyszmazWm3+Xw+3AtvTCG11NBr7wHWPnznHXd9DVctACDQoDUEepLd9Hv9d7ff9rO0ft26EEQ3SokOts9gIi0jeW7bKJ4k2rskK76PPfggQwmtb6QHGUqY/ef9+XrBNYtlVWpVs0RKSK3xs16RZ7VGw23FXfJ16sTd/nXs5Nl0jGqNBqs+jlFS3CcnJujosWN0/NhxmpubC3xuWblypfgVcznn+2vgdfgh1n6LifTLuHoBAIEGbSjQ73j7O2lkeCQU6Y0+Gh2lSDdWBFtJFFtNpL33b3MGIfXyVyO1YcuzXWRaQtyr7htMap3F3eK1jcJuE402vXadPNu/zsT4BB0ry/T8/Lyvc8Lg0CD19/WJ/RWLJZrLzVEuN0uLi/lGnLZ5qbuPsvZnTKSLuIoB4A/kQINmj+FcJctdUK3ERgnvHSqyqQfkKDw2z5rkwO5564GC+Xn7wYT5+fqovVo3YKhuo9oOKqoC4rSNGqBvdHFy6z9y6T+S6r/6viGJvlED9I3zwEyPMtuJtSIGF0p5kKGUM1+UcqZI+Z6iPVf9GZl+rg9QlMpApLq/yuvU3K+8jlJ5F9rPal+n/MWs/Ex/HYXMr23ct/G4FIdjVIzHWPPaiuEYa39GVq9t2I/daxteZ4jJ745Ld9Ab3/RGuvmWm2loeMjzOWGpsFR5//F4jDLZDK0cHaXVq1dRX1+WYrFIL808b+5PSJtoeBGuQQBAoEHbi3Rw0Q17n/Xi4m+fXIbcRNBa4OpFMSwRdHrevI2zCDqJtpMIyveNvo37IMRf37iJturSf6pE/5FD/8kMQtS6z6Kt1CqSUquLsq3U1ou0rLjXybMfcSc/4q7Yy3Ptaxvu6/url2dyGJwQDY8M06WXXur5fFAo5CvHqhjeTyKZpP7+fiHS/DZikb6WtZ8yif4IlgUHAAIN2kWXbf9cjmi0/2i0NxFsTjRa9dk3+iAjaP+RyyDDbzTafhASTjTa+vn6qG1NNNVJamvum6XWJjosKe4UtrgrsuJODvJc89pGea6JRju+do24Z/uyns8D+Xyh+l5rJJrf4eKc7cvQqrJIx+OR+S2PRvNVDHk0ehuuTABAoEHbSnR4Il2/zzDfe9TRaDXiaLSbaFsJXDgi6HTswaPRRLLRaPuBSNBBRhCRDhiNJmupNQtufVqHWWrl0joaKu7kLu518kyKjTxTzc8cUkokotHJRJJ6eno8nQNKpRKViiVHieb/i8WUcnrHyqhFWo9G34loNAAQaNAmEi1dri3wvqOKRvsXaZctpKPR3kUwGlGsSqlMtDmISKshpHW49U3QtA5yGYiQr/6zG4TYSa1brnK91ErmKjdL3BWnY7R5bVt5VhzE3SUabXgdP1HoQqFQPjZriTY+5hHp3kyvqN7R398XVWoHrxV9N2uPMIm+GFcnACDQoE1E2l6ioxDpsN97M6PRUU8yJBeRJodtWnmSYdBoNFGrTTK0ziH2OcmQ5CcZNlTcbScZ2ok7OcgzSUwytJJn82v3ZX2mcVT6sl6iLaU6plBvLxfpFUKog6STOXANa88wif4wawoBACDQoPUlOqpodL2kt140unUnGcpMkuvkSYZhRKOjnmRI9iIdWeUMxTYa3ZDqIHXRYUVqkqGtPFtOMrSIRlukdWT7+jx/5/lEQmOai6xE6znSXNpHRkYonY5kkUG+00+y9g0m0UMEAIBAg/YQaXuJxiRDTDJ0GmS0ask7olYveeetckZNJDfMknckJ+5+Jhk6lrxTyEHcndM6+vs8l8Ivp3CQb4kWVTsScVFTemBwIKr86DeTlht9Ha5MAECgQZtINCYZOotiZ5a8cxfFTi15Jz8BM/ySd4qnyhl2E/AaUfLOxyRDmZJ3tfLsUPLO6nX6+r1FoEdGVlCppJql2Uqi3XKky8fT1dUlSuplMpko0jo2sPYjJtH/FVcmACDQoGNEOsx9t1M0mqj1o9HRVKOQ7xu5aH7QSYayaR/ykwzdjl1WtK0GdbIT8BTHXOWwSt7VTTKUEHdPkwylSt4pFvJc89ouaR2pVMpTBHhoaIg2bdws8pkdJdp4fHaR6XLjaR2ZTC+T82Eh1CGTZO1PmUR/nbVBXJkAgECDNhJpe4lGNLrVSt41YpJhWCXv7AcZrT7J0HulE/tcZWp4ybu66LCkuFOoJe+Mcq0EmmSYTCalv9eFfF4I9/DQChpduUrkMTtLNFlItPn3oz/m++WVOgYGBigWD/0S/xbSJhheg6sSWO4k0AXAJzex9p5EItG9tLTkRyt9i661yCiOMuF934qjAPrbv+IaPXSSIedoNhdFxWZAoFaOST8+620UUx+Yt3F6XrX8nfLttG1U29+5eRvF4djJ8XmjQFn3DVVF0Vai/faf+fiqx2TfP+Zt1AB9w7dx7l/+72v7Rn+sf67EK5T/w/tBfJvYfXGPD0K4pOm35R1r97nJK5Vtq+9Hqe7b8NkV98vSqh+fyt8f73tF3BPvQy2vx2J6bf33V3m+/Nqkv47xe6wfl75vsj/G2tfWf791x0iG52uPkSiZStLCwoLU95lX4CiVP9dd6S4m0aspl5ulyakJWloqlt+n4dNR/U/101A+YLvH6XSKhpPDNDM7QwvzC2Ge+8+PxWKPPvS9Bx577Wte/0IHXMvmWEN6CoBAg4axnbUP8miHP4H2L72K4iTRwaS3cSLtT6LdRFEXQSdRJFIsJM+7CMqItHkb1UHy/Img90GGW//Z9U39IMKfaDv1jfUgRK5vqlLnZRBSEVw7qSVdYK2lVhxr+ecVeXaRWmvBjUjc9eMyirSjuNe8tkmea35mOkaVUsmU9Hc5zytwlP86oieJ9PZmqLu7h6ZnpmhmelostmKSZh8SzctF92X7RIR7ZnpG22cIsP3Ennr6yRump6dvuO1Nb46qEkijmIJAAz8ghQM0GX/pDY0teRfOPusjgJ1Y8s56sLF8St6Z339rlrzzPslQrnKGx+W5qZkl7zxOMtR/5jDJkOdBy8JTOKojMdIzU8TKg7yix6pVa7T8aIvVCevTOVwes7vpVJqGhodCz43es3c3ffbeT9P4xDguZQACDUDzRNqf6FqLNEreoeQduQwygvYfuQwyWrXknfXzDV+eu1ni7nmSITmUvKv8K5HCIYuIQDP0NA5TvjNpecyDg8O0cuWokF9XiVbcJTqmxMSKiWGvZDjB5Pnef/4MHT5yCJcxAIEGoHkS7V+kw96n/b4xydBJpJ1E0bxN8JJ3jZhkKNM39gMR79HoRkwylIpGk4fKGQbBDWuSYWTiTn7K+rlNMlS8pXCUI9C8lB1VY+rV+2WpTjF5XrlilIaYTPOaz4pdTWiSk2jxPtNpGhoaDDXtgud+f+GL/0bPPf8sLmMAAg1Ac0Xan+i2f8k7/yLtsoV0NDpotYlGlryrHnsQkVZDSOtw6xv5QUi9bIdRV9v7SoZWUuuncoYiUznDj7iHUR1EkS3rR44rGfKfeUnh4PNGSuIzVyIyvH41ncNciaOnp5dGR1dTX18fKbGYf4nW+5qvZNiXpWw2G1rdaJ5f/Z3vfpu+/4OHfM3xAAACDUAoity60eh6kQ6xXxT/+wxLFOsFzlr0wqh93KiSd/KDDL8rGbZ6yTs30fZS8s4u3cIhVznskne18uwk7opENNqwPbmVvLOsie1NoDl8KW8u0Pr5pOLQin4iMJ+vYnzBlmwfja4cFUIdVKL5466uNA0M9FMiEV49gSeefJy+8rUvVaLsAECgAQhboh0jxsGkt7GTDFsvGh39JENvImgnmvXbdPokQ2+DEH/9Rw795y8aHXh5bkVueW5pcScKfZKhczTaepKhMRqd9CjQXDDVkiEHmuqlWaF6qY4z2R0YGKSRFSu1+tEBJZrLM8+LDnOC4b59e+lf/vVzND0zjQsdgEADEKVIS2wV8r4xyTDYJMMwotHtPsnQ7wRMWdEml/7z2zf+BiFRL89tFY0OLO7kQdzroutu4m5+7bTnCHTBlANNZOwDsllYpSrVqWSShodX0ODgECXiCfMS3x4lWl/FMMylwE+fPk333vsZOjl2Ehc5AIEGIEqJ7oxodDj7rBcXlLyz34YctkHJOz+DjCAl7+on4Lkvzx1WybtQxN1nybuUjwh0iadwGAbL1XQOcw507URDo1R3d3eLiYY8vYOXwSMLiVYkS97xlI7+/n6KJ+KhnLtmc7P0+X+9l3bvfgUXOQCBBiBqkZbYKmRJRzS69UveRb3kNbkMMuT6rxGTDMOKRssNMvxOMiTJyhlEYZW8i0TcPZS8S3msalEQKRylqowbc6Bt0zkU6xxp9jjTmxUi3dPTUyfRZJRol8g0r/bBa1Gnu8Kp0sEnTH7tG1+hx594DBc4AIEGIGqJjioa7SzpKHnXiiXvvKV1eBNB+b6RK3lnP8ho9UmG3iud2OcqU7SVMxop7h5K3nkpY8fhtaBLJePqmWYpNuY/10owmdI5qu+Bp2Jw+R0ZHhFCbynRlukdiukxj2TzdI4wUzp+8MPv0Y8e/iEucAACDUA7izRK3pGLSIeXlhC05J1ZON3SOtqh5F3UkwzJpf/IV//JTzKMuHJGs8TdZZJhKu01haNQXlrbIM0mYTaWs1NM5xRz7W2jVGuPk8kkDQ0OUf/AIMV5frSrRFOdRPP/8Sh0X4gLrzz62E/owYcewMUNQKABaJRIS2wV8r47O61DRhSbP8nQSuDcRbH1S94RdVrJO5PgNqpyRqPF3WWSYTKR9PQdLBaXqFgq1qRumHOWySKdo06qFcVWqnlljeHhEert6bWR6JrUDpNEa4+1Kh3hlbp7+pkn6b7vfAu1okHbk0AXgCZpsS/RdT7nKq5RNu/7Vjzvz2r/5n0H32etuLhJj5so2os4F0XFYbChVRHQj69+G7VyzNbbqKbPAt+m+rxq+VmpbqPafpbM2yi2x+5Ud9u9b/RtFIe+IYf+k+mb6vsz94318XvvP8VWpBXFuX/5v6/tP72vtL5V+KeHFH78ivY5Ep98dl/c44M4LmrlNyTejSr+hfbabHt92+r7UUzHWHkdVa1IsP585bVJfx2xS+3dGl+b77P888rrqOX3rli8XuV1zMcYj3uPRxXyhbrPmP6ZMv6eq91s7NPKJ0y83+o2KumnA/5QVNjIZoVM87Jy+UKh+ps39r1hX2T8DLHHsXhMLOIyOzsbSn3n5194jq9euPCWn33bFF+2PCT6WOvGtRVAoMEykmh58auX0fCk116k/Ym5876D77N+/4rvqI4uA3YSrYugkyjWyo2VaMuIYL1MWotidRvVQfL8iaB83+iDDHLpP799428QUt9/is++qYqrs2grFoM6OanVRVCRklqjSBvk2UncSZdnGXHXnVFS3A0yqyg+BHqpYBNUUE2/Y+09VsVWKLJq+BeVN6b5LxkEWu/keDJJgwNDNL8wRzNMhHn6iJNEV1+uvFN2eJlshubn5ml+fj7wOWvP3t1dn/yzex5kd3/hzjvuWgjhNPi/WPsgrqugUSCFA7SISMtHpDHJ0Gn/7T7JsF7g7J43bxO85F20kwybU/KuEZMMwyl5p0hXzvAzyVCq5F3Nfa+TDP1EUkvFouW5rba8Xn06R+XVTTWiSTEkfNQef/lxd1cPDQ8Ns9tu+xrRisXj8mt193SLmtEhTS58M2vfuucTH+/FdRBAoAEIJNJhiG5wQcUkQ3IRaWdRtJY8axF0mkTYyJJ31WMPXvIumEiTyyBDfhJi/e8hyrrafkveWU3QI+dcZZKfZCgl7mFNMvQolUUxiZAsBx715ewU0/e79hispNo0GZGqj3laRzabFSsaxhNJqRrRRonmFT6y2UxYkwtfw9oDTKIHcA0EEGgAAkn08olG14t0iD2p+N9nI6PR1rLdupMMZaLRzoMMIpS8s5hk6CK11Sh1WCXvrCLTAcSdFM9CWSoVpc4v9pFpsixnV5Fqw7Ea+7iy+AtP6xgcpN5eTYa9SDSv9NHXl6WQcpivZ+17TKJX4BoIINAABBbpIDIanvQ2diXD1otG+1/JMNySd/UyGbTkHRFK3vntG3+DkFCW51Y8LM/dYHH3HIEullzPO4plObva77TNkt+myhv6dmSKWmurGfaIkndcimUlmt/h8swlmv+7ENjJ2g+ZRI/i+gcg0AAElujWSusIU8ydJX05rWQYRjTaLeJqJ3n+RFC+b6oi7dx/QUveecstb6eSd6Esz90gcfcagS4Wiy7f2/r8Z+NnyXLJb8VOqmtrQJPpcYLLcP8A9fb2UkxRpCVaSwfJeF7K3IZtrN2PdA4AgQYgkOj6E97OiUaHs896cWlGNJqovScZBo1Gt+YkQ6fn5fumEZMMSWKSIcktzx2huHtP4SjJnf8q75FoNjdDs7PTrE9L5uOrW3ylRqqNA4vKKbCa3qEPCrq6eqifiXQykZCWaP6YTyxMp0NZ/vtS0iYW9uBKCSDQAPgWXf/C25xJhohGhz3J0EkEmxONDj7JUKb/optkSC79571vqr+rKCYZUriVM0IXd3PU2+OXydvZr1wub2FxgcYnztH8fI70stE1S63UpHMYj8sozmSQ8+pEQy01o596enq0QYGkRPf29oh60yFwA2tfZRKdIgAg0AA0XqRR8s5p/+1e8s5NtO1cJWhaQtQl74iinWTYvJJ31UGG8yRDMkSSI62cEYq4V9+r96oUqqfva+17z83laGLyHOUX8/XpHKaMDuslv+2W+NZPnN3pburLZinBV1mULHnX09NN3d2hrGdyK2v/wiQ6TgBAoAHwI6N2ghr2vlsvraNTSt41YpJhWKJYldLgJe+in2To1jftN8nQWWpDXp7bdpKhP3H3KtCqjy9s7XvnaSDTM1M0PTWlLY5SW32jdsnvWvmvSX0xRvG1aHRCSDSfaGgr0WTOme7u7hLR6xB4B2v/gKsjgEADEEhGgwmv/L6XZ8k7v2kdMqLY/EmG5CLS5LBNK08ybPWSd26i7bPkHZFc5Yy6tA77aLQ5rcOfuHsWaDXYd9VY/SO/lKfJyQmam58zp3PURKbrJha6RKL1f9/dlWYi3UeJeMJCoqlOonkqB5+QGAK/es8nPv5JXB0BBBqAQDIaXHhR8s5p/506ybDVS95RG5S88z/JsGkl70iu5J2fSYZW4u5doFXf31MrieZLfM/PzdHk1IRYJtywvkpdOgfV5kPb5kdXByXxRJwy2ayYLFgfeaa6x3y7TCYTxqnpw0yifx9XRgCBBiA00fUvk5hk6B7h8ivSThKNSYbkMsho1ZJ3RJ1Y8s7PJEM7cecT/Boh0E4Szd9MqViimZlpmp2dEa+hOE0srJzmrCp0UI1I6ykaPeUJhu4SzcvbcYkOYenvP2YS/Z9xZQQQaAAkxQ+TDGX3jUmGTiLo9Lx5m6DRaHdRbMeSd97SOsjXICOckneKdOUMT5MMbVcvrAojF8rGBhnsJVqkdRTyIhq9sDBfL9B26Ry1NaCV+oVV+P1kKk2Z3gzF47FGSvTfMIl+D66dAAINgAfxa41Jhv5EF5MMnUTaWRStJc9aBJ2iza1ZjcKtbxozyVAm7aP+9xBkAqasaFsN6iSX53apnCG1PLdHcfdehcNfHrSURBuOg+dFT81Magu3KIrhmK1XKiTFnAtOtXnX5dtYPC7EOJVKml7bSqL5aoUh5ETzl/4Mk+ifwXUTQKAB8CB+iEZ7EekwI13+99nIaLS1kLTuJEOZaLTzIIOovScZBi95F/Xy3F7EndQmnT1dJJo3Ls/TM9O0OL9gikQbI/O1AwNTlJ3slviOibJ13V1d5prRFkuQ65HogCRY+yKT6PNw3QQQaAB8iLS3fQaR0fCkt50nGYYRjfY/yTDcknf1MtnqkwzVNphk6Ldv/A1C/E4yJE/Lc8uUvKu+dkktBfzOhiHRiq1E8z6eW5gX+dFiFUS7yhwWNaHrH5NpwJFKpqinu0cswmK30Iou0SFEokdY+xpWKwQQaAB8yGS7TzIMU8yd+2U5TTIMIxod9SRDv31TFWnn/mvWJMPGl7wzCW7TSt5VxV1uae769x7ed9O8KqK1VBMt8Wj09BQtLi4aKnNQXSqHYhhMmJdJJ8ua0FyeuUQnmUw7STSvztHdE3ixlctZ+xSulQACDYBPmUQ0WrZfUPLOSQSdnjdv0+kl79xEO9qSd1FNMpQreacEKnlXKqk+vkMU+veyXqItHrP/LMzPi0odJbVoWRO6tqSdYpnOQaYlwWO8BjQTZC7JThLd3dVNXd2Bl/3+xXs+8fHfxbUSQKAB8CmTKHknu2+UvLMTvc4seaf6nIDpbxASRsm76u/K+/N2ucpSJe9q7vspeVcqFVvjjKkYI8fOEs1zo7lELy4uEBkEujbKTDXpHcZBBllU60glk2IxFSeJ5tHqdFc66OF+jEn0bbhOAgg0AAGkF5MMZfeNkndOIu0kiuZtgqYlBJ9k6Nw3RLLRaPuBSGtWMpGKRpNkyTuH5bm9TDJUPUego5VoY3/YTezT38QCE+hcboaKIo9bMaRzkDknuuaxUhOpNkp0Mp4QEwyVWMy6JB6729vTK/KiA3rM548fP9aP6ySAQIPO12HF78WjnUretVZax3IqeRd0kmFYoliVUu/VJsIfZIRT8s5+kNF6kwx1iQ6yPLeXSYaec6Ap2rrRtjWibdI7iqWikGixiqHMEt+G731dZFrPi2by3NVlkGiql2hemYOXuQtA/9e+8ZU3LuYXcXEFEGgAkQ4qp82PRvuX3nYveec3rSMsUbSWPO8i2Eol7+QHGX4nGbZ6yTs30fZZ8q4iz8EnGRabPIkwDInmzM/P0fzCfPXfG1cmND2u9ol5cRZzv8X56oVMonndaCeJTiQSvo9zdnZ24N+/+fVAqzsCAIEGbSnSPv4VYZJhWH0ebjTaKBfRiXSzJhm2esk7aoOSd/4nGTay5F39JENynGSoei1jpzRm5UKvEs1boZCnXC4nJkYa+4XsSt4RWUamyfCaXekuijNJtpJovopjNpv1tRiNzv79++jhH/8IF1QAgQbLT6KjSutAyTvZfsEkQydR7LxJhs0qeUfU6iXv6iYZklM02l8Zu5iP74bfAKusRBsf8+ocubkcLRUK5omFVJXk2jSX2nSP2khzOpWmRDJpWkq8VqKDnDMefewntG//XlxQAQQadKwuhxyU6exJhu7RaEwy7MySd+6i2Kkl7+QnYIZf8k4xpCy4l7yrRm89C7SfaGuAFAVbiXaQat5/8wsLtMAaKVYTMMkUZVaqa4HXRKarr8/znXmt6PolvxWRxhF0oZX7vvNtkYYCAAQadLBEKyGIrnfxa41Jhv5Et/0nGfojzEmGTqJtLYthRKOjXvLarW8aM8lQNu1DfpJh8JJ3/iYZkmTJO12oqSECrQZcL9xtyW+7yHRhaYnm5nKiL2v7xvy4tkZ07eCkKsq8+ka9RGsLrYgSeD7h7/O7938Hl1gAgQbLQaTDEF1v4oeSd7L7Xp7RaGvZ9lfyrhGTDGWi0c6DDKL2nmTovdKJ/SRD8lzyjlTyPIHNl0CHMEnOr0TzMn08srtUXDJF6WsnFtalbtREmfV/wycVWkeiSUShg1Tm2L3nFdq160VcXgEEGiwHiY4iGo1Jhn4lutVL3vmfZNj4kndm4Wz2JEO1DSYZ+u0bf4OQ+rQO7yXvSj7E1l8KR5gDWW8STVpGh1h0JV/Im/rHlL5hKdHWj+OJuBBlK4nm+dB8eXC/3P/g/TQzO4PLK4BAg+Ui0kFk1J9MYpJhs0XaH9FOMgyj5F3Ukwz99k1VpN1MrTmTDBtf8s4klT5K3qke0zfEP2tCCoe7RCsuEq0df6FQ0FYvtIs8G/qLTHWzybBMuLbvWDwhUjpqJTropEL+/u77zrdwWQWRkEAXgNaVaNVWumSCPYuFIk1Oz9Pk7AJNzizQVPl2YmaeZufyVFgqsVYUt/lCsXK/8rMl7WdLhp8VSyol4jFKJmKUSsbFbZJHUOLaLf9ZQv8Z30bc8p/HaCDbzVqa+jNdog3wlu2ivt60uFDIHLubRFv3ixI4bFXf58H3WXshd5MeN1G0v8hyUVQcBhsqaSXI7AYkauWYrbdRTYMKvo3T8+ZtVNvBk3kbxfbYq1E/P32jb6M49A059J9b35jfv3XfkEP/WfePXN/wbZz7l//72v6rrCqoauXbuLAq/PgVcY/fkKqomh7ySD4XQan0GYsIVpNSOOq/e6rhM6J9X4y/J9HLla6u9gNfBpxLajrVVU5j0fqJ943eb4pS/X5pcxK1O6peuaP8GY6Xa0AvLS2V91OWFHb+5DWiZ2b8RZIPHjxAP332Gdp5+RW4tAIINFi+Ij2dW6Tjp6dZm6ETZ2eEFE8JKTZLMpfmhcWl9jhK/qfKnrSQaU2smWRnNcHuZ8I91NdNa1dkac2KPlo9khGS7l2k/Ym5876D77N+/4pvQTBLgL0IOomi6UJP/kWwXiatRbG6jeogef5EUL5vdGmigP1nd+z+BiH1/af47BuqSJyzaCvWYllO39AlUsizqg0gNXnW/mm7pXDUHqvVoNPY/7o010o0nzi5sDivSbQQ52p/ln1a+49Sfq4izYq2D7GN9jyPRMfZfS7m/B/rHp1Op9jPemhuzl9lje//4CHaeP5GGhgYxGUVQKBBZ5Kbz9OJMzN0jEnyiTPT2u1p7fFx9phHjjsNfu3gAwPeiKZcJXNkoLcs1NWmP149khWRb/sofTgi3d7RaO09RxeNJhfRjioarYt0VNHoqli59Y31sbuJtswggwKItP0gQyoaLYSwPhqt3/eTwhFrcgqHs0jbSDTVSzXvHy7RKSbRsfKESvGfyqjbGJlWyj5tkGyDVOuRaCHRupCz1tPTLdJGePMK/zffuu+b9O53vbchqz8CCDQAkXF2cp5ePnqY9hw5R3tZO3B8Qggzjx4DZ9k+M5ET7dk9Y/UXZHZxGBnsETK9Zd0QbVk/RBes57fD1J9Jhya9jYtG+xdp94irXDTaXhbdIq6NF8XqsTs/H3yQ4ZbWIReNth9k1PePUzTayyBDTrTlotFCnlVNKouqD4FWmp/C4VmibSLT/N6ikOg0xcXAQKnIvlL5y059ZFpVKkvUVCLR8XhCdHKxVDRErvmkwgxNTEz66oNjx47SE08+Ttdecx0uJAACDVqfJXb+G88Rncsp2u2sdv9//eAb6JwI4H9GPs06mrdnd5sFe+VQb0Wm+e3WDcN0/poBkZ8drkiHGY3WRa1Z0eiqSHuPuMqkddhJsrMouom0WzRafpDhltbht2+8DULCHGTIpXW4R6PLQVPtM8rfT6lBKRwNwK9E8z7J5xcpmUhRIh6v/K4q24sOo7IU1+RIUzVHmkt1LBEndUnVamuXJZpX5ODl7WZnZ30d18M//iFt3rSZRkZW4GIBINCgdSgwWT41rdCpKS7JXJYVml4ItHAWCBFdrH/y3NHKz+LxGJ23qp8u2KAJ9eVbV9Elm1dQOuXt1GBO62i9aLS7SDdrkqHMJDl7EWz/SYZhRKPd+i/8aLRxAKKLYKlRKRwNOqHWSrRxYp+bRBeW8mw8kWQinShX3NDTP8r1svV0jrJPl5PLKz83RaJpySTR3d1dTNLzonmFp4U8+L0H6F3vfDcuCAACDZopZLO091SJjp5VaGxKobOzkOV2o1gsifQZ3r776H7tpMCk+qLzR+jyC1cxoR4VUj0y0CMpuphkKCOCnTnJ0G/f+BuE1Pdf46LRumAao9H+BFrx+iFu6PnB+PuuViORk+hisSA25VU0tC6qPl+RZsscaUO1DtY/MYpr33m1OhGRp3KMj0/4OhccPnyIDhw8QJs2bsIFAECgQfRsvP1ufkq7iLUbecv2pm+bEZPe7C/KoD1ZYlL94v7Tov3zt7WfrVvZZxLqzeuGbCeaYZKhNxFs5CRDN1F07pv2LXnnLsnOgwyZSYZ+ZM5rHWi1CREK4yIrxoFDtenfG8PiO2qJSryVikykFRFpr6RzGFZw1CLTVIlMV35Hej+XB3Z8xcKSqMyhV+uIC4menvZX2u4HP/yeqMqBCYUAAg2ikuYL2c3trN3C2qtYG9afq8pze6IYCvmTYfEEMlwgK+dW4wm/qgnVmeZUv3BD5UKnqoEusK0Cr4LC2zcf3iMeZ3tSdBmT6Z0XrqZXXbaeLjxvxCQ77R2N1oWglaPRbqLoTQS9941cyTsZSbYeZLgNQtz6T3EYQFCAQYbef/XR6GKDUjiCinBdq11mu2YJ88qxl/jvvaSdy/RzWuVnWvxZ+5nxcUlsw9PD9bSMagUTvQKH9ljz6fLzemUO7VMg+kl813kfl/eT7uqi9GKeFhe9X4vOnDlNL730Il1yyQ5c6AEEGoQizEl2czNrby63Le0hwzFSYvrJP2a+GOg/J20b7Twda07QXNVFulT5k6Q5klMy/6xUalnpnpnL04+fPSraX/+fJ0SKx02Xb6Abd26g6y5ZS73dqYrUIBodbsk7s0hHM8kwrJJ37TvJUGaQUTvIUX19fr3S3dVtWAWxKrpK7aqJ+jLbNWkYpJoeVR6rhqBA3c+Ng9ZyJylKpZRGNb2D1MoEQVKN78e4CI35cTlfoxyZrkaiq+ke2uvEYnEqipSZ6q8+k82IEnV+0mf4hMKLLtomVkAEAAIN/EjzCLu5rSzMb2CtrxUFORaPlYU4LkSYn0zFn/Z4BKfmIsTzCpNJbWlYfqs1vhpgktLpJKVS2s/4jG7tT4vakrHi1ijdNU3LVzT/ybYqu6qogMHvl8riq92v/qxQKFI+XxCtUFgSj8Xt0lL58RItLRXNF2J9fyXtT6Kqfr982yqCfXZyjr76g1dE4znUOy9cRTcyob6JCfWmtYMmeWnXknf+JNmbCMpEo83C2exJhmGUvAs6yCBqhZJ3PF3BK14j0DzlI5PJWkq76b5BlM3SHPzLptR8b9TKsLiaI135W51hMZTKX3XEfsqfC0Wp/hulWme6Gok2SzU/Z/OJgEp53/wxl+jpqWnPhzI9M01PP/MUytoBCDTwJM07qBpl5mePptdS0vPcuBjzWyGxQm5jlQsUP1l2daUqrae7i3p7u6grnaIUE2MuzJoUNyK8HN1r8Il9S2WpXljI0/z8Is0vLNLCfF485n+yXFwsaH8yNkg7v4ALuWYXGN6aJdc8h/rJXSdE+/PPPyYWd7np8vXl6PQ6sbR5tCIdTTRaF8HmlbyrF8XqNu1c8q5+EBHuJMPGlLwrFUs+PrOtWcbO7Vytd45q+s5oqRdU+Y6UPxPG1DhD+ober9WFVQy/SaVabFutqREt0jlExFmT6K6uLsov8nOj9zUEHn3sEbp0x2VKd3c3xABAoIGtNJ/Pbt7L2vtY29rEs684AVZlmd2PJYQw85Jqvb3dlMl0i1JFPd1p0dJdaUqlkuL55QA/zng8JZavzWTsq18IweYXDiHY/AKySHNzCzQ7Oy9uhUjrQl0qSzVvDT6ek2dn6AsP7hKtrzdNr792E932qgtE/nQ1+tlOaR3NKnlnLcrLp+Sdm2g3t+Rd0WMEujqxrv3QpLgmnUPVF5nRI9HGx7pA6992ozTXRKZF1Fp7XK2zrUu1KgYdWrk7qkg0j0LzwILXwfPi4gL95JGH06977a2QBOD9e6Ci7lgnSzNPx/gF1n6ZtZuo0Zm/ivYntpjeytHlVDJBvUySuSxnmSD29fVST0+XkGQQDvx7zSPXs7NzNJubpxyT6lxOayJnsKiJdbG41LRo9arhDL3phi30JibTfGEXs+SE1w+BI21OGqE4P28v2mYRs96mdqKa8/PmbRSnr6XkNkqAvgnaf25947aNU9/YH1uQvtm/fx99+atf9DBQjtN1115HA4MDFQm3mpRsul/9Qd3nWyaFI0gOtB5xNryRStqaPqej9rFq+BmfSVgiw/Mi7a2kTTYskbhf+2/EJEXSJiWWyn9xE2lxpFYe69U/ZnOz7DyX8xGwEGkhG++8465DuHIALyAC3XnSzH+nPJeZR5rfylpXw3w5phW+j7EWTyQolU4JOe7L9mqynO0Rt4nKn/BBdGMXRQxKeFtZ8xxPA5nNzZWleoGmp2dpanJGpI0UeWNSrfqYlOOVsXOz9Ol/f1Y0LtBcpLlQrxruDbUfUPKOHLbxVm1Cvm/kJhk2Ohpd3U/4kwy9TmQT6RttXkbNnM5Ru1ohGXKmy/nMlTXQyZTfrNeA1n915iW/yzWiFXONaB7B532u75+vUDg/N+/598BzqhkfY+09uHIAT59/RKA7RpyvJC1Fgy+xtLIRrykiykyGuTTHkwnq78tSf39GtMHBrJA30B7wi870TI6mp3I0NTVLExMzNDMzSyUeoRZSXWzI++AXx51bVzOZ3kK3XrdJpHyEhV+RdhNFXbRkotHWIlgvam4R1VaIuEbRP/76Jmj/Bu0bbZvdu1+hr//7V6U/U6lUiq65+hrqH+iv+3y2SwRafz+VSdOVmtDV8nVEpXK5u/LjchWiUl3kulz+Ti+NJ6LMVKlOVFLNkejaffDbOSbQ09PTvk4PrF115x13PYOrAZAFEej2lmb+++MpGr/D2tWRyw0b8ccT2mS93mwvDQ5UhZlHmhtZ0xSEPRiK0UB/VjQdnmPNZXpKRKiZVI9PiQjP0lJBW9QgAvi18JndJ0X75D8/Srcxkf6lN1xiSPEIJueq6i/fOqxotH6M0UwybE7JO71//NfVrr6/9ix5p22zxAab3j6PsY5ZyKNajcM8cVAx/N4NBe/M+c8u5ez00nl1kWiqTizUH/f0dDOJnhN/TfN6CKz9Xvl6CoDchwYR6LYUZ24T/4m132RtbZSvxfPD4skk9WZ6aWTFEA0P94uWRr7ysoTnUI+PT9PZsxN05vQ4LczPi7SPqM8j12xfQ+9+4w5RFi8WgnQEiUY7i3RVtBqV+7y8otHe+q+RueXPPf8s3f/Ad6Q/Q7zyw9VXXU3ZvmzdZ7LdItD6jyr17MX/q/XtRRC59rFazm8uGSLTVC39WSnhWZbySg60Hqk21MrXX5vE3I8Fmpyc9PO1LvDr6Z133HUGZ3ogAyLQ7SXOfGXA/0LapMCeqCIJPH853dVNK0e5MA+IxsvFAcBz2Hlbv35UXLCmp3NMqKeETJ89My7KSfmph+vGEy+dEI0vKf6uN2ynt91yYWWxFn+fc02GolnJECXv2rfknXX/yPRNoZD3fK5txzJ2rt8rUUWjWhOa9JrO4vugL9VtKGenOESmDeXs9M+LHonWcqTLmdOGSDSv4JTLJcVkaY/wqND7WfskzvQAAt054vx60tI03kgRVNLgJ6ZUuotGVg7RinKUmadkdMqfF0FUF0ulksKzceNaESHiudPnzk3SqVNnafzshIhOhwlfTvyT9z5Kf//Fp+hnmUT/0q3bacOq/kDHgJJ35LANSt7J9g1PefJCrLyCaieeFyoKXE7NqKZ3KFWndkvnUFWDIBtqRtdIdeU3YZDovr4sOw+N+3n7H4BAA+nPOlI4Wlaa+TmB52N9lLXtUYQK0kya16xbSatXr2TiPNjRdZb5Cn+iiUVKipVW0lcQNK0kaJigopdaMjwvFgMvr1houjXcr13ZMB6LieojiUT5Nh4Xt53c53yxl1OnztGJ46fo1NiZ0GVal6ZXXbaBPvC2nXTpBaOB9rV8S97Zi3Arlbzzf+xu/RdO3/zo4R/Q4088Jv2ZyWazdPXVV5O+iEfrpXCYy9Kpasm0+mrtezO+tXI6s2mVQn3bajpHeX/liYJaOTvtNauTBLV0DWPJO35+rn2+MpGw/Dr88cT4uKiN74Nb7rzjrh/BQoAbiEC3pjy/lt3czdpVYe+bL0qyZt1qWrOGS/NA207846v1cUFbzBeqt/klkxwbhbmVozVCqstCrTe+Wh/PM0+nE6I+Nl+CnD+OtVHEir/nDRtWicaXLz91apxOHBujsROnPS86YS+9RD9+9ohoN+/cQL/xzqtp64Zh37+L9i55V5U5b9Fo6+fNQtT8knfRTTIMp+Sd15QBbRJhtOdfXXxLxmoXuowapbhklOVSaHMazLKtVtJ79IVY9HQO0ovY1UWmrScW1i75XZ1oWPkPZfv6mED7SmfmUWgINHD/DiMC3VLifEVZnF8frsikaO16Js1rR2lkpD2kWSxhzZetFoK8ZBZlvox1sbQsPyPJZIKJdKIi1OK2fL+7OyUWqWl1+J+6eWT6uC7TIVb04NfbW6/dTL/+jqvovNX+UzuiLnlnLclUJ2qYZBht/4VZ8u47372PXnjxeenPyUD/AF119dWinJ0uraVSyVASrlr+TZdg1SEiXNtkBbcoFlQqisWV+MBWe1wy/Lz8mD1XeT+kmhYxqT6uinLtz7RFtWLir3G8BGpcrEIbEz9Pp9OUTKXFuUwbyNpHpqvyT4ZJhOUBquG1+eNzZ8+JFQq9Xn5YW3PnHXdNwEqAE4hAt4Y4b2Y3f8zaL1JIOc7xmEJrN6yl885fKyYBtmLkUtTtnM+zxpegXtRu+bLUrJVKGNjZySdvs7kF6y90Il5ZAr2nJ1W539WVaplj4IOAdetGReN/HRgbO0sHDxylM6fOhvCZIvruY/vpgScO0Ftu2koffPuVYsVDPyLud5KhTDRa266ZkwxbveRd1JMMwy955zUCPTU9RYePHBIBjsoEucobUSqfQeN7EylnpaIQbU14S9pjvrJoqfy4WKzeL2/Htynq/0YX4/LzLRXRYwebTCZFn/DbRCIp5LqrKy1S4YwTD6uRaarkRFeWYyk/7unt8SPQfMY8X1Phr3HFAY6fV0SgmyrOPGnzD0grSRdKXbhMNkObtmygDRtWt9TS2FyQZ3LzJlFeWCgQPn+NgUd6errLQt2jtWxvt4j4tAp82fHDB4/TwYNHRTWPMEgl4/T212yjX33rThru7/Yt5a1b8s5tG0SjnfsvvGj/V7/2Jdp/YD9ONiGes4x/LeVCzUW6K83OW10piifi5Yg9GSLPVLOMeInGTp7yM1B44c477roUvwUAgW49cebhwN9l7SOsBV63mEeXeV7zps3raWRksOnHt7BYoJnZea3NzNMsE+flmnLR6vCUj2y2m7KZbspktNtkk5da5xe7kyfO0P79R+js6XOh7LM7naD3v/ky+o9v2cmOz18K0/KdZCi3Ep9fkQ4+ybCxgxC7QcYXvvivdOToEZxUwpYUfYK2Xt2jLMdcqDOZXrFGAV8Nt3YSoS7Rk1NTNDsz6+elr2US/QR+AwAC3TryfB27+SfWLg66r95MD5Pm82jDeWuaFknk6QQzswuszZWlecFzOSfQWvB0j2xZprXW1bS8eR6VPnTgGB3iUel8IfD+zl8zQH/wqzfRFRet9inR4r9NEun2jUbLHHu7RaNrt/uXz99LJ8dO4gQSsUxbDWp5JZNMJiNWIiStAl5FonlqzdjYKT8v97+ZQH8AvQ4g0M0XZx5p5nnOv81aIBvhUeaLtl9AK1cONfw4eCR5cion2sTUrEjJAJ1/0eIiPdDPl2/PUF+2u+E1wnlU+uiRk/TKrv2Uy80FPB6it95yEf3Ou6+lvt50w0W6kaLYaiIdRjQ6WP8ELXlnv4/PfPZTdPbcWZwwGnheqvUXPtDv7e2l/oE+MVFRl+jTp8/4yYXOsTbIJLqA3gYQ6ObJ8+vYzT/yu0H2M7pqhC66eIuYFNgo+OeDR5YnJmdZy4n7+Mwsb/js+f4+LtOs9WdEPnUjP4/Hj51iIr2PpqdnA+1rqK+b/tv7rqc33bCl4RIdXKSDRqPdZDKoJAcT5XZMefnf//QPYmIgaA257uvvo76+PvF4Lpfzu7AK0jiALajCEa04c9P9U9b+Y5D98PJzF23bTAODfQ1537x83PjEjBDmqekc8peBCf554J8P3jipVEKI9AAT6qGBLCWT0eVQ8wvjuvWrRDt54jS9zER6cmLa177Gp+fprr/9Hn3z4T30e79yo1gm3Nt70USqOSsZel+Jr34bp5UMZVbisxbJxqxkKFNXO8hKht4qnXDyBQQqWwX++Zma1HKf+/v7RTWO2MSkn8mEN7AGgQbW1wBEEyOT57exm79nbVUQUeDinO3LRP5+c3OLdPbctGi5uQX8AoFvwe3v66GR4T4aGeoTch01vKY0j0ifO+u/bCuvrf3Bn7+C3n/7Zb5LPmKSIfncJmg0ujUmGf7VX/85FZYg0a0In3DIf00F7/MovnjnHXe9Ez0IrEAEOnxx5uG3T7D2O373sXrNStpx2UWUyfRE+l5nZ+fpzLgmzfPzefzyQGC0We9ajvy+AyepL9tDK5hMD7PWFdFE19HRYdHOnB6n557dRdNT3lM7+CqWf/VvT9CPnz1Kf/Lbr/NV8i76lQydRDCMlQztotH1z5u3aXY02m0lw6DRaPP7t4tGQ55bl4L/vw7cgN4Dtud8RKBDlecRdvMF1l7t599nsr102eXbRK5zVEzPzFUizbzcHACNgk9EFJFp1rojWtiFn88O7D9Ku17a6yfaJFgx2CMk+vKtqwK9D98nZZS8C9A3QVeC9DfJkAvaX/3NX+BL3pmcf+cddx1GN4BaEIEOT575MtxfZW2D519CIkHbLt5Mmy84P5IVA/OFJRo7NUFjpyfFEtkANAO9NvjBw6dEZHr16CCtGOkLtUQel6fNWzbQ+g2r6aUX94gSeF5l9szEHH3gj79JH37PdfSuN1zi+31EG412EukwotFVUQwzGq29llM0WtuH3bEHj0ab+8f7Ko/m49ePqYD8506GR6Eh0AACHZE8v4+0KhtdXv8tX2p7+46tYoWlsOGVM04ycT43PoPKGaCl4H8J4W3/wTFauaKfVq8apN6ertD2z1fh3HnFdtq0aQM999NddNZjfvRSsUT3fO4Ren7fafroB26mLh+53GFMMnRf8roxkwytlwM3i7LMktdVKbV/vnrszs8HH2S4pXW49U31/UGg7eEDZL7AdrFUbGeB/lf8JgEEOlxx5v33SdY+5PXfDg71i3SNoZBL0uXzSzR2ekJEnJGiAVqdpWKRToyNi8ZXRORR6ZUj/aFFpfsHsnTzq6+lY0dP0gvP7ab5eW8TZO97ZB/tOzpOf/o7t9L6UX9VcKoiHU00WhdBJ1H0H3Gtf75epOuj0WaRdotGk8M2qmu02X2Q4dZ/waPR7STQvC9SqTSl0ylKs9tUOl2+LT9Osdt0WmzD74ufJ1OUZD9LJhIUU5gQxxTTCoH8Z7ybtO+t9lms/Q4X2Xc9n19k16VFUZM5X76dnZ2lqelJmpqaZm1SPPZRLSNqgQag/ruEyKRveR5mN19m7RZvo3GFLr5kK229cGOo74dP2jp+8hyNT8wi2gzaGl5nenTFAK1dMxxqrvTS0hI9+8wuOnL4hOd/m+lJ0R//+qvplivOC/Qeoq0d3dglrVtpARb3viGKMnd8enqKHnn0kcoy0+J/JdX0mMqr41XuU3m5acNAiSrbU+U54y1fsppXlEimkpTiUsvu87+2JMv3jbfaz7X76ZT5+doBmv6eqpH78s9qXr/y6dV/ZjyWms+3+b751va12X9LYrGuSRobO0ljJ0/SCdZmZ2eaeUriofP+O++4K4ezM4BAB5dnPsvve6zt8HQRzvTQNdddHmo9Zy7MR46dEX8OB6CjTk7MUngFjw3rVoS6WAsXaC7SXKi9Dn7/6IM/Q7ffeEHg94BJhtGIdLuUvGvGIMPueRmpNd+3EOqKeOtC7UOeHcSdR6WPnzhOe/fuoRMnTjQjSPRaJtDfw1kZQKCDyTOPPD/E2mVe/h3Pdb5s58WUSISzyMTZ8WkmzmdFKToAOh1eU3rD+hWU6Q0nTzqXm6cnH3uOxscnvUk0s5A/+MDN9LZbLgxBoquS0XiRRjS6UYOMsAYh8sceTKSd5bkaOa8+pVY/xVKRaflotJW455hM7927l/bu20MTExONOgX9dybQH8OZGECg/cvzUFmeL5f9N8lkgnZeuZ3WrV8dwgVXpTPnpunosTNi4RMAlhtDgxkRkeZVPML4Pu16cS/t2X3QU0SLC8hdv3ITveO120I5pnaJRrebSMtEo4P1j7+Sd/L7aPwgwyS1dtFhq2h0jTwHjkZLivuRo0fo8ccfa4RIf5YJ9H/AGRhAoP3J8yC7eZC1K6Qv9sMDdM21l1FPb3fg1z99dooOHzktltkGYLkz0N9LG88bFbWlg8IXYHnqiec9TTDk7vGRX34VvevW7SFJdFUyGi/SQaPRUYtgMFFu75SXqAcZ1s/LCq5VukXgaLRHcVdLJXpl9yv09NNP0dxcZKmM32YCfTvOvAAC7V2eeamMB1i7SvbfrFk7Stdcd1ngagKzuQXaf/AkTU0jxxmAWkZXDgiRTiWDFRSan1ugHz/8FM1Me1vF8MPvvZ7e+6YdoR1Pa08ybN9odKuJdLsMQrzmKoeVyuFH3PmchqeYRD///HNRnGqeYgJ9Nc64wEj8D//wD9ELzvLcX5Zn6S/Pxk3r6aprdgSS50JhiQ4cGqO9+0/QIsrRAWBJjg0wea1znpvMy+DJ/dm+Hp5qxRdf4fWivUSiH33+GHWlE4FWLayVHb/H0Iqi6F2kmx2NxiRDq75QSKneFx/S8s/K/1Ch8s8U48+o/HOlsm+l/O+q+1ZMn3m9LF7d6yiVd2H9OryUXjxO69auo+GRETp69KgomxcixRtfddOf44wLTN8PRKAd5ZmHtXjO882y/2bbxVto2/YtASJQKp04OU6Hj54RNXIBAHLwknebN66iocGs/6sk+849/uizNHbyjKd/99H/5xb6uVdfGOrxoORdNKLYaoOMRg5C/Iq0fm3SPpFyEeHKp7cuMh1eyTu76iBTU1N0/wP308TEeFhfx/ydd9yVJgAg0NICfTe7uVP2YnXZzm20afMG3683PTNPe/Ydp7l5TBAEwC98ouHWzWsplfKX1sHPic889SIdPnRc+t+kknH69EffShdvWhFIeu3eTzQS3VhRDFMEW6PknVv/BZ1k2OK50aZ61i5Sa7ofxSTDenFfKhTogQfvF9HokMigFjQwEkMX2MrzbezmI1KdGIuJfOcg8sxrOT/34kHIMwAB4bXRn35un1jC3q90Xnn1Drrwok3S/yZfKNKH/+J+mpxZILcIoD8J9rdPfSEPhy3K29g/r3uJ9TaqyzaqaUBh/Xzte7b+t7XbuEXoVdV58OHeN+TSN1UZdOsb62OnuufN29Qfv3kb1bb/qn2juvSNt+dNKRZUk2JRTuUw3id9tUKiSroFkf6zanpHfVpHTSoHGdJIjK9Tk0ZSfZ4okUzS61//BhodHQ3rqxjH2RVAoN3leT27+ZzMVYt/YW+48Upau85fDuRivkDPv3SIDh05jRUEAQiJAhPal145QvsOnKRSyd/3avuOrZ7SscbOzdLv/e1DVFL15avDE+lqnqh/kXbZwkWiZUSaXEQ6XFGsSqnqItLuzwcfZKgB+8ZtkKHaDDLIpW/cBxlyom01qHOSWutc5TqhVsi0rVVOtJW4G7d1Ene+9Pgb33gbDQ4OhvE1HMCZFUCgneWZ/93331gbltn+8isuppWjw75eiy+G8vSz+8Uy3ACA8DkxNk4/fX4/zfmsm87nNPDJhbI89sIx+rsvPmlUjVCPJ8gkw7BE0VryvIugtUiTi0iTwzbeRdD7IMO5//z3jbdBiOwgQ75v3ETbPRptjB5bTzJUHCYZGuRZIhpduS8h7l3pNN1225spk8kE/fptwhkVQKCd+Z+s3SCz4ZYLzhMVN7xSKpVEdY1drxylpSVMFAQgSviiQ88wieYy7QeezsFrusvyqW/8lH74zKEaiW63tA6KOK2DbGTSXgSdnq/fRl4EvfUNhRCNDpryErT/yKH//EWj/VbOMKd1OEWjFYlotL24c3m+7bbbKZEIVO5yC86mAAJtw8bb734zu/mwzLajq1bQjssu8vwavDzdsy8eEqW3AACNgadx8HQOPknXa6oUn+Nw/auuoJ4euWXE+e5//+++T8dOT1lM+ooircMf7tHUINFoouDRaLeIq53kyYqg6rNv9EGG32i0W9/4G4TIR/PDj0ZXB3VyUmuSZ9dotLEMnuK75N3g4BBde821Qb5yF+BMCiDQ1vLM1wb+R5krXF9fRkwa9HrxWlgs0LMvHKTZ2Xl0OABNYOz0JO3afVT8FcgL6XSKrr/xSkok5OYR5ebz9LFP/bgiujWqEeoxtf8kQ3IRbbLZJmg02l0UmxuN9jYIqd9GJq2DfA0ypCYZKm6TDMkhGq1Y15CWmWToIO47dlzKBsI9fr9qF+IMCiDQ1vw2a67JjvqFNOlx5bPc3AKT5wNYihuAJsOrc7yw67Dn9Kn+/ixdfa38wJnnQz/y/NGKRLdvNJqo9aPR0VSjkO+bxkwylE37kJ9k6HbssqJtNajzXjnDapKhVTTacZKhi7hfdOE2v1+TrTh7Agh0DeWluqVK1u28cjv19nZ72j9fhvu5Fw9RPr+EzgagBfD7nVy9ZiVt2Xq+9PZ/8fnHy1U5qqJboxqhHtdyLHnXiEmGMtFo50EGUXtPMvRe6cRv5YxoS94pNLrK96qhm+/5xMfhTAACXQNfLMW1zg2vtrFmrbeaklPTOV/RLgBAtIi/Cr14kPIFbxLNK3N0dcktSrbnyDn69x/tqRGLRkWjmzHJsPEl78zC2exJhmobTDL02zf+BiH10eFmlbzT/u3ggO+SdinWsjhzAgh0mY23382Ho7/t2lExhS673Nuffni6Bq+04TXfEgDQGBbYd5TXi/ZSK5rnQXuZQPy3X3ySFi0i3e2d1hF0kmEYJe+inmTot2+qIu3cf82aZNj4kncmwW1gyTurtI7u7q5AXyucNQEEusofsOY6q2DzlvMo2ydfR5JHnF96+QgVEHkGoKWZmZmn3fuOe/o3vDa0bGm70+M5uvfbzzuKbpTX6M4teUe0vEveuYl2K5S88z7JUK7kneJa8s5pkiEAEOiAbLz9bl4Y/QNu2/E/13pZkYyfOF7efRTLcgPQJpw5O0WHj57x9G+uuOoS6W0//Y1naWJ6wVGiUfJOTgQ7s+SdKt03/iYZkkv/+e0bWdG2GtTV5ypLlbyrue9rkiEAEOjA8NznpNtGl1x6oacC7PsPjtEEVhcEoK04fPS0EGlZeDnL8yUXUsotFOgLD74kJbo1Pwn1GJfjJEM7ybbehlxE2m/fuEWjiWSj0fYDEe/R6EZMMpSKRpNbybtwJxkCAIEOwMbb7+YFXX9e5iK54bw10vvly3P7XfEMANBc9uw/QYv5gvT2l+zYKuZHyHD/Y/slJbf1Jxm6bCEdjW7EJMOwRLF67M2eZOjWN/KDkHrZbs4kQ12iQ5tk6BKNBgACHYxXsTbittH6DfLyzCcLHjg4hk8VAG1Ksci+w4dOSW+fSiVp1eqVUtvuPzZBh05OehTdWpEOD11Q/Ep0GKJYL3DWohdG7ePOmWTY6iXv3ETbS8k7H5MMJaPRAECg/fNWmY3WbZCvGXn0+Dmx2iAAoH3haRyTHlKwNm05T3rbBx8/4FN0jRLdKSXvzKIYlgjaiWb9Np0+yTCMkndRTzIke5GWWJ7bcpKha8k7CDSAQAflbW4bDA0NUG+v3LKfXJyPHj+LTxQAHQCfx+AeRdQYGRmgZDIpte0DPgS6KrqNEGl/oORd1JMMm1XyjqjVS97VyTM5lbxTCAFoAIEOwMbb797BA0du263bsFp6nwcPn0K9ZwA6BL7IytipCbmTaCxG52+Wm0y4+/A5OnpqOpDo1vwk1ONu/0mG5CLaZLNN8EmGy7Xknfxy3+GXvKveJ4mSd0qgtCUAINAartFn/qVbt14ufYPXfD57bhqfJgA6iJOSAs1Zu04+1euhJw4GlNx2jkYTtX7Ju6iXvHbrG7lofiMmGcpEo80DiCCDDL+TDEmy5J0u1Di3AQh0EFzzn1esHKLeni6KxxTXdm58WvrPvQCA9mA2t0CLi3mpc8DIUB+l0ymp/T74xIFQpBfR6PBL3jVikmFYJe/sBxmtPsnQe6UT+0mG5K/kHQAQaO9svP1uXtD5crftVq0apkRckWqnPdSOBQC0D/wvSzLngGQiRmsk/2K1+/BZg4wEl+hOKHkXVlpC0JJ3ZuFs9iRDtQ0mGfrtG3+DkPq0Dn8l7wCAQPuDX+XibhtlM73swhhzbcWloqcZ+wCA9mHs9KTUeYC3wcF+qX0Wlko0MTMfqvS2clqHjCh2/iTDoIOMVp1k2PiSdxV5Jv8l7wAIg8QyPGapws592W4RWXLjxMQsIXsDgM4kN7dI+XyBerrd0zMymW7p/Z46l6OhvtrtFUeZkBVd8/ko+D5rxcVNetxE0V7EuSgqleOwFj2lcnz126iVY7beRjUNKvg2Ts+bt1EN/UkO2yi2x+40gc29b/RtFIe+IYf+c+sb8/u37hty6D/r/pHrG76Nc//yf1/bf3pfaX2r8E8PKfz4FXGP35CqqJpE80Ecl+fytgCEwXKMQK+V2Wgg20vJWMy1LS7k8SkCoINZXChInQsy3V2USMjFJE6zgbf1dbyzo9FGWbST6NafZGgtga02ydB739T3b2uVvLN+3m6SoVPJOwDCYDlGoKUEuq+vW0wOcmN+EQINQEcLNPuOy/w1qrcnRclUipaWltwFejxXkVFrkVEchU1WdNs7Gl3Woo6LRmvP2x178Gi03n+NjUZX92Mfjda28R5tdnveFI3mx6XUR6Mr95HEASDQvnFN4ejuTlM6Kdc18/NYeRCATmZ+sSBynN3IMIFOpNh5Y859n6fGcybRNQpGvUgHk2jzvoOLef3+g4m0czRbE0GntAX99Z1Eu17y6kXP7fkwRbF67M7PBx9kuKV12B277CCEyDmtw/8gQ060FYtBnVqJQJe9WZNnVY9G45wGINB+cY1A92V6pCJOnNz8Ij5FAHSyQM/LRaCzPWmKS6ZwnBqftZTRKKPR9SIdZjRaF7XWjkbXS56sSNtJsrMouom0WzQ6+CDD3D/e+0ZWtKOKRuvbyA9CaqPR5RRo7TNajkEDAIH2xwqJUzolJQUaExIA6GxiMUXufMAu0vFEXGqfZybmJEW3VqTDnGTYetFod5EOLy1BRgS9TZKzF8HoJxmGEY126j9vgxB//Rd+NNo4ANEnGeKSDSDQAa6HbhvMzM5L/clWRJ160zQ7hyg0AJ1KXyYtdT6YnV8Uy3rLsLRU8iC6tRIdTHobl9bhb3/OEdeqCPpL6wgjGl0vitVtWiEaTS79J5/yEkZueX3/NS4arYu0MRoNAAQ6Qubm8/z0QHGJi2Z/potOnsEy3gB0KgPsOy6TwrG4WKgs9BDGyqSNjUaHs896cfEn5ih5R4SSd+QwyHAbhJifr41GAwCBjgj+J9uF/JKQYxmBBgB0sED3dUtFoOcXl8rnjxgVi8UQRdROpBGN1kUwrEmGrReNJhfRDhqNjnqSYfjR6OrvynulE8gzgEBHb9C0MJ+n4T73hRGG+7vRXwB0MPw7npApaVmuCa/wbYvhvw+UvGtmyTtyEW1/0eiqLDa35F10kwybV/KuOsgwPw+JBhDoCFHKF8OkRNRp64YR+k5sD5VKWI4QgE5j1XCGhrJyg+Q5LtCKl0VLvEsqSt65V6PwJ8luIhiNKFaltHNK3tkPMur7p5kl7wCAQEcEnxgok/eY6UnSxrWDtP/oODoNgA5j++aVHkpa+llUyZ/0tnvJO79pHTKiqItg8yYZtnrJO7+TDDul5B0A4RBDF1hzdGxSXDhl2qVbRtFhAHQgO9h3W+YcwC/+Y7y2s69cX39LbTuvShzcFKJcDrwqwf72yWXIbUlr66Woa0U7vCWtrf6t9TbOS1q7DYBklgN3G5xo2zj1jRqwb+SXU/fXf+TQfzLLqQMAgY6MY6emaDFfFJOH3NolIkqFrgSgk1g/2k8jAz1S54BDJycpXwia+OxPJu1FOrj01u87XJHW9u9/f24SXU1dcBdBJ9GWEcF6mbQWRTcRrG4jI4Kqz77RBxlu/ee3b/wNQur7z2/fOIs2ABDoiDl4Ui4K3dudpMu2IgoNQCdx3Y610n+FevnQmUASHIagOkejg4t0GLJvv/+oo9Fqk6LR9iJoJ9nW25CLSPvtm6ij0d4GIdaDDDeRdusbiDSAQDecfccmxERCmfbmG7dSOoWUcgA6gQ2r+unaS9ZJffeLxRI7V4Q9ByLsaHRw6W1cNNq/SLtsEWo02ina7C8a7S/iWj324NHoYCJNLoMM+bSP+t+D0yDD7dgJEg0g0I3mzOQ8Tc8uihJWbm0o20Vvun4zOg2ANodL3C+8ZhslJb73vO0+cpaWSiXPfuyeudC60eh6kQ6z//3vs5HRaGvZlhFpchFp8iXSYUSjnQcZ5DLIcOsbWdEOf5CBaDSAQDeBPccmpHIgeXvtVRtp9XAGnQZAG3PDjnW0ae2g9Pf+hf2nDfbnvSxdVCLdzpMMw4hG+59k6D0tobMmGaptMMnQb98QJBpAoBvFy4fPEZ8fKJMHmUrG6F23bkenAdCm9HQl6edffaF07vP03CLtOz7hKE/eZTRc6W18NHq5TDIMIxod9SRDv31TFWnn/mvWJMNg0WgAINANYGJmkZ7bd1Y6F3rHphV02w1b0HEAtNvJkInaf3rrThrMdEl/37/96N5qbWJ/7uwgo+FJb2Oj0eHs07z/Ti15R7S8S965iXZ0Je8AgEA3gO8/e5TyS0XpqNQvvm4bXXnRKnQcAG3EL916MV1x4aj09/zgyQn66d5Toeti1NFolLxzFkGn560lz7sIdmbJO9XnBEx/g5AwSt4BAIGOmPnFJfreM0ekL6xJ1n7z7VfS+av70XkAtAGvueo8uv2GzdLf8Rg7c37pB6+EKrdyohuOoKLknbMoRhuNdhPtehG0k2xrWSQXkfbbN27RaCLZaLT9QKR5lUwAgEBHxBO7T9GpiTnpiUW8NvSd77uOBrNd6DwAWphLNq2gD7zlcunvNm8/eeEYHTszE/l7k49Gt1ZaR6eUvGvEJMOwRLEqpcFL3kU/ydCtb6KcZAgABLqh8C/f139ygOKSpa14Gx3ood9jEt2TRn1oAFqR9aN99JH3XEvpREz6e72YX6KvPrzHWjQVJfT3KBeN9i+97V7yzm9ah4woNn+SIbmINDls08qTDJtd8g4ACHRDOTQ2Tc/tOyM9wYi3becN0//8tVsQiQagxeDfzXv4dzOT9vSd/sqPdlNufskkg/7+OOxN/FDyzmn/nTrJsNVL3lEblLyDMQMIdFPhkee1w730xR/to7NT89K5krxtXT9If/Zbr6Y1I6gRDUArcO3Fq+nuX7uZDWzTnr7Lj718gh585kiY6udLpMOWc/d9Y5IhJhmSyyCjVUveESQaQKCbSbGkinP9VVtX0Ke+u4sWCkVPOZPrVmTpLz/0WrqAyTQAoHm84ZqN9P/96o2i5rOX7/CBk1P09994tnpJDjWI6k0mmxuNxiTDzix55/Z8Z5a8AwAC3QCOn81RvlCiK7asoK89vF9cCLxEr0b6u+gvf/s1dOWFo+hMAJrAu1+/jX73vddQOhnz9N2dmJ2ne/7tcSoslSzlWaGw0p9bKxrd/pMM/RFsyWvv0Wgn0WtkNYowo9GNmGQom/aBaDSAQLcAP913hkollVYOdtOjL530dBHmLduTpE/+xi30S6+7KIr5RgAAC3q6EvQH77+Ofv1tl3n+zhaKRfrYPz9Kk7N5k+TVrdot/kgVxsW5daLRzpLeDpMM2yMabS3b/kreNWKSoUw02nmQQdTcSYYABAflITzGhfJLJXpm7xm6Yftqmp4r0MnxedqwotfTvvhEpA+94wq6fvsa+qPPPCpyqgEA0XDx+cP0P371VbR2hfc5CFwS/vQLT9LBsSn2KG4+Hyi6NEcV0/K2Z11EnSVBcZQrf/sO3gN8/9V9+3uPzu9dcU1RcPoMVGXcThQVm8GGWjkm/fist1FM/Wvexul51XLgwbdTFPvn67dRbI9dUcjxefe+0f699Sa6RPvtP/PxVY/Jvn8g0SAsEIGWuIbVfqlPnJujw6dmxFfy0Okcjc8sikmGXtv1TMI//9Hb6aZL16KfAQj75Ma+uP/hTdvpU7/7BtowmvX1Hf3/v/0CPbrrhOFirJpUQqm73Cvhn4AwyTA0kW7dSYZhlLyLepKh377RRbp1JhkCAIFuhk0LoyZ67sBZms8via/li0emRCTaD7wKwJ/95s/QHb90FaWScXQxACGwYqCH/va/vpZ+4+cuFyLsR5b+8qvP0Jcr9Z4ltNPjy3hzueVa8i6cfZr336kl76xFcfmUvHMTbUwiBBDoxrmy6TupmC43eiqH/vQrx6fp8Jmc75d756svpM/d9UbaecFK9D0AAeTrLa/aTP/2/95OV/mcrMsnCv6Pf3mM/v3R/e5CVa805DXtQl6kWy8abb1/RKNR8o5cBhlB+49cBhmIRoPoQQ60zBVSsb7OnByfo6Nnc7R+RMuBPjA2K8R6y+qsr1P95rUD9I93vJ7uf/Iw/eWXnqHTE3PofwAk2bFphP7bu64SOc9+yS0U6KOffYSeP3C64eLvLFRWwquGuG//ecfm/OVw9mm/73AzzrlER5sbXQ6+KPYXF+fcaKJg+b/+cqO113LKjdb2YXfs7n2jb6M4DPLkcsutj918/PZ9DAAEOhJxNs2dsPniHTg1S5muJA1lUuLxsbNzIoJ10bo+kYPph1uvPo9uvmwtffa+XfS5+3dRvlDE7wMAG0b6u+m33r6T3nTtxkAXyPGZBbrrnx6m/SenHE4L0U0ZdJZRO0FVQ953600yrN93600ydI5mayLoNImukZMMzdu4TTJUHS+ArTHJ0K1vqG4bAMIAKRxO1xHFdMd2JL7r6BTN56uSe2pygV44PKktvuKTrlSCPvjWS+lLf/Sz9Oor1uP3AUANyUSM3v/Gi+nLf/wWuu26YPJ87OwMfejvvi8WS3GXy4hPPRGmdcjvezmWvPO/z3BK3kU9ybD+2tUZkwy9l7wDIAwQgfZ5EVEMzxWKJXrpyBTt3DxI8fIZfmI2T88cGKeL1/dTb9p/N68e7qU/+bWb6clXxuivvvRTeuXIOH4tYHl/K9lX7Gd2rqff+vmdtH5lNvD+Htl1gv78S0/R1Fxe+vXtLsJKyHm6UUaj3WUCJe/8iLS2Hz8l7/TXDJrWYY42t0/JO7e0jrBK3gEAgW6SPFtfImcXlmj38Rm6eF1f5Wc59rOn94/TllUZWjPUE+jdXH3RKrr3v7+JHnnxBH362y/Ss/vO4FcElhWxmEK3XnUe/cptl9CmNf2B97dYKNI/fOt5+vbjByQiZNoF2OrCLpSwbHWq53OMGoLo+pdJ+bSO1suNNvdLVCLtb3/OaR1VEZRJ63AS7XpJrhdhf2kdbrnR5LCNu0i7p7yQS//57RuINIBAN0GnFVe/Pj21QH3dCVo3XJVlvmrh3hMzND6bpwvX9Ik/OwfhhkvWiPbTvafpU996kR7bdRK/HNDR8O/M7ddvove/cTut87EYihUHTk7S3f/nCTpyasaHHRlOAbpbmkRL8XRmkbmot+skQ/dodHCRxiRDP9Foa1EOLxrtNgmx2dFoACDQDZJn6x9YfR/5pMKedIKGsynTz89N5+mp+XG6aG0fDWZSgd8TL3f31//lNfTy4XNMpF+iHz53FLldoKPg8wDedtMWet+t22jlYE8o++Tfka/9ZC996rsv0lKxFEiefXqVw1nGfWetMcnQXzTaWaSXazRaF+lWjkaTpWhr27RCNNrbJEMAINAtgfXEDJ4Pfen5AzTQmzQ9ly+U6PnDk7R+uIfOH+31XaXDyLbzhukT//lmOnBiir7w/d103+OHaG6hgF8NaFtWDfXSW2/cTG+/ZatYaCgsJmYW6E+//DQ9s+cUqUHkyko0hX2GNVTvzGi0s6QjGt2KJe/MIh00rSPaknf2gwxU4gAQ6OZRE3FWXE6gJfYNffHIJF12/iBlu+u7+Ni5OTo3u0hbVmVDiUZzeE7o777nGvrQO64QdaS/+vBeeungOfzuQFvAVwu88dK19HM3XUDXX7I6lMGl8eJ735OH6HMPvETTkhMFbQWqVvJqomtKmCccCZHGJEO3fXfSJMPGl7wzy3azJxmGUfIOAAh0w+VZu686PGmGl7B74fCEkOhMV30387J3LzDJHsmmadNohrpS4Szj3Z1OiOgdb3uPTdBXfrSP7nvsoFggAoBWg1eZeeuNW8TqgSsGukPf/0uHz9E/fPM5rbZzwNCTRJWtCE4+mGTY2iLdipMMZaLNRM2dZKj47JuqSAebZAgABLoh7qzUyLNafsYt2rRUVEU96Ms3DlJ3yrqrz80s0vjsokjrWDfSKyJxYXHBukG6891X04fesVNEpb/28D564cBZ/GJBc0868ZiINv/8zVvo2ovDjTbrnJ2ap09/90X60QvHov2TbeTLBCMaHVR02zuto1kl76xFuXNK3gEAgY5Wnu1mD3qAL+3N8555JLorGbc5ERAdOTtHp6YWaeNoL63o6wr1WPhkLB7h4+34mVn63jNH6CHWkOIBGgWvpHHtttX02is30M2Xr6O+nlQkr5NfKtJXf7yPvvSjPbRQWAr9nKB6s+mGvnq7R6Ot3zui0boIouSd3SCDAvQfABDoiAza+DU0F7Lz8l3k9WafPThBO84boN6uhON2u49P08mJedq4MkPZ7mToh7V2RYbe94aLRRsbzzGZPkoPPX2EXjhwBpMrQKik2IDx+u1Mmq/YQDddto4yEXyejRfah188Tvc+sItOTc419q+0uiSoUYs0JhlikmFrTTIMq+RdIyYZ6tFoACDQDUQ+89keEYlmEr2dSXR/j7NITM8V6LlDEzTQmxKpHf290UTreLWDd7/uItHOMOnQZfq5fWfEREgAvML/2sHrlPNIM0/T6ElHe4opFkv0w+eP0Zce3kvHz800VJy1BVSMj70vqy0vut7FDyXvZPbdepMMwyp5Zy/S4U0yDKvkXfXYnZ8PPshAFQ4AgW44IWRz0FJJy4netq6Phvvcy3NN5fKi8Uj0+pEeGsykIzu+FQM99IuvuVC08ekFevSlE/TkK6foiZdPMrmexwcA2LJxdT9du20VXbNtNV29bVRIdNQU2ID0oZ8eoa/8ZC+dmZhr+LQgpeZRkNiWN9H1Jn6IRnsR6TCj0Xr+bbOi0VWRjmaSYXNK3skPMtzTOgCAQDfkYmm9CqGfiyaP7L58dIq2rMnSqkG5qgMz8wXadWyKMukkrWMiPcREOsp8rqG+LrHyG2+cgyenmEyPMZkeo6d3n6LZeVT0WM7wRU2uuYgL8yomzKtopL+7Ya+9kF+i7z51mL7+6D6anFkMVs85Evy9n2DRaDmRxiRDt37ppJJ3VZENIxpdL9qtXvJOJq0DAAh0hNdBt2+e4nvXe0/OiFSNLauz0pU3cotLIke6OxUXy4WP9KVdRuLhwCOMvL3z1ReKpcl3HT5HT76sCfXzB85SvlDE56WD4RP+rtg6KoSZt/NW9TX8PcwtFujbjx+kbz5+gGbm8h0QQ1IiEGmUvAtn8IKSd07Pm0W73ScZAgCBbti1TstyDOfLeHpqQURzL1rX7zi5sBZeQ5oL+OEzOVrZn2atO7Q60m7EmOxfsnFEtF+57RKxHPLeY5P00qFz9NLBs7SL3R46OY0c6jaFT/y7cP0gbT9/mLaz3/H2jcO0bkW2aVGc3ccm6MFnDtMjL50Qk2zVFldn1dO5wV4mo07rQDRapl9Q8q723xvltpGTDDXRRjQaQKDbUp7lKj97h8swnzC4cTRDqwe9/Sm8wOT1+Pi8aHxi4igT6cFsKpK6urYfoHiMtp03JNo7brlA/IwvJf7y4fGyVLN26CydGp/DZ6nF4J+T81f3aaLMhPli1i5YNyB+p82EDyp5/eYHnzlCx87MCGluifGYYuECqh8VlJNJRKO9vndEo7VtWrnkHZGfSYZhRqMBgEA3UJwr8qzYnSaCwaO1B8ZmaCpXoAvWZJnAeN8zTwfhLXE6RivKUenuBkWla+npStKVF46KpnNuep72HJ2ggyenRU71Idb4/ancIj5rUX+UFS1veeOqfibMPB2nT6Tk8Egz/121Cjw1iE8MfPyVk2KSoNoWJwnV3lNCkl5MMvQq6Sh514ol78wi7ZbWEXXJOwAg0JFeGhWrc7LbzwLAVyXMHVyirUyi+3r8iQ1PqeB1pMdY6+tOMpnuEtU7wlzh0A/Dfd10/Xbe1ph+PsGO+dDYlJBqLtRCrNnj07yyAs5znuC/4/Urs3S+EOW+cu56H53HHkddTs4v4zML9JOXTtD3nj1CJ8/l9Mt/y58dtItw41YdxCRDP/tGyTv7tI7Gl7wzy7ZbWkfUJe8AgEBHq9AOEeeovpc8z5OXulvRl6bzRzOUTvj/c/r0fEG0mDIrUjyGsmlRW7rZf6I3Msje02B2Je28YKXp5/OLS3T87KxI/Tg1kRNCrd2fEwvA8MeLy2zyYrYnJSLJo7wN8dve8m2PqOm9eri3pX63dvCyiE/uGaMnXhmjvccn2jBfXnXWwMAnB+dotH+RxiTD1hbpaKLR2nYoeQcABLqB/ux2Qo2Ss9OLIiXj6guGg1/u2UlkMpenybm8mADJo9u8FN5AJkXJFhWu7nSCtqwdEM0Onv4hpLos2Wen5kXd7Gn2c16pYZq3nNZm5vOigkgrwZe35lLc35sWt7zaRV+vdtvPfj+8NrcuyKNMkFs1iizDSTboeXI3k2bWDo1Na1Fmtb0rshqlTYnsBIRJhuHsG5MMmzfJsPVL3gEAgQ4zxlRzFrY9n0RIMQLh43vU86WVMyQWaRlk0jbAhC2ViLXV74iLJ29b1w9K/D6JcgsFIdZTZcHmLV8oibQXnnNbKBbZfVXc5z9bsvgZn7iplOWXDz54xDeR0G6NP+P3Kz9nLZ2KMzFOVwSZ3zZiwZFmcvTMjJDmJ/ecEpMB3cWpveS5TvUiuT5jkqHf3w0mGVpftFp7kmEzS94BAIEO/UppJ89RfxWjzgXlJx2+SAtvR87mRIST503zCHWmKylK1nXQr5Ey7Nh446kOIHxm5/O064hWfWXX4bN0uryCZcemsqvhypNfmcQkQ6+SjkmG0U8ybF7JO7dJhphECCDQkV+uFNsvqdIIe6bGR+vmFpdE7vEpJj4Kk+cMF2om0zxK3ZNOooYmMJFfKtKeY5NMms+JChpHTk2LS5vfC397nBcM4lB2JrXBr97oaLR3Sfee1tH4aHRw6e2USYZhRaPNIt28knfVY2/QhRpAoIHNSazmm9/o76T9ySvq11VpdqEgGodXeOAine1OiduuJpXIA82D55AfPj3NZHlcSPP+E5OmcnOdHtcx6VZlgrFqIRXuPTE/N0e7d+9usYF3FL9BNYL3rkbQL2rI/a6G/jtNJOK0adMmz+dx7fIVfTTa+nrV2pMMAYBAR3bBVIkcx7nRfzFbJW+L52PzCXpTc5pQJ5hQ93QlqDedEKkffNJfMh7Dh6ZD4J/8M5NzdHBsmg6fmqYDY1N09My0yBk3XpyWdw8F+9eqWgrhr0xqU0Q66r+ORSnSjZPocN9jqRQjv1HzYJMMwy15Vy/azZ1kCAAEOkqRVmqduXFfRK4rrailS0yoZ+YKoukV//gkRF2me1LabTyGk1Y7wAdHXJQPnZpiTZPm3MJSTbUM5A6q+sVaDe/cEkxG22GSYVT9ooT8mcQkQ22bZpa8I4p2kiGuRwAC3Xh7btIItp3mO+SXSqzlRck8vbu6knEh0vw2XW6pRBz51E2CVxHhkeWxcdYmcnTi3CwdZLI8ObOoXb5UFZrsqBf+no1eRps3yTBKiXbvlygmcqLkXfNK3lmLcpjRaAQCAAS6MfZsc7+RAq1SO//paaFQFM0YtOMnOS7SulSL25R2PwazDgVtMqi28AyvkT02od0/O71AaqlUzdSFMHs7I6i1ilAWDl/nCbNUBRdpRKPDP/cjGt2ZJe8AgEBH684t4HKd+GXnx7SQ1yp+1J5qeRqIHqXmtZT5Y+1WewzBrg5MpmYXaTLH2my5sfvjTJDHJnM0k8vXS7KK2EukJwzV74mG6kS6XaPRUZ2zmhuNDi7SKHnnFI0mF9H2F42uijSuGQAC3XLXy0Z8LZdTfJCf9BYLJbFEt1pzftUfJ+IKpeJMqJlkJ/Xb8gImPN86Ub6Nx2JtlybCq1zM84FFeXDBb3mO+VSuKsi8Tc0s0nxhqXKRqJdkaHLkg+u6qGKoO23haLScSDc/Gh2FSKPknT9JNouwW1pHWCXvqrKthvxdBQAC7f+y1OAydqCKtirgEuWM0WvVesDBJVqTatb4/bgi6nvzky6PZP/f9t49WJLrPOw75967d9+72BfeBJaAAFIkIZKiCL4pUqIeoCUzMiWVKdgqSSUrcTkuOZXQjKg4FuXISaVsp+z8YRupJJWHU6VKXLaVPxTLFUmhIpEiLFKKKRIQHxJBAiAI7AK7e9/3zpz06emZ6cfp7tPd5/T04/dDNebeuzN9Z/pOf+fX33znO3qhmPhj4+Xua6GEz7a1tbXY17PHTKbTsDPJNHg+86+X2zR8nvOvw9vJVOwdTBZyvLN/lPhaZ+T1Nh8O5gPhQpJVbBof74kVB4C4UCnDv7mTXt/Z6Poi3fVsdHPp9SHmZpFWjo9NvbIOm2z07H6rnGToouUdAAK9urGzRYdGoOseOBFK69FEZ7WXB1Olw3XsB1OllrKra7e13M6zwVpyD49E4MO5Gd+47Bb92/x7JZKSDP15b/m9imkvG11f0plk2PS5+8pGzyV4mJMMXbW8A0Cg/UuzLBZp/wLNyV52fCbzbG/w9VEgv7oUYpEBnkxnWWA1+/oo/m/650ezn4X7UNOk+CpBWQQktUn5lrP8fdPyromkM8mwTmwd4iRDhlRAoFsaMJv8uxNB7OmxCyV2qkLxnAUtJabR7fL7maFO1Sz7O/+3qZqVQEzVTHan85IIFZfi2b/FF6NQIpnhjV+AxLPGy/snJRmgdnSQvt5DrrPRxU+WSYarEWkmGbbb8g4AgW5tqFxdGnra08tl3Qv62evby6Eg0wkiXt8rMgt2xP9t/r1KBXUyCbAab5YFY7OPWf/mbHSzc2A12ej6kl5XRus/Tx+v3f4CoJ+TDF1lo5Mi7SIbjUiDe1h7uTQoyuR3sR+1IXC9lURiFYwmMoiWPsHI9taU0t+JWm/fdv0/9b59dcmx27ePPqXN95l97tL5sam7TxV9Slgs0UVzOmLzP1Tev6uCsS/778n7KOP4qVSrJykg0CDTJ65MJQVaOhf7WgONP8MoUOnm2rL1s6u5jOaLX/1924u0t6O0UpF2Ibp+nuPsuNTfp51Il0ty8X1EwX1U5hTMk+zsfViJENxBCUdhGFSJGLOKD4IoUwDo0FVhvH4+T5tyzC3RxaexOdLyroowDmOSodvn2e1Jhi5a3iXPOsZScA0Z6LqJBCkdDIIWQWqQBw+gz6jMWz3eQzxvS3/n4zzzmY1OCoq7fTbbt70sDiMb7T62ri4bHRftuhnromy0eQRFpAGBbsn/wpNNxeugpWhziTtKOAA6os0ZbzbEAimXkyWiTS42kdncnW0+aqN9lHW4EF2XMtpG9PJVG+2jrMPHOKVEcb/7pCSXXbTWq43GmsE9lHAUnK8qtXQKC6lg0ACmvjwq9qaXNp9OyeRCFG7O82TZAC3vmuyblnd1JXq1Le+Wx9mm5R1AE8hA2wRbuTo3ZCEVgK5fE8aDRLJwI/PfPBudLu6Q/p4pkwyb7Lt7ZR3tZaPrl3WU3MM6G910kiHZaECgV2TOZRnnNkR62tNznet8GDrK9JN0iUZiy1ZFx8+WfpR12Eqdu0ix+pZ3PiJaP1re1S3rcNPyrqiso2nLO4DmUMJhESzlCj/54ZwH6Lo8q2z8kLJsDnJOzFEeyjraWYBlvn+fZR0+O3WUHxdfZR2q8XP3tQDLbP++yzqKPoVxv5IhgCvIQFcYKdM5A9WCVPe2hIMUNAzyuloWSPDyjokSDZmz5f4S12UdTDKsKtLtBjcmGbY9yRDABWSgc05GqXLipY+SuMLAk7nQNsp95ucrFlj8GQZq0KWitRb847RENqTV7+p6Njq7z7R0McnQ/Wsve+5MMrTLRgM0hQx0WV4gNjdIZ5xVy5I4rxNTIjv9QeVeY8/b76X+LfoivnjaojZM5Vy02/zceF8CFQz+OjsVL+QySZ27Velh1142upuTDO1l10v8X0k2uvk++52Njot03klXLRvNJELwBRno3Cih2onSJcQnESqRXDZYxoReRlfu0c0y7xBbTHFWcqIKQ6mKLfmgcvIi0nA9v4pVGgG6JM9xjXa7yJKvbHTyhfheyZBstPvXXu25jzMbPT8GksEJEOg2JVpL52r6P2eu1g2GqjJybCe3KvXDPNmWIhmAZWTqKn2N0XZhOEBXzDl9AiS6bdgIUnWhcjuZrr1Jhs2WA7cTaSYZlh0Xt89xuRy4T5GWpZJcLNLS2wUWINBgPG1lJle7CjWcfQQVtceaBwJDaJ3/y1KEk9noTMyMxdFFiJFF+87/3tfQAdBZec684ZeLl9h8xF0/Qz2MbHR9kV5dNtr+uLjN9LpcDty/SNfbn35ckUTP7lOUjV6KdGk2mkAGCHTdE13a3WeR0c2mWdsU6alSIl3CVZ4lnqm0TAmyiv6xOEu9rC+T6ehbIuHmDADAoCKIME8MWJ4PSsqCICEdBBFa3o03G+36AqBvZR0uWt4BINDNol/JfWRCnn2FM5ugkpLU+KfFBnGNl2Kk66HTJRxLqRYJ2V4E2syTiAKkIfQu902QgiHLc8FYvPBoKXK7QEuXF5o+yjp8ZaPNB41stJ8LiGrHZUzZaEQaEGhH1/DSeAfTMqarSqyq+WQKGQl9fFKhTIc+c3Y57cHxcg0ZL7GW5a8zIeLKUPpBbIIRxBCV60Yy1b7HzMmTp8RDDz3kNFIYrned7tfNvlV5ssDhPuvvv9qTsdt3XaFcJi9ci/R4W94BIND1L78rDJcyR6JVC2elaSlvYwY4T4QzWWpVkkGevd7cCYqmLHWi3IOTCgZ+AS6L9UgP+mWlYmtra2Jjw0f4LWvx5UZQuyfSfZHo5iKdcznXaDjs8iTD4nNJWWejEWlAoB1cFdvcRxbZYItnYdgHOl6/IQ0Z4ALJFTJnEuC8Njqn9EPKvEmDqjjLjUHD0A1a1VCi9BVmTLLdrjZKy7tqwth8n9X3XU96849LH1reiah+eVXZ6KRIAyDQjQaDoh9JYznDPOO8yEi3cDIuFjmRqfZzRslVhQsWmnpFF+VI8iYoGuISJRwwAlTh+D/vvmHTB1qmLtjdS7QQfZ5k2K2Wd9XEz+ckw+J90/KuyiRDAAS65pV2rkwLkZ0AlDbHFk9ApVSyTELaS655IRVzP+h49465CJsnKMoCgWd6BoxCo0uuv22W30uvBugrG70UaSYZNtl39Qjnc5Jh+9loHyK9qkmGjFKAQLsw6IJYKWeumMrUtr+QiiE4zJ9LRnLlUopl+UIqubIt7VYZXNwn8TwITjBieY6yz7LsI57c6jDX2eilpHU7G10sk90q6+hLNrq5SA93kiEAAl0jRJf3Yc1bSCydvG6ljd08QMbiobEPdPo5quyEwtwstUmu88oypEHgJRloGEf0yH+Xp646y/pAF0SPvmejm4n0arLR1SS9e9noYpEeazZ6LtJINCDQwuEZa6vZxuWq2zwZ1bwIWkUT9KQ5NJok19Q1I9HuSpi6dyyXPU3PezLJNr3qYYzhQ8XPG0M5RvlKhDa/i0mGzUS3uvSufpJhfUH1XdZBNhpg5AItbfqtRSlom57IvpmqghKKEsktrE82LaQiRPEkxOiXmlYdVJlLD4CBxY7Ccz52MtrUQFcYyX1PMnS3ayYZrlqkh5GNri/SNtlokjyAQDc36Nywle5Xv0olDAfOVAmHcbXAeCAzLJgSfhlfylDmr04ojI8rKNcwTFQEGCSq+Icy9l9xnKl2opCNVg1ktJ5MMslw1SLtJxuNQQMCXTsUl2WG5mewRc1cS+N14oJcmksoSrtwGLPFptUJVVKKM502zDuijR2M0p2N8UOU1kDXjR20vFtNWQfZaJvj0qeyDgAEuv7lc4EMZzNIqzsJk32gk4HE1IVDmOQ69YPchVSEoXRDJe8jczLgsppmAPT5Ktzcj10tr79LB+4GIYWWd+Y4Qza66nMfe8s7AAS6pj+X1EDL1YpzPACkVxBc/Js0t5aLryiYXtZ7oeEytupguoA6te94llqZMuCpxwEMWp5zr8elyE1Bpyb/upjN1K+Wd8tAMa6Wd/YyySTDsvd6vedINhoQaF8joGEsk3nyvILzbxE0YtZrmihoqns2ynUqXM4yyir2OJnZd+5+Yk9rhYcIYMVXudW7cLg6U/qTjc5K1Tha3lWXSVreFe3f5yRDAATaasCpE6tXcepl+kCLZGY4mVBX2Qx07FGyoDZale57uYxLURs7RQoaBhs7DOKRWVlF5dZAx6ufXQ/kTDIkG934vexIes0irRyfh/X2GX6iS5UhINANz26RL8RSFs4C8jIAFp3wibHaVHuZE/5kaqQ39cJMl4cUt6hLxaycziAA44sry49jFnMoSs8F98sPMcmQlndu9u16kmG3stEACHSDMFtoe/MaaJm3VG+xgLsV6HjGWGWaYCzrm+UyPElz+EvUNMvluJ98nMqKc+I+MukMLR4LgG4GFMOZloot0iC6S8FwXy+avvh2LdJMMmyyb1redWWSIQACXeOMlhbhzTQEmhYY8SrQQmXSyZka5IXlymUmWeZP8Iv/3LSQyry9nRTm+yQEftEhxLUGAHSMojd3/CSxqoFOy0sfstFLSet2NrpYJml5V3Xfw255B4BAVzjRrKNJLB5JEe9a0eKYreLt62Rm0ZLqE/xUXhVGtG+5aG9nnERY0MZuJtQEMBiRU89PlvkJoGSmBtp4IR7/JCchL2Sj3Yk02eg6omt+7mSjAUYv0GF2yGLQkbI8dLS1kEpCXHMGZpXXhUMZ5Dr2YNMCLEKYF2mZ35E2dgDmIDBzaWm3YFOuGPnJRvsRaSYZrkKkaXlX/F4nGw0ItPfxThbcqxsmuJg1bMo2q3RAVfkLoohlEUo8tqQT8qbyEJlKQWdWHUxkot0P/gCdjikquZh3tJJKSZmYtBAj90VRvicZjq/lnZ1IU9ZRtm8mGQIC3f3BzqKEw1qfW01BL783lVAk+kDHfySzoSm3jltZ9JFOtbfL7JNYBQNF5chz/B5SKrs+0FKW/jPZ6Paz0fVFmkmG3RZpBiZAoF2dUeX36UhyWiWCizKXUMSeXKa+Ob4GS+ofzZKsFst3pycGpqdRKpFtf0c7Dhhu7Mi36HQpkyyNPxYX8plstHuRpuVdXRmtJ5Nko22PC2UdgEB3cAyUxXFF5GSpc1ratSPRap7fyR2kTd00MiItk9qd6MaReo1xeY63sZM5KyHizTD42KEMw29i3sDs6jocrB02RGeSoTmy0fKuiaSPd5IhAALdNGaWaZ8ynNk2Iu5DoPNqoPPCV1mZRZQyjie2ZEICktnquJynJxdmJx8qhyEPoNuhRC3OBf/xgJZ3WfHre8s7XyLNJMPyYwOAQNfMuJSFFRmVcWTvL4X9h7BumAbRZD1msaYM8Nycl0Irc+uT09lme/EW5asVYs4wpmtwZYoE/k4CstFmSetry7vqkl69rKP9bHTz96bvbDQAAt10+Msz4LVInhN3yFYAt3UqK5WTbU4JbzK8qER9chjOZPICINGNIyXN+eKtCsV78dE1cQ4GGDoSq3I28IXJZCK2trYaxwWf0u4+I61ynru7/brZt7I85vU4efKEWF9fbyDp48pGZ0WawQUQ6NWMgVYZ6GxqdblWgmq9iiocyJTMKHs2Ayxz65qVyCnzSPluXJrTF/+ZcKiy4s2nYzBkimqgq7C/vyeeeeYZZxfYLb5iZ/v0KdHdFWklXvWq+8SZM6crymieoI5xkiHZaECgV2TQNqNfstWGaQW/NquglcrpmKHyX5bKEd7FfaV5ouFicMuruVaSNnYwenvODuF1LiHdZNPc1hi7ESqb192Plnfm1968d7Srvyct7xh0AIFuy5+t2thlSyOqBkGXTMOIoRbGWlSDPP9m0S0jU+aRWmwlla3OlqpYrFZoWFAFYFxmbepf066gul3IxI/sm173+CYZ2h1PstG2x4WyDkCg21Jou/sYO9mtpkAhzEDHxujcVnUiv7wi03JuLs7SfFSyqxxmZT2zEmEo7nThgAGHjnSiWbmaQOhGpPuZjV6KNJMMm+yblneMPIBA+xwDbWqgjfeR1T3clUDH08Q59cYq04Uj3a1Dli+kYpPdthV4gEFLtGwcDszy4q6sw2822odI938lQ1reVTku3W95B4BA5450sjii5D2+ZVtMdOFQ5qW4TVni5OpoatGFI/Hqy1rbiexyxcVt7JhGCAMmJs/KW/1yH7LRPmTFRzY6+zy7m422E+nVt7yr/t6k5R0g0IPwZ1kaG4wrFsW737V8Xi5KoCN7zs/8yqxkl/VztigLyUhy+meqrGYcYHAW7VQfyUZnX3ffs9H1Rbrr2ej6701a3gEC3WuDtqyB7pAL6jZ2Kr0EtyjvwpEJTakfmkVYLeKOuY2dTIi9aWIhHg3DvggvGpbrv/PJRptfd7cnGRb/fXyXdTDJsOy4kI0GBNqhP9vVQMuUYUp342R1gU59Y1unrFL/IJM1HcaFVBadPnLb2JmvRViJEMYiz6YTzqk6es5G+xPpfk8y7GbLOyYZunmfI9LgnjUOQdlIuVp5ngeBxWaQWmUwbqXMg/xiS/27Sm2m35+7v8QDZ18oAhWMLVA4HKDDhZuMgUc62397x8TdPs3Hxc3zdLNv6fiY2/3Nqz33au8ju33Xf2/m77v5+12uevCGQbPBIagfKNtbSEWZh2iVDgfKYjLgsh6jsN7Zto1dzsrdhCkY9ulveONLP7/GR4Yu8RLIRos2JxnWF2lV8/3SbJ/V9u06G11/n/n7ZnQCBLotT16RNieFddFdOWeCoOnZ5U3wy11IJefKXaXMOvH7VVrYJRINg0VZvLOl409fij/qZpIhLe+aXBiNq+UdAAK9Mpf283Ft6aAdX0lFWvRfNizZbVoDQhh/ll4Ixdw/Ok+S0xMVqeSA4dq0ajUcMMnQ/Lppeefiwmg8kwzJ7IArqIHOHx1jX0qDdrZnhvPaZ2N9skiUHicyyvH7K5H9gSlAZfenRPI/86FSyufgC9C12KBWNhCbM2nuaqP9Zerc1XCnX7f72mhpcczdWFuzsg6Xf8/qfx+7fXevNhrABWSgy058lSPVbQ7XKiWrptBkKs9I31/GfiCX1/Lxjh3SUCMty55XXscOUtAwwJCQFwqkVBUGdtno/PCZjZ7vn5Z3vrLRLo852WiAVUEG2ibYxYuFV3DhG2Z+S7pwzP492a7DdP+M5KY6bKiCMLf8PeZPr/Oy5ACDigyGtjf1O8e77jIQl/PmEt2/bLQsOC5unqebbLR0fMyHn432+V4HqAMZ6LJTXToZ55oJdF6pZcEEweWgnq6BTq1WaMhcq0gSVCpzYVqgMTNRMVZDTX4Ahi/P6ZNC1Y00wm02WggmGeYdl+bP082+mWTo7r1In2dAoHsk1u0ZtYsuHJkPl02TAVNl3zIKhDK1BnhG4BMdO7q1iiOA50ggclvZOBSq+vLCJMNxTjLsS8u76u9NyjqgK1DCUXJ+K9MPW+6Ho1L1G0WlEvEyC2FTZhF9YzNRMbtoiknyAQbuzFIWDP6WC18U/wInsmv7G5vv2+nB9XKRM75Jhn1ZgKX+e5NJhrBqyEAXiWsyBGf+sb2FVHImDqqcBUxsFjeZP1am/01lX79KRi1VFAJdJeMAehEd6r/fi7N0Pso6yEb3Y5Lhaso6mGQIgEA7D7uZn7V8Ti7aykmR6apR1Jna/FwLVitUyVdd2uHDJPKySU4BoA/eXNDsXFYLD+Vy0bysw2dttD+R7vdKhs1ro82v3WdZh8/aaPvjUn8lQ2qjAYHuijzLcqFWLVmiUioh0flTllR2dUGZfRWJx5dNECx6/WVt7EgAwMAuqFXRGdHg4rE8k1ZfAmh5Z95nt7PRxa+dSYbtnkMACLTrREbrpFYJzJSRyJyyjPzAIgukuawsw3SRoZRa7SEC8H0WSnOauVlnZxsx8pWNbi4WZKPNz5NJhk32XT8bXS7SAAh0q56cLmFotwY6Sj8XduEoLq8wCm/qG2mIWyoh5Ibaz/gn2FI6Gu4BOibOwvypU2JOgvJdGkHLu761vHNzXMhGu3svItGAQPsfLTtyvqn4LEJZ/NRMJZqFddKp+6rYSoXzH+Y+3tjGDmD4F9aqUGvcnAW+s9FZeWGSYRst73xcQDTLRtuJ9PAmGQIg0H4dOiagMlPyKFt7HnW6cJiEdzZIZNfpzl+2W2UGWWmw97JlvwGGIs+Jc0P4vdD2Xdfpe5Ih2ej8sg4fFxBMMlzFexEQaEicoyq96siK5DlrwcVdOEzSnOmmoVTe/KfFV0qJ0oBfVC8NMER5VmI1b/S+TjKk5Z35edLyrsn7pVk2GgCBbnXYXKk65/eBFtnscuY+JasVVpogmL5PSurDUEmQgiGjbAZuW2moLn9MMnR/AWEj0m6z0U1F1+61k41GpAGBXpE2J1czymizVK3loFRqWcH87LI0yq7MEYHCjh15YTBTM50MZZIUNAzZnRvdYcna+po4depUI/Fr/yNpN79QKff7zMZLP6/bxa7X1zcS8kfLuyb7pj0dINAdFuls3eMqCn2VMghxweS9ojrp+R1kwVAhlfnfZOrCIdv1QxLOYNgBIfYGl5G4qOLL1QwnTpwQV69ebSyoxXLR/Cw079+1SPdBopfP0/ckQ1re1dk3PZ8Age7WWCmLB40229iVDV/GZboLRHmxH5WMu3JpBkYpV6YSFlYihJG4c5EoK4+Tw8piVL8nGbrPIs7baboVaVre1X8vNntvko0GBLqvo+aKqdKFo0iaE8uwmHo+y6UgK1FS+mHx+5BoGCRKFp6froWqvui6EYv2Jhn6EWn3Ei1EnycZ0vIOAIEekV0ryy4c5jrpeeSRBgtXOeEsd6JhSekHwLDl2fxtXqtLV0LlRi58TTJ0vXiM24/j/WWjlyLd7Wy0D5Ee7iRDAATa4SCZNcp2c6vLLhz5y2SrlBVn6qSDnShDk+i8KhVTsqmwZhqThjFdN6vY+15aNudwKD/15aW72eikGPUhG718M3Q7G10sk90q6yAbDQj0IGVaFslnK09E5pZtmPy+cJlvlbw2UKk7WGWZVRTEDEsbEq5geKFAJlrRmNo2VhE0e7nwVdbRh5Z3ZKPdiXQfJhmSjQYEutdI4w/kisQ5ykDHUr2ySGqLXkeqFCMeVmyEWaYj7DxwGdqCyEVUJmjBCGJEg7d5NbnoejbanawwyTBfpJlkWGffzMoBBHq1I+UqWtgVfJ9XOlE0XubKct5iLKlIld/GTtHGDgYdCtLd3135V9+z0dnn3v1s9Fyku5+Nzr52Jhki0oBA92fwNIh0e5KosounpOKKkrYhQhmkOZ5kl8USLgRt7GCkQUDlrtzpOs74+Eialnf5Ej07LmSj3Yl0HyYZAiDQfsdMkVfS0R7LhQhVcsJSomY5G7SU0Z3TZRYi9zFN29gBDD8+pGv+XQujW7HwLdK0vDO/7r62vKsvo33JRgMg0O4HRlnSkqrlBQlVzJiNJRgqW8lcJv6FkxELOnJIq+cLMDDKlqBWbi+umWRoK9JMMqwvunZ/H7LRAAh0/Wi9QjtMZJzzunDUeJrScCdlkG1ZRZSVKn0MwIBM2u5EaRiCmGRYdFzG3vJu+drH1fLO/m9ONhoQ6PbtudE/uxyv4xJtu5CJtIgv9rXT819vqMcuM3mAoYQDY4P02OqelUZoewlgkqHNvseajc6+9nG0vKv+N2d4AgS6bZRKnnkrOglVQdiQBXes1OpOGPo4q0T+xNS1jpINGOeFtXH8ripyvkSaSYbdFmla3jV/n1f/m+PQgEC3paxq9SeeildApxZAMepvYVZZGa8NVOrBRQsvli7kAjDQcJBRi3QJVKMUl71M+p5kWJyNri+oTDI0v+6+TjLsc8s7AAS6DQyDYuvCmO7CUePqWhnseh6gZMGDVdnvUOWPAeh/HBDJto8LaXb5pu9DNrq5rPjORifjXT+y0dWFsdr7iEmGAAh0i+NlsuB4PlCute3OqrwLh01/2qLkmLWUmyYdymoiDzAU0nMIhKea1uoy6kYs+tryLnlcyEY3F12792ZfW94BINCO9Tn97UqlUBXXQNssYFIqycricRUmHQIMVpyrnFwOpKqZ6LoRaVreZSV6tu9+trxrJtJkowEQaIuBUhb+YDXPo+xpGOuULfraldc3Fxd0KPoEweAvrFXmnFLWJ1nz31lfdJtJLy3v2hZpJhki0oBA91adl6eeNAR22fKzKQwDqkhrkz8szkSX970rWu9Q0icIBi3Pzny0xkfSdhJAyzubfbv/iN93Wcf4Wt7ZiTRlHYBA92XYXJEg6sCsonYZ+XKsrMKDLLxmkMVhS9YvEwEYyoV1/skkK4WI6mJEy7vmoks2ehXZ6Poi7TobTZIHEOiWLdrQMbnlFLSK2bM5rJRkxVU2JuXVN0v7p2Un5wC9d2c/l4f15IKWd+6OOZMMm4uu3d+nO5MMARDoFcn0CsZuUaEGOq8jh8w+uFE2eb6+DEELoMKJ40qkx97yzodIM8nQjYz2YZIhAAK9MlFuuwbaplVd/IlJm33avD6VfweVknHiFgw6HqhisXMxh7BeWccYW965izr9anm3fN20vEOkAYHu3ECZKIbowEIqixpoy99tlT2uGLMMi3xX6gwCMJgQ0fiNLh0LAJMMyUa73ac7GV1NNrq+pAMg0K5MOnParkQSVbLmujB8FMqxMo7f9pMPpZW5E7NgkPGg5E1ebV6E3UfSTDK0PS5MMmwmuuUiTTYaAIG28dXYN7NiX7nq5xOLAIXZ3kI5ljYPKbRrZRHTJBELRhMg3IqKGwFgkmFTiV7uu3+TDGl550rSARDoBgOl6lxdQtUYICtIsTEUsfoggN3Z10gsxpiNrrfP8uPiLhudFGmy0W5kdHUt71iqABDoFpCptnGr9fiSGmiV/6MqUqwqSjIX9DBGeW66lLc+nw8PD2ufVdXlQlV4bsLr2V+8/2YRRalq+1xfXxdra2sVJJ2Wd81F1+4Cz2dZBwAC7VOe83oir8ikVSpQZcKELA8lsuLvs7kTi6rA2C6rE+/smo3Qd3d3xJe+9KXGZ2FfRbp9iTbv98477xQXL16sNCYwyVCIIbS8A0CgfRpr/Fu5YpFOFT07k+KcNcKlzV6k6Z4KeYYBy/MKZT1H6lZbG11PVmh517ZI+y3r6HPLOwAE2qu7rr4IWJnktGJckGUxy6rBhizRcrmqQwSwWq9Wq9k5Le+qPPfut7ybizSTDJu+zxFpQKA7MDLm/Gub56OugVYpOW1oqcrV0SAuwUijg8pcWyufv62BjLYp0rS8cyXRs+PCJEN3Is1gBQi0/6FRFojjCs5Blfq1LsJ1ldZ1hXcj3QxcWsfOCeX5t9Lyro7oZo+Lm67+fW9551ak+zDJkAELEOiVjZIyHh1WxHxpb2M2uor85j1UNjpEAANElXunauOMsMtGV5MXWt65F2kmGdYXXbv3JoukAALduXFSFZzGcjFGtimPyhA/VJ40V5TfGg81Pj9kGsZ+cd3+E+j6JMP62ej8UNzdBViSx6UP2ejl37zb2eji9yaLpAACzahZ6PSqhbmMKrVMcRiwRY6oG0MbUQxGfO0tlWi31pJJhk1E17Wcm48L2Wh3Ik02GhDofimzoV1b+yqtEgEzHfxdBQ2ZWjlG/85q7ftkmWsDDMCUuxipmGRYR3SZZJh93X2fZIhEQxuscQjyT0+ZI4wryUOrrDDHt7aeQnwz/Sz97wDDiguyZPKtXOmzK+0cVGspY/sH2O273kSu4n03O+7m4+JukqGUbvdpEmkf7yO3u5YO3ot2fx+W7IY2IAOdc152TQCV5c98D8/p3y/jT4SABYO/rE55cs2VCP0/T7LRdWWXSYbJ1z3OlncACLQDW5XdfFqi5T7UljHRpl4aoL+hoS9v6uG3vPMl0kwyNL/u8bW8A0CgHQSPOv/qXp5V2SraHXBWktAwkivr8AK2+2Mykwybi657kWaSoflYttHyDsAV1EDnnoMy9q3qiBguK4yz/9mG4KbVylQ5A8je9W0sf7Krr42udwleXO/arOY4f99u/vi+a6P91Ee7rjFOvnY3+5YO3+cAZshAl8piwYknV/ZUDD/Oea4qfV9ZuBeLfFX5kwIY7pV1Ye2U7PQ5QTa6qej6KOvwmY2ei3T3s9HZ1+67rAOgKWSgc3RSmlYd85cssHhOqlLueNGhQ1TLF7vMLRO2YJAOrYbwIuykrto+7R5kn2HsVjY6/7iQjfaVja73XvTz9wFAoHsu9k2LLlSDxymPzxGgNydh4T/3ZbAee8s712UdtLxzL9JN34vu/z4AcSjh6NM1rbIexwufq7J5Maqs2ENY9MhGowG6H8nG2PKueRSn5Z35b979SYaINLiBDHTp6Wb4SGkVGq3s76bq7LtOmloJVlKBccUDqQY4CWn42eh2Jxm6k7R+ZaOXf/NuZ6MB3EAGOu90LawZk6LtSfjz3hvVr9ndBi8f0g/QD2JTdgf53maSYRPRpeVd9nX7zkYP91wEBHpIY0rsm1Wdr5k+0K04MdEJYHkOuhOY7goAKxm6/Xu6K+vwuQCLH5Huw0qGAAh0mya9+oF8ZQ+2PyLaNfikDYYaA8wDd/WTq5sCMPyVDGl5Zxbpcba8A6gONdA1T13EkBJoGHEMcNJay/XiEatJHPS55Z3PKE/Lu+zr7n7LOwAEuiNDCwAQFaqJdB9TBkwyrLJvWt4xyRAQaIZHACAION1pt7PRrkXaVzbaR0a6mey6lvN8kXYr0b5F2td7E4kGBLrLQwcnKMCIUIXLeM/v4irKjK+sw4XoNgvQ7Wej3Q0ktLzr0zkECPSI5DnzDSclALQgqGSjm+y7m9no9so63Ep0P7LR5nMIkQYEelVDmUSeAUYfD5QsTkJLV9NnmWToXqRdiK474WWSYfZ1M8kQ+gRt7LyFRwAY6OV0brss25ihBWRjwzb8Jn+Zm1Zd+Tupv//yB3ajzdjySayt2V0AlC8H7rJ3tK+Wd833mX4P+2x55+79Ym55B4BAex4v6WUMAGWKuBj6LRdaOXXqpHjNa17T6Lf7FOnuSbT9g+z273IBlqyk1ZFdnwuwJEWalQwBXEAJR0F4VRanIwCM8+I6HQRUy7/UzcfdMle66u2blndNRNdXbXTyuIx9kiEAAt2uTXMKAkBOHFCxH0rvEcJ1XacsFGnX+6wv0rS8cyHRTDJkBAcEupUBsmhOEKchwNiupNVySFflF9ueo1MDGbWPaM32Tcu75qLrftRhkiEAAt3eWAUAXFDPHVl1JS60m43uTlkHLe9cSLSvbPRcpH1dNCLRgED3Xp45iwHGgs49KyEL/UVWaGPX7cUjfJV1uD4mtLxzIdIuxTwt0WSjAYEe10gZH46i/9xnAACgfxfUzlo967jifPEI6VjQmWTYFZFuNxvd9UmGEpEGBLrzo6X3QAAAvYkIZSt5q6rxQXoQgOFkoynrsN03kwwZmgGB7uzIKZFnAGiohfkS4Dsb3ceWd/XEiEmGLkTapZinRdrXmUc2GhBoAIBOGrIy+sRigmGjwVtGWTp/Sk/Luyb7ZpKhS4kmGw0I9HBHypJ/L1tqBQCGhco9+91Gg75ko6UD0a0mk0wyrHJcmGSISAMCvUJ3logzAETRQNc4K1WsEspJfOhDNjpf0phkWGffTDL0cdGIRAMCvYrhUprk2edJDwA9ur426rPr3+Z+KWNa3tWT0WZibr/vbmej+1fWQTYaEOiWR0mVOzBKJhQCjFKcm9c51//NtLxztW9a3rkQadf7jI+vfs5cRBoQ6NbQH9UqTwEIAHoWD6zk2Wd88FvW0e1sNJMMm4mu+3Gsz5MMARBo36Nl4rSTRXcBgJEgO/AMxtfyzu7I0/Kuyr7HPckQAIH2OUxJTjUAmAeE2WLe1lfe3iW63y3vulPWQcs7J2Olp2z0XKQBEOjeyLNFtoPDBACrjVRMMqwlo22KtAvRdSe8ZKMBEOjW0HWPlGsAQGkwUKu4tGaSYXPRrSeTtLwr23dfVjIEQKA9jE2xAMAcBIBxy3PMk7t3US09dBkYTja6G2UdLkS32T7Lj/lYJxkCINBOBg0VO+mloPUNAEQJaOlDCVwK7xgnGdpJHy3vqux7jC3vABBor8MTABAHHBmat2fY90mGrvdZX9JpeedCoslGAwLNoLm88uWkBRhfDCit3VCdesb9yEZLB6JbTSaZZFhl30wyBECgnQxInKQA40MJpUrkWHVxunEfstH5ksYkwzr7ZpIhAAK9siGnJHh0cxYRAPiODb0dn2l55+5vOvZJhm7OI8o6AIEeHKo4VChBRw6AEV5Wlw7KsvuvgZZ3wuG+xzrJ0N0ASDYaEOghDpeyOGZKUtAA0NuLgbG2vGOSobvxkEmGgEBDJajfAODUN/17nz6aGmvLOztJW302up5MMskQkQYEuhuDZSI2JEdPFBoAj+4/tLyrJ6PNBLXv2ej2Jhk6frcj0YBAtzKuhJtUpnINiqABRifOQTAoXkilz1rd30mGtLyrs+/mY1hfs9EACLRveTaOh5zMACPV5xFEAF9lHU1k1F7SmGRYZ9/jbXkH0IQNDkHhWJn4VsazKRwhgFFeV7to9by3tye++tWv9iIIqs4n1c1PsP7ztntg9f3bPyBv32fOnBFXrlyZvxNrSXT+866+z/T+lXK7T/Nzd7NPAAS6hRFTxZQ5vCLmqACMMhjMBnBVbNgWTCdTsbu725tsgnuJVo5kt30xX6VEHz9+3PBmcynS9fZZvO9m+zRLurt9AtSFEg7LgTD9MRWnLcBIQ8PorqD7spKhj0GASYbuzpF+TDIEQKA9hlDkGQB5NqKGPKD3oeWdr1HA9UXV8CcZ9rnlHQAC7Ttscs4CwMiiItnopqJbbxCh5V3ZvhFpQKA7r9LdzZQAgF9KPn+SY1lkqQ8t7/yPBfVFt75M0vKubN8MzoBAd2ColOEGADCT46VGU8rVzkqGXX3d9WW0ufT6zka3W9ZBNhoQ6IENDEmVBgBQShZ3XhhlqJAeMsZ9yUYzybCu7LqW83yRBkCg2w+PUhlWIHQVQgCgX/YsHQ/1Q0s6MMmwnow2G13s980kQwAE2v9IiSkDgGtnGMUBYpJhHRlt9mbreza6vbIOAAS6S8kFACAWEC8yIs0kw+oy2qZIuxBdd8JLNhoQaDwaAIYcC0rrnIkWcVkhG91EdOu9r1abje7DJEMABNo/KhgAUrWPADDGWKCCWBC3Z0MvDuYbG6WKbHQT0a0n0qvLRjcfKdtreQeAQPsI+ZkTVnq4KgaAvgUHmtjVld7xTTKk5V0T0fWVjQZAoFcW/ziBAUYbD0pjAXJddACZZOhKpGl5B4BA94SwqR2f/wAQCwoXWSJG2Im0P0FlkmHTfY+r5R0AAu1udBTZVnbSeK5Op2SbAMYgfGFUCBdSkSX3IybYSzTZ6Ooy2kx6aXkHgED79WebcCL1fRksAQavejI5+BcN2YqQUEOkmWRYXUabSS8t7wAQaPcCrVTBx7PL4KDvQQYaYEyup0rHaYVB15Ze32UdXX3dbkS3nkwyyRAAgXYb1izPQYVAA4wgHtiVZiDPzYXSfca4L9loJhm6G6sRaUCgV4ey+PdgmzJgAoxL8VSTwAG2ksYkwzoy2kxQmWQIgEA3D2MyeVrLnDESgQYYSzxILqpkOvMJB25lkkmGdWS0maAyyRAAgXYm0UWx4+hoyoECGHqglMtQqWR+nplJxb5E2p+gMsnQhUi7EF13wks2GhBoP0ys7jSZWMULnYGeTJBogOFeSC8HdFUyBttOKt5YZzCvLtFko5uJbj2ZXG02mkmGgEB3iW/Z3Gn/4MiqnFGfiodHE95JAEMNkhXsZDKxE+jbzhzjwNYWaVre1RfdejK5umx0vX12/8IIEOh+8pydQB8KubZmdS4fUsYBMFxlS8SBtCAvv9cdOKZTu1hwEYFuLL3jK+ug5V0TiUakAYFuzrNWAr1/JI5trCXO3/AUNiSY9KA5mSLRAINTNV02EJ78KnHyy2gx70QcUFPrSYQXEGgnQklZhythHHPLOwAE2qlAHxweifX1tWUMUMWncVjyAQDDCpA6+yzzs87xSDDV5RvWAr3JwXUq0v4ElZZ3TffdvWw0AAJdj+ds76gnB0qRmkAkzafu4eGEVQkBhqRlwUi7qH9WKW8OW3HEW9qpSuc/JRw+JJpsdHUZbSaofc5GAzRlY4Sv+VnbO758Y1vcdv7UrFWdQZzT3+/uH4ozJ8ksAQyB9Xntc/rTJyUziWZdxlVFoN/4ugfF+dPECj/M/g5ue3Ind+Zm3+adFO17Y2OjQCZVqYxWe96y8HmaRLd8/3Yretrv2/45AiDQzXlBzFrZrZfd8cVrN8WVS2dLej0vNfroaBJmrcPSDwDoLWtrMmpflzzXZ9UckaDFXEAF8jw5shvEN4+ti7tvv8BBbkGk3S9so1qR6Hr7L5dJe9GtJ712kl5Peov3jUjDCsaJsb3gJ594XMvzv7W577XrW+FAuiZl9sOi4GfK8PnS3j610AD9F+j11OCcXIFQJXrBz7LPti3svv3+ixzgVpAe6pdd10bnlzbU37ddbXQfyzp8t7wDQKDL+Zc2d9KdNa69vCWOH99InqDpMzgWB44mk3ACIgD0E126YR6GVWqlwVlhtP7UyVaeNd/znfdxkFuU6H5MMpSORLeanDLJEACB9iLQmm+9dFMc21ifzcZPTypR5vN0d//Iuh8sAHQoIMq16FwXGVFOnviz73XmWfd/ti3f0Lz/za/iQK9ApLs/ydBXNppJhgAItCOefOLxp4Kbp23u+9K1W+EAmchCq+T5KVWqfVXw/fbuIe8ugD4plu66UTZ/QSa/1J9S6dPfvnzjkrjr0mkO9kpF2rVEt1PW0WzfY13JkGw0INA+sMpC62W6n33+ZbGxvi425pkpuTRpmZnVMDthdWZqZw+JBuiJPSdKN5TFODyJss9Hh1PruUvf+xbKN7oh0X1oedd+WUffVzJ0vU8ABNrMv7K941ee+VaYaVpmodMf6c7P3uQJqntDHxxOeJcBdJyZPMtMu2ejHygZtrKbTiZh9vnwoEr9M+Ub3RJpl5MM28tGN5P0sWaj6+0TAIHO8ulg+6bNHQ8OjsQz37gWtqdLLO8tkuJsOjV1b+ijCfXQAJ0Nglqew646JcNsbPGUyXQSivbhgf25/dC9t4lX3X6WA94xiW6jrMPNPpvIaHXh7Xs2urisAwCBrs2TTzyux7//w/b+f/b1F8NyjhPHN8OJRukTMfeUDH7L9u5BOFMfALonz+lJg7JAnMNv1TT8REqXaYXlG5Z833fdzwHvsEiPt+XdWCcZAiDQTfh7wXZgc0e9SMqfPvNieEKePHEs/2ROn+dRD/qtQKLJRAN0W57L0W3rZmVZB/v25/O5U5viw+97mIPecYkeZ8s7Icbb8g4Aga7Fk088/rXg5h/b3v+ZZ6+Jnd39sJTjxOZGalhNLq6QEemwMweZaIDOyLOsEv5m1dG6z7v+Sretq9K67mf+3BtCiYZ+iDQt71zJKNloQKCHzK8E25bNHXVv5z/6wjPhR7ebgUBvFLS8Mp2rKpJoMtEAHZBnaXfezqcVzlrWqfD839+znxx89+Uz4sff/xoOfC9Fup+TDGl55+oCAACBzuXJJx5/Mbj5+7b3v7W1J5768nPh17qUQy/1nQ4PsuDkXUj0Ed05ANqX5/XZOWstz8uL5/niSHu7s97Ptvy1H3lTdvIx9EaimWToUka7MckQAIF2hxbol2zv/PXnrovnv/VK+DHfyePHjOFBFZ3j4cTCQ7F/wJLfAK1oUNjnOZDnGmOtXr57spDniZhWWLb7dVcvMXlwICI93kmG5aLbjbIOAAS6dZ584vFbYlbKYc0fP/2s2N6Z1UPPJhXajMTJwKGX/NaLrSj+BACe5XktcxFrc+LN6p1n8qxb1lXpuqH5Gz/2nXxkPCCJHuckQzvhJRsNCPR40ZMJv2Z7Zz0Z8A+jeuhjG+sZiZbpUTjeBis2duuFVrZ3DsL9AIDjACdnnTZU/MxUslSaw02vMng0mWWgJyrMPlfhvW+8V7z5odv5IwxQpJlkKBxJencmGQIg0DV58onH94Obnwk26xSTrof+3B8/Ew60oUQbyjlk2WkuZzK+tcPkQgCX6JINuRbv1S6LnCWZlFazjhsikued7WrlVudPHxd/8yNv5Y8weJF2LdFMMnQr0gAIdFsS/ZvBzS9Xecy3XropPvf5SKKPreeXc8Tig2nl76meXBhI9N7+ESUdAE2UIap3Xp5fMinPhjkJSZNe9nqey3OVSYNrwe//lb/yLnHHxVP8MUYh0V3PRufLJJMMARBol/ydYPu/qzzghUCiP/v5ry0z0bGFVpRIRpG0OOuBWcXG8b2DI7G1vU82GqBOQJsvjiItBk9DHXRYthGce/Nez9tbh5XkWfPvf+g7xNtedxd/jNGJdD9b3jWTdLLRgEBDxJNPPK7N9fFge76qRC8y0YFEnzi+kQkHsmTwnjOZqrCkY3fvkD8IgNVAKsMWddIwmsr0yRa/ag3voBY/n0RlG0danrery/N73niP+OnH3sAfZKQSTcs74XDfZKMBge6jRL8Q3PyEdtkqj/vmizfEZyOJ3jy2Lk6d2IzaZqmEN9uGif3Dibi5RTYaoDCIRVnn7HmkUuee4ao1kmfd4/koKts4OprWyjzfe+WM+MRPv5OuG4j0iFve9WWSIQAC7VOifzu4+aWqj5tLtO6qsbGxJk6f3Jx9pGyS59QJLw0xQ9dGb+0cip29o8oDOsCwJSUQ5/X1WX1zybmRPfdUJM9STCfLRVIODurJ8/Hggvm//qvvFWdZrhtiQXx8Le/sBHX12WgABNo3fzfYfr2ORP/eH3xF7O0fhquenQ4G1Y2N9cJ4EC/ZlIZEmW53d3N7T+wfMskQRq4mYbmGDDtsSMtezqZzT0uyLtmYRra8u3NUq2xDD9j/2U++XTx07wX+OGC40KPlnRtJ95GNBkCgvRDVQ/9osP121ce+cnNHfPIzXxLXX9kOT/lTJ46JE5sb5tM/3qGjYAlDPbDv7h2FZR1aqBFpGJ84r4eZZ5HOOpeMrZnGG8GZPQ3kWZdb6U+Lbt48FHt7kxrPSYj/9PFHxQ++7Sp/ICgR6X5OMhxHyzsABNqHRO8ENz8UbJ+s+li9VPenPvtV8adfvxZ+fzwQaC3S4Uld+axf2oLOmOkVDG9t74vDI+qjYfDmLKSucZZrTcbS6CySoTBPprMLUF3vfOPGQXhbOXgGz0tnnv/Cex/ibwTW4kfLO1f7pqwDEOg+SPR2cPPBYPudqo/Vsvvvnn5W/OEXvh7VRa+LMyePhx9B253p2XqO+T3Cbh27gUizCAsMWJz1aoLpRVBk+lQpWZp7/s/TQJzn9c67u0ehPNdZBVSfv3/7p98h/vy7HuTvBJXFj5Z3rkSXbDQg0H2S6N+t8/hnnrsufuffflls7x6Eg6+W6FlJhzQHwTIjiC0OcTRRoUTr7YCMNPTem2cTBMPbksEx7EhnUwcdtqibhrf6/rduHYrtiqsLxuX5l3/mneKDb381fyxoJKjjm2RINhoQ6LFK9FZw81iwfarO43Vd9G996mnx5a+9GKqxLuk4oycYrsf/DElxlpl4kxVtGd1fZ6G1oN/Y2hf7BxO6dkAvxXk+gtrIc+kYqmYt6mZZZyUOgvPi+st7Yn9/Uus5rgfy/Hf/yrvFDzx6lT8YOJFeJhm6Emn6PAMC3XWJvhXc/GCw/X6dx+ss2Of/5LlwguGtrb1Zl46Tm+HCK7IgOMmSuuh4ANGfSO/sHwUivSd2g9spJg3dNueYOOu3dfkgqNLniTQJ9nRW6xxNFLxx86B2yYbm2Maa+K/+g/eI733LffzNwINIu5ZoJhkCINDdk+ibwc33Bdv/WXcfL9/YEb/56T8RT331hVBwdR/ZbDZ6EVoN+lDegkDnpvf2J4FIH4jt3cOw1AOgO8IQlWos+spJK3mOv+3jg+viOnHeni4SZV3rfO1a/ayz5uLZE+If/fz3iPe96VX86cDzOeFapJvIqL309rmsAwCBbleidSb6Q8H2CSHqdZTTA/wXvvxN8Vuf+pJ45ebuIht9MuzUkV0APF6uYcwyGBR63lT64Ggibu3si5vbB2Lv4EioKTINq3AEPRKuxd7fhvexrDb0qeh6UopZuYbOOmt0Z43r1/fEzVsHYRa6Lo88cFn8r3/rMfFdr7mDvx+0JNJMMnSzb7LRgEB3VaJVsP1S8OW/F2w36+7nxq1d8Zuf/pL4/J88H9Yxb26shyuandhcz+kbnY2AMvF1/gTESSAYuqzjle39sIOHnnSISoNPGZilitdmW2GzZpVohK6i/xIXhKnrw/mP9Kc483KNcJLg1oG4FsjzwWGzSbU/+r6HxT/9T75PXLntFH9KaP288V3W4WafVkOUM+ElGw0I9LBE+teCm0eD7am6+9AD/9N/+oL4vz75RfGVZ15aTjI8vSk2j61HvhCocUnkkKU6HAUoJcVhIBdbuwfilVv7YnvvqFYvXID899la6cVexoSjcyErzir3vJmG4jwNxXl751B868UdsVVjRcE4uqTqEz/zTvGxn3hrWPsMsKrzyH37tb5ko5lkCAj0WCT66eDmbcH2r5rsRy///bkvfEP86995Sjzz/MvhYg0nj2+Is1qk9UA+twKjHKgCSUkFDxkoSpTt07Kiu3bcDOTjla2DcAIifaWh1oXgIttsrsOQ5TuwvP9MnKdq9j7dicRZTxScNixPuufKGfE//sIP0KYOOnQxOsaWd1YRg2w0INADkWhdxvEjwfa3hWhWGbG1sy8+/YdfE//md58W33zpVijSehVDLdLH4hMN0xfVMpO/SP0wlc2bT9yK7qY/Ct/TMr19KF7e0pnpw7B+WtHJA3IGI7XY1swWbPvWKZTn2Rt0lnGeLhZD2dk9Et8MxPnlG/ti4mCS7LsfuUf8L7/4mHjo3gv8aaFz5xot74QHSQeoxwaHwLlE61H8l9/6c//s/w1u/7tge6DJ/l6+uSv+nye/Im6/dEa88TX3iEsXTonTJ9fCDPHB4WSZKZaGYFsWjFMxNNPrI5CV/eB36N+jo5MWd11OojPh62tEq7ESn8qqyky5qtPK5ONU9IN5WYeKMs67e0fixs39sAzJBWdOHhN//cNvFj/ynocYiKEHIq0c9vlPnnTz93+z/UtjAGi2b1kaUPT+yfVAW5CB9ifSvxncPBJs/yDYGo/y37q2Jf7N7z0tPhnI9AvXboXt7k4Hg76ebKjrNWWFq/VkKYcpiZ2czDWrmRbi8Gga1krrMo9XtvbFTvC1nqRFn+kBy7KKPrNQur+4DG8tLTsx1pW+Kw0LBoXyrPT7K6pxnqqwxllnnF+6tutMnnVf5//9l39Y/IX3Is/QJ4mm5Z3bfQNUgwy0X4neCW7+47f+3D/71eD2vw+2NzTd53Pfuhlut507KV77wO3i1XdfCGuk9aZlVmeL50KrjJllmfZnkdYWm4CqE997we/Sm9gL3khrMpxspTct9xtkqPspzJEsa6Zh1leKgreEaViPMkAqef+i0v10hZEQ0aRAFfV0VmFXjVvbB07KNObccfGU+NhHHhXveeM9/OGhxyKtFhe77oTXfzZ6vn+y0YBAQ5FIfyaQ6LcEX/5CsH082Dab7lP3jdY10n/0xefEw1cvh9vxzWNh67uDySRcsngSTaaSpjgmiyRKZlcPL8lM6N81CX7nfpQV1GXaoVAHX6yHQs37oJPCrKKPR3R2Wb8xlExNRVX54ptR5/z3TOnjo4z1okwj+Dqc2Ko7xOwcOh0I9XyCH3//w+Kv/sibxKnjhEDov0TP4nIfyjrMEl1v37I0urh53gAI9Kol+iC4+UQg0v9czLLRj7rY7+7+ofijp58Xn//yC+LBey+Kb3/gdnHu7AlxfGM9zNYdHM3a04XObBFEVHmKMfltjozrOV77YUY8+t3B/9fXZpnptXUZ1lDrhWPIU7cnyuHfJRLVqTLULytZOhhlB6LqrTbSv2WWaZ4N/nrbCoRZi/Neg5UD89CTA3/xL79NvP7Vl3hTwOBEeiaMrkValcQAN9LbLBuNSAMCPQaR/nwg0e8Ivvx5MevWcd7FfieTqfiTr70UbvfccV48fP9lce/t58LOHTpq6Prlw+A+R0fKXX2YZTCSUeDSEx6PAidSh3NhE6FE64zgupZqXdO3JsU62epGTBfZ3OTX8dvk31EW/y1zVwas/kaaD8ezbHfU7Tl6f+oyDb1qoI8WiudOb4qf/uAbxEe+97VMgIURiPTYstH5+zTtHwCB7q9Ea0P4bwKR/p/ErKzjPwy2E672/+wLN8JNL8Ry9Z4L4ttedVFcuXA6+H49zAxrWdGt6Uz9cmVFRVIWj1MFSQL9HCZ6qfFJfGcqkOo1oT1Hy/WanE8MmWWtx46KybGK6pTn2VsRyywrUebFMnF/i/HHYngt2EeYZV4+u7C2eTuQ5kCc9/aPvBwrfQH5Ex94rfhL3//t4rS+mAQYjUTPzrO+ZqPribR9NhoAge63SF8Pbj4aiPQ/DG5/Kdh+KtjWXe1//+BIPP2nL4bbudPHxYOBSD/4qkvh1yeOr4dZ65lMTzORqqS9dGFQsiy1zhVyXRailxxfOnV2EFgPyz/kbM0OIULJ1k8i7N3Q0wipYoI8yxyrSJLn0jzP2EaLtUdXJpmsckqEs16cPD62jTVMY1Kpcy8W/plG36pwlcAbuovL7qG3j1R1u8Ufe9/D4qcee7247cxxgg2MWKSZZAiAQA9XpL8R3PxsINJ/L7j9L4Ltw65/x83tffG5p54PtzsunQll+oF7L4pTJzbEqeDfj+YlHpOpmFqvBlcsz3k/S4XgRV2BtA2HUWeGUCcnKrE4oxa0+X3nIr222IGKJFuGli6jO6qYuc+6Tix3WCiXKqrujvY7Vcsfh19Ol2XF0+iH8w4p07gULx6nYq8jPTCpctOtsfKfjTxLVTwUqWxNSPR8lz/f3j0MyzN0xrnpSoGFAW19Tfz5dz0ofvaH3iCu3HaK4ALQ0iTD5vtuf5IhAAI9HJF+Krj50UCk9QTD/zLYvsfH73nh2la4/f7/93Vxz+3nxH13nRf33XlenD61Gcqlzv4eBWKqpfpoOi2MTzLtTbHUtSzMA8jy0Gn/w8S/LOp9oxrb6eJnUfWtSoqfiv1PLcoa1PL1qJgkRl0r5CIbbMiSKxUro0ja50KSE48rW/JGFN5Hxq9DKqAsjqosPPQqcVGkYu3O9RLbOtOsJwRqadbvJZ/oUp8feNtV8XM//B3i3itnCCYAhrPZbTY6GRTIRgMCDV0Q6c8EN98biPT3B7f/ebC9y8fv0a3nnvnmjXDTXLrtlLg/EOn77rpN3HHptJCb64vJf7pm+miizC2B4xYly8RLZhujSWEuQygQblPDCFWQtsiE5dgPZOJ5lUuptM1wlMbs8vSvbCGhImvcQRpepO5BrmX51tZhmHFuY/l3nXH+wFvuCycIPnD3eYIHgMXJTMs7AAR66CL9G8HNbwQi/dbg9m8E248Fm7eZUNde2Qm3zz71fLgwixbp+8Ps9LlwqWMdgo6mUWY6kOnJdFpsYAWNgRfhUYrCeo95ozuVlue8XyllIsAaw6ZM/1udmmn7x2QzJ7L6oGA7m9M27yJV6XgiowsINU0/DbUol9nSkwC3Z6UZ+weT1s6NC2ePiw+/92Hx4fc9JC6fP0mwAKgYv8bb8o5ZhIBAj0mknwxuHg9E+m+KWceOnwu2iz5/5+7+kXj6z14KN9354u4rZ8MyD3175cIpcTJaRlZPRNRSPZ+QWEk707XTMp7Mlrl+Zw6rMgrfdlG1rCyigqfmPy9j+zdZwXJjFws5LS5k+hWrkucry7Mwi79F9LHAmlyWm+zsHoXZ5XBlwB2/9cwmHn7VhbAV3fc/elVssjoPgAOR7kM22hD76O0MCDRUEOlng5tfCET67wS3PylmvaRf6/v3akn6xgs3w02jVxjUExHvvnwmFOo7g9uTm7PEuPYpPRlxcjQTa5UqoSjNW6j0vZWFaxYve6cMFlwowjKnX3LOE8nNchf+kiYVy7PvKyelZf5LkVEtS1zI9d99a/cgXAlwa2d2O5m2P1rpC7jvftO9oTi/+aHbCQQAziV6FjG6m43OD6qINCDQUEWkd4KbfxKI9D8Nbn8w2P6jYPu+tn6/zjTHhVpP4NJZaS3T99x+NrzVJR+zLKYKhFothFpnqifTnFgYn2xnCJTl8qzK5blIhC3K5KQ0rOBX8JTKXkVZhwuLrqbZe+S1sVPzEpd4p5LlkdZ/163tfXFLC/P2gdjZO1zpoHT21Kb40LsfFD/+/teIuy6d5sQH8C7SY2x5B4BAj1Gkdbj4db0FMv264PYvBdvjwXZfm89Dt2Z74fp2uH3u6W+GP7t47oS46/JZcfm2k+JyINe6TvXMyY1FK7fJdLaQhu7yMbuNZT/KrDITUlPTEmMCaWyrJ9M/UzXK4lSjf9a1GbLojlZzXvJn983LMGTs63g3kf3DSSDIR2EvZi3KuluGr8VMKgWk9TXxjtffJR5726vFe990rzh+bJ0THaBFiRZijC3vABDoMcv0F4Kbjwci/YvB7XcH218Oth8NtnOreD7Xb+6FWxy9KpwW6UtaqoPt4vlToWivb66FYjfVmepwEZVJuGKilmxdRjBVat7C2RAcldEnczvgZaS0Sso6++/G31NY3lHeTcRm8FhmkJODR7wziv533UFlS0vy7qwzxlyafSyX3YRHHrgsPvj2V4sPfNf9LHwC0AGR9lnWQTYaEGjookjrsPHbegtk+q8Ftx8Ss8z0D676760znc/oLSr9mAe682dOiEtarINNr5J49vQxcfbUcXH65LHFRLZQqNVSqPX3s6+ns6/LCyuKbVjJwgmIRQvE2CVIsnuwXRdlVjYikyUmsQFCH4+9g6Mwg7y3PxE7+0thbrMzRlXuu+OceOztV8Vjj75a3EPvZoCOivTYWt4BINDI9BOP6xTwr+otkOkrwe1fFLPM9Fu78hx1cHvl1l64feUbLyf+TU8e03Ww505vijOBUOuvz4Zfb4Zf61Z7ep3BeYCcC3a4QOE0Wh0wsOtwQRUlQ9kOF1aZzhc0kaWxuKh/9OzGELzzKiviGWI5E+h4T2kVVZLEs9IqWhBmNxJk3R1ld+8oFOb5bZclOY3+xOH73xpI89uuitddvcRJCtALiZ5Fu762vEOkAYGGJjL9YnDz3+otkGldI/3ngu2HxGy1wxNdfM5ahm9s7YebELeyb971tVCmTwUifXxTb+ti89i6OBHeLr/XdbSbwdcnjq2F0TSxEqESie+n81Woo3W45/2O5ysZTtVyvcPZz+R8/cLYyoRqvjL4crXDmBBruT8IpPfgaCoODo+CTbcAnIQLkeiJfHrRmsPoZzqjvB9Icp9j/0P3XhDveuTuYLtHfMeDl8NJpwDQR5FmkiEAAj1umX4muPnHegtk+lRw+4FIprVU392X16HreGfZa/vHHNtYn4n1xlqY4V5bWxPr4e1yW5fR1zL5c73p8DyvzV7eTmflJPGfq/m/Txc/01Ks5Xg6HXYU17Xuj377nTNpfsPd4sptpzjpAAYi0TMZ7e8kQ67fAYEGVzKtW+L9mt4Cmdah5TsjmdbbW8TAlm3SWV29gVuu3nlOvPuRe8Q7A2nWvZr1pwMAMFyRdpuNTkqv72w0AAINrmVaR5o/iLZPBEJ9V3D7WLC9L9jeHWyv5iiB5o6Lp8QbH7wi3vzwHeKdr78rXFQHAMYl0TPZ7eckQwAEGnwK9fPBzf8QbSIQ6nsikX7PmZObH9zeO7yq6qyHDb1Cl7I8eM958cZvuz3Yrog3BdudF1nYBABmgtrnSYYACDS0IdR6KfFfjbbHXr61//O/8g+f+MALW+vrL+2eENf3NqNJdtBn9KTLNzxwOcwwv+mhK+KRB67MVpYEACgU6T5kowEQaFgxF84eP7z7zJ66cvww/F7Ls5bol/ePi5v7x8QrB5vh7QSp7iynTxwTD95zm/i2YNNZZt1a7rX3XaSGGQBqSvRMerubjQZAoGH1qHhkW5NKXD65H27xO2wdHBM3gu3m/mYg1cHXwe3O0QZBsEV0p5H77zwXivJsuyC+7d7bxF2XKMUAAB8i3fWWdwAINHRAnovC3tnNw3ATZ3YWP/+LH/kpcfNgU3zpGy+LLz/7iviz52+K569tiW9e3+ncMtN9Qi8uo6X47ktnxAN3n5/JciDKV+88L45tkFUGgPYkeia7XW95B4BAw2okup7oba6L+++9LB554HLi57p/8osv74rnApl+7iW9bS++fv7atnjh5Z3B91Eu4sRmJMiXTwe3ZwJRDm4vnxH3RN/fduY470oA6JRId7/lHQACDe3Ks/OQpTs+6BZpetP9hNPoBUleuL4tno2E+tqNXXFj+yDY9sPtpv56K7oNvp/0QLa1FJ8/synOnToeCrBeuvz86eg2+P7OC6dCOb4rkOSLZ0/wzgOA3kn0THa7PskQAIGG9iS6VXQtr+45bNt3eGv3MJDp/UiwZ3Ktv9Y/18tmHwXb4SRaPjv2vf76MPrZ8vupmKppOMHumN421sOyiHALvt8IbjfnP0t/H9xqOT4fSfG5U4EwB5Ksv96ktAIARiLSTDIEBBqgB001dfs1vbHQBwBAl0SaSYbQb0h9QRN5JjwBAEBN6ZUL2XW5z8V3dFAFBBo6LNEAAAC1pVeLrnuRXko0Ig0INHRNnhFoAABwILz+s9GINCDQ0CWJBgAAcCK9Ukpv2ei5SAMg0IBAAwDAAEXatURjzoBAQ3fkGYEGAABPEu03Gw2AQMMqJRoAAMCjSLssvUCiAYGG1cszAg0AAN4l2n1ZBwACDatjikIDAEBbIk03DUCgoe+QgQYAgNYlmmw0INCARAMAANQQafeTDAEQaGhJoLFnAABYrUhT1gEINPRIngXZZwAA6IBEU9YBCDT0TaIBAAA6IdJkowGBhj7IMwINAACdkmiy0YBAQw8kGocGAIDuiTSTDAGBho7KM/YMAABdF2mOArhng0MADSUaAACgBxLNkAXuIAMNTeSZaAQAAD0TaQAEGlYv0QAAAL2RaAAEGhBoAAAAAAQaeiTPCDQAAAAg0AAVJRoAAAAAgQawlGcEGgAAABBogIoSDQAAAIBAAyDQAAAAAAg0uJdnyjgAAAAAgQaoKNEAAAAACDSApTxPOQwAAACAQANUk2gAAAAABBoAgQYAAABAoMG9PCPQAAAAgEADVJRoAAAAAAQawFKeEWgAAABAoAEQaAAAAAAEGvxJNAAAAAACDYBAAwAAACDQ4F6eEWgAAABAoAEqSjQAAAAAAg1gKc8INAAAACDQABUlGgAAAACBBkCgAQAAABBocC/PlHEAAAAAAg1QUaIBAAAAEGgAS3lWKDQAAAAg0ADVJBoAAAAAgQawFWgMGgAAABBoAEt5DrZp3Qff2triCAIAQKvcvHmTgwBO2OAQQBOJXl9fO5hMxImqD/zMZz4tjg4PxbHNTY4iAAB4Z3J0JD7/x/+u9sODbZejCAg0NJZnvZ09e+75a9deOlf1wc98/WvhBgAA0AOe/thHP77PYYA5lHBAI4m+cOHCsxwGAAAYOJ/lEAACDc4E+s477vwGhwEAAAbOH3AIAIEGJ/Kst/vvfzUZaAAAGDqf4xAAAg3OJPree+69fvz48Zc5FAAAMFBuIdCAQIMzeZ5vb3v0Hf+cwwEAAAPlYx/76MfpfwcINLgV6He8/Z1fuPOOO6kPAwCAofHJYPsnHAZAoMGLRP/wD33oXxw7dozVUQAAYCjsBdvPfuyjH2fRXUCgwY9AX7x4aes73/wWSjkAAGAo/K1Anr/EYQAEGrzI83x733d/z2fvu+/+3+LQAABAz/nfgu0fcBggD6kUn0xALR4JtvfHZHoh1r/3qd993ad///cePzw8PMdhAgCAHqEnC/71j3304/8zhwIQaPDBG/IEWv/vpZdePPMvf+1ffOTatZfeyKECAIAe8DvB9pOBPP8ZhwIQaPAp0O8zyXP8+3/9G7/+9i8+9cXH9vf3rnDIAACgg+gVdf9RsP39QJ6nHA5AoMG3QH93gUAnvr5+/fqpp57+4tXnn3/2avD11Z3d3UCo1ZpBuu1RuT9WlR5Q67d05jm6O4FVX5+f8vAX6szzc/Zck6HeS+BXDZ+Tn79L1X0m/nLK//sG2kb/7b4WbE8G22f0FkjzCxwWQKChLV5fRaAtvhYO9+Xj67G9Dp4fx5Ln1/zxADBQNjgE0PBKfoyDLLLA8+NY8vyQZgAEGqC2PI9lkEUWeH4cS54fwgwACDQ0YhJs+yscrNoYZFf5mvosM6JHz1V14PWIDp5HfXsvihX+PgAYIdRAAwAAAABUgJUIAQAAAAAQaAAAAAAABBoAAAAAAIEGAAAAAECgAQAAAAAQaAAAAAAAQKABAAAAABBoAAAAAAAEGgAAAAAAgQYAAAAAQKABAAAAABBoAAAAAABAoAEAAAAAEGgAAAAAAAQaAAAAAACBBgAAAABAoAEAAAAAEGgAAAAAAECgAQAAAAAQaAAAAAAABBoAAAAAAIEGAAAAAECgAQAAAAAQaAAAAAAAQKABAAAAABBoAAAAAAAEGgAAAAAAgQYAAAAAQKABAAAAABBoAAAAAABAoAEAAAAAEGgAAAAAAAQaAAAAAACBBgAAAABAoAEAAAAAEGgAAAAAAECgAQAAAAAQaAAAAAAABBoAAAAAAIEGAAAAAECgAQAAAAAQaAAAAAAAQKABAAAAABBoAAAAAAAEGgAAAAAAgQYAAAAAQKABAAAAABBoAAAAAABAoAEAAAAAEGgAAAAAAAQaAAAAAACBBgAAAABAoAEAAAAAEGgAAAAAAECgAQAAAAAQaAAAAAAABBoAAAAAAIEGAAAAAECgAQAAAAAQaAAAAAAAQKABAAAAABBoAAAAAAAEGgAAAAAAgQYAAAAAQKABAAAAABBoAAAAAABAoAEAAAAAEGgAAAAAAAQaAAAAAACBBgAAAABAoAEAAAAAEGgAAAAAAECgAQAAAAAQaAAAAAAABBoAAAAAAIEGAAAAAECgAQAAAAAQaAAAAAAAQKABAAAAABBoAAAAAAAEGgAAAAAAgQYAAAAAQKABAAAAABBoAAAAAABAoAEAAAAAEGgAAAAAAAQaAAAAAACBBgAAAABAoAEAAAAAEGgAAAAAAECgAQAAAAAQaAAAAAAABBoAAAAAAIEGAAAAAECgAQAAAAAQaAAAAAAAQKABAAAAABBoAAAAAAAEGgAAAAAAgQYAAAAAQKABAAAAABBoAAAAAAD4/wEHOOH7P1c4qAAAAABJRU5ErkJggg==;" vertex="1" parent="1">
          <mxGeometry x="61.5" y="360" width="97" height="97" as="geometry" />
        </mxCell>
      </root>
    </mxGraphModel>
  </diagram>
</mxfile>
